G04 #@! TF.GenerationSoftware,KiCad,Pcbnew,9.0.0*
G04 #@! TF.CreationDate,2025-04-23T00:46:07-04:00*
G04 #@! TF.ProjectId,GPS,4750532e-6b69-4636-9164-5f7063625858,rev?*
G04 #@! TF.SameCoordinates,Original*
G04 #@! TF.FileFunction,Legend,Top*
G04 #@! TF.FilePolarity,Positive*
%FSLAX46Y46*%
G04 Gerber Fmt 4.6, Leading zero omitted, Abs format (unit mm)*
G04 Created by KiCad (PCBNEW 9.0.0) date 2025-04-23 00:46:07*
%MOMM*%
%LPD*%
G01*
G04 APERTURE LIST*
G04 Aperture macros list*
%AMRoundRect*
0 Rectangle with rounded corners*
0 $1 Rounding radius*
0 $2 $3 $4 $5 $6 $7 $8 $9 X,Y pos of 4 corners*
0 Add a 4 corners polygon primitive as box body*
4,1,4,$2,$3,$4,$5,$6,$7,$8,$9,$2,$3,0*
0 Add four circle primitives for the rounded corners*
1,1,$1+$1,$2,$3*
1,1,$1+$1,$4,$5*
1,1,$1+$1,$6,$7*
1,1,$1+$1,$8,$9*
0 Add four rect primitives between the rounded corners*
20,1,$1+$1,$2,$3,$4,$5,0*
20,1,$1+$1,$4,$5,$6,$7,0*
20,1,$1+$1,$6,$7,$8,$9,0*
20,1,$1+$1,$8,$9,$2,$3,0*%
G04 Aperture macros list end*
%ADD10C,0.100000*%
%ADD11C,0.150000*%
%ADD12C,0.080000*%
%ADD13C,0.120000*%
%ADD14C,0.152400*%
%ADD15C,0.127000*%
%ADD16C,0.200000*%
%ADD17RoundRect,0.237500X0.250000X0.237500X-0.250000X0.237500X-0.250000X-0.237500X0.250000X-0.237500X0*%
%ADD18RoundRect,0.237500X0.237500X-0.300000X0.237500X0.300000X-0.237500X0.300000X-0.237500X-0.300000X0*%
%ADD19C,1.320800*%
%ADD20R,0.558800X0.952500*%
%ADD21RoundRect,0.250000X-0.450000X0.325000X-0.450000X-0.325000X0.450000X-0.325000X0.450000X0.325000X0*%
%ADD22RoundRect,0.237500X-0.300000X-0.237500X0.300000X-0.237500X0.300000X0.237500X-0.300000X0.237500X0*%
%ADD23C,5.000000*%
%ADD24RoundRect,0.237500X-0.250000X-0.237500X0.250000X-0.237500X0.250000X0.237500X-0.250000X0.237500X0*%
%ADD25RoundRect,0.237500X-0.237500X0.300000X-0.237500X-0.300000X0.237500X-0.300000X0.237500X0.300000X0*%
%ADD26R,3.500000X2.400000*%
%ADD27RoundRect,0.250000X-0.325000X-0.450000X0.325000X-0.450000X0.325000X0.450000X-0.325000X0.450000X0*%
%ADD28RoundRect,0.237500X0.300000X0.237500X-0.300000X0.237500X-0.300000X-0.237500X0.300000X-0.237500X0*%
%ADD29RoundRect,0.375000X-0.625000X-0.375000X0.625000X-0.375000X0.625000X0.375000X-0.625000X0.375000X0*%
%ADD30RoundRect,0.500000X-0.500000X-1.400000X0.500000X-1.400000X0.500000X1.400000X-0.500000X1.400000X0*%
%ADD31C,2.529000*%
%ADD32C,2.829000*%
%ADD33R,1.050000X1.100000*%
%ADD34RoundRect,0.237500X-0.237500X0.250000X-0.237500X-0.250000X0.237500X-0.250000X0.237500X0.250000X0*%
%ADD35R,1.200000X0.449999*%
%ADD36O,2.704000X1.204000*%
%ADD37RoundRect,0.075000X-0.662500X-0.075000X0.662500X-0.075000X0.662500X0.075000X-0.662500X0.075000X0*%
%ADD38RoundRect,0.075000X-0.075000X-0.662500X0.075000X-0.662500X0.075000X0.662500X-0.075000X0.662500X0*%
%ADD39C,1.270000*%
%ADD40RoundRect,0.237500X0.237500X-0.250000X0.237500X0.250000X-0.237500X0.250000X-0.237500X-0.250000X0*%
G04 APERTURE END LIST*
D10*
X153266667Y-62564895D02*
X153000000Y-62183942D01*
X152809524Y-62564895D02*
X152809524Y-61764895D01*
X152809524Y-61764895D02*
X153114286Y-61764895D01*
X153114286Y-61764895D02*
X153190476Y-61802990D01*
X153190476Y-61802990D02*
X153228571Y-61841085D01*
X153228571Y-61841085D02*
X153266667Y-61917276D01*
X153266667Y-61917276D02*
X153266667Y-62031561D01*
X153266667Y-62031561D02*
X153228571Y-62107752D01*
X153228571Y-62107752D02*
X153190476Y-62145847D01*
X153190476Y-62145847D02*
X153114286Y-62183942D01*
X153114286Y-62183942D02*
X152809524Y-62183942D01*
X153533333Y-61764895D02*
X154066667Y-61764895D01*
X154066667Y-61764895D02*
X153723809Y-62564895D01*
D11*
X163759580Y-56566666D02*
X163807200Y-56614285D01*
X163807200Y-56614285D02*
X163854819Y-56757142D01*
X163854819Y-56757142D02*
X163854819Y-56852380D01*
X163854819Y-56852380D02*
X163807200Y-56995237D01*
X163807200Y-56995237D02*
X163711961Y-57090475D01*
X163711961Y-57090475D02*
X163616723Y-57138094D01*
X163616723Y-57138094D02*
X163426247Y-57185713D01*
X163426247Y-57185713D02*
X163283390Y-57185713D01*
X163283390Y-57185713D02*
X163092914Y-57138094D01*
X163092914Y-57138094D02*
X162997676Y-57090475D01*
X162997676Y-57090475D02*
X162902438Y-56995237D01*
X162902438Y-56995237D02*
X162854819Y-56852380D01*
X162854819Y-56852380D02*
X162854819Y-56757142D01*
X162854819Y-56757142D02*
X162902438Y-56614285D01*
X162902438Y-56614285D02*
X162950057Y-56566666D01*
X163854819Y-55614285D02*
X163854819Y-56185713D01*
X163854819Y-55899999D02*
X162854819Y-55899999D01*
X162854819Y-55899999D02*
X162997676Y-55995237D01*
X162997676Y-55995237D02*
X163092914Y-56090475D01*
X163092914Y-56090475D02*
X163140533Y-56185713D01*
X149929580Y-58666666D02*
X149977200Y-58714285D01*
X149977200Y-58714285D02*
X150024819Y-58857142D01*
X150024819Y-58857142D02*
X150024819Y-58952380D01*
X150024819Y-58952380D02*
X149977200Y-59095237D01*
X149977200Y-59095237D02*
X149881961Y-59190475D01*
X149881961Y-59190475D02*
X149786723Y-59238094D01*
X149786723Y-59238094D02*
X149596247Y-59285713D01*
X149596247Y-59285713D02*
X149453390Y-59285713D01*
X149453390Y-59285713D02*
X149262914Y-59238094D01*
X149262914Y-59238094D02*
X149167676Y-59190475D01*
X149167676Y-59190475D02*
X149072438Y-59095237D01*
X149072438Y-59095237D02*
X149024819Y-58952380D01*
X149024819Y-58952380D02*
X149024819Y-58857142D01*
X149024819Y-58857142D02*
X149072438Y-58714285D01*
X149072438Y-58714285D02*
X149120057Y-58666666D01*
X149120057Y-58285713D02*
X149072438Y-58238094D01*
X149072438Y-58238094D02*
X149024819Y-58142856D01*
X149024819Y-58142856D02*
X149024819Y-57904761D01*
X149024819Y-57904761D02*
X149072438Y-57809523D01*
X149072438Y-57809523D02*
X149120057Y-57761904D01*
X149120057Y-57761904D02*
X149215295Y-57714285D01*
X149215295Y-57714285D02*
X149310533Y-57714285D01*
X149310533Y-57714285D02*
X149453390Y-57761904D01*
X149453390Y-57761904D02*
X150024819Y-58333332D01*
X150024819Y-58333332D02*
X150024819Y-57714285D01*
X146859580Y-62966666D02*
X146907200Y-63014285D01*
X146907200Y-63014285D02*
X146954819Y-63157142D01*
X146954819Y-63157142D02*
X146954819Y-63252380D01*
X146954819Y-63252380D02*
X146907200Y-63395237D01*
X146907200Y-63395237D02*
X146811961Y-63490475D01*
X146811961Y-63490475D02*
X146716723Y-63538094D01*
X146716723Y-63538094D02*
X146526247Y-63585713D01*
X146526247Y-63585713D02*
X146383390Y-63585713D01*
X146383390Y-63585713D02*
X146192914Y-63538094D01*
X146192914Y-63538094D02*
X146097676Y-63490475D01*
X146097676Y-63490475D02*
X146002438Y-63395237D01*
X146002438Y-63395237D02*
X145954819Y-63252380D01*
X145954819Y-63252380D02*
X145954819Y-63157142D01*
X145954819Y-63157142D02*
X146002438Y-63014285D01*
X146002438Y-63014285D02*
X146050057Y-62966666D01*
X145954819Y-62109523D02*
X145954819Y-62299999D01*
X145954819Y-62299999D02*
X146002438Y-62395237D01*
X146002438Y-62395237D02*
X146050057Y-62442856D01*
X146050057Y-62442856D02*
X146192914Y-62538094D01*
X146192914Y-62538094D02*
X146383390Y-62585713D01*
X146383390Y-62585713D02*
X146764342Y-62585713D01*
X146764342Y-62585713D02*
X146859580Y-62538094D01*
X146859580Y-62538094D02*
X146907200Y-62490475D01*
X146907200Y-62490475D02*
X146954819Y-62395237D01*
X146954819Y-62395237D02*
X146954819Y-62204761D01*
X146954819Y-62204761D02*
X146907200Y-62109523D01*
X146907200Y-62109523D02*
X146859580Y-62061904D01*
X146859580Y-62061904D02*
X146764342Y-62014285D01*
X146764342Y-62014285D02*
X146526247Y-62014285D01*
X146526247Y-62014285D02*
X146431009Y-62061904D01*
X146431009Y-62061904D02*
X146383390Y-62109523D01*
X146383390Y-62109523D02*
X146335771Y-62204761D01*
X146335771Y-62204761D02*
X146335771Y-62395237D01*
X146335771Y-62395237D02*
X146383390Y-62490475D01*
X146383390Y-62490475D02*
X146431009Y-62538094D01*
X146431009Y-62538094D02*
X146526247Y-62585713D01*
X176416666Y-66059719D02*
X176416666Y-66774004D01*
X176416666Y-66774004D02*
X176369047Y-66916861D01*
X176369047Y-66916861D02*
X176273809Y-67012100D01*
X176273809Y-67012100D02*
X176130952Y-67059719D01*
X176130952Y-67059719D02*
X176035714Y-67059719D01*
X176797619Y-66059719D02*
X177416666Y-66059719D01*
X177416666Y-66059719D02*
X177083333Y-66440671D01*
X177083333Y-66440671D02*
X177226190Y-66440671D01*
X177226190Y-66440671D02*
X177321428Y-66488290D01*
X177321428Y-66488290D02*
X177369047Y-66535909D01*
X177369047Y-66535909D02*
X177416666Y-66631147D01*
X177416666Y-66631147D02*
X177416666Y-66869242D01*
X177416666Y-66869242D02*
X177369047Y-66964480D01*
X177369047Y-66964480D02*
X177321428Y-67012100D01*
X177321428Y-67012100D02*
X177226190Y-67059719D01*
X177226190Y-67059719D02*
X176940476Y-67059719D01*
X176940476Y-67059719D02*
X176845238Y-67012100D01*
X176845238Y-67012100D02*
X176797619Y-66964480D01*
X142338600Y-64585317D02*
X142290980Y-64728174D01*
X142290980Y-64728174D02*
X142290980Y-64966269D01*
X142290980Y-64966269D02*
X142338600Y-65061507D01*
X142338600Y-65061507D02*
X142386219Y-65109126D01*
X142386219Y-65109126D02*
X142481457Y-65156745D01*
X142481457Y-65156745D02*
X142576695Y-65156745D01*
X142576695Y-65156745D02*
X142671933Y-65109126D01*
X142671933Y-65109126D02*
X142719552Y-65061507D01*
X142719552Y-65061507D02*
X142767171Y-64966269D01*
X142767171Y-64966269D02*
X142814790Y-64775793D01*
X142814790Y-64775793D02*
X142862409Y-64680555D01*
X142862409Y-64680555D02*
X142910028Y-64632936D01*
X142910028Y-64632936D02*
X143005266Y-64585317D01*
X143005266Y-64585317D02*
X143100504Y-64585317D01*
X143100504Y-64585317D02*
X143195742Y-64632936D01*
X143195742Y-64632936D02*
X143243361Y-64680555D01*
X143243361Y-64680555D02*
X143290980Y-64775793D01*
X143290980Y-64775793D02*
X143290980Y-65013888D01*
X143290980Y-65013888D02*
X143243361Y-65156745D01*
X143290980Y-65490079D02*
X142290980Y-65728174D01*
X142290980Y-65728174D02*
X143005266Y-65918650D01*
X143005266Y-65918650D02*
X142290980Y-66109126D01*
X142290980Y-66109126D02*
X143290980Y-66347222D01*
X142290980Y-67251983D02*
X142290980Y-66680555D01*
X142290980Y-66966269D02*
X143290980Y-66966269D01*
X143290980Y-66966269D02*
X143148123Y-66871031D01*
X143148123Y-66871031D02*
X143052885Y-66775793D01*
X143052885Y-66775793D02*
X143005266Y-66680555D01*
X142588233Y-58345180D02*
X142588233Y-57630895D01*
X142588233Y-57630895D02*
X142635852Y-57488038D01*
X142635852Y-57488038D02*
X142731090Y-57392800D01*
X142731090Y-57392800D02*
X142873947Y-57345180D01*
X142873947Y-57345180D02*
X142969185Y-57345180D01*
X141588233Y-57345180D02*
X142159661Y-57345180D01*
X141873947Y-57345180D02*
X141873947Y-58345180D01*
X141873947Y-58345180D02*
X141969185Y-58202323D01*
X141969185Y-58202323D02*
X142064423Y-58107085D01*
X142064423Y-58107085D02*
X142159661Y-58059466D01*
D10*
X159164895Y-65590475D02*
X158364895Y-65590475D01*
X158364895Y-65590475D02*
X158364895Y-65399999D01*
X158364895Y-65399999D02*
X158402990Y-65285713D01*
X158402990Y-65285713D02*
X158479180Y-65209523D01*
X158479180Y-65209523D02*
X158555371Y-65171428D01*
X158555371Y-65171428D02*
X158707752Y-65133332D01*
X158707752Y-65133332D02*
X158822038Y-65133332D01*
X158822038Y-65133332D02*
X158974419Y-65171428D01*
X158974419Y-65171428D02*
X159050609Y-65209523D01*
X159050609Y-65209523D02*
X159126800Y-65285713D01*
X159126800Y-65285713D02*
X159164895Y-65399999D01*
X159164895Y-65399999D02*
X159164895Y-65590475D01*
X158441085Y-64828571D02*
X158402990Y-64790475D01*
X158402990Y-64790475D02*
X158364895Y-64714285D01*
X158364895Y-64714285D02*
X158364895Y-64523809D01*
X158364895Y-64523809D02*
X158402990Y-64447618D01*
X158402990Y-64447618D02*
X158441085Y-64409523D01*
X158441085Y-64409523D02*
X158517276Y-64371428D01*
X158517276Y-64371428D02*
X158593466Y-64371428D01*
X158593466Y-64371428D02*
X158707752Y-64409523D01*
X158707752Y-64409523D02*
X159164895Y-64866666D01*
X159164895Y-64866666D02*
X159164895Y-64371428D01*
D11*
X161033333Y-65729580D02*
X160985714Y-65777200D01*
X160985714Y-65777200D02*
X160842857Y-65824819D01*
X160842857Y-65824819D02*
X160747619Y-65824819D01*
X160747619Y-65824819D02*
X160604762Y-65777200D01*
X160604762Y-65777200D02*
X160509524Y-65681961D01*
X160509524Y-65681961D02*
X160461905Y-65586723D01*
X160461905Y-65586723D02*
X160414286Y-65396247D01*
X160414286Y-65396247D02*
X160414286Y-65253390D01*
X160414286Y-65253390D02*
X160461905Y-65062914D01*
X160461905Y-65062914D02*
X160509524Y-64967676D01*
X160509524Y-64967676D02*
X160604762Y-64872438D01*
X160604762Y-64872438D02*
X160747619Y-64824819D01*
X160747619Y-64824819D02*
X160842857Y-64824819D01*
X160842857Y-64824819D02*
X160985714Y-64872438D01*
X160985714Y-64872438D02*
X161033333Y-64920057D01*
X161366667Y-64824819D02*
X161985714Y-64824819D01*
X161985714Y-64824819D02*
X161652381Y-65205771D01*
X161652381Y-65205771D02*
X161795238Y-65205771D01*
X161795238Y-65205771D02*
X161890476Y-65253390D01*
X161890476Y-65253390D02*
X161938095Y-65301009D01*
X161938095Y-65301009D02*
X161985714Y-65396247D01*
X161985714Y-65396247D02*
X161985714Y-65634342D01*
X161985714Y-65634342D02*
X161938095Y-65729580D01*
X161938095Y-65729580D02*
X161890476Y-65777200D01*
X161890476Y-65777200D02*
X161795238Y-65824819D01*
X161795238Y-65824819D02*
X161509524Y-65824819D01*
X161509524Y-65824819D02*
X161414286Y-65777200D01*
X161414286Y-65777200D02*
X161366667Y-65729580D01*
D10*
X180488095Y-54957419D02*
X180488095Y-53957419D01*
X180488095Y-54433609D02*
X181059523Y-54433609D01*
X181059523Y-54957419D02*
X181059523Y-53957419D01*
X182059523Y-54957419D02*
X181488095Y-54957419D01*
X181773809Y-54957419D02*
X181773809Y-53957419D01*
X181773809Y-53957419D02*
X181678571Y-54100276D01*
X181678571Y-54100276D02*
X181583333Y-54195514D01*
X181583333Y-54195514D02*
X181488095Y-54243133D01*
D11*
X177277319Y-69886666D02*
X176801128Y-70219999D01*
X177277319Y-70458094D02*
X176277319Y-70458094D01*
X176277319Y-70458094D02*
X176277319Y-70077142D01*
X176277319Y-70077142D02*
X176324938Y-69981904D01*
X176324938Y-69981904D02*
X176372557Y-69934285D01*
X176372557Y-69934285D02*
X176467795Y-69886666D01*
X176467795Y-69886666D02*
X176610652Y-69886666D01*
X176610652Y-69886666D02*
X176705890Y-69934285D01*
X176705890Y-69934285D02*
X176753509Y-69981904D01*
X176753509Y-69981904D02*
X176801128Y-70077142D01*
X176801128Y-70077142D02*
X176801128Y-70458094D01*
X176705890Y-69315237D02*
X176658271Y-69410475D01*
X176658271Y-69410475D02*
X176610652Y-69458094D01*
X176610652Y-69458094D02*
X176515414Y-69505713D01*
X176515414Y-69505713D02*
X176467795Y-69505713D01*
X176467795Y-69505713D02*
X176372557Y-69458094D01*
X176372557Y-69458094D02*
X176324938Y-69410475D01*
X176324938Y-69410475D02*
X176277319Y-69315237D01*
X176277319Y-69315237D02*
X176277319Y-69124761D01*
X176277319Y-69124761D02*
X176324938Y-69029523D01*
X176324938Y-69029523D02*
X176372557Y-68981904D01*
X176372557Y-68981904D02*
X176467795Y-68934285D01*
X176467795Y-68934285D02*
X176515414Y-68934285D01*
X176515414Y-68934285D02*
X176610652Y-68981904D01*
X176610652Y-68981904D02*
X176658271Y-69029523D01*
X176658271Y-69029523D02*
X176705890Y-69124761D01*
X176705890Y-69124761D02*
X176705890Y-69315237D01*
X176705890Y-69315237D02*
X176753509Y-69410475D01*
X176753509Y-69410475D02*
X176801128Y-69458094D01*
X176801128Y-69458094D02*
X176896366Y-69505713D01*
X176896366Y-69505713D02*
X177086842Y-69505713D01*
X177086842Y-69505713D02*
X177182080Y-69458094D01*
X177182080Y-69458094D02*
X177229700Y-69410475D01*
X177229700Y-69410475D02*
X177277319Y-69315237D01*
X177277319Y-69315237D02*
X177277319Y-69124761D01*
X177277319Y-69124761D02*
X177229700Y-69029523D01*
X177229700Y-69029523D02*
X177182080Y-68981904D01*
X177182080Y-68981904D02*
X177086842Y-68934285D01*
X177086842Y-68934285D02*
X176896366Y-68934285D01*
X176896366Y-68934285D02*
X176801128Y-68981904D01*
X176801128Y-68981904D02*
X176753509Y-69029523D01*
X176753509Y-69029523D02*
X176705890Y-69124761D01*
D10*
X149888704Y-73114285D02*
X149926800Y-73152381D01*
X149926800Y-73152381D02*
X149964895Y-73266666D01*
X149964895Y-73266666D02*
X149964895Y-73342857D01*
X149964895Y-73342857D02*
X149926800Y-73457143D01*
X149926800Y-73457143D02*
X149850609Y-73533333D01*
X149850609Y-73533333D02*
X149774419Y-73571428D01*
X149774419Y-73571428D02*
X149622038Y-73609524D01*
X149622038Y-73609524D02*
X149507752Y-73609524D01*
X149507752Y-73609524D02*
X149355371Y-73571428D01*
X149355371Y-73571428D02*
X149279180Y-73533333D01*
X149279180Y-73533333D02*
X149202990Y-73457143D01*
X149202990Y-73457143D02*
X149164895Y-73342857D01*
X149164895Y-73342857D02*
X149164895Y-73266666D01*
X149164895Y-73266666D02*
X149202990Y-73152381D01*
X149202990Y-73152381D02*
X149241085Y-73114285D01*
X149964895Y-72352381D02*
X149964895Y-72809524D01*
X149964895Y-72580952D02*
X149164895Y-72580952D01*
X149164895Y-72580952D02*
X149279180Y-72657143D01*
X149279180Y-72657143D02*
X149355371Y-72733333D01*
X149355371Y-72733333D02*
X149393466Y-72809524D01*
X149964895Y-71590476D02*
X149964895Y-72047619D01*
X149964895Y-71819047D02*
X149164895Y-71819047D01*
X149164895Y-71819047D02*
X149279180Y-71895238D01*
X149279180Y-71895238D02*
X149355371Y-71971428D01*
X149355371Y-71971428D02*
X149393466Y-72047619D01*
D11*
X146923809Y-66778628D02*
X146923809Y-67254819D01*
X146590476Y-66254819D02*
X146923809Y-66778628D01*
X146923809Y-66778628D02*
X147257142Y-66254819D01*
X148114285Y-67254819D02*
X147542857Y-67254819D01*
X147828571Y-67254819D02*
X147828571Y-66254819D01*
X147828571Y-66254819D02*
X147733333Y-66397676D01*
X147733333Y-66397676D02*
X147638095Y-66492914D01*
X147638095Y-66492914D02*
X147542857Y-66540533D01*
X161061905Y-62054819D02*
X161061905Y-61054819D01*
X161061905Y-61054819D02*
X161300000Y-61054819D01*
X161300000Y-61054819D02*
X161442857Y-61102438D01*
X161442857Y-61102438D02*
X161538095Y-61197676D01*
X161538095Y-61197676D02*
X161585714Y-61292914D01*
X161585714Y-61292914D02*
X161633333Y-61483390D01*
X161633333Y-61483390D02*
X161633333Y-61626247D01*
X161633333Y-61626247D02*
X161585714Y-61816723D01*
X161585714Y-61816723D02*
X161538095Y-61911961D01*
X161538095Y-61911961D02*
X161442857Y-62007200D01*
X161442857Y-62007200D02*
X161300000Y-62054819D01*
X161300000Y-62054819D02*
X161061905Y-62054819D01*
X162585714Y-62054819D02*
X162014286Y-62054819D01*
X162300000Y-62054819D02*
X162300000Y-61054819D01*
X162300000Y-61054819D02*
X162204762Y-61197676D01*
X162204762Y-61197676D02*
X162109524Y-61292914D01*
X162109524Y-61292914D02*
X162014286Y-61340533D01*
X170494642Y-77789580D02*
X170447023Y-77837200D01*
X170447023Y-77837200D02*
X170304166Y-77884819D01*
X170304166Y-77884819D02*
X170208928Y-77884819D01*
X170208928Y-77884819D02*
X170066071Y-77837200D01*
X170066071Y-77837200D02*
X169970833Y-77741961D01*
X169970833Y-77741961D02*
X169923214Y-77646723D01*
X169923214Y-77646723D02*
X169875595Y-77456247D01*
X169875595Y-77456247D02*
X169875595Y-77313390D01*
X169875595Y-77313390D02*
X169923214Y-77122914D01*
X169923214Y-77122914D02*
X169970833Y-77027676D01*
X169970833Y-77027676D02*
X170066071Y-76932438D01*
X170066071Y-76932438D02*
X170208928Y-76884819D01*
X170208928Y-76884819D02*
X170304166Y-76884819D01*
X170304166Y-76884819D02*
X170447023Y-76932438D01*
X170447023Y-76932438D02*
X170494642Y-76980057D01*
X171447023Y-77884819D02*
X170875595Y-77884819D01*
X171161309Y-77884819D02*
X171161309Y-76884819D01*
X171161309Y-76884819D02*
X171066071Y-77027676D01*
X171066071Y-77027676D02*
X170970833Y-77122914D01*
X170970833Y-77122914D02*
X170875595Y-77170533D01*
X172304166Y-77218152D02*
X172304166Y-77884819D01*
X172066071Y-76837200D02*
X171827976Y-77551485D01*
X171827976Y-77551485D02*
X172447023Y-77551485D01*
D10*
X145466667Y-73164895D02*
X145200000Y-72783942D01*
X145009524Y-73164895D02*
X145009524Y-72364895D01*
X145009524Y-72364895D02*
X145314286Y-72364895D01*
X145314286Y-72364895D02*
X145390476Y-72402990D01*
X145390476Y-72402990D02*
X145428571Y-72441085D01*
X145428571Y-72441085D02*
X145466667Y-72517276D01*
X145466667Y-72517276D02*
X145466667Y-72631561D01*
X145466667Y-72631561D02*
X145428571Y-72707752D01*
X145428571Y-72707752D02*
X145390476Y-72745847D01*
X145390476Y-72745847D02*
X145314286Y-72783942D01*
X145314286Y-72783942D02*
X145009524Y-72783942D01*
X146228571Y-73164895D02*
X145771428Y-73164895D01*
X146000000Y-73164895D02*
X146000000Y-72364895D01*
X146000000Y-72364895D02*
X145923809Y-72479180D01*
X145923809Y-72479180D02*
X145847619Y-72555371D01*
X145847619Y-72555371D02*
X145771428Y-72593466D01*
X180488095Y-92957419D02*
X180488095Y-91957419D01*
X180488095Y-92433609D02*
X181059523Y-92433609D01*
X181059523Y-92957419D02*
X181059523Y-91957419D01*
X181488095Y-92052657D02*
X181535714Y-92005038D01*
X181535714Y-92005038D02*
X181630952Y-91957419D01*
X181630952Y-91957419D02*
X181869047Y-91957419D01*
X181869047Y-91957419D02*
X181964285Y-92005038D01*
X181964285Y-92005038D02*
X182011904Y-92052657D01*
X182011904Y-92052657D02*
X182059523Y-92147895D01*
X182059523Y-92147895D02*
X182059523Y-92243133D01*
X182059523Y-92243133D02*
X182011904Y-92385990D01*
X182011904Y-92385990D02*
X181440476Y-92957419D01*
X181440476Y-92957419D02*
X182059523Y-92957419D01*
D11*
X155738095Y-53454819D02*
X155738095Y-54264342D01*
X155738095Y-54264342D02*
X155785714Y-54359580D01*
X155785714Y-54359580D02*
X155833333Y-54407200D01*
X155833333Y-54407200D02*
X155928571Y-54454819D01*
X155928571Y-54454819D02*
X156119047Y-54454819D01*
X156119047Y-54454819D02*
X156214285Y-54407200D01*
X156214285Y-54407200D02*
X156261904Y-54359580D01*
X156261904Y-54359580D02*
X156309523Y-54264342D01*
X156309523Y-54264342D02*
X156309523Y-53454819D01*
X157309523Y-54454819D02*
X156738095Y-54454819D01*
X157023809Y-54454819D02*
X157023809Y-53454819D01*
X157023809Y-53454819D02*
X156928571Y-53597676D01*
X156928571Y-53597676D02*
X156833333Y-53692914D01*
X156833333Y-53692914D02*
X156738095Y-53740533D01*
X167841666Y-81279819D02*
X167841666Y-81994104D01*
X167841666Y-81994104D02*
X167794047Y-82136961D01*
X167794047Y-82136961D02*
X167698809Y-82232200D01*
X167698809Y-82232200D02*
X167555952Y-82279819D01*
X167555952Y-82279819D02*
X167460714Y-82279819D01*
X168746428Y-81613152D02*
X168746428Y-82279819D01*
X168508333Y-81232200D02*
X168270238Y-81946485D01*
X168270238Y-81946485D02*
X168889285Y-81946485D01*
D10*
X155488704Y-75133332D02*
X155526800Y-75171428D01*
X155526800Y-75171428D02*
X155564895Y-75285713D01*
X155564895Y-75285713D02*
X155564895Y-75361904D01*
X155564895Y-75361904D02*
X155526800Y-75476190D01*
X155526800Y-75476190D02*
X155450609Y-75552380D01*
X155450609Y-75552380D02*
X155374419Y-75590475D01*
X155374419Y-75590475D02*
X155222038Y-75628571D01*
X155222038Y-75628571D02*
X155107752Y-75628571D01*
X155107752Y-75628571D02*
X154955371Y-75590475D01*
X154955371Y-75590475D02*
X154879180Y-75552380D01*
X154879180Y-75552380D02*
X154802990Y-75476190D01*
X154802990Y-75476190D02*
X154764895Y-75361904D01*
X154764895Y-75361904D02*
X154764895Y-75285713D01*
X154764895Y-75285713D02*
X154802990Y-75171428D01*
X154802990Y-75171428D02*
X154841085Y-75133332D01*
X154764895Y-74866666D02*
X154764895Y-74333332D01*
X154764895Y-74333332D02*
X155564895Y-74676190D01*
D11*
X170759580Y-71666666D02*
X170807200Y-71714285D01*
X170807200Y-71714285D02*
X170854819Y-71857142D01*
X170854819Y-71857142D02*
X170854819Y-71952380D01*
X170854819Y-71952380D02*
X170807200Y-72095237D01*
X170807200Y-72095237D02*
X170711961Y-72190475D01*
X170711961Y-72190475D02*
X170616723Y-72238094D01*
X170616723Y-72238094D02*
X170426247Y-72285713D01*
X170426247Y-72285713D02*
X170283390Y-72285713D01*
X170283390Y-72285713D02*
X170092914Y-72238094D01*
X170092914Y-72238094D02*
X169997676Y-72190475D01*
X169997676Y-72190475D02*
X169902438Y-72095237D01*
X169902438Y-72095237D02*
X169854819Y-71952380D01*
X169854819Y-71952380D02*
X169854819Y-71857142D01*
X169854819Y-71857142D02*
X169902438Y-71714285D01*
X169902438Y-71714285D02*
X169950057Y-71666666D01*
X170188152Y-70809523D02*
X170854819Y-70809523D01*
X169807200Y-71047618D02*
X170521485Y-71285713D01*
X170521485Y-71285713D02*
X170521485Y-70666666D01*
X152923809Y-66578628D02*
X152923809Y-67054819D01*
X152590476Y-66054819D02*
X152923809Y-66578628D01*
X152923809Y-66578628D02*
X153257142Y-66054819D01*
X153542857Y-66150057D02*
X153590476Y-66102438D01*
X153590476Y-66102438D02*
X153685714Y-66054819D01*
X153685714Y-66054819D02*
X153923809Y-66054819D01*
X153923809Y-66054819D02*
X154019047Y-66102438D01*
X154019047Y-66102438D02*
X154066666Y-66150057D01*
X154066666Y-66150057D02*
X154114285Y-66245295D01*
X154114285Y-66245295D02*
X154114285Y-66340533D01*
X154114285Y-66340533D02*
X154066666Y-66483390D01*
X154066666Y-66483390D02*
X153495238Y-67054819D01*
X153495238Y-67054819D02*
X154114285Y-67054819D01*
X152433333Y-74254819D02*
X152100000Y-73778628D01*
X151861905Y-74254819D02*
X151861905Y-73254819D01*
X151861905Y-73254819D02*
X152242857Y-73254819D01*
X152242857Y-73254819D02*
X152338095Y-73302438D01*
X152338095Y-73302438D02*
X152385714Y-73350057D01*
X152385714Y-73350057D02*
X152433333Y-73445295D01*
X152433333Y-73445295D02*
X152433333Y-73588152D01*
X152433333Y-73588152D02*
X152385714Y-73683390D01*
X152385714Y-73683390D02*
X152338095Y-73731009D01*
X152338095Y-73731009D02*
X152242857Y-73778628D01*
X152242857Y-73778628D02*
X151861905Y-73778628D01*
X152814286Y-73350057D02*
X152861905Y-73302438D01*
X152861905Y-73302438D02*
X152957143Y-73254819D01*
X152957143Y-73254819D02*
X153195238Y-73254819D01*
X153195238Y-73254819D02*
X153290476Y-73302438D01*
X153290476Y-73302438D02*
X153338095Y-73350057D01*
X153338095Y-73350057D02*
X153385714Y-73445295D01*
X153385714Y-73445295D02*
X153385714Y-73540533D01*
X153385714Y-73540533D02*
X153338095Y-73683390D01*
X153338095Y-73683390D02*
X152766667Y-74254819D01*
X152766667Y-74254819D02*
X153385714Y-74254819D01*
D10*
X150485714Y-62288704D02*
X150447618Y-62326800D01*
X150447618Y-62326800D02*
X150333333Y-62364895D01*
X150333333Y-62364895D02*
X150257142Y-62364895D01*
X150257142Y-62364895D02*
X150142856Y-62326800D01*
X150142856Y-62326800D02*
X150066666Y-62250609D01*
X150066666Y-62250609D02*
X150028571Y-62174419D01*
X150028571Y-62174419D02*
X149990475Y-62022038D01*
X149990475Y-62022038D02*
X149990475Y-61907752D01*
X149990475Y-61907752D02*
X150028571Y-61755371D01*
X150028571Y-61755371D02*
X150066666Y-61679180D01*
X150066666Y-61679180D02*
X150142856Y-61602990D01*
X150142856Y-61602990D02*
X150257142Y-61564895D01*
X150257142Y-61564895D02*
X150333333Y-61564895D01*
X150333333Y-61564895D02*
X150447618Y-61602990D01*
X150447618Y-61602990D02*
X150485714Y-61641085D01*
X151247618Y-62364895D02*
X150790475Y-62364895D01*
X151019047Y-62364895D02*
X151019047Y-61564895D01*
X151019047Y-61564895D02*
X150942856Y-61679180D01*
X150942856Y-61679180D02*
X150866666Y-61755371D01*
X150866666Y-61755371D02*
X150790475Y-61793466D01*
X151514285Y-61564895D02*
X152009523Y-61564895D01*
X152009523Y-61564895D02*
X151742857Y-61869657D01*
X151742857Y-61869657D02*
X151857142Y-61869657D01*
X151857142Y-61869657D02*
X151933333Y-61907752D01*
X151933333Y-61907752D02*
X151971428Y-61945847D01*
X151971428Y-61945847D02*
X152009523Y-62022038D01*
X152009523Y-62022038D02*
X152009523Y-62212514D01*
X152009523Y-62212514D02*
X151971428Y-62288704D01*
X151971428Y-62288704D02*
X151933333Y-62326800D01*
X151933333Y-62326800D02*
X151857142Y-62364895D01*
X151857142Y-62364895D02*
X151628571Y-62364895D01*
X151628571Y-62364895D02*
X151552380Y-62326800D01*
X151552380Y-62326800D02*
X151514285Y-62288704D01*
D11*
X162254819Y-79966666D02*
X161778628Y-80299999D01*
X162254819Y-80538094D02*
X161254819Y-80538094D01*
X161254819Y-80538094D02*
X161254819Y-80157142D01*
X161254819Y-80157142D02*
X161302438Y-80061904D01*
X161302438Y-80061904D02*
X161350057Y-80014285D01*
X161350057Y-80014285D02*
X161445295Y-79966666D01*
X161445295Y-79966666D02*
X161588152Y-79966666D01*
X161588152Y-79966666D02*
X161683390Y-80014285D01*
X161683390Y-80014285D02*
X161731009Y-80061904D01*
X161731009Y-80061904D02*
X161778628Y-80157142D01*
X161778628Y-80157142D02*
X161778628Y-80538094D01*
X161254819Y-79061904D02*
X161254819Y-79538094D01*
X161254819Y-79538094D02*
X161731009Y-79585713D01*
X161731009Y-79585713D02*
X161683390Y-79538094D01*
X161683390Y-79538094D02*
X161635771Y-79442856D01*
X161635771Y-79442856D02*
X161635771Y-79204761D01*
X161635771Y-79204761D02*
X161683390Y-79109523D01*
X161683390Y-79109523D02*
X161731009Y-79061904D01*
X161731009Y-79061904D02*
X161826247Y-79014285D01*
X161826247Y-79014285D02*
X162064342Y-79014285D01*
X162064342Y-79014285D02*
X162159580Y-79061904D01*
X162159580Y-79061904D02*
X162207200Y-79109523D01*
X162207200Y-79109523D02*
X162254819Y-79204761D01*
X162254819Y-79204761D02*
X162254819Y-79442856D01*
X162254819Y-79442856D02*
X162207200Y-79538094D01*
X162207200Y-79538094D02*
X162159580Y-79585713D01*
X149957142Y-66789580D02*
X149909523Y-66837200D01*
X149909523Y-66837200D02*
X149766666Y-66884819D01*
X149766666Y-66884819D02*
X149671428Y-66884819D01*
X149671428Y-66884819D02*
X149528571Y-66837200D01*
X149528571Y-66837200D02*
X149433333Y-66741961D01*
X149433333Y-66741961D02*
X149385714Y-66646723D01*
X149385714Y-66646723D02*
X149338095Y-66456247D01*
X149338095Y-66456247D02*
X149338095Y-66313390D01*
X149338095Y-66313390D02*
X149385714Y-66122914D01*
X149385714Y-66122914D02*
X149433333Y-66027676D01*
X149433333Y-66027676D02*
X149528571Y-65932438D01*
X149528571Y-65932438D02*
X149671428Y-65884819D01*
X149671428Y-65884819D02*
X149766666Y-65884819D01*
X149766666Y-65884819D02*
X149909523Y-65932438D01*
X149909523Y-65932438D02*
X149957142Y-65980057D01*
X150909523Y-66884819D02*
X150338095Y-66884819D01*
X150623809Y-66884819D02*
X150623809Y-65884819D01*
X150623809Y-65884819D02*
X150528571Y-66027676D01*
X150528571Y-66027676D02*
X150433333Y-66122914D01*
X150433333Y-66122914D02*
X150338095Y-66170533D01*
X151290476Y-65980057D02*
X151338095Y-65932438D01*
X151338095Y-65932438D02*
X151433333Y-65884819D01*
X151433333Y-65884819D02*
X151671428Y-65884819D01*
X151671428Y-65884819D02*
X151766666Y-65932438D01*
X151766666Y-65932438D02*
X151814285Y-65980057D01*
X151814285Y-65980057D02*
X151861904Y-66075295D01*
X151861904Y-66075295D02*
X151861904Y-66170533D01*
X151861904Y-66170533D02*
X151814285Y-66313390D01*
X151814285Y-66313390D02*
X151242857Y-66884819D01*
X151242857Y-66884819D02*
X151861904Y-66884819D01*
D10*
X133738095Y-54957419D02*
X133738095Y-53957419D01*
X133738095Y-54433609D02*
X134309523Y-54433609D01*
X134309523Y-54957419D02*
X134309523Y-53957419D01*
X134690476Y-53957419D02*
X135309523Y-53957419D01*
X135309523Y-53957419D02*
X134976190Y-54338371D01*
X134976190Y-54338371D02*
X135119047Y-54338371D01*
X135119047Y-54338371D02*
X135214285Y-54385990D01*
X135214285Y-54385990D02*
X135261904Y-54433609D01*
X135261904Y-54433609D02*
X135309523Y-54528847D01*
X135309523Y-54528847D02*
X135309523Y-54766942D01*
X135309523Y-54766942D02*
X135261904Y-54862180D01*
X135261904Y-54862180D02*
X135214285Y-54909800D01*
X135214285Y-54909800D02*
X135119047Y-54957419D01*
X135119047Y-54957419D02*
X134833333Y-54957419D01*
X134833333Y-54957419D02*
X134738095Y-54909800D01*
X134738095Y-54909800D02*
X134690476Y-54862180D01*
D11*
X150633333Y-78359580D02*
X150585714Y-78407200D01*
X150585714Y-78407200D02*
X150442857Y-78454819D01*
X150442857Y-78454819D02*
X150347619Y-78454819D01*
X150347619Y-78454819D02*
X150204762Y-78407200D01*
X150204762Y-78407200D02*
X150109524Y-78311961D01*
X150109524Y-78311961D02*
X150061905Y-78216723D01*
X150061905Y-78216723D02*
X150014286Y-78026247D01*
X150014286Y-78026247D02*
X150014286Y-77883390D01*
X150014286Y-77883390D02*
X150061905Y-77692914D01*
X150061905Y-77692914D02*
X150109524Y-77597676D01*
X150109524Y-77597676D02*
X150204762Y-77502438D01*
X150204762Y-77502438D02*
X150347619Y-77454819D01*
X150347619Y-77454819D02*
X150442857Y-77454819D01*
X150442857Y-77454819D02*
X150585714Y-77502438D01*
X150585714Y-77502438D02*
X150633333Y-77550057D01*
X151109524Y-78454819D02*
X151300000Y-78454819D01*
X151300000Y-78454819D02*
X151395238Y-78407200D01*
X151395238Y-78407200D02*
X151442857Y-78359580D01*
X151442857Y-78359580D02*
X151538095Y-78216723D01*
X151538095Y-78216723D02*
X151585714Y-78026247D01*
X151585714Y-78026247D02*
X151585714Y-77645295D01*
X151585714Y-77645295D02*
X151538095Y-77550057D01*
X151538095Y-77550057D02*
X151490476Y-77502438D01*
X151490476Y-77502438D02*
X151395238Y-77454819D01*
X151395238Y-77454819D02*
X151204762Y-77454819D01*
X151204762Y-77454819D02*
X151109524Y-77502438D01*
X151109524Y-77502438D02*
X151061905Y-77550057D01*
X151061905Y-77550057D02*
X151014286Y-77645295D01*
X151014286Y-77645295D02*
X151014286Y-77883390D01*
X151014286Y-77883390D02*
X151061905Y-77978628D01*
X151061905Y-77978628D02*
X151109524Y-78026247D01*
X151109524Y-78026247D02*
X151204762Y-78073866D01*
X151204762Y-78073866D02*
X151395238Y-78073866D01*
X151395238Y-78073866D02*
X151490476Y-78026247D01*
X151490476Y-78026247D02*
X151538095Y-77978628D01*
X151538095Y-77978628D02*
X151585714Y-77883390D01*
X166433333Y-80589580D02*
X166385714Y-80637200D01*
X166385714Y-80637200D02*
X166242857Y-80684819D01*
X166242857Y-80684819D02*
X166147619Y-80684819D01*
X166147619Y-80684819D02*
X166004762Y-80637200D01*
X166004762Y-80637200D02*
X165909524Y-80541961D01*
X165909524Y-80541961D02*
X165861905Y-80446723D01*
X165861905Y-80446723D02*
X165814286Y-80256247D01*
X165814286Y-80256247D02*
X165814286Y-80113390D01*
X165814286Y-80113390D02*
X165861905Y-79922914D01*
X165861905Y-79922914D02*
X165909524Y-79827676D01*
X165909524Y-79827676D02*
X166004762Y-79732438D01*
X166004762Y-79732438D02*
X166147619Y-79684819D01*
X166147619Y-79684819D02*
X166242857Y-79684819D01*
X166242857Y-79684819D02*
X166385714Y-79732438D01*
X166385714Y-79732438D02*
X166433333Y-79780057D01*
X167338095Y-79684819D02*
X166861905Y-79684819D01*
X166861905Y-79684819D02*
X166814286Y-80161009D01*
X166814286Y-80161009D02*
X166861905Y-80113390D01*
X166861905Y-80113390D02*
X166957143Y-80065771D01*
X166957143Y-80065771D02*
X167195238Y-80065771D01*
X167195238Y-80065771D02*
X167290476Y-80113390D01*
X167290476Y-80113390D02*
X167338095Y-80161009D01*
X167338095Y-80161009D02*
X167385714Y-80256247D01*
X167385714Y-80256247D02*
X167385714Y-80494342D01*
X167385714Y-80494342D02*
X167338095Y-80589580D01*
X167338095Y-80589580D02*
X167290476Y-80637200D01*
X167290476Y-80637200D02*
X167195238Y-80684819D01*
X167195238Y-80684819D02*
X166957143Y-80684819D01*
X166957143Y-80684819D02*
X166861905Y-80637200D01*
X166861905Y-80637200D02*
X166814286Y-80589580D01*
X163633333Y-59254819D02*
X163300000Y-58778628D01*
X163061905Y-59254819D02*
X163061905Y-58254819D01*
X163061905Y-58254819D02*
X163442857Y-58254819D01*
X163442857Y-58254819D02*
X163538095Y-58302438D01*
X163538095Y-58302438D02*
X163585714Y-58350057D01*
X163585714Y-58350057D02*
X163633333Y-58445295D01*
X163633333Y-58445295D02*
X163633333Y-58588152D01*
X163633333Y-58588152D02*
X163585714Y-58683390D01*
X163585714Y-58683390D02*
X163538095Y-58731009D01*
X163538095Y-58731009D02*
X163442857Y-58778628D01*
X163442857Y-58778628D02*
X163061905Y-58778628D01*
X164490476Y-58254819D02*
X164300000Y-58254819D01*
X164300000Y-58254819D02*
X164204762Y-58302438D01*
X164204762Y-58302438D02*
X164157143Y-58350057D01*
X164157143Y-58350057D02*
X164061905Y-58492914D01*
X164061905Y-58492914D02*
X164014286Y-58683390D01*
X164014286Y-58683390D02*
X164014286Y-59064342D01*
X164014286Y-59064342D02*
X164061905Y-59159580D01*
X164061905Y-59159580D02*
X164109524Y-59207200D01*
X164109524Y-59207200D02*
X164204762Y-59254819D01*
X164204762Y-59254819D02*
X164395238Y-59254819D01*
X164395238Y-59254819D02*
X164490476Y-59207200D01*
X164490476Y-59207200D02*
X164538095Y-59159580D01*
X164538095Y-59159580D02*
X164585714Y-59064342D01*
X164585714Y-59064342D02*
X164585714Y-58826247D01*
X164585714Y-58826247D02*
X164538095Y-58731009D01*
X164538095Y-58731009D02*
X164490476Y-58683390D01*
X164490476Y-58683390D02*
X164395238Y-58635771D01*
X164395238Y-58635771D02*
X164204762Y-58635771D01*
X164204762Y-58635771D02*
X164109524Y-58683390D01*
X164109524Y-58683390D02*
X164061905Y-58731009D01*
X164061905Y-58731009D02*
X164014286Y-58826247D01*
D10*
X153866667Y-78088704D02*
X153828571Y-78126800D01*
X153828571Y-78126800D02*
X153714286Y-78164895D01*
X153714286Y-78164895D02*
X153638095Y-78164895D01*
X153638095Y-78164895D02*
X153523809Y-78126800D01*
X153523809Y-78126800D02*
X153447619Y-78050609D01*
X153447619Y-78050609D02*
X153409524Y-77974419D01*
X153409524Y-77974419D02*
X153371428Y-77822038D01*
X153371428Y-77822038D02*
X153371428Y-77707752D01*
X153371428Y-77707752D02*
X153409524Y-77555371D01*
X153409524Y-77555371D02*
X153447619Y-77479180D01*
X153447619Y-77479180D02*
X153523809Y-77402990D01*
X153523809Y-77402990D02*
X153638095Y-77364895D01*
X153638095Y-77364895D02*
X153714286Y-77364895D01*
X153714286Y-77364895D02*
X153828571Y-77402990D01*
X153828571Y-77402990D02*
X153866667Y-77441085D01*
X154323809Y-77707752D02*
X154247619Y-77669657D01*
X154247619Y-77669657D02*
X154209524Y-77631561D01*
X154209524Y-77631561D02*
X154171428Y-77555371D01*
X154171428Y-77555371D02*
X154171428Y-77517276D01*
X154171428Y-77517276D02*
X154209524Y-77441085D01*
X154209524Y-77441085D02*
X154247619Y-77402990D01*
X154247619Y-77402990D02*
X154323809Y-77364895D01*
X154323809Y-77364895D02*
X154476190Y-77364895D01*
X154476190Y-77364895D02*
X154552381Y-77402990D01*
X154552381Y-77402990D02*
X154590476Y-77441085D01*
X154590476Y-77441085D02*
X154628571Y-77517276D01*
X154628571Y-77517276D02*
X154628571Y-77555371D01*
X154628571Y-77555371D02*
X154590476Y-77631561D01*
X154590476Y-77631561D02*
X154552381Y-77669657D01*
X154552381Y-77669657D02*
X154476190Y-77707752D01*
X154476190Y-77707752D02*
X154323809Y-77707752D01*
X154323809Y-77707752D02*
X154247619Y-77745847D01*
X154247619Y-77745847D02*
X154209524Y-77783942D01*
X154209524Y-77783942D02*
X154171428Y-77860133D01*
X154171428Y-77860133D02*
X154171428Y-78012514D01*
X154171428Y-78012514D02*
X154209524Y-78088704D01*
X154209524Y-78088704D02*
X154247619Y-78126800D01*
X154247619Y-78126800D02*
X154323809Y-78164895D01*
X154323809Y-78164895D02*
X154476190Y-78164895D01*
X154476190Y-78164895D02*
X154552381Y-78126800D01*
X154552381Y-78126800D02*
X154590476Y-78088704D01*
X154590476Y-78088704D02*
X154628571Y-78012514D01*
X154628571Y-78012514D02*
X154628571Y-77860133D01*
X154628571Y-77860133D02*
X154590476Y-77783942D01*
X154590476Y-77783942D02*
X154552381Y-77745847D01*
X154552381Y-77745847D02*
X154476190Y-77707752D01*
D11*
X173338095Y-72604819D02*
X173338095Y-73414342D01*
X173338095Y-73414342D02*
X173385714Y-73509580D01*
X173385714Y-73509580D02*
X173433333Y-73557200D01*
X173433333Y-73557200D02*
X173528571Y-73604819D01*
X173528571Y-73604819D02*
X173719047Y-73604819D01*
X173719047Y-73604819D02*
X173814285Y-73557200D01*
X173814285Y-73557200D02*
X173861904Y-73509580D01*
X173861904Y-73509580D02*
X173909523Y-73414342D01*
X173909523Y-73414342D02*
X173909523Y-72604819D01*
X174290476Y-72604819D02*
X174909523Y-72604819D01*
X174909523Y-72604819D02*
X174576190Y-72985771D01*
X174576190Y-72985771D02*
X174719047Y-72985771D01*
X174719047Y-72985771D02*
X174814285Y-73033390D01*
X174814285Y-73033390D02*
X174861904Y-73081009D01*
X174861904Y-73081009D02*
X174909523Y-73176247D01*
X174909523Y-73176247D02*
X174909523Y-73414342D01*
X174909523Y-73414342D02*
X174861904Y-73509580D01*
X174861904Y-73509580D02*
X174814285Y-73557200D01*
X174814285Y-73557200D02*
X174719047Y-73604819D01*
X174719047Y-73604819D02*
X174433333Y-73604819D01*
X174433333Y-73604819D02*
X174338095Y-73557200D01*
X174338095Y-73557200D02*
X174290476Y-73509580D01*
X142401481Y-76613128D02*
X142401481Y-77423889D01*
X142401481Y-77423889D02*
X142449172Y-77519273D01*
X142449172Y-77519273D02*
X142496864Y-77566965D01*
X142496864Y-77566965D02*
X142592248Y-77614656D01*
X142592248Y-77614656D02*
X142783015Y-77614656D01*
X142783015Y-77614656D02*
X142878399Y-77566965D01*
X142878399Y-77566965D02*
X142926090Y-77519273D01*
X142926090Y-77519273D02*
X142973782Y-77423889D01*
X142973782Y-77423889D02*
X142973782Y-76613128D01*
X143879927Y-76946971D02*
X143879927Y-77614656D01*
X143641468Y-76565437D02*
X143403009Y-77280814D01*
X143403009Y-77280814D02*
X144023002Y-77280814D01*
D10*
X133738095Y-93207419D02*
X133738095Y-92207419D01*
X133738095Y-92683609D02*
X134309523Y-92683609D01*
X134309523Y-93207419D02*
X134309523Y-92207419D01*
X135214285Y-92540752D02*
X135214285Y-93207419D01*
X134976190Y-92159800D02*
X134738095Y-92874085D01*
X134738095Y-92874085D02*
X135357142Y-92874085D01*
X146888704Y-74114285D02*
X146926800Y-74152381D01*
X146926800Y-74152381D02*
X146964895Y-74266666D01*
X146964895Y-74266666D02*
X146964895Y-74342857D01*
X146964895Y-74342857D02*
X146926800Y-74457143D01*
X146926800Y-74457143D02*
X146850609Y-74533333D01*
X146850609Y-74533333D02*
X146774419Y-74571428D01*
X146774419Y-74571428D02*
X146622038Y-74609524D01*
X146622038Y-74609524D02*
X146507752Y-74609524D01*
X146507752Y-74609524D02*
X146355371Y-74571428D01*
X146355371Y-74571428D02*
X146279180Y-74533333D01*
X146279180Y-74533333D02*
X146202990Y-74457143D01*
X146202990Y-74457143D02*
X146164895Y-74342857D01*
X146164895Y-74342857D02*
X146164895Y-74266666D01*
X146164895Y-74266666D02*
X146202990Y-74152381D01*
X146202990Y-74152381D02*
X146241085Y-74114285D01*
X146964895Y-73352381D02*
X146964895Y-73809524D01*
X146964895Y-73580952D02*
X146164895Y-73580952D01*
X146164895Y-73580952D02*
X146279180Y-73657143D01*
X146279180Y-73657143D02*
X146355371Y-73733333D01*
X146355371Y-73733333D02*
X146393466Y-73809524D01*
X146164895Y-72857142D02*
X146164895Y-72780952D01*
X146164895Y-72780952D02*
X146202990Y-72704761D01*
X146202990Y-72704761D02*
X146241085Y-72666666D01*
X146241085Y-72666666D02*
X146317276Y-72628571D01*
X146317276Y-72628571D02*
X146469657Y-72590476D01*
X146469657Y-72590476D02*
X146660133Y-72590476D01*
X146660133Y-72590476D02*
X146812514Y-72628571D01*
X146812514Y-72628571D02*
X146888704Y-72666666D01*
X146888704Y-72666666D02*
X146926800Y-72704761D01*
X146926800Y-72704761D02*
X146964895Y-72780952D01*
X146964895Y-72780952D02*
X146964895Y-72857142D01*
X146964895Y-72857142D02*
X146926800Y-72933333D01*
X146926800Y-72933333D02*
X146888704Y-72971428D01*
X146888704Y-72971428D02*
X146812514Y-73009523D01*
X146812514Y-73009523D02*
X146660133Y-73047619D01*
X146660133Y-73047619D02*
X146469657Y-73047619D01*
X146469657Y-73047619D02*
X146317276Y-73009523D01*
X146317276Y-73009523D02*
X146241085Y-72971428D01*
X146241085Y-72971428D02*
X146202990Y-72933333D01*
X146202990Y-72933333D02*
X146164895Y-72857142D01*
D12*
X156365935Y-66733332D02*
X155984982Y-66999999D01*
X156365935Y-67190475D02*
X155565935Y-67190475D01*
X155565935Y-67190475D02*
X155565935Y-66885713D01*
X155565935Y-66885713D02*
X155604030Y-66809523D01*
X155604030Y-66809523D02*
X155642125Y-66771428D01*
X155642125Y-66771428D02*
X155718316Y-66733332D01*
X155718316Y-66733332D02*
X155832601Y-66733332D01*
X155832601Y-66733332D02*
X155908792Y-66771428D01*
X155908792Y-66771428D02*
X155946887Y-66809523D01*
X155946887Y-66809523D02*
X155984982Y-66885713D01*
X155984982Y-66885713D02*
X155984982Y-67190475D01*
X155565935Y-66466666D02*
X155565935Y-65971428D01*
X155565935Y-65971428D02*
X155870697Y-66238094D01*
X155870697Y-66238094D02*
X155870697Y-66123809D01*
X155870697Y-66123809D02*
X155908792Y-66047618D01*
X155908792Y-66047618D02*
X155946887Y-66009523D01*
X155946887Y-66009523D02*
X156023078Y-65971428D01*
X156023078Y-65971428D02*
X156213554Y-65971428D01*
X156213554Y-65971428D02*
X156289744Y-66009523D01*
X156289744Y-66009523D02*
X156327840Y-66047618D01*
X156327840Y-66047618D02*
X156365935Y-66123809D01*
X156365935Y-66123809D02*
X156365935Y-66352380D01*
X156365935Y-66352380D02*
X156327840Y-66428571D01*
X156327840Y-66428571D02*
X156289744Y-66466666D01*
D11*
X164438095Y-70054819D02*
X164438095Y-70864342D01*
X164438095Y-70864342D02*
X164485714Y-70959580D01*
X164485714Y-70959580D02*
X164533333Y-71007200D01*
X164533333Y-71007200D02*
X164628571Y-71054819D01*
X164628571Y-71054819D02*
X164819047Y-71054819D01*
X164819047Y-71054819D02*
X164914285Y-71007200D01*
X164914285Y-71007200D02*
X164961904Y-70959580D01*
X164961904Y-70959580D02*
X165009523Y-70864342D01*
X165009523Y-70864342D02*
X165009523Y-70054819D01*
X165438095Y-70150057D02*
X165485714Y-70102438D01*
X165485714Y-70102438D02*
X165580952Y-70054819D01*
X165580952Y-70054819D02*
X165819047Y-70054819D01*
X165819047Y-70054819D02*
X165914285Y-70102438D01*
X165914285Y-70102438D02*
X165961904Y-70150057D01*
X165961904Y-70150057D02*
X166009523Y-70245295D01*
X166009523Y-70245295D02*
X166009523Y-70340533D01*
X166009523Y-70340533D02*
X165961904Y-70483390D01*
X165961904Y-70483390D02*
X165390476Y-71054819D01*
X165390476Y-71054819D02*
X166009523Y-71054819D01*
X165833333Y-62345180D02*
X165833333Y-61630895D01*
X165833333Y-61630895D02*
X165880952Y-61488038D01*
X165880952Y-61488038D02*
X165976190Y-61392800D01*
X165976190Y-61392800D02*
X166119047Y-61345180D01*
X166119047Y-61345180D02*
X166214285Y-61345180D01*
X165404761Y-62249942D02*
X165357142Y-62297561D01*
X165357142Y-62297561D02*
X165261904Y-62345180D01*
X165261904Y-62345180D02*
X165023809Y-62345180D01*
X165023809Y-62345180D02*
X164928571Y-62297561D01*
X164928571Y-62297561D02*
X164880952Y-62249942D01*
X164880952Y-62249942D02*
X164833333Y-62154704D01*
X164833333Y-62154704D02*
X164833333Y-62059466D01*
X164833333Y-62059466D02*
X164880952Y-61916609D01*
X164880952Y-61916609D02*
X165452380Y-61345180D01*
X165452380Y-61345180D02*
X164833333Y-61345180D01*
X165054819Y-66766666D02*
X164578628Y-67099999D01*
X165054819Y-67338094D02*
X164054819Y-67338094D01*
X164054819Y-67338094D02*
X164054819Y-66957142D01*
X164054819Y-66957142D02*
X164102438Y-66861904D01*
X164102438Y-66861904D02*
X164150057Y-66814285D01*
X164150057Y-66814285D02*
X164245295Y-66766666D01*
X164245295Y-66766666D02*
X164388152Y-66766666D01*
X164388152Y-66766666D02*
X164483390Y-66814285D01*
X164483390Y-66814285D02*
X164531009Y-66861904D01*
X164531009Y-66861904D02*
X164578628Y-66957142D01*
X164578628Y-66957142D02*
X164578628Y-67338094D01*
X164388152Y-65909523D02*
X165054819Y-65909523D01*
X164007200Y-66147618D02*
X164721485Y-66385713D01*
X164721485Y-66385713D02*
X164721485Y-65766666D01*
D13*
X154654724Y-62677500D02*
X154145276Y-62677500D01*
X154654724Y-63722500D02*
X154145276Y-63722500D01*
X161490000Y-57146267D02*
X161490000Y-56853733D01*
X162510000Y-57146267D02*
X162510000Y-56853733D01*
X150490000Y-58646267D02*
X150490000Y-58353733D01*
X151510000Y-58646267D02*
X151510000Y-58353733D01*
X147090000Y-64146267D02*
X147090000Y-63853733D01*
X148110000Y-64146267D02*
X148110000Y-63853733D01*
D14*
X177755600Y-63676600D02*
X177755600Y-69823400D01*
X177755600Y-69823400D02*
X185604200Y-69823400D01*
X185604200Y-63676600D02*
X177755600Y-63676600D01*
X185604200Y-69823400D02*
X185604200Y-63676600D01*
X139913700Y-63086550D02*
X139913700Y-68750750D01*
X139913700Y-68750750D02*
X140279460Y-68750750D01*
X140279460Y-63086550D02*
X139913700Y-63086550D01*
X141503740Y-68750750D02*
X143987860Y-68750750D01*
X143987860Y-63086550D02*
X141503740Y-63086550D01*
X145212140Y-68750750D02*
X145577900Y-68750750D01*
X145577900Y-63086550D02*
X145212140Y-63086550D01*
X145577900Y-68750750D02*
X145577900Y-63086550D01*
X139176600Y-53145800D02*
X139176600Y-60994400D01*
X139176600Y-60994400D02*
X145323400Y-60994400D01*
X145323400Y-53145800D02*
X139176600Y-53145800D01*
X145323400Y-60994400D02*
X145323400Y-53145800D01*
D13*
X156240000Y-62140000D02*
X156240000Y-65000000D01*
X158160000Y-62140000D02*
X156240000Y-62140000D01*
X158160000Y-65000000D02*
X158160000Y-62140000D01*
X160453733Y-66290000D02*
X160746267Y-66290000D01*
X160453733Y-67310000D02*
X160746267Y-67310000D01*
D10*
X185500000Y-57500000D02*
G75*
G02*
X176000000Y-57500000I-4750000J0D01*
G01*
X176000000Y-57500000D02*
G75*
G02*
X185500000Y-57500000I4750000J0D01*
G01*
D13*
X174317776Y-69197500D02*
X174827224Y-69197500D01*
X174317776Y-70242500D02*
X174827224Y-70242500D01*
X150490000Y-72853733D02*
X150490000Y-73146267D01*
X151510000Y-72853733D02*
X151510000Y-73146267D01*
X146650000Y-67600000D02*
X146650000Y-71200000D01*
X146650000Y-71200000D02*
X153900000Y-71200000D01*
X153900000Y-67600000D02*
X146650000Y-67600000D01*
X158365000Y-62240000D02*
X158365000Y-64160000D01*
X158365000Y-64160000D02*
X161225000Y-64160000D01*
X161225000Y-62240000D02*
X158365000Y-62240000D01*
X171283767Y-75490000D02*
X170991233Y-75490000D01*
X171283767Y-76510000D02*
X170991233Y-76510000D01*
X144854724Y-71077500D02*
X144345276Y-71077500D01*
X144854724Y-72122500D02*
X144345276Y-72122500D01*
D10*
X185500000Y-95500000D02*
G75*
G02*
X176000000Y-95500000I-4750000J0D01*
G01*
X176000000Y-95500000D02*
G75*
G02*
X185500000Y-95500000I4750000J0D01*
G01*
D13*
X154650000Y-55090000D02*
X158410000Y-55090000D01*
X154650000Y-61910000D02*
X158410000Y-61910000D01*
X158410000Y-55090000D02*
X158410000Y-56350000D01*
X158410000Y-61910000D02*
X158410000Y-60650000D01*
X153370000Y-55190000D02*
X153130000Y-54860000D01*
X153610000Y-54860000D01*
X153370000Y-55190000D01*
G36*
X153370000Y-55190000D02*
G01*
X153130000Y-54860000D01*
X153610000Y-54860000D01*
X153370000Y-55190000D01*
G37*
D15*
X165500000Y-86000000D02*
X165500000Y-88000000D01*
X168000000Y-83500000D02*
X170000000Y-83500000D01*
X168000000Y-90500000D02*
X170000000Y-90500000D01*
X172500000Y-86000000D02*
X172500000Y-88000000D01*
D13*
X155890000Y-74146267D02*
X155890000Y-73853733D01*
X156910000Y-74146267D02*
X156910000Y-73853733D01*
X168690000Y-70253733D02*
X168690000Y-70546267D01*
X169710000Y-70253733D02*
X169710000Y-70546267D01*
X152750000Y-64200000D02*
X152750000Y-65800000D01*
X152750000Y-65800000D02*
X155600000Y-65800000D01*
X155600000Y-64200000D02*
X152750000Y-64200000D01*
X153145276Y-71677500D02*
X153654724Y-71677500D01*
X153145276Y-72722500D02*
X153654724Y-72722500D01*
X150746267Y-62690000D02*
X150453733Y-62690000D01*
X150746267Y-63710000D02*
X150453733Y-63710000D01*
X162677500Y-79545276D02*
X162677500Y-80054724D01*
X163722500Y-79545276D02*
X163722500Y-80054724D01*
X150746267Y-64490000D02*
X150453733Y-64490000D01*
X150746267Y-65510000D02*
X150453733Y-65510000D01*
D10*
X138750000Y-57500000D02*
G75*
G02*
X129250000Y-57500000I-4750000J0D01*
G01*
X129250000Y-57500000D02*
G75*
G02*
X138750000Y-57500000I4750000J0D01*
G01*
D13*
X149853733Y-76090000D02*
X150146267Y-76090000D01*
X149853733Y-77110000D02*
X150146267Y-77110000D01*
X165808767Y-78290000D02*
X165516233Y-78290000D01*
X165808767Y-79310000D02*
X165516233Y-79310000D01*
X162345276Y-59677500D02*
X162854724Y-59677500D01*
X162345276Y-60722500D02*
X162854724Y-60722500D01*
X154946267Y-76090000D02*
X154653733Y-76090000D01*
X154946267Y-77110000D02*
X154653733Y-77110000D01*
D16*
X172385002Y-71654999D02*
X174735000Y-71654999D01*
X173635002Y-74654999D02*
X174610001Y-74654999D01*
D15*
X142000000Y-81600000D02*
X158000000Y-81600000D01*
X142000000Y-82700000D02*
X142000000Y-81600000D01*
X142000000Y-97400000D02*
X142000000Y-97600000D01*
X142000000Y-97600000D02*
X158000000Y-97600000D01*
X158000000Y-81600000D02*
X158000000Y-82700000D01*
X158000000Y-97600000D02*
X158000000Y-97400000D01*
D16*
X141350000Y-82600000D02*
G75*
G02*
X141150000Y-82600000I-100000J0D01*
G01*
X141150000Y-82600000D02*
G75*
G02*
X141350000Y-82600000I100000J0D01*
G01*
D10*
X138750000Y-95750000D02*
G75*
G02*
X129250000Y-95750000I-4750000J0D01*
G01*
X129250000Y-95750000D02*
G75*
G02*
X138750000Y-95750000I4750000J0D01*
G01*
D13*
X147290000Y-73946267D02*
X147290000Y-73653733D01*
X148310000Y-73946267D02*
X148310000Y-73653733D01*
X156477500Y-67345276D02*
X156477500Y-67854724D01*
X157522500Y-67345276D02*
X157522500Y-67854724D01*
X159590000Y-69190000D02*
X159590000Y-69640000D01*
X159590000Y-76410000D02*
X159590000Y-75960000D01*
X160040000Y-69190000D02*
X159590000Y-69190000D01*
X160040000Y-76410000D02*
X159590000Y-76410000D01*
X166360000Y-69190000D02*
X166810000Y-69190000D01*
X166360000Y-76410000D02*
X166810000Y-76410000D01*
X166810000Y-69190000D02*
X166810000Y-69640000D01*
X166810000Y-76410000D02*
X166810000Y-75960000D01*
X159000000Y-69640000D02*
X158660000Y-69170000D01*
X159340000Y-69170000D01*
X159000000Y-69640000D01*
G36*
X159000000Y-69640000D02*
G01*
X158660000Y-69170000D01*
X159340000Y-69170000D01*
X159000000Y-69640000D01*
G37*
D14*
X165520001Y-53028400D02*
X165520001Y-60877000D01*
X165520001Y-60877000D02*
X175680001Y-60877000D01*
X175680001Y-53028400D02*
X165520001Y-53028400D01*
X175680001Y-60877000D02*
X175680001Y-53028400D01*
D13*
X162677500Y-66054724D02*
X162677500Y-65545276D01*
X163722500Y-66054724D02*
X163722500Y-65545276D01*
%LPC*%
D17*
X155312500Y-63200000D03*
X153487500Y-63200000D03*
D18*
X162000000Y-57862500D03*
X162000000Y-56137500D03*
X151000000Y-59362500D03*
X151000000Y-57637500D03*
X147600000Y-64862500D03*
X147600000Y-63137500D03*
D19*
X179232600Y-67750000D03*
X179232600Y-65749999D03*
D20*
X144600000Y-62737300D03*
X144600000Y-69100000D03*
X140891600Y-62737300D03*
X140891600Y-69100000D03*
D19*
X143250000Y-59517400D03*
X141249999Y-59517400D03*
D21*
X157200000Y-62975000D03*
X157200000Y-65025000D03*
D22*
X159737500Y-66800000D03*
X161462500Y-66800000D03*
D23*
X180750000Y-57500000D03*
D24*
X173660000Y-69720000D03*
X175485000Y-69720000D03*
D25*
X151000000Y-72137500D03*
X151000000Y-73862500D03*
D26*
X148600000Y-69400000D03*
X153800000Y-69400000D03*
D27*
X159200000Y-63200000D03*
X161250000Y-63200000D03*
D28*
X172000000Y-76000000D03*
X170275000Y-76000000D03*
D17*
X145512500Y-71600000D03*
X143687500Y-71600000D03*
D23*
X180750000Y-95500000D03*
D29*
X153350000Y-56200000D03*
X153350000Y-58500000D03*
D30*
X159650000Y-58500000D03*
D29*
X153350000Y-60800000D03*
D31*
X169000000Y-87000000D03*
D32*
X166460000Y-84460000D03*
X166460000Y-89540000D03*
X171540000Y-84460000D03*
X171540000Y-89540000D03*
D18*
X156400000Y-74862500D03*
X156400000Y-73137500D03*
D25*
X169200000Y-69537500D03*
X169200000Y-71262500D03*
D33*
X153475000Y-65000000D03*
X155325000Y-65000000D03*
D24*
X152487500Y-72200000D03*
X154312500Y-72200000D03*
D28*
X151462500Y-63200000D03*
X149737500Y-63200000D03*
D34*
X163200000Y-78887500D03*
X163200000Y-80712500D03*
D28*
X151462500Y-65000000D03*
X149737500Y-65000000D03*
D23*
X134000000Y-57500000D03*
D22*
X149137500Y-76600000D03*
X150862500Y-76600000D03*
D28*
X166525000Y-78800000D03*
X164800000Y-78800000D03*
D24*
X161687500Y-60200000D03*
X163512500Y-60200000D03*
D28*
X155662500Y-76600000D03*
X153937500Y-76600000D03*
D35*
X172660000Y-72180000D03*
X172660000Y-72830001D03*
X172660000Y-73480000D03*
X172660000Y-74130001D03*
X175609999Y-74130001D03*
X175609999Y-73480000D03*
X175609999Y-72830001D03*
X175609999Y-72180000D03*
D36*
X142250000Y-83750000D03*
X142250000Y-86290000D03*
X142250000Y-88830000D03*
X142250000Y-91370000D03*
X142250000Y-93910000D03*
X142250000Y-96450000D03*
X157750000Y-96450000D03*
X157750000Y-93910000D03*
X157750000Y-91370000D03*
X157750000Y-88830000D03*
X157750000Y-86290000D03*
X157750000Y-83750000D03*
D23*
X134000000Y-95750000D03*
D18*
X147800000Y-74662500D03*
X147800000Y-72937500D03*
D34*
X157000000Y-66687500D03*
X157000000Y-68512500D03*
D37*
X159037500Y-70050000D03*
X159037500Y-70550000D03*
X159037500Y-71050000D03*
X159037500Y-71550000D03*
X159037500Y-72050000D03*
X159037500Y-72550000D03*
X159037500Y-73050000D03*
X159037500Y-73550000D03*
X159037500Y-74050000D03*
X159037500Y-74550000D03*
X159037500Y-75050000D03*
X159037500Y-75550000D03*
D38*
X160450000Y-76962500D03*
X160950000Y-76962500D03*
X161450000Y-76962500D03*
X161950000Y-76962500D03*
X162450000Y-76962500D03*
X162950000Y-76962500D03*
X163450000Y-76962500D03*
X163950000Y-76962500D03*
X164450000Y-76962500D03*
X164950000Y-76962500D03*
X165450000Y-76962500D03*
X165950000Y-76962500D03*
D37*
X167362500Y-75550000D03*
X167362500Y-75050000D03*
X167362500Y-74550000D03*
X167362500Y-74050000D03*
X167362500Y-73550000D03*
X167362500Y-73050000D03*
X167362500Y-72550000D03*
X167362500Y-72050000D03*
X167362500Y-71550000D03*
X167362500Y-71050000D03*
X167362500Y-70550000D03*
X167362500Y-70050000D03*
D38*
X165950000Y-68637500D03*
X165450000Y-68637500D03*
X164950000Y-68637500D03*
X164450000Y-68637500D03*
X163950000Y-68637500D03*
X163450000Y-68637500D03*
X162950000Y-68637500D03*
X162450000Y-68637500D03*
X161950000Y-68637500D03*
X161450000Y-68637500D03*
X160950000Y-68637500D03*
X160450000Y-68637500D03*
D39*
X173600000Y-59400000D03*
X171600001Y-59400000D03*
X169600000Y-59400000D03*
X167600002Y-59400000D03*
D40*
X163200000Y-66712500D03*
X163200000Y-64887500D03*
%LPD*%
M02*
