G04 #@! TF.GenerationSoftware,KiCad,Pcbnew,9.0.0*
G04 #@! TF.CreationDate,2025-04-23T00:46:07-04:00*
G04 #@! TF.ProjectId,GPS,4750532e-6b69-4636-9164-5f7063625858,rev?*
G04 #@! TF.SameCoordinates,Original*
G04 #@! TF.FileFunction,Copper,L2,Bot*
G04 #@! TF.FilePolarity,Positive*
%FSLAX46Y46*%
G04 Gerber Fmt 4.6, Leading zero omitted, Abs format (unit mm)*
G04 Created by KiCad (PCBNEW 9.0.0) date 2025-04-23 00:46:07*
%MOMM*%
%LPD*%
G01*
G04 APERTURE LIST*
G04 Aperture macros list*
%AMRoundRect*
0 Rectangle with rounded corners*
0 $1 Rounding radius*
0 $2 $3 $4 $5 $6 $7 $8 $9 X,Y pos of 4 corners*
0 Add a 4 corners polygon primitive as box body*
4,1,4,$2,$3,$4,$5,$6,$7,$8,$9,$2,$3,0*
0 Add four circle primitives for the rounded corners*
1,1,$1+$1,$2,$3*
1,1,$1+$1,$4,$5*
1,1,$1+$1,$6,$7*
1,1,$1+$1,$8,$9*
0 Add four rect primitives between the rounded corners*
20,1,$1+$1,$2,$3,$4,$5,0*
20,1,$1+$1,$4,$5,$6,$7,0*
20,1,$1+$1,$6,$7,$8,$9,0*
20,1,$1+$1,$8,$9,$2,$3,0*%
G04 Aperture macros list end*
G04 #@! TA.AperFunction,ComponentPad*
%ADD10C,1.320800*%
G04 #@! TD*
G04 #@! TA.AperFunction,ComponentPad*
%ADD11C,5.000000*%
G04 #@! TD*
G04 #@! TA.AperFunction,ComponentPad*
%ADD12C,2.325000*%
G04 #@! TD*
G04 #@! TA.AperFunction,ComponentPad*
%ADD13C,2.625000*%
G04 #@! TD*
G04 #@! TA.AperFunction,ComponentPad*
%ADD14C,1.270000*%
G04 #@! TD*
G04 #@! TA.AperFunction,SMDPad,CuDef*
%ADD15RoundRect,0.237500X0.237500X-0.300000X0.237500X0.300000X-0.237500X0.300000X-0.237500X-0.300000X0*%
G04 #@! TD*
G04 #@! TA.AperFunction,ViaPad*
%ADD16C,0.600000*%
G04 #@! TD*
G04 #@! TA.AperFunction,Conductor*
%ADD17C,0.200000*%
G04 #@! TD*
G04 APERTURE END LIST*
D10*
X179232600Y-67750000D03*
X179232600Y-65749999D03*
X143250000Y-59517400D03*
X141249999Y-59517400D03*
D11*
X180750000Y-57500000D03*
X180750000Y-95500000D03*
D12*
X169000000Y-87000000D03*
D13*
X166460000Y-84460000D03*
X166460000Y-89540000D03*
X171540000Y-84460000D03*
X171540000Y-89540000D03*
D11*
X134000000Y-57500000D03*
X134000000Y-95750000D03*
D14*
X173600000Y-59400000D03*
X171600001Y-59400000D03*
X169600000Y-59400000D03*
X167600002Y-59400000D03*
D15*
X149200000Y-90862500D03*
X149200000Y-89137500D03*
X146000000Y-90862500D03*
X146000000Y-89137500D03*
D16*
X149000000Y-58500000D03*
X149000000Y-61000000D03*
X144400000Y-91000000D03*
X152600000Y-76600000D03*
X169200000Y-72500000D03*
X162000000Y-56137500D03*
X162600000Y-63800000D03*
X148200000Y-56800000D03*
X169300000Y-77200000D03*
X147800000Y-71700000D03*
X163600000Y-60200000D03*
X144400000Y-89000000D03*
X148200000Y-61800000D03*
X159200000Y-82200000D03*
X149800000Y-74000000D03*
X149600000Y-62000000D03*
X156400000Y-57200000D03*
X155407815Y-74007815D03*
X164488235Y-79988235D03*
X150000000Y-80400000D03*
X152800000Y-80400000D03*
X165500000Y-71000000D03*
X171300000Y-71800000D03*
X171000000Y-74500000D03*
X165500000Y-72000000D03*
X157800000Y-80600000D03*
X155800000Y-82600000D03*
D17*
X149000000Y-58500000D02*
X149000000Y-61000000D01*
X145862500Y-91000000D02*
X146000000Y-90862500D01*
X149200000Y-90862500D02*
X146000000Y-90862500D01*
X144400000Y-91000000D02*
X145862500Y-91000000D01*
X164488235Y-79988235D02*
X164488235Y-79111765D01*
X155407815Y-74007815D02*
X155192185Y-74007815D01*
X145862500Y-89000000D02*
X146000000Y-89137500D01*
X146000000Y-89137500D02*
X149200000Y-89137500D01*
X144400000Y-89000000D02*
X145862500Y-89000000D01*
X152600000Y-76600000D02*
X152400000Y-76600000D01*
X169300000Y-76700000D02*
X168100000Y-75500000D01*
X160200000Y-78800000D02*
X155407815Y-74007815D01*
X148400000Y-62000000D02*
X148200000Y-61800000D01*
X163600000Y-60200000D02*
X163600000Y-57737500D01*
X147800000Y-71700000D02*
X147937500Y-71837500D01*
X167600002Y-59400000D02*
X166800002Y-60200000D01*
X152400000Y-76600000D02*
X149800000Y-74000000D01*
X166800002Y-60200000D02*
X163600000Y-60200000D01*
X147937500Y-71837500D02*
X147937500Y-72937500D01*
X147937500Y-72937500D02*
X149000000Y-74000000D01*
X162112500Y-63800000D02*
X156400000Y-58087500D01*
X160200000Y-80400000D02*
X160200000Y-78800000D01*
X159200000Y-82200000D02*
X159200000Y-81400000D01*
X169300000Y-77200000D02*
X169300000Y-76700000D01*
X148200000Y-62200000D02*
X148200000Y-61800000D01*
X169200000Y-74400000D02*
X169200000Y-72500000D01*
X164488235Y-79111765D02*
X168100000Y-75500000D01*
X155192185Y-74007815D02*
X152600000Y-76600000D01*
X168100000Y-75500000D02*
X169200000Y-74400000D01*
X159200000Y-81400000D02*
X160200000Y-80400000D01*
X163600000Y-57737500D02*
X162000000Y-56137500D01*
X147800000Y-71700000D02*
X147800000Y-62600000D01*
X156400000Y-58087500D02*
X156400000Y-57200000D01*
X149600000Y-62000000D02*
X148400000Y-62000000D01*
X164488235Y-79988235D02*
X163300000Y-78800000D01*
X163300000Y-78800000D02*
X160200000Y-78800000D01*
X147800000Y-62600000D02*
X148200000Y-62200000D01*
X149000000Y-74000000D02*
X149800000Y-74000000D01*
X148200000Y-61800000D02*
X148200000Y-56800000D01*
X162600000Y-63800000D02*
X162112500Y-63800000D01*
X150000000Y-80400000D02*
X152800000Y-80400000D01*
X170349943Y-71000000D02*
X165500000Y-71000000D01*
X170349943Y-71000000D02*
X171149943Y-71800000D01*
X171149943Y-71800000D02*
X171300000Y-71800000D01*
X170399000Y-71899000D02*
X165601000Y-71899000D01*
X171000000Y-72500000D02*
X171000000Y-74500000D01*
X171000000Y-72500000D02*
X170399000Y-71899000D01*
X165601000Y-71899000D02*
X165500000Y-72000000D01*
X155800000Y-82600000D02*
X157800000Y-80600000D01*
G04 #@! TA.AperFunction,Conductor*
G36*
X185342539Y-53120185D02*
G01*
X185388294Y-53172989D01*
X185399500Y-53224500D01*
X185399500Y-99975500D01*
X185379815Y-100042539D01*
X185327011Y-100088294D01*
X185275500Y-100099500D01*
X129674500Y-100099500D01*
X129607461Y-100079815D01*
X129561706Y-100027011D01*
X129550500Y-99975500D01*
X129550500Y-95581491D01*
X130999500Y-95581491D01*
X130999500Y-95918508D01*
X131037231Y-96253381D01*
X131037233Y-96253397D01*
X131112223Y-96581953D01*
X131112227Y-96581965D01*
X131223532Y-96900054D01*
X131369752Y-97203683D01*
X131369754Y-97203686D01*
X131549054Y-97489039D01*
X131759175Y-97752523D01*
X131997477Y-97990825D01*
X132260961Y-98200946D01*
X132546314Y-98380246D01*
X132849949Y-98526469D01*
X133088848Y-98610063D01*
X133168034Y-98637772D01*
X133168046Y-98637776D01*
X133496606Y-98712767D01*
X133831492Y-98750499D01*
X133831493Y-98750500D01*
X133831496Y-98750500D01*
X134168507Y-98750500D01*
X134168507Y-98750499D01*
X134503394Y-98712767D01*
X134831954Y-98637776D01*
X135150051Y-98526469D01*
X135453686Y-98380246D01*
X135739039Y-98200946D01*
X136002523Y-97990825D01*
X136240825Y-97752523D01*
X136450946Y-97489039D01*
X136630246Y-97203686D01*
X136776469Y-96900051D01*
X136887776Y-96581954D01*
X136962767Y-96253394D01*
X137000500Y-95918504D01*
X137000500Y-95581496D01*
X137000499Y-95581491D01*
X137000499Y-95581489D01*
X136973505Y-95341900D01*
X136972332Y-95331491D01*
X177749500Y-95331491D01*
X177749500Y-95668508D01*
X177787231Y-96003381D01*
X177787233Y-96003397D01*
X177862223Y-96331953D01*
X177862227Y-96331965D01*
X177973532Y-96650054D01*
X178119752Y-96953683D01*
X178119754Y-96953686D01*
X178299054Y-97239039D01*
X178509175Y-97502523D01*
X178747477Y-97740825D01*
X179010961Y-97950946D01*
X179296314Y-98130246D01*
X179599949Y-98276469D01*
X179838848Y-98360063D01*
X179918034Y-98387772D01*
X179918046Y-98387776D01*
X180246606Y-98462767D01*
X180581492Y-98500499D01*
X180581493Y-98500500D01*
X180581496Y-98500500D01*
X180918507Y-98500500D01*
X180918507Y-98500499D01*
X181253394Y-98462767D01*
X181581954Y-98387776D01*
X181900051Y-98276469D01*
X182203686Y-98130246D01*
X182489039Y-97950946D01*
X182752523Y-97740825D01*
X182990825Y-97502523D01*
X183200946Y-97239039D01*
X183380246Y-96953686D01*
X183526469Y-96650051D01*
X183637776Y-96331954D01*
X183712767Y-96003394D01*
X183750500Y-95668504D01*
X183750500Y-95331496D01*
X183712767Y-94996606D01*
X183637776Y-94668046D01*
X183526469Y-94349949D01*
X183380246Y-94046314D01*
X183200946Y-93760961D01*
X182990825Y-93497477D01*
X182752523Y-93259175D01*
X182489039Y-93049054D01*
X182203686Y-92869754D01*
X182203683Y-92869752D01*
X181900054Y-92723532D01*
X181581965Y-92612227D01*
X181581953Y-92612223D01*
X181253397Y-92537233D01*
X181253381Y-92537231D01*
X180918508Y-92499500D01*
X180918504Y-92499500D01*
X180581496Y-92499500D01*
X180581491Y-92499500D01*
X180246618Y-92537231D01*
X180246602Y-92537233D01*
X179918046Y-92612223D01*
X179918034Y-92612227D01*
X179599945Y-92723532D01*
X179296316Y-92869752D01*
X179010962Y-93049053D01*
X178747477Y-93259174D01*
X178509174Y-93497477D01*
X178299053Y-93760962D01*
X178119752Y-94046316D01*
X177973532Y-94349945D01*
X177862227Y-94668034D01*
X177862223Y-94668046D01*
X177787233Y-94996602D01*
X177787231Y-94996618D01*
X177749500Y-95331491D01*
X136972332Y-95331491D01*
X136962768Y-95246618D01*
X136962767Y-95246606D01*
X136887776Y-94918046D01*
X136776469Y-94599949D01*
X136630246Y-94296314D01*
X136450946Y-94010961D01*
X136240825Y-93747477D01*
X136002523Y-93509175D01*
X135739039Y-93299054D01*
X135453686Y-93119754D01*
X135453683Y-93119752D01*
X135150054Y-92973532D01*
X134831965Y-92862227D01*
X134831953Y-92862223D01*
X134503397Y-92787233D01*
X134503381Y-92787231D01*
X134168508Y-92749500D01*
X134168504Y-92749500D01*
X133831496Y-92749500D01*
X133831491Y-92749500D01*
X133496618Y-92787231D01*
X133496602Y-92787233D01*
X133168046Y-92862223D01*
X133168034Y-92862227D01*
X132849945Y-92973532D01*
X132546316Y-93119752D01*
X132260962Y-93299053D01*
X131997477Y-93509174D01*
X131759174Y-93747477D01*
X131549053Y-94010962D01*
X131369752Y-94296316D01*
X131223532Y-94599945D01*
X131112227Y-94918034D01*
X131112223Y-94918046D01*
X131037233Y-95246602D01*
X131037231Y-95246618D01*
X130999500Y-95581491D01*
X129550500Y-95581491D01*
X129550500Y-90921153D01*
X143599500Y-90921153D01*
X143599500Y-91078846D01*
X143630261Y-91233489D01*
X143630264Y-91233501D01*
X143690602Y-91379172D01*
X143690609Y-91379185D01*
X143778210Y-91510288D01*
X143778213Y-91510292D01*
X143889707Y-91621786D01*
X143889711Y-91621789D01*
X144020814Y-91709390D01*
X144020827Y-91709397D01*
X144166498Y-91769735D01*
X144166503Y-91769737D01*
X144321153Y-91800499D01*
X144321156Y-91800500D01*
X144321158Y-91800500D01*
X144478844Y-91800500D01*
X144478845Y-91800499D01*
X144633497Y-91769737D01*
X144779179Y-91709394D01*
X144779185Y-91709390D01*
X144910875Y-91621398D01*
X144928921Y-91615747D01*
X144944831Y-91605523D01*
X144975792Y-91601071D01*
X144977553Y-91600520D01*
X144979766Y-91600500D01*
X145105448Y-91600500D01*
X145172487Y-91620185D01*
X145193129Y-91636819D01*
X145301650Y-91745340D01*
X145448484Y-91835908D01*
X145612247Y-91890174D01*
X145713323Y-91900500D01*
X146286676Y-91900499D01*
X146286684Y-91900498D01*
X146286687Y-91900498D01*
X146342030Y-91894844D01*
X146387753Y-91890174D01*
X146551516Y-91835908D01*
X146698350Y-91745340D01*
X146820340Y-91623350D01*
X146841037Y-91589794D01*
X146882914Y-91521903D01*
X146934862Y-91475178D01*
X146988452Y-91463000D01*
X148211548Y-91463000D01*
X148278587Y-91482685D01*
X148317086Y-91521903D01*
X148379657Y-91623346D01*
X148379660Y-91623350D01*
X148501650Y-91745340D01*
X148648484Y-91835908D01*
X148812247Y-91890174D01*
X148913323Y-91900500D01*
X149486676Y-91900499D01*
X149486684Y-91900498D01*
X149486687Y-91900498D01*
X149542030Y-91894844D01*
X149587753Y-91890174D01*
X149751516Y-91835908D01*
X149898350Y-91745340D01*
X150020340Y-91623350D01*
X150110908Y-91476516D01*
X150165174Y-91312753D01*
X150175500Y-91211677D01*
X150175499Y-90766510D01*
X150175499Y-90513330D01*
X150175498Y-90513312D01*
X150165174Y-90412247D01*
X150155224Y-90382220D01*
X150110908Y-90248484D01*
X150020340Y-90101650D01*
X150006017Y-90087327D01*
X149972532Y-90026004D01*
X149977516Y-89956312D01*
X150006021Y-89911960D01*
X150019947Y-89898035D01*
X150110448Y-89751311D01*
X150110453Y-89751300D01*
X150164680Y-89587652D01*
X150174999Y-89486654D01*
X150175000Y-89486641D01*
X150175000Y-89387500D01*
X148225001Y-89387500D01*
X148225001Y-89486654D01*
X148235319Y-89587652D01*
X148289546Y-89751300D01*
X148289551Y-89751311D01*
X148380052Y-89898034D01*
X148380055Y-89898038D01*
X148393982Y-89911965D01*
X148427467Y-89973288D01*
X148422483Y-90042980D01*
X148408608Y-90069712D01*
X148402110Y-90079199D01*
X148379660Y-90101650D01*
X148315536Y-90205611D01*
X148313855Y-90208066D01*
X148288992Y-90228365D01*
X148265138Y-90249822D01*
X148261778Y-90250585D01*
X148259734Y-90252255D01*
X148249094Y-90253467D01*
X148211548Y-90262000D01*
X146988452Y-90262000D01*
X146921413Y-90242315D01*
X146882914Y-90203097D01*
X146820342Y-90101653D01*
X146820339Y-90101649D01*
X146806017Y-90087327D01*
X146772532Y-90026004D01*
X146777516Y-89956312D01*
X146806021Y-89911960D01*
X146819947Y-89898035D01*
X146910448Y-89751311D01*
X146910453Y-89751300D01*
X146964680Y-89587652D01*
X146974999Y-89486654D01*
X146975000Y-89486641D01*
X146975000Y-89387500D01*
X145025001Y-89387500D01*
X145025001Y-89486654D01*
X145035319Y-89587652D01*
X145089546Y-89751300D01*
X145089551Y-89751311D01*
X145180052Y-89898034D01*
X145180055Y-89898038D01*
X145193982Y-89911965D01*
X145227467Y-89973288D01*
X145222483Y-90042980D01*
X145193984Y-90087325D01*
X145179661Y-90101648D01*
X145089093Y-90248481D01*
X145089092Y-90248484D01*
X145075134Y-90290609D01*
X145072700Y-90297953D01*
X145032927Y-90355397D01*
X144968411Y-90382220D01*
X144899635Y-90369905D01*
X144886103Y-90362050D01*
X144779185Y-90290609D01*
X144779172Y-90290602D01*
X144633501Y-90230264D01*
X144633489Y-90230261D01*
X144478845Y-90199500D01*
X144478842Y-90199500D01*
X144321158Y-90199500D01*
X144321155Y-90199500D01*
X144166510Y-90230261D01*
X144166498Y-90230264D01*
X144020827Y-90290602D01*
X144020814Y-90290609D01*
X143889711Y-90378210D01*
X143889707Y-90378213D01*
X143778213Y-90489707D01*
X143778210Y-90489711D01*
X143690609Y-90620814D01*
X143690602Y-90620827D01*
X143630264Y-90766498D01*
X143630261Y-90766510D01*
X143599500Y-90921153D01*
X129550500Y-90921153D01*
X129550500Y-88788345D01*
X145025000Y-88788345D01*
X145025000Y-88887500D01*
X145750000Y-88887500D01*
X146250000Y-88887500D01*
X146974999Y-88887500D01*
X146974999Y-88788361D01*
X146974998Y-88788345D01*
X148225000Y-88788345D01*
X148225000Y-88887500D01*
X148950000Y-88887500D01*
X149450000Y-88887500D01*
X150174999Y-88887500D01*
X150174999Y-88788360D01*
X150174998Y-88788345D01*
X150164680Y-88687347D01*
X150110453Y-88523699D01*
X150110448Y-88523688D01*
X150019947Y-88376965D01*
X150019944Y-88376961D01*
X149898038Y-88255055D01*
X149898034Y-88255052D01*
X149751311Y-88164551D01*
X149751300Y-88164546D01*
X149587652Y-88110319D01*
X149486654Y-88100000D01*
X149450000Y-88100000D01*
X149450000Y-88887500D01*
X148950000Y-88887500D01*
X148950000Y-88100000D01*
X148913361Y-88100000D01*
X148913343Y-88100001D01*
X148812347Y-88110319D01*
X148648699Y-88164546D01*
X148648688Y-88164551D01*
X148501965Y-88255052D01*
X148501961Y-88255055D01*
X148380055Y-88376961D01*
X148380052Y-88376965D01*
X148289551Y-88523688D01*
X148289546Y-88523699D01*
X148235319Y-88687347D01*
X148225000Y-88788345D01*
X146974998Y-88788345D01*
X146974998Y-88788344D01*
X146964680Y-88687347D01*
X146910453Y-88523699D01*
X146910448Y-88523688D01*
X146819947Y-88376965D01*
X146819944Y-88376961D01*
X146698038Y-88255055D01*
X146698034Y-88255052D01*
X146551311Y-88164551D01*
X146551300Y-88164546D01*
X146387652Y-88110319D01*
X146286654Y-88100000D01*
X146250000Y-88100000D01*
X146250000Y-88887500D01*
X145750000Y-88887500D01*
X145750000Y-88100000D01*
X145713361Y-88100000D01*
X145713343Y-88100001D01*
X145612347Y-88110319D01*
X145448699Y-88164546D01*
X145448688Y-88164551D01*
X145301965Y-88255052D01*
X145301961Y-88255055D01*
X145180055Y-88376961D01*
X145180052Y-88376965D01*
X145089551Y-88523688D01*
X145089546Y-88523699D01*
X145035319Y-88687347D01*
X145025000Y-88788345D01*
X129550500Y-88788345D01*
X129550500Y-84341208D01*
X164647500Y-84341208D01*
X164647500Y-84578791D01*
X164647501Y-84578808D01*
X164678511Y-84814356D01*
X164740009Y-85043866D01*
X164830924Y-85263356D01*
X164830931Y-85263371D01*
X164949721Y-85469122D01*
X164949727Y-85469129D01*
X165013805Y-85552639D01*
X165687545Y-84878899D01*
X165780343Y-85017780D01*
X165902220Y-85139657D01*
X166041099Y-85232453D01*
X165367359Y-85906193D01*
X165367359Y-85906194D01*
X165450868Y-85970272D01*
X165656628Y-86089068D01*
X165656643Y-86089075D01*
X165876133Y-86179990D01*
X166105643Y-86241488D01*
X166341191Y-86272498D01*
X166341209Y-86272500D01*
X166578791Y-86272500D01*
X166578808Y-86272498D01*
X166814356Y-86241488D01*
X167043866Y-86179990D01*
X167263356Y-86089075D01*
X167263370Y-86089068D01*
X167376030Y-86024024D01*
X167443930Y-86007551D01*
X167509957Y-86030403D01*
X167553147Y-86085324D01*
X167559789Y-86154878D01*
X167545418Y-86193410D01*
X167505300Y-86262897D01*
X167505295Y-86262907D01*
X167421876Y-86464300D01*
X167365455Y-86674870D01*
X167337000Y-86890993D01*
X167337000Y-87109006D01*
X167359131Y-87277101D01*
X167365455Y-87325131D01*
X167395690Y-87437973D01*
X167421876Y-87535699D01*
X167505295Y-87737092D01*
X167505300Y-87737102D01*
X167545418Y-87806589D01*
X167561890Y-87874489D01*
X167539037Y-87940516D01*
X167484115Y-87983706D01*
X167414562Y-87990347D01*
X167376030Y-87975975D01*
X167263371Y-87910931D01*
X167263356Y-87910924D01*
X167043866Y-87820009D01*
X166814356Y-87758511D01*
X166578808Y-87727501D01*
X166578791Y-87727500D01*
X166341209Y-87727500D01*
X166341191Y-87727501D01*
X166105643Y-87758511D01*
X165876133Y-87820009D01*
X165656643Y-87910924D01*
X165656628Y-87910931D01*
X165450875Y-88029723D01*
X165450861Y-88029732D01*
X165367359Y-88093804D01*
X165367359Y-88093805D01*
X166041100Y-88767546D01*
X165902220Y-88860343D01*
X165780343Y-88982220D01*
X165687546Y-89121100D01*
X165013805Y-88447359D01*
X165013804Y-88447359D01*
X164949732Y-88530861D01*
X164949723Y-88530875D01*
X164830931Y-88736628D01*
X164830924Y-88736643D01*
X164740009Y-88956133D01*
X164678511Y-89185643D01*
X164647501Y-89421191D01*
X164647500Y-89421208D01*
X164647500Y-89658791D01*
X164647501Y-89658808D01*
X164678511Y-89894356D01*
X164740009Y-90123866D01*
X164830924Y-90343356D01*
X164830931Y-90343371D01*
X164949721Y-90549122D01*
X164949727Y-90549129D01*
X165013805Y-90632639D01*
X165687545Y-89958899D01*
X165780343Y-90097780D01*
X165902220Y-90219657D01*
X166041099Y-90312453D01*
X165367359Y-90986193D01*
X165367359Y-90986194D01*
X165450868Y-91050272D01*
X165656628Y-91169068D01*
X165656643Y-91169075D01*
X165876133Y-91259990D01*
X166105643Y-91321488D01*
X166341191Y-91352498D01*
X166341209Y-91352500D01*
X166578791Y-91352500D01*
X166578808Y-91352498D01*
X166814356Y-91321488D01*
X167043866Y-91259990D01*
X167263356Y-91169075D01*
X167263370Y-91169068D01*
X167469125Y-91050275D01*
X167469132Y-91050270D01*
X167552639Y-90986193D01*
X166878899Y-90312453D01*
X167017780Y-90219657D01*
X167139657Y-90097780D01*
X167232453Y-89958899D01*
X167906193Y-90632639D01*
X167970270Y-90549132D01*
X167970275Y-90549125D01*
X168089068Y-90343370D01*
X168089075Y-90343356D01*
X168179990Y-90123866D01*
X168241488Y-89894356D01*
X168272498Y-89658808D01*
X168272500Y-89658791D01*
X168272500Y-89421208D01*
X168272498Y-89421191D01*
X168241488Y-89185643D01*
X168179990Y-88956133D01*
X168089075Y-88736643D01*
X168089068Y-88736629D01*
X168024024Y-88623969D01*
X168007551Y-88556069D01*
X168030404Y-88490042D01*
X168085325Y-88446851D01*
X168154878Y-88440210D01*
X168193409Y-88454581D01*
X168222728Y-88471508D01*
X168262892Y-88494697D01*
X168262907Y-88494704D01*
X168350232Y-88530875D01*
X168464299Y-88578123D01*
X168674869Y-88634545D01*
X168891001Y-88663000D01*
X168891008Y-88663000D01*
X169108992Y-88663000D01*
X169108999Y-88663000D01*
X169325131Y-88634545D01*
X169535701Y-88578123D01*
X169737104Y-88494699D01*
X169806590Y-88454581D01*
X169874488Y-88438109D01*
X169940515Y-88460961D01*
X169983705Y-88515882D01*
X169990347Y-88585436D01*
X169975976Y-88623968D01*
X169910929Y-88736633D01*
X169910924Y-88736643D01*
X169820009Y-88956133D01*
X169758511Y-89185643D01*
X169727501Y-89421191D01*
X169727500Y-89421208D01*
X169727500Y-89658791D01*
X169727501Y-89658808D01*
X169758511Y-89894356D01*
X169820009Y-90123866D01*
X169910924Y-90343356D01*
X169910931Y-90343371D01*
X170029721Y-90549122D01*
X170029727Y-90549129D01*
X170093805Y-90632639D01*
X170767545Y-89958899D01*
X170860343Y-90097780D01*
X170982220Y-90219657D01*
X171121099Y-90312453D01*
X170447359Y-90986193D01*
X170447359Y-90986194D01*
X170530868Y-91050272D01*
X170736628Y-91169068D01*
X170736643Y-91169075D01*
X170956133Y-91259990D01*
X171185643Y-91321488D01*
X171421191Y-91352498D01*
X171421209Y-91352500D01*
X171658791Y-91352500D01*
X171658808Y-91352498D01*
X171894356Y-91321488D01*
X172123866Y-91259990D01*
X172343356Y-91169075D01*
X172343370Y-91169068D01*
X172549125Y-91050275D01*
X172549132Y-91050270D01*
X172632639Y-90986193D01*
X171958899Y-90312453D01*
X172097780Y-90219657D01*
X172219657Y-90097780D01*
X172312453Y-89958899D01*
X172986193Y-90632639D01*
X173050270Y-90549132D01*
X173050275Y-90549125D01*
X173169068Y-90343370D01*
X173169075Y-90343356D01*
X173259990Y-90123866D01*
X173321488Y-89894356D01*
X173352498Y-89658808D01*
X173352500Y-89658791D01*
X173352500Y-89421208D01*
X173352498Y-89421191D01*
X173321488Y-89185643D01*
X173259990Y-88956133D01*
X173169075Y-88736643D01*
X173169068Y-88736628D01*
X173050272Y-88530868D01*
X172986194Y-88447359D01*
X172986193Y-88447359D01*
X172312453Y-89121099D01*
X172219657Y-88982220D01*
X172097780Y-88860343D01*
X171958899Y-88767545D01*
X172632639Y-88093805D01*
X172632639Y-88093804D01*
X172549129Y-88029727D01*
X172549122Y-88029721D01*
X172343371Y-87910931D01*
X172343356Y-87910924D01*
X172123866Y-87820009D01*
X171894356Y-87758511D01*
X171658808Y-87727501D01*
X171658791Y-87727500D01*
X171421209Y-87727500D01*
X171421191Y-87727501D01*
X171185643Y-87758511D01*
X170956133Y-87820009D01*
X170736643Y-87910924D01*
X170736633Y-87910929D01*
X170623968Y-87975976D01*
X170556068Y-87992448D01*
X170490041Y-87969595D01*
X170446851Y-87914673D01*
X170440210Y-87845120D01*
X170454582Y-87806589D01*
X170494699Y-87737104D01*
X170578123Y-87535701D01*
X170634545Y-87325131D01*
X170663000Y-87108999D01*
X170663000Y-86891001D01*
X170634545Y-86674869D01*
X170578123Y-86464299D01*
X170537844Y-86367057D01*
X170494704Y-86262907D01*
X170494697Y-86262892D01*
X170454582Y-86193411D01*
X170438109Y-86125511D01*
X170460962Y-86059484D01*
X170515883Y-86016293D01*
X170585436Y-86009652D01*
X170623969Y-86024024D01*
X170736629Y-86089068D01*
X170736643Y-86089075D01*
X170956133Y-86179990D01*
X171185643Y-86241488D01*
X171421191Y-86272498D01*
X171421209Y-86272500D01*
X171658791Y-86272500D01*
X171658808Y-86272498D01*
X171894356Y-86241488D01*
X172123866Y-86179990D01*
X172343356Y-86089075D01*
X172343370Y-86089068D01*
X172549125Y-85970275D01*
X172549132Y-85970270D01*
X172632639Y-85906193D01*
X171958899Y-85232453D01*
X172097780Y-85139657D01*
X172219657Y-85017780D01*
X172312453Y-84878899D01*
X172986193Y-85552639D01*
X173050270Y-85469132D01*
X173050275Y-85469125D01*
X173169068Y-85263370D01*
X173169075Y-85263356D01*
X173259990Y-85043866D01*
X173321488Y-84814356D01*
X173352498Y-84578808D01*
X173352500Y-84578791D01*
X173352500Y-84341208D01*
X173352498Y-84341191D01*
X173321488Y-84105643D01*
X173259990Y-83876133D01*
X173169075Y-83656643D01*
X173169068Y-83656628D01*
X173050272Y-83450868D01*
X172986194Y-83367359D01*
X172986193Y-83367359D01*
X172312453Y-84041099D01*
X172219657Y-83902220D01*
X172097780Y-83780343D01*
X171958899Y-83687546D01*
X172632639Y-83013805D01*
X172632639Y-83013804D01*
X172549129Y-82949727D01*
X172549122Y-82949721D01*
X172343371Y-82830931D01*
X172343356Y-82830924D01*
X172123866Y-82740009D01*
X171894356Y-82678511D01*
X171658808Y-82647501D01*
X171658791Y-82647500D01*
X171421209Y-82647500D01*
X171421191Y-82647501D01*
X171185643Y-82678511D01*
X170956133Y-82740009D01*
X170736643Y-82830924D01*
X170736628Y-82830931D01*
X170530875Y-82949723D01*
X170530861Y-82949732D01*
X170447359Y-83013804D01*
X170447359Y-83013805D01*
X171121100Y-83687546D01*
X170982220Y-83780343D01*
X170860343Y-83902220D01*
X170767546Y-84041100D01*
X170093805Y-83367359D01*
X170093804Y-83367359D01*
X170029732Y-83450861D01*
X170029723Y-83450875D01*
X169910931Y-83656628D01*
X169910924Y-83656643D01*
X169820009Y-83876133D01*
X169758511Y-84105643D01*
X169727501Y-84341191D01*
X169727500Y-84341208D01*
X169727500Y-84578791D01*
X169727501Y-84578808D01*
X169758511Y-84814356D01*
X169820009Y-85043866D01*
X169910924Y-85263356D01*
X169910931Y-85263371D01*
X169975975Y-85376030D01*
X169992448Y-85443930D01*
X169969595Y-85509957D01*
X169914674Y-85553148D01*
X169845121Y-85559789D01*
X169806589Y-85545418D01*
X169745168Y-85509957D01*
X169737104Y-85505301D01*
X169737102Y-85505300D01*
X169737092Y-85505295D01*
X169535699Y-85421876D01*
X169437973Y-85395690D01*
X169325131Y-85365455D01*
X169277101Y-85359131D01*
X169109006Y-85337000D01*
X169108999Y-85337000D01*
X168891001Y-85337000D01*
X168890993Y-85337000D01*
X168698883Y-85362293D01*
X168674869Y-85365455D01*
X168635403Y-85376030D01*
X168464300Y-85421876D01*
X168262907Y-85505295D01*
X168262897Y-85505300D01*
X168193410Y-85545418D01*
X168125509Y-85561889D01*
X168059483Y-85539037D01*
X168016293Y-85484115D01*
X168009652Y-85414561D01*
X168024024Y-85376030D01*
X168089068Y-85263370D01*
X168089075Y-85263356D01*
X168179990Y-85043866D01*
X168241488Y-84814356D01*
X168272498Y-84578808D01*
X168272500Y-84578791D01*
X168272500Y-84341208D01*
X168272498Y-84341191D01*
X168241488Y-84105643D01*
X168179990Y-83876133D01*
X168089075Y-83656643D01*
X168089068Y-83656628D01*
X167970272Y-83450868D01*
X167906194Y-83367359D01*
X167906193Y-83367359D01*
X167232453Y-84041099D01*
X167139657Y-83902220D01*
X167017780Y-83780343D01*
X166878899Y-83687546D01*
X167552639Y-83013805D01*
X167552639Y-83013804D01*
X167469129Y-82949727D01*
X167469122Y-82949721D01*
X167263371Y-82830931D01*
X167263356Y-82830924D01*
X167043866Y-82740009D01*
X166814356Y-82678511D01*
X166578808Y-82647501D01*
X166578791Y-82647500D01*
X166341209Y-82647500D01*
X166341191Y-82647501D01*
X166105643Y-82678511D01*
X165876133Y-82740009D01*
X165656643Y-82830924D01*
X165656628Y-82830931D01*
X165450875Y-82949723D01*
X165450861Y-82949732D01*
X165367359Y-83013804D01*
X165367359Y-83013805D01*
X166041100Y-83687546D01*
X165902220Y-83780343D01*
X165780343Y-83902220D01*
X165687546Y-84041100D01*
X165013805Y-83367359D01*
X165013804Y-83367359D01*
X164949732Y-83450861D01*
X164949723Y-83450875D01*
X164830931Y-83656628D01*
X164830924Y-83656643D01*
X164740009Y-83876133D01*
X164678511Y-84105643D01*
X164647501Y-84341191D01*
X164647500Y-84341208D01*
X129550500Y-84341208D01*
X129550500Y-82521153D01*
X154999500Y-82521153D01*
X154999500Y-82678846D01*
X155030261Y-82833489D01*
X155030264Y-82833501D01*
X155090602Y-82979172D01*
X155090609Y-82979185D01*
X155178210Y-83110288D01*
X155178213Y-83110292D01*
X155289707Y-83221786D01*
X155289711Y-83221789D01*
X155420814Y-83309390D01*
X155420827Y-83309397D01*
X155560762Y-83367359D01*
X155566503Y-83369737D01*
X155721153Y-83400499D01*
X155721156Y-83400500D01*
X155721158Y-83400500D01*
X155878844Y-83400500D01*
X155878845Y-83400499D01*
X156033497Y-83369737D01*
X156179179Y-83309394D01*
X156310289Y-83221789D01*
X156421789Y-83110289D01*
X156486258Y-83013805D01*
X156500249Y-82992867D01*
X156500249Y-82992866D01*
X156509388Y-82979188D01*
X156509390Y-82979185D01*
X156509394Y-82979179D01*
X156569737Y-82833497D01*
X156589113Y-82736085D01*
X156600638Y-82678150D01*
X156633023Y-82616239D01*
X156634518Y-82614716D01*
X157814662Y-81434572D01*
X157875983Y-81401089D01*
X157878150Y-81400638D01*
X157936085Y-81389113D01*
X158033497Y-81369737D01*
X158179179Y-81309394D01*
X158310289Y-81221789D01*
X158421789Y-81110289D01*
X158509394Y-80979179D01*
X158569737Y-80833497D01*
X158600500Y-80678842D01*
X158600500Y-80521158D01*
X158600500Y-80521155D01*
X158600499Y-80521153D01*
X158569737Y-80366503D01*
X158550955Y-80321158D01*
X158509397Y-80220827D01*
X158509390Y-80220814D01*
X158421789Y-80089711D01*
X158421786Y-80089707D01*
X158310292Y-79978213D01*
X158310288Y-79978210D01*
X158179185Y-79890609D01*
X158179172Y-79890602D01*
X158033501Y-79830264D01*
X158033489Y-79830261D01*
X157878845Y-79799500D01*
X157878842Y-79799500D01*
X157721158Y-79799500D01*
X157721155Y-79799500D01*
X157566510Y-79830261D01*
X157566498Y-79830264D01*
X157420827Y-79890602D01*
X157420814Y-79890609D01*
X157289711Y-79978210D01*
X157289707Y-79978213D01*
X157178213Y-80089707D01*
X157178210Y-80089711D01*
X157090609Y-80220814D01*
X157090602Y-80220827D01*
X157030264Y-80366498D01*
X157030261Y-80366508D01*
X156999361Y-80521850D01*
X156966976Y-80583761D01*
X156965425Y-80585339D01*
X155785339Y-81765425D01*
X155724016Y-81798910D01*
X155721850Y-81799361D01*
X155566508Y-81830261D01*
X155566498Y-81830264D01*
X155420827Y-81890602D01*
X155420814Y-81890609D01*
X155289711Y-81978210D01*
X155289707Y-81978213D01*
X155178213Y-82089707D01*
X155178210Y-82089711D01*
X155090609Y-82220814D01*
X155090602Y-82220827D01*
X155030264Y-82366498D01*
X155030261Y-82366510D01*
X154999500Y-82521153D01*
X129550500Y-82521153D01*
X129550500Y-80321153D01*
X149199500Y-80321153D01*
X149199500Y-80478846D01*
X149230261Y-80633489D01*
X149230264Y-80633501D01*
X149290602Y-80779172D01*
X149290609Y-80779185D01*
X149378210Y-80910288D01*
X149378213Y-80910292D01*
X149489707Y-81021786D01*
X149489711Y-81021789D01*
X149620814Y-81109390D01*
X149620827Y-81109397D01*
X149766498Y-81169735D01*
X149766503Y-81169737D01*
X149921153Y-81200499D01*
X149921156Y-81200500D01*
X149921158Y-81200500D01*
X150078844Y-81200500D01*
X150078845Y-81200499D01*
X150233497Y-81169737D01*
X150379179Y-81109394D01*
X150379185Y-81109390D01*
X150510875Y-81021398D01*
X150577553Y-81000520D01*
X150579766Y-81000500D01*
X152220234Y-81000500D01*
X152287273Y-81020185D01*
X152289125Y-81021398D01*
X152420814Y-81109390D01*
X152420827Y-81109397D01*
X152566498Y-81169735D01*
X152566503Y-81169737D01*
X152721153Y-81200499D01*
X152721156Y-81200500D01*
X152721158Y-81200500D01*
X152878844Y-81200500D01*
X152878845Y-81200499D01*
X153033497Y-81169737D01*
X153179179Y-81109394D01*
X153310289Y-81021789D01*
X153421789Y-80910289D01*
X153509394Y-80779179D01*
X153569737Y-80633497D01*
X153600500Y-80478842D01*
X153600500Y-80321158D01*
X153600500Y-80321155D01*
X153600499Y-80321153D01*
X153580543Y-80220827D01*
X153569737Y-80166503D01*
X153537929Y-80089711D01*
X153509397Y-80020827D01*
X153509390Y-80020814D01*
X153421789Y-79889711D01*
X153421786Y-79889707D01*
X153310292Y-79778213D01*
X153310288Y-79778210D01*
X153179185Y-79690609D01*
X153179172Y-79690602D01*
X153033501Y-79630264D01*
X153033489Y-79630261D01*
X152878845Y-79599500D01*
X152878842Y-79599500D01*
X152721158Y-79599500D01*
X152721155Y-79599500D01*
X152566510Y-79630261D01*
X152566498Y-79630264D01*
X152420827Y-79690602D01*
X152420814Y-79690609D01*
X152289125Y-79778602D01*
X152222447Y-79799480D01*
X152220234Y-79799500D01*
X150579766Y-79799500D01*
X150512727Y-79779815D01*
X150510875Y-79778602D01*
X150379185Y-79690609D01*
X150379172Y-79690602D01*
X150233501Y-79630264D01*
X150233489Y-79630261D01*
X150078845Y-79599500D01*
X150078842Y-79599500D01*
X149921158Y-79599500D01*
X149921155Y-79599500D01*
X149766510Y-79630261D01*
X149766498Y-79630264D01*
X149620827Y-79690602D01*
X149620814Y-79690609D01*
X149489711Y-79778210D01*
X149489707Y-79778213D01*
X149378213Y-79889707D01*
X149378210Y-79889711D01*
X149290609Y-80020814D01*
X149290602Y-80020827D01*
X149230264Y-80166498D01*
X149230261Y-80166510D01*
X149199500Y-80321153D01*
X129550500Y-80321153D01*
X129550500Y-70921153D01*
X164699500Y-70921153D01*
X164699500Y-71078846D01*
X164730261Y-71233489D01*
X164730264Y-71233501D01*
X164790602Y-71379172D01*
X164790609Y-71379185D01*
X164825304Y-71431109D01*
X164846182Y-71497786D01*
X164827698Y-71565167D01*
X164825304Y-71568891D01*
X164790609Y-71620814D01*
X164790602Y-71620827D01*
X164730264Y-71766498D01*
X164730261Y-71766510D01*
X164699500Y-71921153D01*
X164699500Y-72078846D01*
X164730261Y-72233489D01*
X164730264Y-72233501D01*
X164790602Y-72379172D01*
X164790609Y-72379185D01*
X164878210Y-72510288D01*
X164878213Y-72510292D01*
X164989707Y-72621786D01*
X164989711Y-72621789D01*
X165120814Y-72709390D01*
X165120827Y-72709397D01*
X165215799Y-72748735D01*
X165266503Y-72769737D01*
X165419132Y-72800097D01*
X165421153Y-72800499D01*
X165421156Y-72800500D01*
X165421158Y-72800500D01*
X165578844Y-72800500D01*
X165578845Y-72800499D01*
X165733497Y-72769737D01*
X165879179Y-72709394D01*
X166010289Y-72621789D01*
X166010292Y-72621786D01*
X166096260Y-72535819D01*
X166157583Y-72502334D01*
X166183941Y-72499500D01*
X170098903Y-72499500D01*
X170128343Y-72508144D01*
X170158330Y-72514668D01*
X170163345Y-72518422D01*
X170165942Y-72519185D01*
X170186584Y-72535819D01*
X170363181Y-72712416D01*
X170396666Y-72773739D01*
X170399500Y-72800097D01*
X170399500Y-73920234D01*
X170379815Y-73987273D01*
X170378602Y-73989125D01*
X170290609Y-74120814D01*
X170290602Y-74120827D01*
X170230264Y-74266498D01*
X170230261Y-74266510D01*
X170199500Y-74421153D01*
X170199500Y-74578846D01*
X170230261Y-74733489D01*
X170230264Y-74733501D01*
X170290602Y-74879172D01*
X170290609Y-74879185D01*
X170378210Y-75010288D01*
X170378213Y-75010292D01*
X170489707Y-75121786D01*
X170489711Y-75121789D01*
X170620814Y-75209390D01*
X170620827Y-75209397D01*
X170766498Y-75269735D01*
X170766503Y-75269737D01*
X170921153Y-75300499D01*
X170921156Y-75300500D01*
X170921158Y-75300500D01*
X171078844Y-75300500D01*
X171078845Y-75300499D01*
X171233497Y-75269737D01*
X171379179Y-75209394D01*
X171510289Y-75121789D01*
X171621789Y-75010289D01*
X171709394Y-74879179D01*
X171769737Y-74733497D01*
X171800500Y-74578842D01*
X171800500Y-74421158D01*
X171800500Y-74421155D01*
X171800499Y-74421153D01*
X171769738Y-74266510D01*
X171769737Y-74266503D01*
X171769735Y-74266498D01*
X171709397Y-74120827D01*
X171709390Y-74120814D01*
X171621398Y-73989125D01*
X171600520Y-73922447D01*
X171600500Y-73920234D01*
X171600500Y-72624837D01*
X171620185Y-72557798D01*
X171672989Y-72512043D01*
X171676986Y-72510302D01*
X171679179Y-72509394D01*
X171810289Y-72421789D01*
X171921789Y-72310289D01*
X172009394Y-72179179D01*
X172069737Y-72033497D01*
X172100500Y-71878842D01*
X172100500Y-71721158D01*
X172100500Y-71721155D01*
X172100499Y-71721153D01*
X172080543Y-71620827D01*
X172069737Y-71566503D01*
X172041274Y-71497786D01*
X172009397Y-71420827D01*
X172009390Y-71420814D01*
X171921789Y-71289711D01*
X171921786Y-71289707D01*
X171810292Y-71178213D01*
X171810288Y-71178210D01*
X171679185Y-71090609D01*
X171679172Y-71090602D01*
X171533501Y-71030264D01*
X171533489Y-71030261D01*
X171378845Y-70999500D01*
X171378842Y-70999500D01*
X171250040Y-70999500D01*
X171183001Y-70979815D01*
X171162359Y-70963181D01*
X170837533Y-70638355D01*
X170837531Y-70638352D01*
X170718660Y-70519481D01*
X170718659Y-70519480D01*
X170631847Y-70469360D01*
X170631847Y-70469359D01*
X170631843Y-70469358D01*
X170581728Y-70440423D01*
X170429000Y-70399499D01*
X170270886Y-70399499D01*
X170263290Y-70399499D01*
X170263274Y-70399500D01*
X166079766Y-70399500D01*
X166012727Y-70379815D01*
X166010875Y-70378602D01*
X165879185Y-70290609D01*
X165879172Y-70290602D01*
X165733501Y-70230264D01*
X165733489Y-70230261D01*
X165578845Y-70199500D01*
X165578842Y-70199500D01*
X165421158Y-70199500D01*
X165421155Y-70199500D01*
X165266510Y-70230261D01*
X165266498Y-70230264D01*
X165120827Y-70290602D01*
X165120814Y-70290609D01*
X164989711Y-70378210D01*
X164989707Y-70378213D01*
X164878213Y-70489707D01*
X164878210Y-70489711D01*
X164790609Y-70620814D01*
X164790602Y-70620827D01*
X164730264Y-70766498D01*
X164730261Y-70766510D01*
X164699500Y-70921153D01*
X129550500Y-70921153D01*
X129550500Y-65658628D01*
X178071700Y-65658628D01*
X178071700Y-65841369D01*
X178100284Y-66021840D01*
X178100285Y-66021844D01*
X178156752Y-66195630D01*
X178239709Y-66358443D01*
X178347115Y-66506275D01*
X178476324Y-66635484D01*
X178495865Y-66649681D01*
X178538531Y-66705010D01*
X178544511Y-66774623D01*
X178511905Y-66836418D01*
X178495867Y-66850316D01*
X178476324Y-66864514D01*
X178347117Y-66993721D01*
X178239709Y-67141555D01*
X178156753Y-67304366D01*
X178100284Y-67478158D01*
X178071700Y-67658629D01*
X178071700Y-67841370D01*
X178100284Y-68021841D01*
X178100285Y-68021845D01*
X178156752Y-68195631D01*
X178239709Y-68358444D01*
X178347115Y-68506276D01*
X178476324Y-68635485D01*
X178624156Y-68742891D01*
X178786969Y-68825848D01*
X178960755Y-68882315D01*
X179028435Y-68893034D01*
X179141230Y-68910900D01*
X179141235Y-68910900D01*
X179323970Y-68910900D01*
X179424231Y-68895019D01*
X179504445Y-68882315D01*
X179678231Y-68825848D01*
X179841044Y-68742891D01*
X179988876Y-68635485D01*
X180118085Y-68506276D01*
X180225491Y-68358444D01*
X180308448Y-68195631D01*
X180364915Y-68021845D01*
X180377619Y-67941631D01*
X180393500Y-67841370D01*
X180393500Y-67658629D01*
X180364915Y-67478158D01*
X180364915Y-67478155D01*
X180308448Y-67304369D01*
X180225491Y-67141556D01*
X180118085Y-66993724D01*
X179988876Y-66864515D01*
X179969333Y-66850316D01*
X179926668Y-66794988D01*
X179920689Y-66725374D01*
X179953294Y-66663579D01*
X179969330Y-66649684D01*
X179988876Y-66635484D01*
X180118085Y-66506275D01*
X180225491Y-66358443D01*
X180308448Y-66195630D01*
X180364915Y-66021844D01*
X180377619Y-65941630D01*
X180393500Y-65841369D01*
X180393500Y-65658628D01*
X180364915Y-65478157D01*
X180364915Y-65478154D01*
X180308448Y-65304368D01*
X180225491Y-65141555D01*
X180118085Y-64993723D01*
X179988876Y-64864514D01*
X179841044Y-64757108D01*
X179678231Y-64674151D01*
X179504445Y-64617684D01*
X179504443Y-64617683D01*
X179504441Y-64617683D01*
X179323970Y-64589099D01*
X179323965Y-64589099D01*
X179141235Y-64589099D01*
X179141230Y-64589099D01*
X178960758Y-64617683D01*
X178786966Y-64674152D01*
X178624155Y-64757108D01*
X178476321Y-64864516D01*
X178347117Y-64993720D01*
X178239709Y-65141554D01*
X178156753Y-65304365D01*
X178100284Y-65478157D01*
X178071700Y-65658628D01*
X129550500Y-65658628D01*
X129550500Y-57331491D01*
X130999500Y-57331491D01*
X130999500Y-57668508D01*
X131037231Y-58003381D01*
X131037233Y-58003397D01*
X131112223Y-58331953D01*
X131112227Y-58331965D01*
X131223532Y-58650054D01*
X131369752Y-58953683D01*
X131376311Y-58964121D01*
X131549054Y-59239039D01*
X131759175Y-59502523D01*
X131997477Y-59740825D01*
X132260961Y-59950946D01*
X132546314Y-60130246D01*
X132849949Y-60276469D01*
X133088848Y-60360063D01*
X133168034Y-60387772D01*
X133168046Y-60387776D01*
X133496606Y-60462767D01*
X133831492Y-60500499D01*
X133831493Y-60500500D01*
X133831496Y-60500500D01*
X134168507Y-60500500D01*
X134168507Y-60500499D01*
X134503394Y-60462767D01*
X134831954Y-60387776D01*
X135150051Y-60276469D01*
X135453686Y-60130246D01*
X135739039Y-59950946D01*
X136002523Y-59740825D01*
X136240825Y-59502523D01*
X136301827Y-59426029D01*
X140089099Y-59426029D01*
X140089099Y-59608770D01*
X140116378Y-59781000D01*
X140117684Y-59789245D01*
X140174151Y-59963031D01*
X140257108Y-60125844D01*
X140364514Y-60273676D01*
X140493723Y-60402885D01*
X140641555Y-60510291D01*
X140804368Y-60593248D01*
X140978154Y-60649715D01*
X141045834Y-60660434D01*
X141158629Y-60678300D01*
X141158634Y-60678300D01*
X141341369Y-60678300D01*
X141441630Y-60662419D01*
X141521844Y-60649715D01*
X141695630Y-60593248D01*
X141858443Y-60510291D01*
X142006275Y-60402885D01*
X142135484Y-60273676D01*
X142194739Y-60192117D01*
X142198326Y-60188000D01*
X142223332Y-60172019D01*
X142246840Y-60153892D01*
X142253156Y-60152960D01*
X142257200Y-60150377D01*
X142263453Y-60150393D01*
X142843600Y-59570246D01*
X142843600Y-59570904D01*
X142871295Y-59674265D01*
X142924799Y-59766936D01*
X143000464Y-59842601D01*
X143093135Y-59896105D01*
X143196496Y-59923800D01*
X143197153Y-59923800D01*
X142624019Y-60496931D01*
X142641817Y-60509862D01*
X142804556Y-60592783D01*
X142978271Y-60649227D01*
X143158670Y-60677800D01*
X143341330Y-60677800D01*
X143521728Y-60649227D01*
X143695443Y-60592783D01*
X143858178Y-60509865D01*
X143875979Y-60496931D01*
X143302848Y-59923800D01*
X143303504Y-59923800D01*
X143406865Y-59896105D01*
X143499536Y-59842601D01*
X143575201Y-59766936D01*
X143628705Y-59674265D01*
X143656400Y-59570904D01*
X143656400Y-59570247D01*
X144229531Y-60143378D01*
X144242465Y-60125578D01*
X144325383Y-59962843D01*
X144381827Y-59789128D01*
X144410400Y-59608730D01*
X144410400Y-59426069D01*
X144381827Y-59245671D01*
X144325383Y-59071956D01*
X144242462Y-58909217D01*
X144229531Y-58891420D01*
X144229531Y-58891419D01*
X143656400Y-59464551D01*
X143656400Y-59463896D01*
X143628705Y-59360535D01*
X143575201Y-59267864D01*
X143499536Y-59192199D01*
X143406865Y-59138695D01*
X143303504Y-59111000D01*
X143302847Y-59111000D01*
X143875978Y-58537867D01*
X143858177Y-58524934D01*
X143695443Y-58442016D01*
X143631234Y-58421153D01*
X148199500Y-58421153D01*
X148199500Y-58578846D01*
X148230261Y-58733489D01*
X148230264Y-58733501D01*
X148290602Y-58879172D01*
X148290609Y-58879185D01*
X148378602Y-59010874D01*
X148399480Y-59077551D01*
X148399500Y-59079765D01*
X148399500Y-60420234D01*
X148379815Y-60487273D01*
X148378602Y-60489125D01*
X148290609Y-60620814D01*
X148290602Y-60620827D01*
X148230264Y-60766498D01*
X148230261Y-60766510D01*
X148199500Y-60921153D01*
X148199500Y-61078846D01*
X148230261Y-61233489D01*
X148230264Y-61233501D01*
X148290602Y-61379172D01*
X148290609Y-61379185D01*
X148378210Y-61510288D01*
X148378213Y-61510292D01*
X148489707Y-61621786D01*
X148489711Y-61621789D01*
X148620814Y-61709390D01*
X148620827Y-61709397D01*
X148766498Y-61769735D01*
X148766503Y-61769737D01*
X148921153Y-61800499D01*
X148921156Y-61800500D01*
X148921158Y-61800500D01*
X149078844Y-61800500D01*
X149078845Y-61800499D01*
X149233497Y-61769737D01*
X149379179Y-61709394D01*
X149510289Y-61621789D01*
X149621789Y-61510289D01*
X149709394Y-61379179D01*
X149769737Y-61233497D01*
X149800500Y-61078842D01*
X149800500Y-60921158D01*
X149800500Y-60921155D01*
X149800499Y-60921153D01*
X149769738Y-60766510D01*
X149769737Y-60766503D01*
X149769735Y-60766498D01*
X149709397Y-60620827D01*
X149709390Y-60620814D01*
X149621398Y-60489125D01*
X149615747Y-60471078D01*
X149605523Y-60455169D01*
X149601071Y-60424207D01*
X149600520Y-60422447D01*
X149600500Y-60420234D01*
X149600500Y-59310668D01*
X166465002Y-59310668D01*
X166465002Y-59489331D01*
X166492948Y-59665780D01*
X166548157Y-59835693D01*
X166629262Y-59994869D01*
X166638653Y-60007793D01*
X166638654Y-60007794D01*
X167219002Y-59427446D01*
X167219002Y-59450160D01*
X167244966Y-59547061D01*
X167295126Y-59633940D01*
X167366062Y-59704876D01*
X167452941Y-59755036D01*
X167549842Y-59781000D01*
X167572556Y-59781000D01*
X166992207Y-60361347D01*
X166992207Y-60361348D01*
X167005131Y-60370738D01*
X167164308Y-60451844D01*
X167334221Y-60507053D01*
X167510671Y-60535000D01*
X167689333Y-60535000D01*
X167865782Y-60507053D01*
X168035695Y-60451844D01*
X168194869Y-60370739D01*
X168194874Y-60370737D01*
X168207796Y-60361347D01*
X167627449Y-59781000D01*
X167650162Y-59781000D01*
X167747063Y-59755036D01*
X167833942Y-59704876D01*
X167904878Y-59633940D01*
X167955038Y-59547061D01*
X167981002Y-59450160D01*
X167981002Y-59427446D01*
X168561349Y-60007793D01*
X168564658Y-60007533D01*
X168633035Y-60021899D01*
X168674701Y-60058265D01*
X168727000Y-60130246D01*
X168733889Y-60139728D01*
X168860272Y-60266111D01*
X169004868Y-60371167D01*
X169164119Y-60452309D01*
X169164121Y-60452310D01*
X169221884Y-60471078D01*
X169334103Y-60507540D01*
X169510634Y-60535500D01*
X169510635Y-60535500D01*
X169689365Y-60535500D01*
X169689366Y-60535500D01*
X169865897Y-60507540D01*
X169865900Y-60507539D01*
X169865901Y-60507539D01*
X170035878Y-60452310D01*
X170035878Y-60452309D01*
X170035881Y-60452309D01*
X170195132Y-60371167D01*
X170339728Y-60266111D01*
X170466111Y-60139728D01*
X170499683Y-60093519D01*
X170555011Y-60050855D01*
X170624625Y-60044876D01*
X170686420Y-60077481D01*
X170700315Y-60093517D01*
X170733890Y-60139728D01*
X170860273Y-60266111D01*
X171004869Y-60371167D01*
X171164120Y-60452309D01*
X171164122Y-60452310D01*
X171221885Y-60471078D01*
X171334104Y-60507540D01*
X171510635Y-60535500D01*
X171510636Y-60535500D01*
X171689366Y-60535500D01*
X171689367Y-60535500D01*
X171865898Y-60507540D01*
X171865901Y-60507539D01*
X171865902Y-60507539D01*
X172035879Y-60452310D01*
X172035879Y-60452309D01*
X172035882Y-60452309D01*
X172195133Y-60371167D01*
X172339729Y-60266111D01*
X172466112Y-60139728D01*
X172499685Y-60093518D01*
X172555011Y-60050856D01*
X172624624Y-60044877D01*
X172686419Y-60077482D01*
X172700314Y-60093516D01*
X172733889Y-60139728D01*
X172860272Y-60266111D01*
X173004868Y-60371167D01*
X173164119Y-60452309D01*
X173164121Y-60452310D01*
X173221884Y-60471078D01*
X173334103Y-60507540D01*
X173510634Y-60535500D01*
X173510635Y-60535500D01*
X173689365Y-60535500D01*
X173689366Y-60535500D01*
X173865897Y-60507540D01*
X173865900Y-60507539D01*
X173865901Y-60507539D01*
X174035878Y-60452310D01*
X174035878Y-60452309D01*
X174035881Y-60452309D01*
X174195132Y-60371167D01*
X174339728Y-60266111D01*
X174466111Y-60139728D01*
X174571167Y-59995132D01*
X174652309Y-59835881D01*
X174679059Y-59753554D01*
X174707539Y-59665901D01*
X174707539Y-59665900D01*
X174707540Y-59665897D01*
X174735500Y-59489366D01*
X174735500Y-59310634D01*
X174707540Y-59134103D01*
X174707539Y-59134099D01*
X174707539Y-59134098D01*
X174652310Y-58964121D01*
X174652308Y-58964118D01*
X174646992Y-58953683D01*
X174571167Y-58804868D01*
X174466111Y-58660272D01*
X174339728Y-58533889D01*
X174195132Y-58428833D01*
X174035881Y-58347691D01*
X174035878Y-58347689D01*
X173865899Y-58292460D01*
X173748209Y-58273820D01*
X173689366Y-58264500D01*
X173510634Y-58264500D01*
X173451790Y-58273820D01*
X173334101Y-58292460D01*
X173334098Y-58292460D01*
X173164121Y-58347689D01*
X173164118Y-58347691D01*
X173004867Y-58428833D01*
X172860270Y-58533890D01*
X172733888Y-58660272D01*
X172700317Y-58706479D01*
X172644987Y-58749144D01*
X172575373Y-58755122D01*
X172513578Y-58722515D01*
X172499682Y-58706477D01*
X172466114Y-58660275D01*
X172466109Y-58660269D01*
X172339730Y-58533890D01*
X172327403Y-58524934D01*
X172195133Y-58428833D01*
X172035882Y-58347691D01*
X172035879Y-58347689D01*
X171865900Y-58292460D01*
X171748210Y-58273820D01*
X171689367Y-58264500D01*
X171510635Y-58264500D01*
X171451791Y-58273820D01*
X171334102Y-58292460D01*
X171334099Y-58292460D01*
X171164122Y-58347689D01*
X171164119Y-58347691D01*
X171004868Y-58428833D01*
X170860271Y-58533890D01*
X170733889Y-58660272D01*
X170700317Y-58706480D01*
X170644986Y-58749145D01*
X170575373Y-58755123D01*
X170513578Y-58722516D01*
X170499683Y-58706480D01*
X170466111Y-58660272D01*
X170339728Y-58533889D01*
X170195132Y-58428833D01*
X170035881Y-58347691D01*
X170035878Y-58347689D01*
X169865899Y-58292460D01*
X169748209Y-58273820D01*
X169689366Y-58264500D01*
X169510634Y-58264500D01*
X169451790Y-58273820D01*
X169334101Y-58292460D01*
X169334098Y-58292460D01*
X169164121Y-58347689D01*
X169164118Y-58347691D01*
X169004867Y-58428833D01*
X168860270Y-58533890D01*
X168733888Y-58660272D01*
X168674702Y-58741734D01*
X168619372Y-58784399D01*
X168564659Y-58792465D01*
X168561350Y-58792204D01*
X167981002Y-59372552D01*
X167981002Y-59349840D01*
X167955038Y-59252939D01*
X167904878Y-59166060D01*
X167833942Y-59095124D01*
X167747063Y-59044964D01*
X167650162Y-59019000D01*
X167627449Y-59019000D01*
X168207796Y-58438652D01*
X168207795Y-58438651D01*
X168194871Y-58429260D01*
X168035695Y-58348155D01*
X167865782Y-58292946D01*
X167689333Y-58265000D01*
X167510671Y-58265000D01*
X167334221Y-58292946D01*
X167164308Y-58348155D01*
X167005129Y-58429262D01*
X166992207Y-58438651D01*
X166992206Y-58438651D01*
X167572556Y-59019000D01*
X167549842Y-59019000D01*
X167452941Y-59044964D01*
X167366062Y-59095124D01*
X167295126Y-59166060D01*
X167244966Y-59252939D01*
X167219002Y-59349840D01*
X167219002Y-59372553D01*
X166638653Y-58792204D01*
X166638653Y-58792205D01*
X166629264Y-58805127D01*
X166548157Y-58964306D01*
X166492948Y-59134219D01*
X166465002Y-59310668D01*
X149600500Y-59310668D01*
X149600500Y-59079765D01*
X149620185Y-59012726D01*
X149621398Y-59010874D01*
X149652638Y-58964121D01*
X149709394Y-58879179D01*
X149713262Y-58869842D01*
X149745312Y-58792465D01*
X149769737Y-58733497D01*
X149800500Y-58578842D01*
X149800500Y-58421158D01*
X149800500Y-58421155D01*
X149800499Y-58421153D01*
X149793421Y-58385572D01*
X149769737Y-58266503D01*
X149769735Y-58266498D01*
X149709397Y-58120827D01*
X149709390Y-58120814D01*
X149621789Y-57989711D01*
X149621786Y-57989707D01*
X149510292Y-57878213D01*
X149510288Y-57878210D01*
X149379185Y-57790609D01*
X149379172Y-57790602D01*
X149233501Y-57730264D01*
X149233489Y-57730261D01*
X149078845Y-57699500D01*
X149078842Y-57699500D01*
X148921158Y-57699500D01*
X148921155Y-57699500D01*
X148766510Y-57730261D01*
X148766498Y-57730264D01*
X148620827Y-57790602D01*
X148620814Y-57790609D01*
X148489711Y-57878210D01*
X148489707Y-57878213D01*
X148378213Y-57989707D01*
X148378210Y-57989711D01*
X148290609Y-58120814D01*
X148290602Y-58120827D01*
X148230264Y-58266498D01*
X148230261Y-58266510D01*
X148199500Y-58421153D01*
X143631234Y-58421153D01*
X143521728Y-58385572D01*
X143341330Y-58357000D01*
X143158670Y-58357000D01*
X142978271Y-58385572D01*
X142804556Y-58442016D01*
X142641813Y-58524939D01*
X142641808Y-58524943D01*
X142624020Y-58537865D01*
X142624020Y-58537868D01*
X143197154Y-59111000D01*
X143196496Y-59111000D01*
X143093135Y-59138695D01*
X143000464Y-59192199D01*
X142924799Y-59267864D01*
X142871295Y-59360535D01*
X142843600Y-59463896D01*
X142843600Y-59464552D01*
X142259100Y-58880052D01*
X142233181Y-58874608D01*
X142228440Y-58870825D01*
X142225059Y-58869842D01*
X142213165Y-58858638D01*
X142198326Y-58846798D01*
X142194730Y-58842670D01*
X142135484Y-58761124D01*
X142006275Y-58631915D01*
X141858443Y-58524509D01*
X141695630Y-58441552D01*
X141521844Y-58385085D01*
X141521842Y-58385084D01*
X141521840Y-58385084D01*
X141341369Y-58356500D01*
X141341364Y-58356500D01*
X141158634Y-58356500D01*
X141158629Y-58356500D01*
X140978157Y-58385084D01*
X140804365Y-58441553D01*
X140641554Y-58524509D01*
X140493720Y-58631917D01*
X140364516Y-58761121D01*
X140257108Y-58908955D01*
X140174152Y-59071766D01*
X140117683Y-59245558D01*
X140089099Y-59426029D01*
X136301827Y-59426029D01*
X136450946Y-59239039D01*
X136630246Y-58953686D01*
X136776469Y-58650051D01*
X136887776Y-58331954D01*
X136962767Y-58003394D01*
X137000500Y-57668504D01*
X137000500Y-57331496D01*
X137000499Y-57331491D01*
X177749500Y-57331491D01*
X177749500Y-57668508D01*
X177787231Y-58003381D01*
X177787233Y-58003397D01*
X177862223Y-58331953D01*
X177862227Y-58331965D01*
X177973532Y-58650054D01*
X178119752Y-58953683D01*
X178126311Y-58964121D01*
X178299054Y-59239039D01*
X178509175Y-59502523D01*
X178747477Y-59740825D01*
X179010961Y-59950946D01*
X179296314Y-60130246D01*
X179599949Y-60276469D01*
X179838848Y-60360063D01*
X179918034Y-60387772D01*
X179918046Y-60387776D01*
X180246606Y-60462767D01*
X180581492Y-60500499D01*
X180581493Y-60500500D01*
X180581496Y-60500500D01*
X180918507Y-60500500D01*
X180918507Y-60500499D01*
X181253394Y-60462767D01*
X181581954Y-60387776D01*
X181900051Y-60276469D01*
X182203686Y-60130246D01*
X182489039Y-59950946D01*
X182752523Y-59740825D01*
X182990825Y-59502523D01*
X183200946Y-59239039D01*
X183380246Y-58953686D01*
X183526469Y-58650051D01*
X183637776Y-58331954D01*
X183712767Y-58003394D01*
X183750500Y-57668504D01*
X183750500Y-57331496D01*
X183712767Y-56996606D01*
X183637776Y-56668046D01*
X183526469Y-56349949D01*
X183380246Y-56046314D01*
X183200946Y-55760961D01*
X182990825Y-55497477D01*
X182752523Y-55259175D01*
X182489039Y-55049054D01*
X182203686Y-54869754D01*
X182203683Y-54869752D01*
X181900054Y-54723532D01*
X181581965Y-54612227D01*
X181581953Y-54612223D01*
X181253397Y-54537233D01*
X181253381Y-54537231D01*
X180918508Y-54499500D01*
X180918504Y-54499500D01*
X180581496Y-54499500D01*
X180581491Y-54499500D01*
X180246618Y-54537231D01*
X180246602Y-54537233D01*
X179918046Y-54612223D01*
X179918034Y-54612227D01*
X179599945Y-54723532D01*
X179296316Y-54869752D01*
X179010962Y-55049053D01*
X178747477Y-55259174D01*
X178509174Y-55497477D01*
X178299053Y-55760962D01*
X178119752Y-56046316D01*
X177973532Y-56349945D01*
X177862227Y-56668034D01*
X177862223Y-56668046D01*
X177787233Y-56996602D01*
X177787231Y-56996618D01*
X177749500Y-57331491D01*
X137000499Y-57331491D01*
X136962767Y-56996606D01*
X136887776Y-56668046D01*
X136776469Y-56349949D01*
X136630246Y-56046314D01*
X136450946Y-55760961D01*
X136240825Y-55497477D01*
X136002523Y-55259175D01*
X135739039Y-55049054D01*
X135453686Y-54869754D01*
X135453683Y-54869752D01*
X135150054Y-54723532D01*
X134831965Y-54612227D01*
X134831953Y-54612223D01*
X134503397Y-54537233D01*
X134503381Y-54537231D01*
X134168508Y-54499500D01*
X134168504Y-54499500D01*
X133831496Y-54499500D01*
X133831491Y-54499500D01*
X133496618Y-54537231D01*
X133496602Y-54537233D01*
X133168046Y-54612223D01*
X133168034Y-54612227D01*
X132849945Y-54723532D01*
X132546316Y-54869752D01*
X132260962Y-55049053D01*
X131997477Y-55259174D01*
X131759174Y-55497477D01*
X131549053Y-55760962D01*
X131369752Y-56046316D01*
X131223532Y-56349945D01*
X131112227Y-56668034D01*
X131112223Y-56668046D01*
X131037233Y-56996602D01*
X131037231Y-56996618D01*
X130999500Y-57331491D01*
X129550500Y-57331491D01*
X129550500Y-53224500D01*
X129570185Y-53157461D01*
X129622989Y-53111706D01*
X129674500Y-53100500D01*
X185275500Y-53100500D01*
X185342539Y-53120185D01*
G37*
G04 #@! TD.AperFunction*
M02*
