G04 #@! TF.GenerationSoftware,KiCad,Pcbnew,9.0.0*
G04 #@! TF.CreationDate,2025-04-23T00:46:07-04:00*
G04 #@! TF.ProjectId,GPS,4750532e-6b69-4636-9164-5f7063625858,rev?*
G04 #@! TF.SameCoordinates,Original*
G04 #@! TF.FileFunction,Copper,L1,Top*
G04 #@! TF.FilePolarity,Positive*
%FSLAX46Y46*%
G04 Gerber Fmt 4.6, Leading zero omitted, Abs format (unit mm)*
G04 Created by KiCad (PCBNEW 9.0.0) date 2025-04-23 00:46:07*
%MOMM*%
%LPD*%
G01*
G04 APERTURE LIST*
G04 Aperture macros list*
%AMRoundRect*
0 Rectangle with rounded corners*
0 $1 Rounding radius*
0 $2 $3 $4 $5 $6 $7 $8 $9 X,Y pos of 4 corners*
0 Add a 4 corners polygon primitive as box body*
4,1,4,$2,$3,$4,$5,$6,$7,$8,$9,$2,$3,0*
0 Add four circle primitives for the rounded corners*
1,1,$1+$1,$2,$3*
1,1,$1+$1,$4,$5*
1,1,$1+$1,$6,$7*
1,1,$1+$1,$8,$9*
0 Add four rect primitives between the rounded corners*
20,1,$1+$1,$2,$3,$4,$5,0*
20,1,$1+$1,$4,$5,$6,$7,0*
20,1,$1+$1,$6,$7,$8,$9,0*
20,1,$1+$1,$8,$9,$2,$3,0*%
G04 Aperture macros list end*
G04 #@! TA.AperFunction,SMDPad,CuDef*
%ADD10RoundRect,0.237500X0.250000X0.237500X-0.250000X0.237500X-0.250000X-0.237500X0.250000X-0.237500X0*%
G04 #@! TD*
G04 #@! TA.AperFunction,SMDPad,CuDef*
%ADD11RoundRect,0.237500X0.237500X-0.300000X0.237500X0.300000X-0.237500X0.300000X-0.237500X-0.300000X0*%
G04 #@! TD*
G04 #@! TA.AperFunction,ComponentPad*
%ADD12C,1.320800*%
G04 #@! TD*
G04 #@! TA.AperFunction,SMDPad,CuDef*
%ADD13R,0.558800X0.952500*%
G04 #@! TD*
G04 #@! TA.AperFunction,SMDPad,CuDef*
%ADD14RoundRect,0.250000X-0.450000X0.325000X-0.450000X-0.325000X0.450000X-0.325000X0.450000X0.325000X0*%
G04 #@! TD*
G04 #@! TA.AperFunction,SMDPad,CuDef*
%ADD15RoundRect,0.237500X-0.300000X-0.237500X0.300000X-0.237500X0.300000X0.237500X-0.300000X0.237500X0*%
G04 #@! TD*
G04 #@! TA.AperFunction,ComponentPad*
%ADD16C,5.000000*%
G04 #@! TD*
G04 #@! TA.AperFunction,SMDPad,CuDef*
%ADD17RoundRect,0.237500X-0.250000X-0.237500X0.250000X-0.237500X0.250000X0.237500X-0.250000X0.237500X0*%
G04 #@! TD*
G04 #@! TA.AperFunction,SMDPad,CuDef*
%ADD18RoundRect,0.237500X-0.237500X0.300000X-0.237500X-0.300000X0.237500X-0.300000X0.237500X0.300000X0*%
G04 #@! TD*
G04 #@! TA.AperFunction,SMDPad,CuDef*
%ADD19R,3.500000X2.400000*%
G04 #@! TD*
G04 #@! TA.AperFunction,SMDPad,CuDef*
%ADD20RoundRect,0.250000X-0.325000X-0.450000X0.325000X-0.450000X0.325000X0.450000X-0.325000X0.450000X0*%
G04 #@! TD*
G04 #@! TA.AperFunction,SMDPad,CuDef*
%ADD21RoundRect,0.237500X0.300000X0.237500X-0.300000X0.237500X-0.300000X-0.237500X0.300000X-0.237500X0*%
G04 #@! TD*
G04 #@! TA.AperFunction,SMDPad,CuDef*
%ADD22RoundRect,0.375000X-0.625000X-0.375000X0.625000X-0.375000X0.625000X0.375000X-0.625000X0.375000X0*%
G04 #@! TD*
G04 #@! TA.AperFunction,SMDPad,CuDef*
%ADD23RoundRect,0.500000X-0.500000X-1.400000X0.500000X-1.400000X0.500000X1.400000X-0.500000X1.400000X0*%
G04 #@! TD*
G04 #@! TA.AperFunction,ComponentPad*
%ADD24C,2.325000*%
G04 #@! TD*
G04 #@! TA.AperFunction,ComponentPad*
%ADD25C,2.625000*%
G04 #@! TD*
G04 #@! TA.AperFunction,SMDPad,CuDef*
%ADD26R,1.050000X1.100000*%
G04 #@! TD*
G04 #@! TA.AperFunction,SMDPad,CuDef*
%ADD27RoundRect,0.237500X-0.237500X0.250000X-0.237500X-0.250000X0.237500X-0.250000X0.237500X0.250000X0*%
G04 #@! TD*
G04 #@! TA.AperFunction,SMDPad,CuDef*
%ADD28R,1.200000X0.449999*%
G04 #@! TD*
G04 #@! TA.AperFunction,SMDPad,CuDef*
%ADD29O,2.500000X1.000000*%
G04 #@! TD*
G04 #@! TA.AperFunction,SMDPad,CuDef*
%ADD30RoundRect,0.075000X-0.662500X-0.075000X0.662500X-0.075000X0.662500X0.075000X-0.662500X0.075000X0*%
G04 #@! TD*
G04 #@! TA.AperFunction,SMDPad,CuDef*
%ADD31RoundRect,0.075000X-0.075000X-0.662500X0.075000X-0.662500X0.075000X0.662500X-0.075000X0.662500X0*%
G04 #@! TD*
G04 #@! TA.AperFunction,ComponentPad*
%ADD32C,1.270000*%
G04 #@! TD*
G04 #@! TA.AperFunction,SMDPad,CuDef*
%ADD33RoundRect,0.237500X0.237500X-0.250000X0.237500X0.250000X-0.237500X0.250000X-0.237500X-0.250000X0*%
G04 #@! TD*
G04 #@! TA.AperFunction,ViaPad*
%ADD34C,0.600000*%
G04 #@! TD*
G04 #@! TA.AperFunction,Conductor*
%ADD35C,0.200000*%
G04 #@! TD*
G04 APERTURE END LIST*
D10*
X155312500Y-63200000D03*
X153487500Y-63200000D03*
D11*
X162000000Y-57862500D03*
X162000000Y-56137500D03*
X151000000Y-59362500D03*
X151000000Y-57637500D03*
X147600000Y-64862500D03*
X147600000Y-63137500D03*
D12*
X179232600Y-67750000D03*
X179232600Y-65749999D03*
D13*
X144600000Y-62737300D03*
X144600000Y-69100000D03*
X140891600Y-62737300D03*
X140891600Y-69100000D03*
D12*
X143250000Y-59517400D03*
X141249999Y-59517400D03*
D14*
X157200000Y-62975000D03*
X157200000Y-65025000D03*
D15*
X159737500Y-66800000D03*
X161462500Y-66800000D03*
D16*
X180750000Y-57500000D03*
D17*
X173660000Y-69720000D03*
X175485000Y-69720000D03*
D18*
X151000000Y-72137500D03*
X151000000Y-73862500D03*
D19*
X148600000Y-69400000D03*
X153800000Y-69400000D03*
D20*
X159200000Y-63200000D03*
X161250000Y-63200000D03*
D21*
X172000000Y-76000000D03*
X170275000Y-76000000D03*
D10*
X145512500Y-71600000D03*
X143687500Y-71600000D03*
D16*
X180750000Y-95500000D03*
D22*
X153350000Y-56200000D03*
X153350000Y-58500000D03*
D23*
X159650000Y-58500000D03*
D22*
X153350000Y-60800000D03*
D24*
X169000000Y-87000000D03*
D25*
X166460000Y-84460000D03*
X166460000Y-89540000D03*
X171540000Y-84460000D03*
X171540000Y-89540000D03*
D11*
X156400000Y-74862500D03*
X156400000Y-73137500D03*
D18*
X169200000Y-69537500D03*
X169200000Y-71262500D03*
D26*
X153475000Y-65000000D03*
X155325000Y-65000000D03*
D17*
X152487500Y-72200000D03*
X154312500Y-72200000D03*
D21*
X151462500Y-63200000D03*
X149737500Y-63200000D03*
D27*
X163200000Y-78887500D03*
X163200000Y-80712500D03*
D21*
X151462500Y-65000000D03*
X149737500Y-65000000D03*
D16*
X134000000Y-57500000D03*
D15*
X149137500Y-76600000D03*
X150862500Y-76600000D03*
D21*
X166525000Y-78800000D03*
X164800000Y-78800000D03*
D17*
X161687500Y-60200000D03*
X163512500Y-60200000D03*
D21*
X155662500Y-76600000D03*
X153937500Y-76600000D03*
D28*
X172660000Y-72180000D03*
X172660000Y-72830001D03*
X172660000Y-73480000D03*
X172660000Y-74130001D03*
X175609999Y-74130001D03*
X175609999Y-73480000D03*
X175609999Y-72830001D03*
X175609999Y-72180000D03*
D29*
X142250000Y-83750000D03*
X142250000Y-86290000D03*
X142250000Y-88830000D03*
X142250000Y-91370000D03*
X142250000Y-93910000D03*
X142250000Y-96450000D03*
X157750000Y-96450000D03*
X157750000Y-93910000D03*
X157750000Y-91370000D03*
X157750000Y-88830000D03*
X157750000Y-86290000D03*
X157750000Y-83750000D03*
D16*
X134000000Y-95750000D03*
D11*
X147800000Y-74662500D03*
X147800000Y-72937500D03*
D27*
X157000000Y-66687500D03*
X157000000Y-68512500D03*
D30*
X159037500Y-70050000D03*
X159037500Y-70550000D03*
X159037500Y-71050000D03*
X159037500Y-71550000D03*
X159037500Y-72050000D03*
X159037500Y-72550000D03*
X159037500Y-73050000D03*
X159037500Y-73550000D03*
X159037500Y-74050000D03*
X159037500Y-74550000D03*
X159037500Y-75050000D03*
X159037500Y-75550000D03*
D31*
X160450000Y-76962500D03*
X160950000Y-76962500D03*
X161450000Y-76962500D03*
X161950000Y-76962500D03*
X162450000Y-76962500D03*
X162950000Y-76962500D03*
X163450000Y-76962500D03*
X163950000Y-76962500D03*
X164450000Y-76962500D03*
X164950000Y-76962500D03*
X165450000Y-76962500D03*
X165950000Y-76962500D03*
D30*
X167362500Y-75550000D03*
X167362500Y-75050000D03*
X167362500Y-74550000D03*
X167362500Y-74050000D03*
X167362500Y-73550000D03*
X167362500Y-73050000D03*
X167362500Y-72550000D03*
X167362500Y-72050000D03*
X167362500Y-71550000D03*
X167362500Y-71050000D03*
X167362500Y-70550000D03*
X167362500Y-70050000D03*
D31*
X165950000Y-68637500D03*
X165450000Y-68637500D03*
X164950000Y-68637500D03*
X164450000Y-68637500D03*
X163950000Y-68637500D03*
X163450000Y-68637500D03*
X162950000Y-68637500D03*
X162450000Y-68637500D03*
X161950000Y-68637500D03*
X161450000Y-68637500D03*
X160950000Y-68637500D03*
X160450000Y-68637500D03*
D32*
X173600000Y-59400000D03*
X171600001Y-59400000D03*
X169600000Y-59400000D03*
X167600002Y-59400000D03*
D33*
X163200000Y-66712500D03*
X163200000Y-64887500D03*
D34*
X149000000Y-58500000D03*
X149000000Y-61000000D03*
X144400000Y-91000000D03*
X152600000Y-76600000D03*
X169200000Y-72500000D03*
X162000000Y-56137500D03*
X162600000Y-63800000D03*
X148200000Y-56800000D03*
X169300000Y-77200000D03*
X147800000Y-71700000D03*
X163600000Y-60200000D03*
X144400000Y-89000000D03*
X148200000Y-61800000D03*
X159200000Y-82200000D03*
X149800000Y-74000000D03*
X149600000Y-62000000D03*
X156400000Y-57200000D03*
X155407815Y-74007815D03*
X164488235Y-79988235D03*
X150000000Y-80400000D03*
X152800000Y-80400000D03*
X165500000Y-71000000D03*
X171300000Y-71800000D03*
X171000000Y-74500000D03*
X165500000Y-72000000D03*
X157800000Y-80600000D03*
X155800000Y-82600000D03*
D35*
X172660000Y-73480000D02*
X170996000Y-73480000D01*
X167362500Y-70050000D02*
X168687500Y-70050000D01*
X165950000Y-78225000D02*
X166525000Y-78800000D01*
X153350000Y-58500000D02*
X149000000Y-58500000D01*
X168687500Y-70050000D02*
X169200000Y-69537500D01*
X162000000Y-57862500D02*
X164600000Y-57862500D01*
X159650000Y-58500000D02*
X161362500Y-58500000D01*
X145631250Y-66831250D02*
X145512500Y-66950000D01*
X165000000Y-58200000D02*
X164662500Y-57862500D01*
X149000000Y-61000000D02*
X149000000Y-61649000D01*
X170000000Y-76000000D02*
X169662500Y-75662500D01*
X159650000Y-58500000D02*
X153350000Y-58500000D01*
X169662500Y-75662500D02*
X166525000Y-78800000D01*
X161362500Y-58500000D02*
X162000000Y-57862500D01*
X142250000Y-91370000D02*
X144030000Y-91370000D01*
X169976000Y-74500000D02*
X169976000Y-75349000D01*
X160450000Y-67512500D02*
X159737500Y-66800000D01*
X159737500Y-64712500D02*
X161250000Y-63200000D01*
X172062500Y-57862500D02*
X164600000Y-57862500D01*
X147600000Y-64862500D02*
X145631250Y-66831250D01*
X145512500Y-66950000D02*
X145512500Y-71600000D01*
X142250000Y-93910000D02*
X142250000Y-91370000D01*
X140699000Y-74267134D02*
X142899000Y-72067134D01*
X142250000Y-91370000D02*
X140699000Y-89819000D01*
X148899000Y-61750000D02*
X148899000Y-63563500D01*
X163824000Y-81501000D02*
X152332866Y-81501000D01*
X140699000Y-89819000D02*
X140699000Y-74267134D01*
X170996000Y-73480000D02*
X169976000Y-74500000D01*
X149000000Y-61649000D02*
X148899000Y-61750000D01*
X160450000Y-68637500D02*
X160450000Y-67512500D01*
X148899000Y-63563500D02*
X147600000Y-64862500D01*
X166525000Y-78800000D02*
X163824000Y-81501000D01*
X165000000Y-60600000D02*
X165000000Y-58200000D01*
X142899000Y-69563500D02*
X145631250Y-66831250D01*
X164662500Y-57862500D02*
X164600000Y-57862500D01*
X148899000Y-61649057D02*
X148899000Y-61750000D01*
X162400000Y-63200000D02*
X161250000Y-63200000D01*
X165000000Y-60600000D02*
X162400000Y-63200000D01*
X142899000Y-72067134D02*
X142899000Y-69563500D01*
X173600000Y-59400000D02*
X172062500Y-57862500D01*
X169976000Y-70313500D02*
X169976000Y-74500000D01*
X144030000Y-91370000D02*
X144400000Y-91000000D01*
X165950000Y-76962500D02*
X165950000Y-78225000D01*
X152332866Y-81501000D02*
X142899000Y-72067134D01*
X169200000Y-69537500D02*
X169976000Y-70313500D01*
X159737500Y-66800000D02*
X159737500Y-64712500D01*
X169976000Y-75349000D02*
X169662500Y-75662500D01*
X170275000Y-76000000D02*
X170000000Y-76000000D01*
X159037500Y-73550000D02*
X156812500Y-73550000D01*
X149000000Y-57200000D02*
X148600000Y-57200000D01*
X150862500Y-76600000D02*
X152600000Y-76600000D01*
X163200000Y-64400000D02*
X163200000Y-65062500D01*
X148600000Y-57200000D02*
X148200000Y-56800000D01*
X172000000Y-76000000D02*
X172217000Y-76000000D01*
X164488235Y-79111765D02*
X164488235Y-79988235D01*
X145517400Y-57604900D02*
X145162500Y-57604900D01*
X156400000Y-73137500D02*
X156278130Y-73137500D01*
X163200000Y-65062500D02*
X161462500Y-66800000D01*
X163924265Y-79988235D02*
X163200000Y-80712500D01*
X149600000Y-62000000D02*
X152200000Y-62000000D01*
X163512500Y-60200000D02*
X163600000Y-60200000D01*
X147189650Y-63137500D02*
X141145800Y-69181350D01*
X171540000Y-84460000D02*
X166460000Y-84460000D01*
X147600000Y-62400000D02*
X148200000Y-61800000D01*
X164488235Y-79988235D02*
X163924265Y-79988235D01*
X160950000Y-68637500D02*
X160950000Y-67312500D01*
X153487500Y-63200000D02*
X153400000Y-63200000D01*
X153412500Y-56137500D02*
X153350000Y-56200000D01*
X165450000Y-78150000D02*
X165450000Y-76962500D01*
X144400000Y-89000000D02*
X144600000Y-89000000D01*
X147237500Y-63500000D02*
X147600000Y-63137500D01*
X164488235Y-79111765D02*
X165450000Y-78150000D01*
X149850000Y-83750000D02*
X157750000Y-83750000D01*
X173561000Y-72954001D02*
X173437000Y-72830001D01*
X152200000Y-62000000D02*
X153400000Y-63200000D01*
X166460000Y-89540000D02*
X171540000Y-89540000D01*
X162600000Y-63800000D02*
X163200000Y-64400000D01*
X170800000Y-77200000D02*
X169300000Y-77200000D01*
X157750000Y-83750000D02*
X157750000Y-83650000D01*
X145162500Y-57604900D02*
X143250000Y-59517400D01*
X157750000Y-83650000D02*
X159200000Y-82200000D01*
X147600000Y-63137500D02*
X147189650Y-63137500D01*
X173561000Y-74656000D02*
X173561000Y-72954001D01*
X172000000Y-76000000D02*
X170800000Y-77200000D01*
X142250000Y-88830000D02*
X144230000Y-88830000D01*
X149737500Y-63200000D02*
X149400000Y-63200000D01*
X162000000Y-56137500D02*
X156400000Y-56137500D01*
X151000000Y-57637500D02*
X151912500Y-57637500D01*
X156278130Y-73137500D02*
X155407815Y-74007815D01*
X147600000Y-63137500D02*
X147600000Y-62400000D01*
X160950000Y-67312500D02*
X161462500Y-66800000D01*
X164712500Y-78887500D02*
X164488235Y-79111765D01*
X150562500Y-57200000D02*
X151000000Y-57637500D01*
X149737500Y-65000000D02*
X149737500Y-63200000D01*
X151000000Y-73862500D02*
X149937500Y-73862500D01*
X158460000Y-84460000D02*
X157750000Y-83750000D01*
X144230000Y-88830000D02*
X144400000Y-89000000D01*
X171540000Y-84460000D02*
X171540000Y-89540000D01*
X149737500Y-62137500D02*
X149600000Y-62000000D01*
X145517400Y-57604900D02*
X146322300Y-56800000D01*
X149400000Y-63200000D02*
X149337500Y-63137500D01*
X156400000Y-56137500D02*
X156400000Y-57200000D01*
X166460000Y-84460000D02*
X158460000Y-84460000D01*
X149737500Y-63200000D02*
X149737500Y-62137500D01*
X153937500Y-76600000D02*
X152600000Y-76600000D01*
X172217000Y-76000000D02*
X173561000Y-74656000D01*
X156812500Y-73550000D02*
X156400000Y-73137500D01*
X151912500Y-57637500D02*
X153350000Y-56200000D01*
X156600000Y-73137500D02*
X156462500Y-73137500D01*
X150000000Y-57200000D02*
X150562500Y-57200000D01*
X168487500Y-70550000D02*
X167362500Y-70550000D01*
X147800000Y-71700000D02*
X147800000Y-72937500D01*
X173437000Y-72830001D02*
X172660000Y-72830001D01*
X149937500Y-73862500D02*
X149800000Y-74000000D01*
X169200000Y-71262500D02*
X168487500Y-70550000D01*
X146322300Y-56800000D02*
X148200000Y-56800000D01*
X149000000Y-57200000D02*
X150000000Y-57200000D01*
X156400000Y-56137500D02*
X153412500Y-56137500D01*
X169200000Y-72500000D02*
X169200000Y-71262500D01*
X144600000Y-89000000D02*
X149850000Y-83750000D01*
X151912500Y-59362500D02*
X153350000Y-60800000D01*
X150757599Y-59604901D02*
X151000000Y-59362500D01*
X151000000Y-59362500D02*
X151912500Y-59362500D01*
X145517400Y-59604901D02*
X150757599Y-59604901D01*
X144643501Y-60478800D02*
X142211399Y-60478800D01*
X145517400Y-59604901D02*
X144643501Y-60478800D01*
X142211399Y-60478800D02*
X141249999Y-59517400D01*
X157212500Y-74050000D02*
X159037500Y-74050000D01*
X156400000Y-74862500D02*
X156400000Y-75200000D01*
X155662500Y-75937500D02*
X155662500Y-76600000D01*
X156400000Y-75200000D02*
X155662500Y-75937500D01*
X156400000Y-74862500D02*
X157212500Y-74050000D01*
X144600000Y-69100000D02*
X144400000Y-69100000D01*
X157618134Y-73050000D02*
X156867134Y-72299000D01*
X155600000Y-72631866D02*
X155600000Y-72967100D01*
X148212500Y-76600000D02*
X147113500Y-75501000D01*
X156867134Y-72299000D02*
X155932866Y-72299000D01*
X159037500Y-73050000D02*
X157618134Y-73050000D01*
X143687500Y-69812500D02*
X143687500Y-71600000D01*
X147113500Y-75501000D02*
X143687500Y-72075000D01*
X153066100Y-75501000D02*
X147113500Y-75501000D01*
X149137500Y-76600000D02*
X148212500Y-76600000D01*
X155600000Y-72967100D02*
X153066100Y-75501000D01*
X144400000Y-69100000D02*
X143687500Y-69812500D01*
X155932866Y-72299000D02*
X155600000Y-72631866D01*
X143687500Y-72075000D02*
X143687500Y-71600000D01*
X157033234Y-71898000D02*
X155766766Y-71898000D01*
X148576000Y-73776000D02*
X149800000Y-75000000D01*
X159037500Y-72550000D02*
X157685234Y-72550000D01*
X153000000Y-75000000D02*
X155024000Y-72976000D01*
X148600000Y-69400000D02*
X148576000Y-69424000D01*
X155024000Y-72976000D02*
X155199000Y-72801000D01*
X155199000Y-72801000D02*
X155199000Y-72465766D01*
X148600000Y-69400000D02*
X148600000Y-69568134D01*
X155766766Y-71898000D02*
X155732383Y-71932383D01*
X155199000Y-72465766D02*
X155732383Y-71932383D01*
X147800000Y-74552000D02*
X148576000Y-73776000D01*
X149800000Y-75000000D02*
X153000000Y-75000000D01*
X147800000Y-74662500D02*
X147800000Y-74552000D01*
X157685234Y-72550000D02*
X157033234Y-71898000D01*
X148576000Y-69424000D02*
X148576000Y-73776000D01*
X151062500Y-72200000D02*
X151000000Y-72137500D01*
X153800000Y-70887500D02*
X152487500Y-72200000D01*
X153800000Y-69400000D02*
X153800000Y-70887500D01*
X152487500Y-72200000D02*
X151062500Y-72200000D01*
X153475000Y-65000000D02*
X151462500Y-65000000D01*
X157819434Y-71550000D02*
X159037500Y-71550000D01*
X156224000Y-67824000D02*
X156224000Y-69954566D01*
X153475000Y-65075000D02*
X156224000Y-67824000D01*
X153475000Y-65000000D02*
X153475000Y-65075000D01*
X156224000Y-69954566D02*
X157819434Y-71550000D01*
X152238500Y-63976000D02*
X154301000Y-63976000D01*
X157000000Y-66687500D02*
X157000000Y-66675000D01*
X154301000Y-63976000D02*
X155325000Y-65000000D01*
X157000000Y-66675000D02*
X155325000Y-65000000D01*
X151462500Y-63200000D02*
X152238500Y-63976000D01*
X161200000Y-60200000D02*
X159200000Y-62200000D01*
X161687500Y-60200000D02*
X161200000Y-60200000D01*
X159200000Y-62200000D02*
X159200000Y-63200000D01*
X157200000Y-62975000D02*
X155537500Y-62975000D01*
X155537500Y-62975000D02*
X155312500Y-63200000D01*
X159037500Y-70550000D02*
X158266176Y-70550000D01*
X158000000Y-70283824D02*
X158000000Y-65825000D01*
X158000000Y-65825000D02*
X157200000Y-65025000D01*
X158266176Y-70550000D02*
X158000000Y-70283824D01*
X165950000Y-63050000D02*
X165950000Y-68637500D01*
X169600000Y-59400000D02*
X165950000Y-63050000D01*
X166324000Y-70782824D02*
X166324000Y-69817176D01*
X169000000Y-67141176D02*
X169000000Y-62000001D01*
X169000000Y-62000001D02*
X171600001Y-59400000D01*
X166591176Y-71050000D02*
X166324000Y-70782824D01*
X166324000Y-69817176D02*
X169000000Y-67141176D01*
X167362500Y-71050000D02*
X166591176Y-71050000D01*
X157199334Y-71497000D02*
X155015500Y-71497000D01*
X159037500Y-72050000D02*
X157752334Y-72050000D01*
X157752334Y-72050000D02*
X157199334Y-71497000D01*
X155015500Y-71497000D02*
X154312500Y-72200000D01*
X157886534Y-71050000D02*
X157000000Y-70163466D01*
X157000000Y-70163466D02*
X157000000Y-68512500D01*
X159037500Y-71050000D02*
X157886534Y-71050000D01*
X162450000Y-68637500D02*
X162450000Y-67462500D01*
X162450000Y-67462500D02*
X163200000Y-66712500D01*
X163450000Y-78637500D02*
X163450000Y-76962500D01*
X163200000Y-78887500D02*
X163450000Y-78637500D01*
X152800000Y-80400000D02*
X154187500Y-80400000D01*
X142250000Y-83750000D02*
X145600000Y-80400000D01*
X145600000Y-80400000D02*
X150000000Y-80400000D01*
X154187500Y-80400000D02*
X159037500Y-75550000D01*
X171680000Y-72180000D02*
X171300000Y-71800000D01*
X172660000Y-72180000D02*
X171680000Y-72180000D01*
X171300000Y-71800000D02*
X171499998Y-71800000D01*
X165500000Y-71000000D02*
X166050000Y-71550000D01*
X166050000Y-71550000D02*
X167362500Y-71550000D01*
X165500000Y-72000000D02*
X167312500Y-72000000D01*
X171000000Y-74500000D02*
X172290001Y-74500000D01*
X172290001Y-74500000D02*
X172660000Y-74130001D01*
X167312500Y-72000000D02*
X167362500Y-72050000D01*
X160450000Y-77950000D02*
X160450000Y-76962500D01*
X157800000Y-80600000D02*
X160450000Y-77950000D01*
X145940000Y-82600000D02*
X155800000Y-82600000D01*
X142250000Y-86290000D02*
X145940000Y-82600000D01*
X174660000Y-67750000D02*
X179232600Y-67750000D01*
X173660000Y-68750000D02*
X174660000Y-67750000D01*
X174809999Y-72830001D02*
X175609999Y-72830001D01*
X173660000Y-69720000D02*
X173660000Y-71680002D01*
X173660000Y-68750000D02*
X173660000Y-69720000D01*
X173660000Y-71680002D02*
X174809999Y-72830001D01*
X175485000Y-69955000D02*
X177270000Y-71740000D01*
X180194000Y-68148225D02*
X178622225Y-69720000D01*
X175485000Y-69720000D02*
X175485000Y-69955000D01*
X179232600Y-65749999D02*
X180194000Y-66711399D01*
X178622225Y-69720000D02*
X175485000Y-69720000D01*
X177270000Y-72619999D02*
X176409999Y-73480000D01*
X176409999Y-73480000D02*
X175609999Y-73480000D01*
X180194000Y-66711399D02*
X180194000Y-68148225D01*
X177270000Y-71740000D02*
X177270000Y-72619999D01*
X157750000Y-86290000D02*
X168290000Y-86290000D01*
X168290000Y-86290000D02*
X169000000Y-87000000D01*
G04 #@! TA.AperFunction,Conductor*
G36*
X148692854Y-63652743D02*
G01*
X148744055Y-63700285D01*
X148755204Y-63724695D01*
X148764090Y-63751511D01*
X148764091Y-63751514D01*
X148764092Y-63751516D01*
X148854659Y-63898349D01*
X148854661Y-63898351D01*
X148968629Y-64012319D01*
X149002114Y-64073642D01*
X148997130Y-64143334D01*
X148968629Y-64187681D01*
X148854660Y-64301649D01*
X148854657Y-64301653D01*
X148781760Y-64419837D01*
X148729812Y-64466562D01*
X148660849Y-64477783D01*
X148596767Y-64449940D01*
X148558516Y-64393744D01*
X148510453Y-64248699D01*
X148510448Y-64248688D01*
X148419947Y-64101965D01*
X148419944Y-64101961D01*
X148406017Y-64088034D01*
X148372532Y-64026711D01*
X148377516Y-63957019D01*
X148406017Y-63912672D01*
X148420340Y-63898350D01*
X148510908Y-63751516D01*
X148519794Y-63724698D01*
X148559563Y-63667256D01*
X148624078Y-63640430D01*
X148692854Y-63652743D01*
G37*
G04 #@! TD.AperFunction*
G04 #@! TA.AperFunction,Conductor*
G36*
X155570806Y-56747241D02*
G01*
X155602606Y-56755358D01*
X155604170Y-56757038D01*
X155606372Y-56757685D01*
X155627845Y-56782466D01*
X155650217Y-56806495D01*
X155650624Y-56808755D01*
X155652127Y-56810489D01*
X155656794Y-56842952D01*
X155662623Y-56875255D01*
X155661865Y-56878220D01*
X155662071Y-56879647D01*
X155653894Y-56909450D01*
X155644035Y-56933252D01*
X155630263Y-56966502D01*
X155630261Y-56966510D01*
X155599500Y-57121153D01*
X155599500Y-57278846D01*
X155630261Y-57433489D01*
X155630264Y-57433501D01*
X155690602Y-57579172D01*
X155690609Y-57579185D01*
X155778210Y-57710288D01*
X155778213Y-57710292D01*
X155889707Y-57821786D01*
X155889711Y-57821789D01*
X156020814Y-57909390D01*
X156020827Y-57909397D01*
X156151206Y-57963401D01*
X156166503Y-57969737D01*
X156321153Y-58000499D01*
X156321156Y-58000500D01*
X156321158Y-58000500D01*
X156478844Y-58000500D01*
X156478845Y-58000499D01*
X156633497Y-57969737D01*
X156779179Y-57909394D01*
X156910289Y-57821789D01*
X157021789Y-57710289D01*
X157109394Y-57579179D01*
X157169737Y-57433497D01*
X157200500Y-57278842D01*
X157200500Y-57121158D01*
X157200500Y-57121155D01*
X157200499Y-57121153D01*
X157193911Y-57088034D01*
X157169737Y-56966503D01*
X157146105Y-56909452D01*
X157138637Y-56839983D01*
X157169912Y-56777504D01*
X157230001Y-56741852D01*
X157260667Y-56738000D01*
X158048993Y-56738000D01*
X158116032Y-56757685D01*
X158161787Y-56810489D01*
X158171731Y-56879647D01*
X158168208Y-56896113D01*
X158160609Y-56922669D01*
X158160608Y-56922669D01*
X158150000Y-57041999D01*
X158150000Y-58250000D01*
X159526000Y-58250000D01*
X159593039Y-58269685D01*
X159638794Y-58322489D01*
X159650000Y-58374000D01*
X159650000Y-58626000D01*
X159630315Y-58693039D01*
X159577511Y-58738794D01*
X159526000Y-58750000D01*
X158150000Y-58750000D01*
X158150000Y-59958000D01*
X158160608Y-60077325D01*
X158160609Y-60077328D01*
X158216557Y-60272861D01*
X158310721Y-60453129D01*
X158439246Y-60610753D01*
X158596870Y-60739278D01*
X158777138Y-60833442D01*
X158972671Y-60889390D01*
X158972674Y-60889391D01*
X159091999Y-60899999D01*
X159092002Y-60900000D01*
X159351402Y-60900000D01*
X159418441Y-60919685D01*
X159464196Y-60972489D01*
X159474140Y-61041647D01*
X159445115Y-61105203D01*
X159439083Y-61111681D01*
X158719481Y-61831282D01*
X158719479Y-61831284D01*
X158686648Y-61888150D01*
X158680096Y-61899500D01*
X158640423Y-61968215D01*
X158634198Y-61991443D01*
X158628526Y-62002749D01*
X158612971Y-62019423D01*
X158601103Y-62038893D01*
X158587263Y-62046981D01*
X158580866Y-62053840D01*
X158571421Y-62056240D01*
X158562024Y-62061733D01*
X158562211Y-62062134D01*
X158557895Y-62064146D01*
X158556707Y-62064841D01*
X158555667Y-62065185D01*
X158406339Y-62157291D01*
X158400172Y-62163458D01*
X158338846Y-62196938D01*
X158269155Y-62191947D01*
X158224818Y-62163450D01*
X158118657Y-62057289D01*
X158118656Y-62057288D01*
X157969334Y-61965186D01*
X157802797Y-61910001D01*
X157802795Y-61910000D01*
X157700010Y-61899500D01*
X156699998Y-61899500D01*
X156699980Y-61899501D01*
X156597203Y-61910000D01*
X156597200Y-61910001D01*
X156430668Y-61965185D01*
X156430663Y-61965187D01*
X156281342Y-62057289D01*
X156157288Y-62181343D01*
X156157285Y-62181347D01*
X156096860Y-62279311D01*
X156044912Y-62326036D01*
X155975949Y-62337257D01*
X155926226Y-62319753D01*
X155876522Y-62289095D01*
X155876517Y-62289093D01*
X155876516Y-62289092D01*
X155712753Y-62234826D01*
X155712751Y-62234825D01*
X155611678Y-62224500D01*
X155013330Y-62224500D01*
X155013312Y-62224501D01*
X154912247Y-62234825D01*
X154748484Y-62289092D01*
X154748481Y-62289093D01*
X154601648Y-62379661D01*
X154487681Y-62493629D01*
X154426358Y-62527114D01*
X154356666Y-62522130D01*
X154312319Y-62493629D01*
X154198351Y-62379661D01*
X154198350Y-62379660D01*
X154101225Y-62319753D01*
X154051518Y-62289093D01*
X154044973Y-62286042D01*
X154045725Y-62284428D01*
X153995883Y-62249913D01*
X153969067Y-62185394D01*
X153981389Y-62116620D01*
X154028937Y-62065424D01*
X154083955Y-62048273D01*
X154093889Y-62047600D01*
X154278693Y-62001641D01*
X154449296Y-61917030D01*
X154597722Y-61797722D01*
X154717030Y-61649296D01*
X154801641Y-61478693D01*
X154847600Y-61293889D01*
X154850500Y-61251123D01*
X154850499Y-60348878D01*
X154847600Y-60306111D01*
X154801641Y-60121307D01*
X154758252Y-60033820D01*
X154717032Y-59950707D01*
X154717030Y-59950704D01*
X154597724Y-59802280D01*
X154597722Y-59802278D01*
X154528112Y-59746324D01*
X154488196Y-59688985D01*
X154485616Y-59619163D01*
X154521194Y-59559030D01*
X154528115Y-59553033D01*
X154597366Y-59497367D01*
X154597367Y-59497366D01*
X154716607Y-59349025D01*
X154716609Y-59349022D01*
X154801168Y-59178523D01*
X154847102Y-58993824D01*
X154850000Y-58951096D01*
X154850000Y-58750000D01*
X153474000Y-58750000D01*
X153406961Y-58730315D01*
X153361206Y-58677511D01*
X153350000Y-58626000D01*
X153350000Y-58374000D01*
X153369685Y-58306961D01*
X153422489Y-58261206D01*
X153474000Y-58250000D01*
X154850000Y-58250000D01*
X154850000Y-58048903D01*
X154847102Y-58006175D01*
X154801168Y-57821476D01*
X154716609Y-57650977D01*
X154716607Y-57650974D01*
X154597367Y-57502633D01*
X154597366Y-57502632D01*
X154528115Y-57446967D01*
X154488196Y-57389624D01*
X154485616Y-57319802D01*
X154521194Y-57259669D01*
X154528089Y-57253694D01*
X154597722Y-57197722D01*
X154717030Y-57049296D01*
X154801641Y-56878693D01*
X154813235Y-56832071D01*
X154848516Y-56771767D01*
X154910802Y-56740108D01*
X154933569Y-56738000D01*
X155539333Y-56738000D01*
X155570806Y-56747241D01*
G37*
G04 #@! TD.AperFunction*
G04 #@! TA.AperFunction,Conductor*
G36*
X147687273Y-57420185D02*
G01*
X147689125Y-57421398D01*
X147820814Y-57509390D01*
X147820827Y-57509397D01*
X147966498Y-57569735D01*
X147966503Y-57569737D01*
X148121158Y-57600500D01*
X148121847Y-57600637D01*
X148183758Y-57633022D01*
X148185337Y-57634573D01*
X148231284Y-57680520D01*
X148231286Y-57680521D01*
X148231290Y-57680524D01*
X148328245Y-57736500D01*
X148368216Y-57759577D01*
X148480019Y-57789534D01*
X148520942Y-57800500D01*
X148520943Y-57800500D01*
X148920943Y-57800500D01*
X149900501Y-57800500D01*
X149967540Y-57820185D01*
X150013295Y-57872989D01*
X150024501Y-57924500D01*
X150024501Y-57986686D01*
X150034825Y-58087752D01*
X150089092Y-58251515D01*
X150089093Y-58251518D01*
X150097409Y-58265000D01*
X150173177Y-58387840D01*
X150179661Y-58398351D01*
X150193629Y-58412319D01*
X150227114Y-58473642D01*
X150222130Y-58543334D01*
X150193629Y-58587681D01*
X150179661Y-58601648D01*
X150089093Y-58748481D01*
X150089091Y-58748486D01*
X150032697Y-58918673D01*
X150029923Y-58917753D01*
X150002771Y-58967826D01*
X149941546Y-59001490D01*
X149914834Y-59004401D01*
X145604069Y-59004401D01*
X145604053Y-59004400D01*
X145596457Y-59004400D01*
X145438343Y-59004400D01*
X145285615Y-59045324D01*
X145285613Y-59045324D01*
X145285613Y-59045325D01*
X145275934Y-59050913D01*
X145239811Y-59071769D01*
X145148687Y-59124378D01*
X145148682Y-59124382D01*
X144622581Y-59650484D01*
X144561258Y-59683969D01*
X144491566Y-59678985D01*
X144435633Y-59637113D01*
X144411216Y-59571649D01*
X144410900Y-59562803D01*
X144410900Y-59426030D01*
X144397764Y-59343099D01*
X144390662Y-59298257D01*
X144399616Y-59228965D01*
X144425451Y-59191182D01*
X145374915Y-58241720D01*
X145436238Y-58208235D01*
X145462596Y-58205401D01*
X145596454Y-58205401D01*
X145596457Y-58205401D01*
X145749185Y-58164477D01*
X145799304Y-58135539D01*
X145886116Y-58085420D01*
X145997920Y-57973616D01*
X145997920Y-57973614D01*
X146008128Y-57963407D01*
X146008129Y-57963404D01*
X146534716Y-57436819D01*
X146596039Y-57403334D01*
X146622397Y-57400500D01*
X147620234Y-57400500D01*
X147687273Y-57420185D01*
G37*
G04 #@! TD.AperFunction*
G04 #@! TA.AperFunction,Conductor*
G36*
X185342539Y-53120185D02*
G01*
X185388294Y-53172989D01*
X185399500Y-53224500D01*
X185399500Y-99975500D01*
X185379815Y-100042539D01*
X185327011Y-100088294D01*
X185275500Y-100099500D01*
X129674500Y-100099500D01*
X129607461Y-100079815D01*
X129561706Y-100027011D01*
X129550500Y-99975500D01*
X129550500Y-95581491D01*
X130999500Y-95581491D01*
X130999500Y-95918508D01*
X131037231Y-96253381D01*
X131037233Y-96253397D01*
X131112223Y-96581953D01*
X131112227Y-96581965D01*
X131223532Y-96900054D01*
X131369752Y-97203683D01*
X131391967Y-97239037D01*
X131549054Y-97489039D01*
X131759175Y-97752523D01*
X131997477Y-97990825D01*
X132260961Y-98200946D01*
X132546314Y-98380246D01*
X132849949Y-98526469D01*
X133088848Y-98610063D01*
X133168034Y-98637772D01*
X133168046Y-98637776D01*
X133496606Y-98712767D01*
X133831492Y-98750499D01*
X133831493Y-98750500D01*
X133831496Y-98750500D01*
X134168507Y-98750500D01*
X134168507Y-98750499D01*
X134503394Y-98712767D01*
X134831954Y-98637776D01*
X135150051Y-98526469D01*
X135453686Y-98380246D01*
X135739039Y-98200946D01*
X136002523Y-97990825D01*
X136240825Y-97752523D01*
X136450946Y-97489039D01*
X136630246Y-97203686D01*
X136776469Y-96900051D01*
X136887776Y-96581954D01*
X136895402Y-96548543D01*
X140499499Y-96548543D01*
X140537947Y-96741829D01*
X140537950Y-96741839D01*
X140613364Y-96923907D01*
X140613371Y-96923920D01*
X140722860Y-97087781D01*
X140722863Y-97087785D01*
X140862214Y-97227136D01*
X140862218Y-97227139D01*
X141026079Y-97336628D01*
X141026092Y-97336635D01*
X141208160Y-97412049D01*
X141208165Y-97412051D01*
X141208169Y-97412051D01*
X141208170Y-97412052D01*
X141401456Y-97450500D01*
X141401459Y-97450500D01*
X143098543Y-97450500D01*
X143228582Y-97424632D01*
X143291835Y-97412051D01*
X143473914Y-97336632D01*
X143637782Y-97227139D01*
X143777139Y-97087782D01*
X143886632Y-96923914D01*
X143962051Y-96741835D01*
X143980308Y-96650051D01*
X144000500Y-96548543D01*
X155999499Y-96548543D01*
X156037947Y-96741829D01*
X156037950Y-96741839D01*
X156113364Y-96923907D01*
X156113371Y-96923920D01*
X156222860Y-97087781D01*
X156222863Y-97087785D01*
X156362214Y-97227136D01*
X156362218Y-97227139D01*
X156526079Y-97336628D01*
X156526092Y-97336635D01*
X156708160Y-97412049D01*
X156708165Y-97412051D01*
X156708169Y-97412051D01*
X156708170Y-97412052D01*
X156901456Y-97450500D01*
X156901459Y-97450500D01*
X158598543Y-97450500D01*
X158728582Y-97424632D01*
X158791835Y-97412051D01*
X158973914Y-97336632D01*
X159137782Y-97227139D01*
X159277139Y-97087782D01*
X159386632Y-96923914D01*
X159462051Y-96741835D01*
X159480308Y-96650051D01*
X159500500Y-96548543D01*
X159500500Y-96351456D01*
X159462052Y-96158170D01*
X159462051Y-96158169D01*
X159462051Y-96158165D01*
X159462049Y-96158160D01*
X159386635Y-95976092D01*
X159386628Y-95976079D01*
X159277139Y-95812218D01*
X159277136Y-95812214D01*
X159137785Y-95672863D01*
X159137781Y-95672860D01*
X158973920Y-95563371D01*
X158973907Y-95563364D01*
X158791839Y-95487950D01*
X158791829Y-95487947D01*
X158599217Y-95449634D01*
X158598543Y-95449500D01*
X158598541Y-95449500D01*
X156901459Y-95449500D01*
X156901457Y-95449500D01*
X156708170Y-95487947D01*
X156708160Y-95487950D01*
X156526092Y-95563364D01*
X156526079Y-95563371D01*
X156362218Y-95672860D01*
X156362214Y-95672863D01*
X156222863Y-95812214D01*
X156222860Y-95812218D01*
X156113371Y-95976079D01*
X156113364Y-95976092D01*
X156037950Y-96158160D01*
X156037947Y-96158170D01*
X155999500Y-96351456D01*
X155999500Y-96351459D01*
X155999500Y-96548541D01*
X155999500Y-96548543D01*
X155999499Y-96548543D01*
X144000500Y-96548543D01*
X144000500Y-96351456D01*
X143962052Y-96158170D01*
X143962051Y-96158169D01*
X143962051Y-96158165D01*
X143962049Y-96158160D01*
X143886635Y-95976092D01*
X143886628Y-95976079D01*
X143777139Y-95812218D01*
X143777136Y-95812214D01*
X143637785Y-95672863D01*
X143637781Y-95672860D01*
X143473920Y-95563371D01*
X143473907Y-95563364D01*
X143291839Y-95487950D01*
X143291829Y-95487947D01*
X143098543Y-95449500D01*
X143098541Y-95449500D01*
X141401459Y-95449500D01*
X141401457Y-95449500D01*
X141208170Y-95487947D01*
X141208160Y-95487950D01*
X141026092Y-95563364D01*
X141026079Y-95563371D01*
X140862218Y-95672860D01*
X140862214Y-95672863D01*
X140722863Y-95812214D01*
X140722860Y-95812218D01*
X140613371Y-95976079D01*
X140613364Y-95976092D01*
X140537950Y-96158160D01*
X140537947Y-96158170D01*
X140499500Y-96351456D01*
X140499500Y-96351459D01*
X140499500Y-96548541D01*
X140499500Y-96548543D01*
X140499499Y-96548543D01*
X136895402Y-96548543D01*
X136940385Y-96351459D01*
X136948073Y-96317775D01*
X136962766Y-96253398D01*
X136962766Y-96253397D01*
X136962767Y-96253394D01*
X137000500Y-95918504D01*
X137000500Y-95581496D01*
X136972331Y-95331491D01*
X177749500Y-95331491D01*
X177749500Y-95668508D01*
X177787231Y-96003381D01*
X177787233Y-96003397D01*
X177862223Y-96331953D01*
X177862227Y-96331965D01*
X177973532Y-96650054D01*
X178119752Y-96953683D01*
X178119754Y-96953686D01*
X178299054Y-97239039D01*
X178509175Y-97502523D01*
X178747477Y-97740825D01*
X179010961Y-97950946D01*
X179296314Y-98130246D01*
X179599949Y-98276469D01*
X179838848Y-98360063D01*
X179918034Y-98387772D01*
X179918046Y-98387776D01*
X180246606Y-98462767D01*
X180581492Y-98500499D01*
X180581493Y-98500500D01*
X180581496Y-98500500D01*
X180918507Y-98500500D01*
X180918507Y-98500499D01*
X181253394Y-98462767D01*
X181581954Y-98387776D01*
X181900051Y-98276469D01*
X182203686Y-98130246D01*
X182489039Y-97950946D01*
X182752523Y-97740825D01*
X182990825Y-97502523D01*
X183200946Y-97239039D01*
X183380246Y-96953686D01*
X183526469Y-96650051D01*
X183637776Y-96331954D01*
X183712767Y-96003394D01*
X183750500Y-95668504D01*
X183750500Y-95331496D01*
X183712767Y-94996606D01*
X183637776Y-94668046D01*
X183526469Y-94349949D01*
X183380246Y-94046314D01*
X183200946Y-93760961D01*
X182990825Y-93497477D01*
X182752523Y-93259175D01*
X182489039Y-93049054D01*
X182203686Y-92869754D01*
X182203683Y-92869752D01*
X181900054Y-92723532D01*
X181581965Y-92612227D01*
X181581953Y-92612223D01*
X181253397Y-92537233D01*
X181253381Y-92537231D01*
X180918508Y-92499500D01*
X180918504Y-92499500D01*
X180581496Y-92499500D01*
X180581491Y-92499500D01*
X180246618Y-92537231D01*
X180246602Y-92537233D01*
X179918046Y-92612223D01*
X179918034Y-92612227D01*
X179599945Y-92723532D01*
X179296316Y-92869752D01*
X179010962Y-93049053D01*
X178747477Y-93259174D01*
X178509174Y-93497477D01*
X178299053Y-93760962D01*
X178119752Y-94046316D01*
X177973532Y-94349945D01*
X177862227Y-94668034D01*
X177862223Y-94668046D01*
X177787233Y-94996602D01*
X177787231Y-94996618D01*
X177749500Y-95331491D01*
X136972331Y-95331491D01*
X136962767Y-95246606D01*
X136887776Y-94918046D01*
X136776469Y-94599949D01*
X136630246Y-94296314D01*
X136544594Y-94160000D01*
X140530138Y-94160000D01*
X140538430Y-94201690D01*
X140538430Y-94201692D01*
X140613807Y-94383671D01*
X140613814Y-94383684D01*
X140723248Y-94547462D01*
X140723251Y-94547466D01*
X140862533Y-94686748D01*
X140862537Y-94686751D01*
X141026315Y-94796185D01*
X141026328Y-94796192D01*
X141208306Y-94871569D01*
X141208318Y-94871572D01*
X141401504Y-94909999D01*
X141401508Y-94910000D01*
X142000000Y-94910000D01*
X142500000Y-94910000D01*
X143098492Y-94910000D01*
X143098495Y-94909999D01*
X143291681Y-94871572D01*
X143291693Y-94871569D01*
X143473671Y-94796192D01*
X143473684Y-94796185D01*
X143637462Y-94686751D01*
X143637466Y-94686748D01*
X143776748Y-94547466D01*
X143776751Y-94547462D01*
X143886185Y-94383684D01*
X143886192Y-94383671D01*
X143961569Y-94201692D01*
X143961569Y-94201690D01*
X143969862Y-94160000D01*
X142500000Y-94160000D01*
X142500000Y-94910000D01*
X142000000Y-94910000D01*
X142000000Y-94160000D01*
X140530138Y-94160000D01*
X136544594Y-94160000D01*
X136450946Y-94010961D01*
X136449018Y-94008543D01*
X155999499Y-94008543D01*
X156037947Y-94201829D01*
X156037950Y-94201839D01*
X156113364Y-94383907D01*
X156113371Y-94383920D01*
X156222860Y-94547781D01*
X156222863Y-94547785D01*
X156362214Y-94687136D01*
X156362218Y-94687139D01*
X156526079Y-94796628D01*
X156526092Y-94796635D01*
X156708160Y-94872049D01*
X156708165Y-94872051D01*
X156708169Y-94872051D01*
X156708170Y-94872052D01*
X156901456Y-94910500D01*
X156901459Y-94910500D01*
X158598543Y-94910500D01*
X158728582Y-94884632D01*
X158791835Y-94872051D01*
X158973914Y-94796632D01*
X159137782Y-94687139D01*
X159277139Y-94547782D01*
X159386632Y-94383914D01*
X159462051Y-94201835D01*
X159492986Y-94046316D01*
X159500500Y-94008543D01*
X159500500Y-93811456D01*
X159462052Y-93618170D01*
X159462051Y-93618169D01*
X159462051Y-93618165D01*
X159462049Y-93618160D01*
X159386635Y-93436092D01*
X159386628Y-93436079D01*
X159277139Y-93272218D01*
X159277136Y-93272214D01*
X159137785Y-93132863D01*
X159137781Y-93132860D01*
X158973920Y-93023371D01*
X158973907Y-93023364D01*
X158791839Y-92947950D01*
X158791829Y-92947947D01*
X158598543Y-92909500D01*
X158598541Y-92909500D01*
X156901459Y-92909500D01*
X156901457Y-92909500D01*
X156708170Y-92947947D01*
X156708160Y-92947950D01*
X156526092Y-93023364D01*
X156526079Y-93023371D01*
X156362218Y-93132860D01*
X156362214Y-93132863D01*
X156222863Y-93272214D01*
X156222860Y-93272218D01*
X156113371Y-93436079D01*
X156113364Y-93436092D01*
X156037950Y-93618160D01*
X156037947Y-93618170D01*
X155999500Y-93811456D01*
X155999500Y-93811459D01*
X155999500Y-94008541D01*
X155999500Y-94008543D01*
X155999499Y-94008543D01*
X136449018Y-94008543D01*
X136291849Y-93811459D01*
X136259300Y-93770643D01*
X136240831Y-93747483D01*
X136153348Y-93660000D01*
X140530138Y-93660000D01*
X142000000Y-93660000D01*
X142500000Y-93660000D01*
X143969862Y-93660000D01*
X143961569Y-93618309D01*
X143961569Y-93618307D01*
X143886192Y-93436328D01*
X143886185Y-93436315D01*
X143776751Y-93272537D01*
X143776748Y-93272533D01*
X143637466Y-93133251D01*
X143637462Y-93133248D01*
X143473684Y-93023814D01*
X143473671Y-93023807D01*
X143291693Y-92948430D01*
X143291681Y-92948427D01*
X143098495Y-92910000D01*
X142500000Y-92910000D01*
X142500000Y-93660000D01*
X142000000Y-93660000D01*
X142000000Y-92910000D01*
X141401504Y-92910000D01*
X141208318Y-92948427D01*
X141208306Y-92948430D01*
X141026328Y-93023807D01*
X141026315Y-93023814D01*
X140862537Y-93133248D01*
X140862533Y-93133251D01*
X140723251Y-93272533D01*
X140723248Y-93272537D01*
X140613814Y-93436315D01*
X140613807Y-93436328D01*
X140538430Y-93618307D01*
X140538430Y-93618309D01*
X140530138Y-93660000D01*
X136153348Y-93660000D01*
X136002522Y-93509174D01*
X135935606Y-93455811D01*
X135739039Y-93299054D01*
X135475166Y-93133251D01*
X135453683Y-93119752D01*
X135150054Y-92973532D01*
X134831965Y-92862227D01*
X134831953Y-92862223D01*
X134503397Y-92787233D01*
X134503381Y-92787231D01*
X134168508Y-92749500D01*
X134168504Y-92749500D01*
X133831496Y-92749500D01*
X133831491Y-92749500D01*
X133496618Y-92787231D01*
X133496602Y-92787233D01*
X133168046Y-92862223D01*
X133168034Y-92862227D01*
X132849945Y-92973532D01*
X132546316Y-93119752D01*
X132260962Y-93299053D01*
X131997477Y-93509174D01*
X131759174Y-93747477D01*
X131549053Y-94010962D01*
X131369752Y-94296316D01*
X131223532Y-94599945D01*
X131112227Y-94918034D01*
X131112223Y-94918046D01*
X131037233Y-95246602D01*
X131037231Y-95246618D01*
X130999500Y-95581491D01*
X129550500Y-95581491D01*
X129550500Y-91620000D01*
X140530138Y-91620000D01*
X140538430Y-91661690D01*
X140538430Y-91661692D01*
X140613807Y-91843671D01*
X140613814Y-91843684D01*
X140723248Y-92007462D01*
X140723251Y-92007466D01*
X140862533Y-92146748D01*
X140862537Y-92146751D01*
X141026315Y-92256185D01*
X141026328Y-92256192D01*
X141208306Y-92331569D01*
X141208318Y-92331572D01*
X141401504Y-92369999D01*
X141401508Y-92370000D01*
X142000000Y-92370000D01*
X142500000Y-92370000D01*
X143098492Y-92370000D01*
X143098495Y-92369999D01*
X143291681Y-92331572D01*
X143291693Y-92331569D01*
X143473671Y-92256192D01*
X143473684Y-92256185D01*
X143637462Y-92146751D01*
X143637466Y-92146748D01*
X143776748Y-92007466D01*
X143776751Y-92007462D01*
X143886185Y-91843684D01*
X143886192Y-91843671D01*
X143961569Y-91661692D01*
X143961569Y-91661690D01*
X143969862Y-91620000D01*
X142500000Y-91620000D01*
X142500000Y-92370000D01*
X142000000Y-92370000D01*
X142000000Y-91620000D01*
X140530138Y-91620000D01*
X129550500Y-91620000D01*
X129550500Y-91468543D01*
X155999499Y-91468543D01*
X156037947Y-91661829D01*
X156037950Y-91661839D01*
X156113364Y-91843907D01*
X156113371Y-91843920D01*
X156222860Y-92007781D01*
X156222863Y-92007785D01*
X156362214Y-92147136D01*
X156362218Y-92147139D01*
X156526079Y-92256628D01*
X156526092Y-92256635D01*
X156708160Y-92332049D01*
X156708165Y-92332051D01*
X156708169Y-92332051D01*
X156708170Y-92332052D01*
X156901456Y-92370500D01*
X156901459Y-92370500D01*
X158598543Y-92370500D01*
X158728582Y-92344632D01*
X158791835Y-92332051D01*
X158973914Y-92256632D01*
X159137782Y-92147139D01*
X159277139Y-92007782D01*
X159386632Y-91843914D01*
X159462051Y-91661835D01*
X159500500Y-91468541D01*
X159500500Y-91271459D01*
X159500500Y-91271456D01*
X159462052Y-91078170D01*
X159462051Y-91078169D01*
X159462051Y-91078165D01*
X159450670Y-91050689D01*
X159386635Y-90896092D01*
X159386628Y-90896079D01*
X159277139Y-90732218D01*
X159277136Y-90732214D01*
X159137785Y-90592863D01*
X159137781Y-90592860D01*
X158973920Y-90483371D01*
X158973907Y-90483364D01*
X158791839Y-90407950D01*
X158791829Y-90407947D01*
X158598543Y-90369500D01*
X158598541Y-90369500D01*
X156901459Y-90369500D01*
X156901457Y-90369500D01*
X156708170Y-90407947D01*
X156708160Y-90407950D01*
X156526092Y-90483364D01*
X156526079Y-90483371D01*
X156362218Y-90592860D01*
X156362214Y-90592863D01*
X156222863Y-90732214D01*
X156222860Y-90732218D01*
X156113371Y-90896079D01*
X156113364Y-90896092D01*
X156037950Y-91078160D01*
X156037947Y-91078170D01*
X155999500Y-91271456D01*
X155999500Y-91271459D01*
X155999500Y-91468541D01*
X155999500Y-91468543D01*
X155999499Y-91468543D01*
X129550500Y-91468543D01*
X129550500Y-91120000D01*
X140530138Y-91120000D01*
X142000000Y-91120000D01*
X142500000Y-91120000D01*
X143969862Y-91120000D01*
X143961569Y-91078309D01*
X143961569Y-91078307D01*
X143886192Y-90896328D01*
X143886185Y-90896315D01*
X143776751Y-90732537D01*
X143776748Y-90732533D01*
X143637466Y-90593251D01*
X143637462Y-90593248D01*
X143473684Y-90483814D01*
X143473671Y-90483807D01*
X143291693Y-90408430D01*
X143291681Y-90408427D01*
X143098495Y-90370000D01*
X142500000Y-90370000D01*
X142500000Y-91120000D01*
X142000000Y-91120000D01*
X142000000Y-90370000D01*
X141401504Y-90370000D01*
X141208318Y-90408427D01*
X141208306Y-90408430D01*
X141026328Y-90483807D01*
X141026315Y-90483814D01*
X140862537Y-90593248D01*
X140862533Y-90593251D01*
X140723251Y-90732533D01*
X140723248Y-90732537D01*
X140613814Y-90896315D01*
X140613807Y-90896328D01*
X140538430Y-91078307D01*
X140538430Y-91078309D01*
X140530138Y-91120000D01*
X129550500Y-91120000D01*
X129550500Y-83848543D01*
X140499499Y-83848543D01*
X140537947Y-84041829D01*
X140537950Y-84041839D01*
X140613364Y-84223907D01*
X140613371Y-84223920D01*
X140722860Y-84387781D01*
X140722863Y-84387785D01*
X140862214Y-84527136D01*
X140862218Y-84527139D01*
X141026079Y-84636628D01*
X141026092Y-84636635D01*
X141208160Y-84712049D01*
X141208165Y-84712051D01*
X141208169Y-84712051D01*
X141208170Y-84712052D01*
X141401456Y-84750500D01*
X141401459Y-84750500D01*
X142640903Y-84750500D01*
X142707942Y-84770185D01*
X142753697Y-84822989D01*
X142763641Y-84892147D01*
X142734616Y-84955703D01*
X142728584Y-84962181D01*
X142437584Y-85253181D01*
X142376261Y-85286666D01*
X142349903Y-85289500D01*
X141401457Y-85289500D01*
X141208170Y-85327947D01*
X141208160Y-85327950D01*
X141026092Y-85403364D01*
X141026079Y-85403371D01*
X140862218Y-85512860D01*
X140862214Y-85512863D01*
X140722863Y-85652214D01*
X140722860Y-85652218D01*
X140613371Y-85816079D01*
X140613364Y-85816092D01*
X140537950Y-85998160D01*
X140537947Y-85998170D01*
X140499500Y-86191456D01*
X140499500Y-86191459D01*
X140499500Y-86388541D01*
X140499500Y-86388543D01*
X140499499Y-86388543D01*
X140537947Y-86581829D01*
X140537950Y-86581839D01*
X140613364Y-86763907D01*
X140613371Y-86763920D01*
X140722860Y-86927781D01*
X140722863Y-86927785D01*
X140862214Y-87067136D01*
X140862218Y-87067139D01*
X141026079Y-87176628D01*
X141026092Y-87176635D01*
X141208160Y-87252049D01*
X141208165Y-87252051D01*
X141208169Y-87252051D01*
X141208170Y-87252052D01*
X141401456Y-87290500D01*
X141401459Y-87290500D01*
X143098543Y-87290500D01*
X143228582Y-87264632D01*
X143291835Y-87252051D01*
X143473914Y-87176632D01*
X143637782Y-87067139D01*
X143777139Y-86927782D01*
X143886632Y-86763914D01*
X143962051Y-86581835D01*
X143974632Y-86518582D01*
X144000500Y-86388543D01*
X144000500Y-86191456D01*
X143962052Y-85998170D01*
X143962051Y-85998169D01*
X143962051Y-85998165D01*
X143950670Y-85970689D01*
X143886635Y-85816092D01*
X143886633Y-85816088D01*
X143886632Y-85816086D01*
X143817604Y-85712779D01*
X143796727Y-85646103D01*
X143815211Y-85578723D01*
X143833022Y-85556212D01*
X146152416Y-83236819D01*
X146213739Y-83203334D01*
X146240097Y-83200500D01*
X149250902Y-83200500D01*
X149317941Y-83220185D01*
X149363696Y-83272989D01*
X149373640Y-83342147D01*
X149344615Y-83405703D01*
X149338583Y-83412181D01*
X144586115Y-88164648D01*
X144524792Y-88198133D01*
X144485061Y-88198500D01*
X144484904Y-88200097D01*
X144478842Y-88199500D01*
X144321158Y-88199500D01*
X144321156Y-88199500D01*
X144226775Y-88218274D01*
X144182323Y-88227116D01*
X144158141Y-88229499D01*
X144150943Y-88229499D01*
X144150941Y-88229499D01*
X144143339Y-88229500D01*
X144143337Y-88229499D01*
X144143331Y-88229500D01*
X143865784Y-88229500D01*
X143798745Y-88209815D01*
X143778103Y-88193181D01*
X143637785Y-88052863D01*
X143637781Y-88052860D01*
X143473920Y-87943371D01*
X143473907Y-87943364D01*
X143291839Y-87867950D01*
X143291829Y-87867947D01*
X143098543Y-87829500D01*
X143098541Y-87829500D01*
X141401459Y-87829500D01*
X141401457Y-87829500D01*
X141208170Y-87867947D01*
X141208160Y-87867950D01*
X141026092Y-87943364D01*
X141026079Y-87943371D01*
X140862218Y-88052860D01*
X140862214Y-88052863D01*
X140722863Y-88192214D01*
X140722860Y-88192218D01*
X140613371Y-88356079D01*
X140613364Y-88356092D01*
X140537950Y-88538160D01*
X140537947Y-88538170D01*
X140499500Y-88731456D01*
X140499500Y-88731459D01*
X140499500Y-88928541D01*
X140499500Y-88928543D01*
X140499499Y-88928543D01*
X140537947Y-89121829D01*
X140537950Y-89121839D01*
X140613364Y-89303907D01*
X140613371Y-89303920D01*
X140722860Y-89467781D01*
X140722863Y-89467785D01*
X140862214Y-89607136D01*
X140862218Y-89607139D01*
X141026079Y-89716628D01*
X141026092Y-89716635D01*
X141154296Y-89769738D01*
X141208165Y-89792051D01*
X141208169Y-89792051D01*
X141208170Y-89792052D01*
X141401456Y-89830500D01*
X141401459Y-89830500D01*
X143098543Y-89830500D01*
X143249359Y-89800500D01*
X143291835Y-89792051D01*
X143473914Y-89716632D01*
X143637782Y-89607139D01*
X143668739Y-89576182D01*
X143730061Y-89542696D01*
X143799753Y-89547680D01*
X143844102Y-89576181D01*
X143889707Y-89621786D01*
X143889711Y-89621789D01*
X144020814Y-89709390D01*
X144020827Y-89709397D01*
X144166498Y-89769735D01*
X144166503Y-89769737D01*
X144321153Y-89800499D01*
X144321156Y-89800500D01*
X144321158Y-89800500D01*
X144478844Y-89800500D01*
X144478845Y-89800499D01*
X144633497Y-89769737D01*
X144761705Y-89716632D01*
X144779172Y-89709397D01*
X144779172Y-89709396D01*
X144779179Y-89709394D01*
X144910289Y-89621789D01*
X145021789Y-89510289D01*
X145109394Y-89379179D01*
X145127771Y-89334809D01*
X145154648Y-89294585D01*
X145520690Y-88928543D01*
X155999499Y-88928543D01*
X156037947Y-89121829D01*
X156037950Y-89121839D01*
X156113364Y-89303907D01*
X156113371Y-89303920D01*
X156222860Y-89467781D01*
X156222863Y-89467785D01*
X156362214Y-89607136D01*
X156362218Y-89607139D01*
X156526079Y-89716628D01*
X156526092Y-89716635D01*
X156654296Y-89769738D01*
X156708165Y-89792051D01*
X156708169Y-89792051D01*
X156708170Y-89792052D01*
X156901456Y-89830500D01*
X156901459Y-89830500D01*
X158598543Y-89830500D01*
X158749359Y-89800500D01*
X158791835Y-89792051D01*
X158973914Y-89716632D01*
X159137782Y-89607139D01*
X159277139Y-89467782D01*
X159386632Y-89303914D01*
X159462051Y-89121835D01*
X159500500Y-88928541D01*
X159500500Y-88731459D01*
X159500500Y-88731456D01*
X159462052Y-88538170D01*
X159462051Y-88538169D01*
X159462051Y-88538165D01*
X159442325Y-88490542D01*
X159386635Y-88356092D01*
X159386628Y-88356079D01*
X159277139Y-88192218D01*
X159277136Y-88192214D01*
X159137785Y-88052863D01*
X159137781Y-88052860D01*
X158973920Y-87943371D01*
X158973907Y-87943364D01*
X158791839Y-87867950D01*
X158791829Y-87867947D01*
X158598543Y-87829500D01*
X158598541Y-87829500D01*
X156901459Y-87829500D01*
X156901457Y-87829500D01*
X156708170Y-87867947D01*
X156708160Y-87867950D01*
X156526092Y-87943364D01*
X156526079Y-87943371D01*
X156362218Y-88052860D01*
X156362214Y-88052863D01*
X156222863Y-88192214D01*
X156222860Y-88192218D01*
X156113371Y-88356079D01*
X156113364Y-88356092D01*
X156037950Y-88538160D01*
X156037947Y-88538170D01*
X155999500Y-88731456D01*
X155999500Y-88731459D01*
X155999500Y-88928541D01*
X155999500Y-88928543D01*
X155999499Y-88928543D01*
X145520690Y-88928543D01*
X150062416Y-84386819D01*
X150123739Y-84353334D01*
X150150097Y-84350500D01*
X156134216Y-84350500D01*
X156201255Y-84370185D01*
X156221897Y-84386819D01*
X156362214Y-84527136D01*
X156362218Y-84527139D01*
X156526079Y-84636628D01*
X156526092Y-84636635D01*
X156708160Y-84712049D01*
X156708165Y-84712051D01*
X156708169Y-84712051D01*
X156708170Y-84712052D01*
X156901456Y-84750500D01*
X156901459Y-84750500D01*
X157849902Y-84750500D01*
X157916941Y-84770185D01*
X157937583Y-84786819D01*
X158091284Y-84940520D01*
X158091286Y-84940521D01*
X158091290Y-84940524D01*
X158128802Y-84962181D01*
X158228216Y-85019577D01*
X158325802Y-85045725D01*
X158385462Y-85082091D01*
X158415990Y-85144938D01*
X158407695Y-85214313D01*
X158363209Y-85268191D01*
X158296657Y-85289465D01*
X158293707Y-85289500D01*
X156901457Y-85289500D01*
X156708170Y-85327947D01*
X156708160Y-85327950D01*
X156526092Y-85403364D01*
X156526079Y-85403371D01*
X156362218Y-85512860D01*
X156362214Y-85512863D01*
X156222863Y-85652214D01*
X156222860Y-85652218D01*
X156113371Y-85816079D01*
X156113364Y-85816092D01*
X156037950Y-85998160D01*
X156037947Y-85998170D01*
X155999500Y-86191456D01*
X155999500Y-86191459D01*
X155999500Y-86388541D01*
X155999500Y-86388543D01*
X155999499Y-86388543D01*
X156037947Y-86581829D01*
X156037950Y-86581839D01*
X156113364Y-86763907D01*
X156113371Y-86763920D01*
X156222860Y-86927781D01*
X156222863Y-86927785D01*
X156362214Y-87067136D01*
X156362218Y-87067139D01*
X156526079Y-87176628D01*
X156526092Y-87176635D01*
X156708160Y-87252049D01*
X156708165Y-87252051D01*
X156708169Y-87252051D01*
X156708170Y-87252052D01*
X156901456Y-87290500D01*
X156901459Y-87290500D01*
X158598543Y-87290500D01*
X158728582Y-87264632D01*
X158791835Y-87252051D01*
X158973914Y-87176632D01*
X159137782Y-87067139D01*
X159190421Y-87014500D01*
X159278103Y-86926819D01*
X159339426Y-86893334D01*
X159365784Y-86890500D01*
X167213000Y-86890500D01*
X167280039Y-86910185D01*
X167325794Y-86962989D01*
X167337000Y-87014500D01*
X167337000Y-87109006D01*
X167355834Y-87252052D01*
X167365455Y-87325131D01*
X167395690Y-87437973D01*
X167421876Y-87535699D01*
X167505295Y-87737092D01*
X167505300Y-87737102D01*
X167505301Y-87737104D01*
X167508995Y-87743503D01*
X167544918Y-87805723D01*
X167561390Y-87873623D01*
X167538537Y-87939650D01*
X167483615Y-87982840D01*
X167414062Y-87989481D01*
X167375530Y-87975109D01*
X167263593Y-87910482D01*
X167263578Y-87910475D01*
X167044018Y-87819531D01*
X166814456Y-87758020D01*
X166578839Y-87727001D01*
X166578836Y-87727000D01*
X166578830Y-87727000D01*
X166341170Y-87727000D01*
X166341164Y-87727000D01*
X166341160Y-87727001D01*
X166105543Y-87758020D01*
X165875981Y-87819531D01*
X165656421Y-87910475D01*
X165656406Y-87910482D01*
X165450590Y-88029310D01*
X165262042Y-88173988D01*
X165262035Y-88173994D01*
X165093994Y-88342035D01*
X165093988Y-88342042D01*
X164949310Y-88530590D01*
X164830482Y-88736406D01*
X164830475Y-88736421D01*
X164739531Y-88955981D01*
X164678020Y-89185543D01*
X164647001Y-89421160D01*
X164647000Y-89421176D01*
X164647000Y-89658823D01*
X164647001Y-89658839D01*
X164678020Y-89894456D01*
X164739531Y-90124018D01*
X164830475Y-90343578D01*
X164830482Y-90343593D01*
X164949310Y-90549409D01*
X165093988Y-90737957D01*
X165093994Y-90737964D01*
X165262035Y-90906005D01*
X165262042Y-90906011D01*
X165450590Y-91050689D01*
X165656406Y-91169517D01*
X165656421Y-91169524D01*
X165769967Y-91216555D01*
X165875980Y-91260468D01*
X166105542Y-91321979D01*
X166341170Y-91353000D01*
X166341177Y-91353000D01*
X166578823Y-91353000D01*
X166578830Y-91353000D01*
X166814458Y-91321979D01*
X167044020Y-91260468D01*
X167263590Y-91169519D01*
X167469410Y-91050689D01*
X167657959Y-90906010D01*
X167826010Y-90737959D01*
X167970689Y-90549410D01*
X168089519Y-90343590D01*
X168141935Y-90217046D01*
X168185776Y-90162644D01*
X168252070Y-90140579D01*
X168256496Y-90140500D01*
X169743504Y-90140500D01*
X169810543Y-90160185D01*
X169856298Y-90212989D01*
X169858065Y-90217047D01*
X169910478Y-90343583D01*
X169910482Y-90343593D01*
X170029310Y-90549409D01*
X170173988Y-90737957D01*
X170173994Y-90737964D01*
X170342035Y-90906005D01*
X170342042Y-90906011D01*
X170530590Y-91050689D01*
X170736406Y-91169517D01*
X170736421Y-91169524D01*
X170849967Y-91216555D01*
X170955980Y-91260468D01*
X171185542Y-91321979D01*
X171421170Y-91353000D01*
X171421177Y-91353000D01*
X171658823Y-91353000D01*
X171658830Y-91353000D01*
X171894458Y-91321979D01*
X172124020Y-91260468D01*
X172343590Y-91169519D01*
X172549410Y-91050689D01*
X172737959Y-90906010D01*
X172906010Y-90737959D01*
X173050689Y-90549410D01*
X173169519Y-90343590D01*
X173260468Y-90124020D01*
X173321979Y-89894458D01*
X173353000Y-89658830D01*
X173353000Y-89421170D01*
X173321979Y-89185542D01*
X173260468Y-88955980D01*
X173169521Y-88736416D01*
X173169517Y-88736406D01*
X173050689Y-88530590D01*
X172906011Y-88342042D01*
X172906005Y-88342035D01*
X172737964Y-88173994D01*
X172737957Y-88173988D01*
X172549409Y-88029310D01*
X172343593Y-87910482D01*
X172343583Y-87910477D01*
X172217047Y-87858064D01*
X172162643Y-87814222D01*
X172140579Y-87747928D01*
X172140500Y-87743503D01*
X172140500Y-86256495D01*
X172160185Y-86189456D01*
X172212989Y-86143701D01*
X172217048Y-86141934D01*
X172343578Y-86089524D01*
X172343578Y-86089523D01*
X172343590Y-86089519D01*
X172549410Y-85970689D01*
X172737959Y-85826010D01*
X172906010Y-85657959D01*
X173050689Y-85469410D01*
X173169519Y-85263590D01*
X173260468Y-85044020D01*
X173321979Y-84814458D01*
X173353000Y-84578830D01*
X173353000Y-84341170D01*
X173321979Y-84105542D01*
X173260468Y-83875980D01*
X173202279Y-83735500D01*
X173169524Y-83656421D01*
X173169517Y-83656406D01*
X173050689Y-83450590D01*
X172906011Y-83262042D01*
X172906005Y-83262035D01*
X172737964Y-83093994D01*
X172737957Y-83093988D01*
X172549409Y-82949310D01*
X172343593Y-82830482D01*
X172343578Y-82830475D01*
X172124018Y-82739531D01*
X171894456Y-82678020D01*
X171658839Y-82647001D01*
X171658836Y-82647000D01*
X171658830Y-82647000D01*
X171421170Y-82647000D01*
X171421164Y-82647000D01*
X171421160Y-82647001D01*
X171185543Y-82678020D01*
X170955981Y-82739531D01*
X170736421Y-82830475D01*
X170736406Y-82830482D01*
X170530590Y-82949310D01*
X170342042Y-83093988D01*
X170342035Y-83093994D01*
X170173994Y-83262035D01*
X170173988Y-83262042D01*
X170029310Y-83450590D01*
X169910482Y-83656406D01*
X169910478Y-83656416D01*
X169858065Y-83782953D01*
X169814224Y-83837356D01*
X169747930Y-83859421D01*
X169743504Y-83859500D01*
X168256496Y-83859500D01*
X168189457Y-83839815D01*
X168143702Y-83787011D01*
X168141935Y-83782953D01*
X168103542Y-83690265D01*
X168089519Y-83656410D01*
X167970689Y-83450590D01*
X167826010Y-83262041D01*
X167826005Y-83262035D01*
X167657964Y-83093994D01*
X167657957Y-83093988D01*
X167469409Y-82949310D01*
X167263593Y-82830482D01*
X167263578Y-82830475D01*
X167044018Y-82739531D01*
X166814456Y-82678020D01*
X166578839Y-82647001D01*
X166578836Y-82647000D01*
X166578830Y-82647000D01*
X166341170Y-82647000D01*
X166341164Y-82647000D01*
X166341160Y-82647001D01*
X166105543Y-82678020D01*
X165875981Y-82739531D01*
X165656421Y-82830475D01*
X165656406Y-82830482D01*
X165450590Y-82949310D01*
X165262042Y-83093988D01*
X165262035Y-83093994D01*
X165093994Y-83262035D01*
X165093988Y-83262042D01*
X164949310Y-83450590D01*
X164830482Y-83656406D01*
X164830478Y-83656416D01*
X164778065Y-83782953D01*
X164734224Y-83837356D01*
X164667930Y-83859421D01*
X164663504Y-83859500D01*
X159624500Y-83859500D01*
X159557461Y-83839815D01*
X159511706Y-83787011D01*
X159500500Y-83735500D01*
X159500500Y-83651456D01*
X159462052Y-83458170D01*
X159462051Y-83458169D01*
X159462051Y-83458165D01*
X159430206Y-83381284D01*
X159386635Y-83276092D01*
X159386628Y-83276079D01*
X159314551Y-83168208D01*
X159293673Y-83101530D01*
X159312158Y-83034150D01*
X159364137Y-82987460D01*
X159393455Y-82977701D01*
X159433497Y-82969737D01*
X159579179Y-82909394D01*
X159710289Y-82821789D01*
X159821789Y-82710289D01*
X159909394Y-82579179D01*
X159969737Y-82433497D01*
X160000500Y-82278842D01*
X160000500Y-82121158D01*
X160000500Y-82121155D01*
X160000499Y-82121153D01*
X159984441Y-82040424D01*
X159969737Y-81966503D01*
X159938298Y-81890602D01*
X159909397Y-81820827D01*
X159909390Y-81820814D01*
X159821789Y-81689711D01*
X159821786Y-81689707D01*
X159710292Y-81578213D01*
X159710288Y-81578210D01*
X159579185Y-81490609D01*
X159579172Y-81490602D01*
X159433501Y-81430264D01*
X159433489Y-81430261D01*
X159278845Y-81399500D01*
X159278842Y-81399500D01*
X159121158Y-81399500D01*
X159121155Y-81399500D01*
X158966510Y-81430261D01*
X158966498Y-81430264D01*
X158820827Y-81490602D01*
X158820814Y-81490609D01*
X158689711Y-81578210D01*
X158689707Y-81578213D01*
X158578213Y-81689707D01*
X158578210Y-81689711D01*
X158490609Y-81820814D01*
X158490602Y-81820827D01*
X158430264Y-81966498D01*
X158430261Y-81966508D01*
X158399362Y-82121848D01*
X158366977Y-82183759D01*
X158365426Y-82185337D01*
X157837584Y-82713181D01*
X157776261Y-82746666D01*
X157749903Y-82749500D01*
X156901456Y-82749500D01*
X156748691Y-82779887D01*
X156679100Y-82773660D01*
X156623922Y-82730797D01*
X156600678Y-82664907D01*
X156600500Y-82658270D01*
X156600500Y-82521155D01*
X156600499Y-82521153D01*
X156569738Y-82366510D01*
X156569737Y-82366503D01*
X156513728Y-82231284D01*
X156509397Y-82220827D01*
X156509390Y-82220814D01*
X156421789Y-82089711D01*
X156421786Y-82089707D01*
X156310292Y-81978213D01*
X156310288Y-81978210D01*
X156179185Y-81890609D01*
X156179172Y-81890602D01*
X156033501Y-81830264D01*
X156033489Y-81830261D01*
X155878845Y-81799500D01*
X155878842Y-81799500D01*
X155721158Y-81799500D01*
X155721155Y-81799500D01*
X155566510Y-81830261D01*
X155566498Y-81830264D01*
X155420827Y-81890602D01*
X155420814Y-81890609D01*
X155289125Y-81978602D01*
X155222447Y-81999480D01*
X155220234Y-81999500D01*
X146026669Y-81999500D01*
X146026653Y-81999499D01*
X146019057Y-81999499D01*
X145860943Y-81999499D01*
X145753587Y-82028265D01*
X145708210Y-82040424D01*
X145708209Y-82040425D01*
X145658096Y-82069359D01*
X145658095Y-82069360D01*
X145622853Y-82089707D01*
X145571285Y-82119479D01*
X145571282Y-82119481D01*
X145459478Y-82231286D01*
X144170977Y-83519786D01*
X144109654Y-83553271D01*
X144039962Y-83548287D01*
X143984029Y-83506415D01*
X143964962Y-83463650D01*
X143963820Y-83463997D01*
X143962049Y-83458160D01*
X143886635Y-83276092D01*
X143886633Y-83276088D01*
X143886632Y-83276086D01*
X143817604Y-83172779D01*
X143796727Y-83106103D01*
X143815211Y-83038723D01*
X143833022Y-83016212D01*
X145812416Y-81036819D01*
X145873739Y-81003334D01*
X145900097Y-81000500D01*
X149420234Y-81000500D01*
X149487273Y-81020185D01*
X149489125Y-81021398D01*
X149620814Y-81109390D01*
X149620827Y-81109397D01*
X149766498Y-81169735D01*
X149766503Y-81169737D01*
X149921153Y-81200499D01*
X149921156Y-81200500D01*
X149921158Y-81200500D01*
X150078844Y-81200500D01*
X150078845Y-81200499D01*
X150233497Y-81169737D01*
X150371072Y-81112752D01*
X150379172Y-81109397D01*
X150379172Y-81109396D01*
X150379179Y-81109394D01*
X150510289Y-81021789D01*
X150621789Y-80910289D01*
X150709394Y-80779179D01*
X150769737Y-80633497D01*
X150800500Y-80478842D01*
X150800500Y-80321158D01*
X150800500Y-80321155D01*
X150800499Y-80321153D01*
X150798727Y-80312247D01*
X150769737Y-80166503D01*
X150737929Y-80089711D01*
X150709397Y-80020827D01*
X150709390Y-80020814D01*
X150621789Y-79889711D01*
X150621786Y-79889707D01*
X150510292Y-79778213D01*
X150510288Y-79778210D01*
X150379185Y-79690609D01*
X150379172Y-79690602D01*
X150233501Y-79630264D01*
X150233489Y-79630261D01*
X150078845Y-79599500D01*
X150078842Y-79599500D01*
X149921158Y-79599500D01*
X149921155Y-79599500D01*
X149766510Y-79630261D01*
X149766498Y-79630264D01*
X149620827Y-79690602D01*
X149620814Y-79690609D01*
X149489125Y-79778602D01*
X149422447Y-79799480D01*
X149420234Y-79799500D01*
X145520940Y-79799500D01*
X145480019Y-79810464D01*
X145480019Y-79810465D01*
X145442751Y-79820451D01*
X145368214Y-79840423D01*
X145368209Y-79840426D01*
X145231290Y-79919475D01*
X145231282Y-79919481D01*
X145119478Y-80031286D01*
X142437584Y-82713181D01*
X142376261Y-82746666D01*
X142349903Y-82749500D01*
X141401457Y-82749500D01*
X141208170Y-82787947D01*
X141208160Y-82787950D01*
X141026092Y-82863364D01*
X141026079Y-82863371D01*
X140862218Y-82972860D01*
X140862214Y-82972863D01*
X140722863Y-83112214D01*
X140722860Y-83112218D01*
X140613371Y-83276079D01*
X140613364Y-83276092D01*
X140537950Y-83458160D01*
X140537947Y-83458170D01*
X140499500Y-83651456D01*
X140499500Y-83651459D01*
X140499500Y-83848541D01*
X140499500Y-83848543D01*
X140499499Y-83848543D01*
X129550500Y-83848543D01*
X129550500Y-62213185D01*
X140111700Y-62213185D01*
X140111700Y-63261420D01*
X140111701Y-63261426D01*
X140118108Y-63321033D01*
X140168402Y-63455878D01*
X140168406Y-63455885D01*
X140254652Y-63571094D01*
X140254655Y-63571097D01*
X140369864Y-63657343D01*
X140369871Y-63657347D01*
X140396439Y-63667256D01*
X140504717Y-63707641D01*
X140564327Y-63714050D01*
X141218872Y-63714049D01*
X141278483Y-63707641D01*
X141413331Y-63657346D01*
X141528546Y-63571096D01*
X141614796Y-63455881D01*
X141665091Y-63321033D01*
X141671500Y-63261423D01*
X141671499Y-62213185D01*
X143820100Y-62213185D01*
X143820100Y-63261420D01*
X143820101Y-63261426D01*
X143826508Y-63321033D01*
X143876802Y-63455878D01*
X143876806Y-63455885D01*
X143963052Y-63571094D01*
X143963055Y-63571097D01*
X144078264Y-63657343D01*
X144078271Y-63657347D01*
X144104839Y-63667256D01*
X144213117Y-63707641D01*
X144272727Y-63714050D01*
X144927272Y-63714049D01*
X144986883Y-63707641D01*
X145121731Y-63657346D01*
X145236946Y-63571096D01*
X145323196Y-63455881D01*
X145373491Y-63321033D01*
X145379900Y-63261423D01*
X145379899Y-62213178D01*
X145373491Y-62153567D01*
X145372460Y-62150804D01*
X145323197Y-62018721D01*
X145323193Y-62018714D01*
X145236947Y-61903505D01*
X145236944Y-61903502D01*
X145121735Y-61817256D01*
X145121728Y-61817252D01*
X144986886Y-61766960D01*
X144986885Y-61766959D01*
X144986883Y-61766959D01*
X144927273Y-61760550D01*
X144927263Y-61760550D01*
X144272729Y-61760550D01*
X144272723Y-61760551D01*
X144213116Y-61766958D01*
X144078271Y-61817252D01*
X144078264Y-61817256D01*
X143963055Y-61903502D01*
X143963052Y-61903505D01*
X143876806Y-62018714D01*
X143876802Y-62018721D01*
X143826508Y-62153567D01*
X143821846Y-62196938D01*
X143820101Y-62213173D01*
X143820100Y-62213185D01*
X141671499Y-62213185D01*
X141671499Y-62213178D01*
X141665091Y-62153567D01*
X141664060Y-62150804D01*
X141614797Y-62018721D01*
X141614793Y-62018714D01*
X141528547Y-61903505D01*
X141528544Y-61903502D01*
X141413335Y-61817256D01*
X141413328Y-61817252D01*
X141278486Y-61766960D01*
X141278485Y-61766959D01*
X141278483Y-61766959D01*
X141218873Y-61760550D01*
X141218863Y-61760550D01*
X140564329Y-61760550D01*
X140564323Y-61760551D01*
X140504716Y-61766958D01*
X140369871Y-61817252D01*
X140369864Y-61817256D01*
X140254655Y-61903502D01*
X140254652Y-61903505D01*
X140168406Y-62018714D01*
X140168402Y-62018721D01*
X140118108Y-62153567D01*
X140113446Y-62196938D01*
X140111701Y-62213173D01*
X140111700Y-62213185D01*
X129550500Y-62213185D01*
X129550500Y-57331491D01*
X130999500Y-57331491D01*
X130999500Y-57668508D01*
X131037231Y-58003381D01*
X131037233Y-58003397D01*
X131112223Y-58331953D01*
X131112227Y-58331965D01*
X131223532Y-58650054D01*
X131369752Y-58953683D01*
X131376311Y-58964121D01*
X131549054Y-59239039D01*
X131759175Y-59502523D01*
X131997477Y-59740825D01*
X132260961Y-59950946D01*
X132546314Y-60130246D01*
X132849949Y-60276469D01*
X133019813Y-60335907D01*
X133168034Y-60387772D01*
X133168046Y-60387776D01*
X133496606Y-60462767D01*
X133831492Y-60500499D01*
X133831493Y-60500500D01*
X133831496Y-60500500D01*
X134168507Y-60500500D01*
X134168507Y-60500499D01*
X134503394Y-60462767D01*
X134831954Y-60387776D01*
X135150051Y-60276469D01*
X135453686Y-60130246D01*
X135739039Y-59950946D01*
X136002523Y-59740825D01*
X136240825Y-59502523D01*
X136301827Y-59426029D01*
X140089099Y-59426029D01*
X140089099Y-59608770D01*
X140116378Y-59781000D01*
X140117684Y-59789245D01*
X140174151Y-59963031D01*
X140257108Y-60125844D01*
X140364514Y-60273676D01*
X140493723Y-60402885D01*
X140641555Y-60510291D01*
X140804368Y-60593248D01*
X140978154Y-60649715D01*
X141030862Y-60658063D01*
X141158629Y-60678300D01*
X141158634Y-60678300D01*
X141341369Y-60678300D01*
X141469140Y-60658063D01*
X141474565Y-60658764D01*
X141479692Y-60656852D01*
X141508848Y-60663194D01*
X141538433Y-60667018D01*
X141544036Y-60670849D01*
X141547965Y-60671704D01*
X141576219Y-60692855D01*
X141726538Y-60843174D01*
X141726548Y-60843185D01*
X141730878Y-60847515D01*
X141730879Y-60847516D01*
X141842683Y-60959320D01*
X141842685Y-60959321D01*
X141842686Y-60959322D01*
X141914007Y-61000498D01*
X141914009Y-61000500D01*
X141914010Y-61000500D01*
X141979614Y-61038377D01*
X142132342Y-61079301D01*
X142132345Y-61079301D01*
X142298052Y-61079301D01*
X142298068Y-61079300D01*
X144556832Y-61079300D01*
X144556848Y-61079301D01*
X144564444Y-61079301D01*
X144722555Y-61079301D01*
X144722558Y-61079301D01*
X144875286Y-61038377D01*
X144940890Y-61000500D01*
X145012217Y-60959320D01*
X145124021Y-60847516D01*
X145124021Y-60847514D01*
X145134225Y-60837311D01*
X145134228Y-60837306D01*
X145729816Y-60241720D01*
X145791139Y-60208235D01*
X145817497Y-60205401D01*
X150210349Y-60205401D01*
X150277388Y-60225086D01*
X150298030Y-60241720D01*
X150301650Y-60245340D01*
X150448484Y-60335908D01*
X150612247Y-60390174D01*
X150713323Y-60400500D01*
X151286676Y-60400499D01*
X151286684Y-60400498D01*
X151286687Y-60400498D01*
X151342030Y-60394844D01*
X151387753Y-60390174D01*
X151551516Y-60335908D01*
X151652410Y-60273676D01*
X151660403Y-60268746D01*
X151727795Y-60250305D01*
X151794459Y-60271227D01*
X151839229Y-60324869D01*
X151849500Y-60374284D01*
X151849500Y-61251122D01*
X151850585Y-61267113D01*
X151835480Y-61335330D01*
X151785891Y-61384552D01*
X151726869Y-61399500D01*
X150179766Y-61399500D01*
X150112727Y-61379815D01*
X150110875Y-61378602D01*
X149979185Y-61290609D01*
X149979172Y-61290602D01*
X149833501Y-61230264D01*
X149833489Y-61230261D01*
X149678845Y-61199500D01*
X149678842Y-61199500D01*
X149521158Y-61199500D01*
X149521155Y-61199500D01*
X149366510Y-61230261D01*
X149366498Y-61230264D01*
X149220827Y-61290602D01*
X149220814Y-61290609D01*
X149089711Y-61378210D01*
X149089706Y-61378214D01*
X149071389Y-61396531D01*
X149010065Y-61430015D01*
X148940374Y-61425029D01*
X148884441Y-61383156D01*
X148880608Y-61377739D01*
X148821789Y-61289711D01*
X148821786Y-61289707D01*
X148710292Y-61178213D01*
X148710288Y-61178210D01*
X148579185Y-61090609D01*
X148579172Y-61090602D01*
X148433501Y-61030264D01*
X148433489Y-61030261D01*
X148278845Y-60999500D01*
X148278842Y-60999500D01*
X148121158Y-60999500D01*
X148121155Y-60999500D01*
X147966510Y-61030261D01*
X147966498Y-61030264D01*
X147820827Y-61090602D01*
X147820814Y-61090609D01*
X147689711Y-61178210D01*
X147689707Y-61178213D01*
X147578213Y-61289707D01*
X147578210Y-61289711D01*
X147490609Y-61420814D01*
X147490602Y-61420827D01*
X147430264Y-61566498D01*
X147430261Y-61566508D01*
X147399362Y-61721848D01*
X147390596Y-61738605D01*
X147386577Y-61757082D01*
X147367832Y-61782123D01*
X147366977Y-61783759D01*
X147365427Y-61785337D01*
X147305915Y-61844849D01*
X147231286Y-61919478D01*
X147231285Y-61919478D01*
X147231284Y-61919479D01*
X147119479Y-62031284D01*
X147110060Y-62047600D01*
X147099770Y-62065424D01*
X147091899Y-62079057D01*
X147091897Y-62079059D01*
X147055310Y-62142428D01*
X147013022Y-62185964D01*
X146967724Y-62213905D01*
X146901648Y-62254661D01*
X146779661Y-62376648D01*
X146689093Y-62523481D01*
X146689092Y-62523484D01*
X146634826Y-62687247D01*
X146634826Y-62687248D01*
X146634825Y-62687248D01*
X146624500Y-62788315D01*
X146624500Y-62802051D01*
X146604815Y-62869090D01*
X146588181Y-62889732D01*
X141383431Y-68094482D01*
X141322108Y-68127967D01*
X141282495Y-68130091D01*
X141278485Y-68129659D01*
X141278483Y-68129659D01*
X141218873Y-68123250D01*
X141218863Y-68123250D01*
X140564329Y-68123250D01*
X140564323Y-68123251D01*
X140504716Y-68129658D01*
X140369871Y-68179952D01*
X140369864Y-68179956D01*
X140254655Y-68266202D01*
X140254652Y-68266205D01*
X140168406Y-68381414D01*
X140168402Y-68381421D01*
X140118108Y-68516267D01*
X140111701Y-68575866D01*
X140111701Y-68575873D01*
X140111700Y-68575885D01*
X140111700Y-69624120D01*
X140111701Y-69624126D01*
X140118108Y-69683733D01*
X140168402Y-69818578D01*
X140168406Y-69818585D01*
X140254652Y-69933794D01*
X140254655Y-69933797D01*
X140369864Y-70020043D01*
X140369871Y-70020047D01*
X140414818Y-70036811D01*
X140504717Y-70070341D01*
X140564327Y-70076750D01*
X141218872Y-70076749D01*
X141278483Y-70070341D01*
X141413331Y-70020046D01*
X141528546Y-69933796D01*
X141614796Y-69818581D01*
X141665091Y-69683733D01*
X141671500Y-69624123D01*
X141671499Y-69556246D01*
X141691183Y-69489208D01*
X141707813Y-69468570D01*
X145964729Y-65211654D01*
X146625001Y-65211654D01*
X146635319Y-65312652D01*
X146689546Y-65476300D01*
X146689551Y-65476311D01*
X146780052Y-65623034D01*
X146780055Y-65623038D01*
X146901961Y-65744944D01*
X146901965Y-65744947D01*
X147048688Y-65835448D01*
X147048699Y-65835453D01*
X147212347Y-65889680D01*
X147313352Y-65899999D01*
X147350000Y-65899999D01*
X147350000Y-65112500D01*
X146625001Y-65112500D01*
X146625001Y-65211654D01*
X145964729Y-65211654D01*
X146527566Y-64648817D01*
X146588888Y-64615334D01*
X146615246Y-64612500D01*
X147476000Y-64612500D01*
X147543039Y-64632185D01*
X147588794Y-64684989D01*
X147600000Y-64736500D01*
X147600000Y-64862500D01*
X147726000Y-64862500D01*
X147793039Y-64882185D01*
X147838794Y-64934989D01*
X147850000Y-64986500D01*
X147850000Y-65899999D01*
X147886640Y-65899999D01*
X147886654Y-65899998D01*
X147987652Y-65889680D01*
X148151300Y-65835453D01*
X148151311Y-65835448D01*
X148298034Y-65744947D01*
X148298038Y-65744944D01*
X148419944Y-65623038D01*
X148419947Y-65623034D01*
X148510446Y-65476314D01*
X148512240Y-65472467D01*
X148514176Y-65470267D01*
X148514245Y-65470156D01*
X148514264Y-65470167D01*
X148558407Y-65420023D01*
X148625599Y-65400864D01*
X148692482Y-65421073D01*
X148737822Y-65474233D01*
X148742333Y-65485854D01*
X148764092Y-65551516D01*
X148854660Y-65698350D01*
X148976650Y-65820340D01*
X149123484Y-65910908D01*
X149287247Y-65965174D01*
X149388323Y-65975500D01*
X150086676Y-65975499D01*
X150086684Y-65975498D01*
X150086687Y-65975498D01*
X150148928Y-65969140D01*
X150187753Y-65965174D01*
X150351516Y-65910908D01*
X150498350Y-65820340D01*
X150512319Y-65806371D01*
X150573642Y-65772886D01*
X150643334Y-65777870D01*
X150687681Y-65806371D01*
X150701650Y-65820340D01*
X150848484Y-65910908D01*
X151012247Y-65965174D01*
X151113323Y-65975500D01*
X151811676Y-65975499D01*
X151811684Y-65975498D01*
X151811687Y-65975498D01*
X151873928Y-65969140D01*
X151912753Y-65965174D01*
X152076516Y-65910908D01*
X152223350Y-65820340D01*
X152300541Y-65743148D01*
X152361860Y-65709666D01*
X152431552Y-65714650D01*
X152487486Y-65756521D01*
X152504400Y-65787496D01*
X152506202Y-65792327D01*
X152506206Y-65792335D01*
X152592452Y-65907544D01*
X152592455Y-65907547D01*
X152707664Y-65993793D01*
X152707671Y-65993797D01*
X152752618Y-66010561D01*
X152842517Y-66044091D01*
X152902127Y-66050500D01*
X153549902Y-66050499D01*
X153616941Y-66070183D01*
X153637583Y-66086818D01*
X155038584Y-67487819D01*
X155072069Y-67549142D01*
X155067085Y-67618834D01*
X155025213Y-67674767D01*
X154959749Y-67699184D01*
X154950903Y-67699500D01*
X152002129Y-67699500D01*
X152002123Y-67699501D01*
X151942516Y-67705908D01*
X151807671Y-67756202D01*
X151807664Y-67756206D01*
X151692455Y-67842452D01*
X151692452Y-67842455D01*
X151606206Y-67957664D01*
X151606202Y-67957671D01*
X151555908Y-68092517D01*
X151551869Y-68130091D01*
X151549501Y-68152123D01*
X151549500Y-68152135D01*
X151549500Y-70647870D01*
X151549501Y-70647876D01*
X151555908Y-70707483D01*
X151606202Y-70842328D01*
X151606206Y-70842335D01*
X151692452Y-70957544D01*
X151692453Y-70957545D01*
X151712826Y-70972797D01*
X151754696Y-71028731D01*
X151759679Y-71098423D01*
X151726192Y-71159745D01*
X151664868Y-71193229D01*
X151595177Y-71188243D01*
X151573419Y-71177602D01*
X151561296Y-71170124D01*
X151551520Y-71164094D01*
X151551517Y-71164092D01*
X151551516Y-71164092D01*
X151387753Y-71109826D01*
X151387751Y-71109825D01*
X151286684Y-71099500D01*
X150849000Y-71099500D01*
X150781961Y-71079815D01*
X150736206Y-71027011D01*
X150726262Y-70957853D01*
X150749733Y-70901191D01*
X150793796Y-70842331D01*
X150844091Y-70707483D01*
X150850500Y-70647873D01*
X150850499Y-68152128D01*
X150844091Y-68092517D01*
X150832549Y-68061572D01*
X150793797Y-67957671D01*
X150793793Y-67957664D01*
X150707547Y-67842455D01*
X150707544Y-67842452D01*
X150592335Y-67756206D01*
X150592328Y-67756202D01*
X150457482Y-67705908D01*
X150457483Y-67705908D01*
X150397883Y-67699501D01*
X150397881Y-67699500D01*
X150397873Y-67699500D01*
X150397864Y-67699500D01*
X146802129Y-67699500D01*
X146802123Y-67699501D01*
X146742516Y-67705908D01*
X146607671Y-67756202D01*
X146607664Y-67756206D01*
X146492455Y-67842452D01*
X146492452Y-67842455D01*
X146406206Y-67957664D01*
X146406202Y-67957671D01*
X146355908Y-68092517D01*
X146351869Y-68130091D01*
X146349501Y-68152123D01*
X146349500Y-68152135D01*
X146349500Y-70635883D01*
X146329815Y-70702922D01*
X146277011Y-70748677D01*
X146207853Y-70758621D01*
X146160402Y-70741421D01*
X146076307Y-70689549D01*
X146076300Y-70689546D01*
X145912652Y-70635319D01*
X145811654Y-70625000D01*
X145762500Y-70625000D01*
X145762500Y-71350000D01*
X146499999Y-71350000D01*
X146499999Y-71313360D01*
X146499998Y-71313345D01*
X146489680Y-71212343D01*
X146488264Y-71205726D01*
X146490351Y-71205279D01*
X146488294Y-71145598D01*
X146524021Y-71085554D01*
X146586540Y-71054357D01*
X146651735Y-71060231D01*
X146742517Y-71094091D01*
X146802127Y-71100500D01*
X147005831Y-71100499D01*
X147072870Y-71120183D01*
X147118625Y-71172987D01*
X147128569Y-71242145D01*
X147108935Y-71293387D01*
X147090610Y-71320813D01*
X147090602Y-71320827D01*
X147030264Y-71466498D01*
X147030261Y-71466510D01*
X146999500Y-71621153D01*
X146999500Y-71778846D01*
X147030261Y-71933489D01*
X147030264Y-71933501D01*
X147054952Y-71993103D01*
X147062421Y-72062572D01*
X147031145Y-72125051D01*
X147028074Y-72128235D01*
X146979659Y-72176650D01*
X146889093Y-72323481D01*
X146889092Y-72323484D01*
X146834826Y-72487247D01*
X146834826Y-72487248D01*
X146834825Y-72487248D01*
X146824500Y-72588315D01*
X146824500Y-73286669D01*
X146824501Y-73286687D01*
X146834825Y-73387752D01*
X146865394Y-73480001D01*
X146887746Y-73547455D01*
X146889092Y-73551515D01*
X146889093Y-73551518D01*
X146923395Y-73607129D01*
X146975196Y-73691113D01*
X146979661Y-73698351D01*
X146993629Y-73712319D01*
X147027114Y-73773642D01*
X147022130Y-73843334D01*
X146993629Y-73887681D01*
X146979661Y-73901648D01*
X146889093Y-74048481D01*
X146889092Y-74048484D01*
X146858028Y-74142229D01*
X146818255Y-74199673D01*
X146753739Y-74226496D01*
X146684963Y-74214181D01*
X146652641Y-74190905D01*
X145951447Y-73489711D01*
X145237297Y-72775562D01*
X145203813Y-72714240D01*
X145208797Y-72644548D01*
X145237298Y-72600201D01*
X145262500Y-72574999D01*
X145762500Y-72574999D01*
X145811640Y-72574999D01*
X145811654Y-72574998D01*
X145912652Y-72564680D01*
X146076300Y-72510453D01*
X146076311Y-72510448D01*
X146223034Y-72419947D01*
X146223038Y-72419944D01*
X146344944Y-72298038D01*
X146344947Y-72298034D01*
X146435448Y-72151311D01*
X146435453Y-72151300D01*
X146489680Y-71987652D01*
X146499999Y-71886654D01*
X146500000Y-71886641D01*
X146500000Y-71850000D01*
X145762500Y-71850000D01*
X145762500Y-72574999D01*
X145262500Y-72574999D01*
X145262500Y-70625000D01*
X145262499Y-70624999D01*
X145213361Y-70625000D01*
X145213343Y-70625001D01*
X145112347Y-70635319D01*
X144948699Y-70689546D01*
X144948688Y-70689551D01*
X144801965Y-70780052D01*
X144688034Y-70893983D01*
X144683906Y-70896236D01*
X144681356Y-70900187D01*
X144653533Y-70912821D01*
X144626711Y-70927467D01*
X144622020Y-70927131D01*
X144617738Y-70929076D01*
X144587503Y-70924663D01*
X144557019Y-70922483D01*
X144551962Y-70919475D01*
X144548601Y-70918985D01*
X144533680Y-70908601D01*
X144518951Y-70899841D01*
X144515714Y-70897024D01*
X144398350Y-70779660D01*
X144338260Y-70742596D01*
X144330598Y-70735928D01*
X144317025Y-70714708D01*
X144300178Y-70695978D01*
X144297496Y-70684178D01*
X144292949Y-70677069D01*
X144292976Y-70664286D01*
X144288000Y-70642388D01*
X144288000Y-70200749D01*
X144307685Y-70133710D01*
X144360489Y-70087955D01*
X144412000Y-70076749D01*
X144927271Y-70076749D01*
X144927272Y-70076749D01*
X144986883Y-70070341D01*
X145121731Y-70020046D01*
X145236946Y-69933796D01*
X145323196Y-69818581D01*
X145373491Y-69683733D01*
X145379900Y-69624123D01*
X145379899Y-68575878D01*
X145373564Y-68516942D01*
X145373491Y-68516266D01*
X145323197Y-68381421D01*
X145323193Y-68381414D01*
X145236947Y-68266205D01*
X145236944Y-68266202D01*
X145121735Y-68179956D01*
X145121728Y-68179952D01*
X144986886Y-68129660D01*
X144986885Y-68129659D01*
X144986883Y-68129659D01*
X144927273Y-68123250D01*
X144927263Y-68123250D01*
X144272729Y-68123250D01*
X144272723Y-68123251D01*
X144213116Y-68129658D01*
X144078271Y-68179952D01*
X144078264Y-68179956D01*
X143963055Y-68266202D01*
X143963052Y-68266205D01*
X143876806Y-68381414D01*
X143876802Y-68381421D01*
X143826508Y-68516267D01*
X143820101Y-68575866D01*
X143820101Y-68575873D01*
X143820100Y-68575885D01*
X143820100Y-68779302D01*
X143800415Y-68846341D01*
X143783781Y-68866983D01*
X143206981Y-69443782D01*
X143206980Y-69443784D01*
X143172759Y-69503057D01*
X143127923Y-69580715D01*
X143086999Y-69733443D01*
X143086999Y-69733445D01*
X143086999Y-69901546D01*
X143087000Y-69901559D01*
X143087000Y-70642388D01*
X143067315Y-70709427D01*
X143028098Y-70747926D01*
X142976650Y-70779659D01*
X142854661Y-70901648D01*
X142764093Y-71048481D01*
X142764091Y-71048486D01*
X142740631Y-71119285D01*
X142709826Y-71212247D01*
X142709826Y-71212248D01*
X142709825Y-71212248D01*
X142699500Y-71313315D01*
X142699500Y-71886669D01*
X142699501Y-71886687D01*
X142709825Y-71987752D01*
X142736964Y-72069650D01*
X142764092Y-72151516D01*
X142854660Y-72298350D01*
X142976650Y-72420340D01*
X143123484Y-72510908D01*
X143287247Y-72565174D01*
X143289231Y-72565376D01*
X143290375Y-72565843D01*
X143293872Y-72566592D01*
X143293738Y-72567215D01*
X143353924Y-72591767D01*
X143364318Y-72601054D01*
X146751849Y-75988585D01*
X146751854Y-75988589D01*
X147843784Y-77080520D01*
X147843786Y-77080521D01*
X147843790Y-77080524D01*
X147980709Y-77159573D01*
X147980716Y-77159577D01*
X148133443Y-77200501D01*
X148133445Y-77200501D01*
X148141267Y-77201531D01*
X148205163Y-77229799D01*
X148230618Y-77259373D01*
X148254657Y-77298346D01*
X148254659Y-77298349D01*
X148254660Y-77298350D01*
X148376650Y-77420340D01*
X148523484Y-77510908D01*
X148687247Y-77565174D01*
X148788323Y-77575500D01*
X149486676Y-77575499D01*
X149486684Y-77575498D01*
X149486687Y-77575498D01*
X149553108Y-77568713D01*
X149587753Y-77565174D01*
X149751516Y-77510908D01*
X149898350Y-77420340D01*
X149912319Y-77406371D01*
X149973642Y-77372886D01*
X150043334Y-77377870D01*
X150087681Y-77406371D01*
X150101650Y-77420340D01*
X150248484Y-77510908D01*
X150412247Y-77565174D01*
X150513323Y-77575500D01*
X151211676Y-77575499D01*
X151211684Y-77575498D01*
X151211687Y-77575498D01*
X151278108Y-77568713D01*
X151312753Y-77565174D01*
X151476516Y-77510908D01*
X151623350Y-77420340D01*
X151745340Y-77298350D01*
X151769362Y-77259404D01*
X151776948Y-77252580D01*
X151781188Y-77243297D01*
X151802488Y-77229608D01*
X151821310Y-77212679D01*
X151832945Y-77210034D01*
X151839966Y-77205523D01*
X151874901Y-77200500D01*
X152020234Y-77200500D01*
X152087273Y-77220185D01*
X152089125Y-77221398D01*
X152220814Y-77309390D01*
X152220827Y-77309397D01*
X152366498Y-77369735D01*
X152366503Y-77369737D01*
X152521153Y-77400499D01*
X152521156Y-77400500D01*
X152521158Y-77400500D01*
X152678844Y-77400500D01*
X152678845Y-77400499D01*
X152833497Y-77369737D01*
X152963815Y-77315757D01*
X153033284Y-77308289D01*
X153095763Y-77339564D01*
X153098948Y-77342638D01*
X153176650Y-77420340D01*
X153323484Y-77510908D01*
X153487247Y-77565174D01*
X153588323Y-77575500D01*
X154286676Y-77575499D01*
X154286684Y-77575498D01*
X154286687Y-77575498D01*
X154353108Y-77568713D01*
X154387753Y-77565174D01*
X154551516Y-77510908D01*
X154698350Y-77420340D01*
X154712319Y-77406371D01*
X154773642Y-77372886D01*
X154843334Y-77377870D01*
X154887681Y-77406371D01*
X154901650Y-77420340D01*
X155048484Y-77510908D01*
X155212247Y-77565174D01*
X155313323Y-77575500D01*
X155863402Y-77575499D01*
X155930441Y-77595183D01*
X155976196Y-77647987D01*
X155986140Y-77717146D01*
X155957115Y-77780702D01*
X155951083Y-77787180D01*
X153975084Y-79763181D01*
X153913761Y-79796666D01*
X153887403Y-79799500D01*
X153379766Y-79799500D01*
X153312727Y-79779815D01*
X153310875Y-79778602D01*
X153179185Y-79690609D01*
X153179172Y-79690602D01*
X153033501Y-79630264D01*
X153033489Y-79630261D01*
X152878845Y-79599500D01*
X152878842Y-79599500D01*
X152721158Y-79599500D01*
X152721155Y-79599500D01*
X152566510Y-79630261D01*
X152566498Y-79630264D01*
X152420827Y-79690602D01*
X152420814Y-79690609D01*
X152289711Y-79778210D01*
X152289707Y-79778213D01*
X152178213Y-79889707D01*
X152178210Y-79889711D01*
X152090609Y-80020814D01*
X152090602Y-80020827D01*
X152030264Y-80166498D01*
X152030261Y-80166510D01*
X151999500Y-80321153D01*
X151999500Y-80478846D01*
X152030261Y-80633489D01*
X152030264Y-80633501D01*
X152090602Y-80779172D01*
X152090609Y-80779185D01*
X152178210Y-80910288D01*
X152178213Y-80910292D01*
X152289707Y-81021786D01*
X152289711Y-81021789D01*
X152420814Y-81109390D01*
X152420827Y-81109397D01*
X152566498Y-81169735D01*
X152566503Y-81169737D01*
X152721153Y-81200499D01*
X152721156Y-81200500D01*
X152721158Y-81200500D01*
X152878844Y-81200500D01*
X152878845Y-81200499D01*
X153033497Y-81169737D01*
X153171072Y-81112752D01*
X153179172Y-81109397D01*
X153179172Y-81109396D01*
X153179179Y-81109394D01*
X153179185Y-81109390D01*
X153310875Y-81021398D01*
X153377553Y-81000520D01*
X153379766Y-81000500D01*
X154100831Y-81000500D01*
X154100847Y-81000501D01*
X154108443Y-81000501D01*
X154266554Y-81000501D01*
X154266557Y-81000501D01*
X154419285Y-80959577D01*
X154469404Y-80930639D01*
X154556216Y-80880520D01*
X154668020Y-80768716D01*
X154668020Y-80768714D01*
X154678228Y-80758507D01*
X154678229Y-80758504D01*
X159199917Y-76236819D01*
X159261240Y-76203334D01*
X159287598Y-76200500D01*
X159675500Y-76200500D01*
X159742539Y-76220185D01*
X159788294Y-76272989D01*
X159799500Y-76324500D01*
X159799500Y-77662713D01*
X159799501Y-77662729D01*
X159801819Y-77680336D01*
X159791054Y-77749371D01*
X159766561Y-77784202D01*
X157785339Y-79765425D01*
X157724016Y-79798910D01*
X157721850Y-79799361D01*
X157566508Y-79830261D01*
X157566498Y-79830264D01*
X157420827Y-79890602D01*
X157420814Y-79890609D01*
X157289711Y-79978210D01*
X157289707Y-79978213D01*
X157178213Y-80089707D01*
X157178210Y-80089711D01*
X157090609Y-80220814D01*
X157090602Y-80220827D01*
X157030264Y-80366498D01*
X157030261Y-80366510D01*
X156999500Y-80521153D01*
X156999500Y-80678846D01*
X157030261Y-80833489D01*
X157030264Y-80833501D01*
X157090602Y-80979172D01*
X157090609Y-80979185D01*
X157178210Y-81110288D01*
X157178213Y-81110292D01*
X157289707Y-81221786D01*
X157289711Y-81221789D01*
X157420814Y-81309390D01*
X157420827Y-81309397D01*
X157566498Y-81369735D01*
X157566503Y-81369737D01*
X157716131Y-81399500D01*
X157721153Y-81400499D01*
X157721156Y-81400500D01*
X157721158Y-81400500D01*
X157878844Y-81400500D01*
X157878845Y-81400499D01*
X158033497Y-81369737D01*
X158179179Y-81309394D01*
X158310289Y-81221789D01*
X158421789Y-81110289D01*
X158509394Y-80979179D01*
X158569737Y-80833497D01*
X158591289Y-80725150D01*
X158600638Y-80678150D01*
X158633023Y-80616239D01*
X158634519Y-80614715D01*
X160808506Y-78440727D01*
X160808511Y-78440724D01*
X160818714Y-78430520D01*
X160818716Y-78430520D01*
X160930520Y-78318716D01*
X160963117Y-78262254D01*
X160965950Y-78259553D01*
X160967106Y-78255807D01*
X160991031Y-78235637D01*
X161013680Y-78214041D01*
X161018396Y-78212568D01*
X161020526Y-78210773D01*
X161037282Y-78206671D01*
X161054522Y-78201289D01*
X161060593Y-78200500D01*
X161062720Y-78200500D01*
X161175236Y-78185687D01*
X161175540Y-78185560D01*
X161184019Y-78184459D01*
X161204508Y-78187689D01*
X161216302Y-78187689D01*
X161216705Y-78184626D01*
X161224763Y-78185686D01*
X161224764Y-78185687D01*
X161337280Y-78200500D01*
X161337287Y-78200500D01*
X161562713Y-78200500D01*
X161562720Y-78200500D01*
X161675236Y-78185687D01*
X161675236Y-78185686D01*
X161683295Y-78184626D01*
X161683698Y-78187689D01*
X161716302Y-78187689D01*
X161716705Y-78184626D01*
X161724763Y-78185686D01*
X161724764Y-78185687D01*
X161837280Y-78200500D01*
X161837287Y-78200500D01*
X162062713Y-78200500D01*
X162062720Y-78200500D01*
X162145921Y-78189546D01*
X162214955Y-78200311D01*
X162267211Y-78246691D01*
X162286097Y-78313960D01*
X162279812Y-78351489D01*
X162234826Y-78487247D01*
X162234825Y-78487248D01*
X162224500Y-78588315D01*
X162224500Y-79186669D01*
X162224501Y-79186687D01*
X162234825Y-79287752D01*
X162255887Y-79351311D01*
X162289092Y-79451516D01*
X162366808Y-79577514D01*
X162379661Y-79598351D01*
X162493629Y-79712319D01*
X162527114Y-79773642D01*
X162522130Y-79843334D01*
X162493629Y-79887681D01*
X162379661Y-80001648D01*
X162289093Y-80148481D01*
X162289091Y-80148486D01*
X162264820Y-80221732D01*
X162234826Y-80312247D01*
X162234826Y-80312248D01*
X162234825Y-80312248D01*
X162224500Y-80413315D01*
X162224500Y-81011669D01*
X162224501Y-81011687D01*
X162234825Y-81112752D01*
X162253709Y-81169738D01*
X162289092Y-81276516D01*
X162379660Y-81423350D01*
X162501650Y-81545340D01*
X162648484Y-81635908D01*
X162812247Y-81690174D01*
X162913323Y-81700500D01*
X163486676Y-81700499D01*
X163486684Y-81700498D01*
X163486687Y-81700498D01*
X163542030Y-81694844D01*
X163587753Y-81690174D01*
X163751516Y-81635908D01*
X163898350Y-81545340D01*
X164020340Y-81423350D01*
X164110908Y-81276516D01*
X164165174Y-81112753D01*
X164175500Y-81011677D01*
X164175499Y-80893304D01*
X164195183Y-80826266D01*
X164247987Y-80780511D01*
X164317145Y-80770567D01*
X164323691Y-80771688D01*
X164409390Y-80788735D01*
X164409393Y-80788735D01*
X164567079Y-80788735D01*
X164567080Y-80788734D01*
X164721732Y-80757972D01*
X164867414Y-80697629D01*
X164998524Y-80610024D01*
X165110024Y-80498524D01*
X165197629Y-80367414D01*
X165198004Y-80366510D01*
X165257970Y-80221736D01*
X165257972Y-80221732D01*
X165288735Y-80067077D01*
X165288735Y-79909393D01*
X165280813Y-79869567D01*
X165287039Y-79799978D01*
X165329902Y-79744800D01*
X165363419Y-79727673D01*
X165414016Y-79710908D01*
X165560850Y-79620340D01*
X165575171Y-79606018D01*
X165636489Y-79572533D01*
X165706181Y-79577514D01*
X165750534Y-79606017D01*
X165764461Y-79619944D01*
X165764465Y-79619947D01*
X165911188Y-79710448D01*
X165911199Y-79710453D01*
X166074847Y-79764680D01*
X166175851Y-79774999D01*
X166775000Y-79774999D01*
X166874140Y-79774999D01*
X166874154Y-79774998D01*
X166975152Y-79764680D01*
X167138800Y-79710453D01*
X167138811Y-79710448D01*
X167285534Y-79619947D01*
X167285538Y-79619944D01*
X167407444Y-79498038D01*
X167407447Y-79498034D01*
X167497948Y-79351311D01*
X167497953Y-79351300D01*
X167552180Y-79187652D01*
X167562499Y-79086654D01*
X167562500Y-79086641D01*
X167562500Y-79050000D01*
X166775000Y-79050000D01*
X166775000Y-79774999D01*
X166175851Y-79774999D01*
X166275000Y-79774998D01*
X166275000Y-78924000D01*
X166294685Y-78856961D01*
X166347489Y-78811206D01*
X166399000Y-78800000D01*
X166525000Y-78800000D01*
X166525000Y-78674000D01*
X166544685Y-78606961D01*
X166597489Y-78561206D01*
X166649000Y-78550000D01*
X167562499Y-78550000D01*
X167562499Y-78513360D01*
X167562498Y-78513345D01*
X167552180Y-78412347D01*
X167497953Y-78248699D01*
X167497948Y-78248688D01*
X167407447Y-78101965D01*
X167407444Y-78101961D01*
X167285538Y-77980055D01*
X167285534Y-77980052D01*
X167138811Y-77889551D01*
X167138800Y-77889546D01*
X166975152Y-77835319D01*
X166874154Y-77825000D01*
X166720026Y-77825000D01*
X166652987Y-77805315D01*
X166607232Y-77752511D01*
X166597087Y-77684813D01*
X166599999Y-77662695D01*
X166600000Y-77662683D01*
X166600000Y-77121153D01*
X168499500Y-77121153D01*
X168499500Y-77278846D01*
X168530261Y-77433489D01*
X168530264Y-77433501D01*
X168590602Y-77579172D01*
X168590609Y-77579185D01*
X168678210Y-77710288D01*
X168678213Y-77710292D01*
X168789707Y-77821786D01*
X168789711Y-77821789D01*
X168920814Y-77909390D01*
X168920827Y-77909397D01*
X169066498Y-77969735D01*
X169066503Y-77969737D01*
X169221153Y-78000499D01*
X169221156Y-78000500D01*
X169221158Y-78000500D01*
X169378844Y-78000500D01*
X169378845Y-78000499D01*
X169533497Y-77969737D01*
X169679179Y-77909394D01*
X169752827Y-77860184D01*
X169810875Y-77821398D01*
X169877553Y-77800520D01*
X169879766Y-77800500D01*
X170713331Y-77800500D01*
X170713347Y-77800501D01*
X170720943Y-77800501D01*
X170879054Y-77800501D01*
X170879057Y-77800501D01*
X171031785Y-77759577D01*
X171081904Y-77730639D01*
X171168716Y-77680520D01*
X171280520Y-77568716D01*
X171280520Y-77568714D01*
X171290728Y-77558507D01*
X171290730Y-77558504D01*
X171837416Y-77011818D01*
X171898739Y-76978333D01*
X171925097Y-76975499D01*
X172349170Y-76975499D01*
X172349176Y-76975499D01*
X172450253Y-76965174D01*
X172614016Y-76910908D01*
X172760850Y-76820340D01*
X172882840Y-76698350D01*
X172973408Y-76551516D01*
X173027674Y-76387753D01*
X173038000Y-76286677D01*
X173037999Y-76079596D01*
X173057683Y-76012557D01*
X173074313Y-75991920D01*
X173919506Y-75146728D01*
X173919511Y-75146724D01*
X173929714Y-75136520D01*
X173929716Y-75136520D01*
X174041520Y-75024716D01*
X174101433Y-74920943D01*
X174120577Y-74887785D01*
X174161501Y-74735057D01*
X174161501Y-74576943D01*
X174161501Y-74569348D01*
X174161500Y-74569330D01*
X174161500Y-73330100D01*
X174166975Y-73311453D01*
X174167490Y-73292026D01*
X174176616Y-73278619D01*
X174181185Y-73263061D01*
X174195870Y-73250335D01*
X174206808Y-73234269D01*
X174221734Y-73227924D01*
X174233989Y-73217306D01*
X174253224Y-73214540D01*
X174271110Y-73206938D01*
X174287095Y-73209670D01*
X174303147Y-73207362D01*
X174320824Y-73215434D01*
X174339981Y-73218709D01*
X174361243Y-73233893D01*
X174366703Y-73236387D01*
X174369156Y-73238570D01*
X174371202Y-73240440D01*
X174441283Y-73310521D01*
X174459190Y-73320859D01*
X174469155Y-73329967D01*
X174480546Y-73348768D01*
X174495714Y-73364676D01*
X174499407Y-73379899D01*
X174505360Y-73389725D01*
X174505008Y-73402987D01*
X174509499Y-73421497D01*
X174509499Y-73752868D01*
X174509500Y-73752878D01*
X174513678Y-73791745D01*
X174513678Y-73818250D01*
X174509499Y-73857123D01*
X174509499Y-74402871D01*
X174509500Y-74402877D01*
X174515907Y-74462484D01*
X174566201Y-74597329D01*
X174566205Y-74597336D01*
X174652451Y-74712545D01*
X174652454Y-74712548D01*
X174767663Y-74798794D01*
X174767670Y-74798798D01*
X174902516Y-74849092D01*
X174902515Y-74849092D01*
X174909443Y-74849836D01*
X174962126Y-74855501D01*
X176257871Y-74855500D01*
X176317482Y-74849092D01*
X176452330Y-74798797D01*
X176567545Y-74712547D01*
X176653795Y-74597332D01*
X176704090Y-74462484D01*
X176710499Y-74402874D01*
X176710498Y-74071495D01*
X176730182Y-74004457D01*
X176749372Y-73981332D01*
X176759926Y-73971367D01*
X176778715Y-73960520D01*
X176890519Y-73848716D01*
X176890520Y-73848713D01*
X177628506Y-73110727D01*
X177628511Y-73110723D01*
X177638714Y-73100519D01*
X177638716Y-73100519D01*
X177750520Y-72988715D01*
X177819801Y-72868716D01*
X177829577Y-72851784D01*
X177870500Y-72699056D01*
X177870500Y-72540942D01*
X177870500Y-71660943D01*
X177869439Y-71656981D01*
X177829577Y-71508215D01*
X177788622Y-71437280D01*
X177785150Y-71431267D01*
X177755497Y-71379905D01*
X177750520Y-71371284D01*
X177638716Y-71259480D01*
X177638715Y-71259479D01*
X177634385Y-71255149D01*
X177634374Y-71255139D01*
X176911416Y-70532181D01*
X176877931Y-70470858D01*
X176882915Y-70401166D01*
X176924787Y-70345233D01*
X176990251Y-70320816D01*
X176999097Y-70320500D01*
X178535556Y-70320500D01*
X178535572Y-70320501D01*
X178543168Y-70320501D01*
X178701279Y-70320501D01*
X178701282Y-70320501D01*
X178854010Y-70279577D01*
X178918189Y-70242523D01*
X178990941Y-70200520D01*
X179102745Y-70088716D01*
X179102745Y-70088714D01*
X179112949Y-70078511D01*
X179112952Y-70078506D01*
X180674520Y-68516941D01*
X180753577Y-68380009D01*
X180794501Y-68227282D01*
X180794501Y-68069167D01*
X180794501Y-68061572D01*
X180794500Y-68061554D01*
X180794500Y-66800458D01*
X180794501Y-66800445D01*
X180794501Y-66632344D01*
X180794501Y-66632342D01*
X180753577Y-66479614D01*
X180715304Y-66413324D01*
X180715304Y-66413323D01*
X180674522Y-66342686D01*
X180674521Y-66342685D01*
X180674520Y-66342683D01*
X180562716Y-66230879D01*
X180562715Y-66230878D01*
X180558385Y-66226548D01*
X180558374Y-66226538D01*
X180408055Y-66076219D01*
X180374570Y-66014896D01*
X180373263Y-65969140D01*
X180393500Y-65841369D01*
X180393500Y-65658628D01*
X180368818Y-65502797D01*
X180364915Y-65478154D01*
X180308448Y-65304368D01*
X180225491Y-65141555D01*
X180118085Y-64993723D01*
X179988876Y-64864514D01*
X179841044Y-64757108D01*
X179678231Y-64674151D01*
X179504445Y-64617684D01*
X179504443Y-64617683D01*
X179504441Y-64617683D01*
X179323970Y-64589099D01*
X179323965Y-64589099D01*
X179141235Y-64589099D01*
X179141230Y-64589099D01*
X178960758Y-64617683D01*
X178786966Y-64674152D01*
X178624155Y-64757108D01*
X178476321Y-64864516D01*
X178347117Y-64993720D01*
X178239709Y-65141554D01*
X178156753Y-65304365D01*
X178100284Y-65478157D01*
X178071700Y-65658628D01*
X178071700Y-65841369D01*
X178100284Y-66021840D01*
X178100285Y-66021844D01*
X178156752Y-66195630D01*
X178239709Y-66358443D01*
X178347115Y-66506275D01*
X178476324Y-66635484D01*
X178495865Y-66649681D01*
X178538531Y-66705010D01*
X178544511Y-66774623D01*
X178511905Y-66836418D01*
X178495867Y-66850316D01*
X178476324Y-66864514D01*
X178347117Y-66993721D01*
X178320327Y-67030595D01*
X178283913Y-67080715D01*
X178271074Y-67098386D01*
X178215744Y-67141051D01*
X178170756Y-67149500D01*
X174746670Y-67149500D01*
X174746654Y-67149499D01*
X174739058Y-67149499D01*
X174580943Y-67149499D01*
X174504579Y-67169961D01*
X174428214Y-67190423D01*
X174428209Y-67190426D01*
X174291290Y-67269475D01*
X174291282Y-67269481D01*
X173179481Y-68381282D01*
X173179475Y-68381290D01*
X173137247Y-68454433D01*
X173137247Y-68454435D01*
X173100423Y-68518214D01*
X173100423Y-68518215D01*
X173059499Y-68670943D01*
X173059499Y-68670945D01*
X173059499Y-68762389D01*
X173039814Y-68829428D01*
X173000596Y-68867927D01*
X172949153Y-68899657D01*
X172949149Y-68899660D01*
X172827161Y-69021648D01*
X172736593Y-69168481D01*
X172736591Y-69168486D01*
X172709219Y-69251088D01*
X172682326Y-69332247D01*
X172682326Y-69332248D01*
X172682325Y-69332248D01*
X172672000Y-69433315D01*
X172672000Y-70006669D01*
X172672001Y-70006687D01*
X172682325Y-70107752D01*
X172736592Y-70271515D01*
X172736593Y-70271518D01*
X172769436Y-70324764D01*
X172827160Y-70418350D01*
X172949150Y-70540340D01*
X173000597Y-70572072D01*
X173047321Y-70624017D01*
X173059500Y-70677610D01*
X173059500Y-71330500D01*
X173039815Y-71397539D01*
X172987011Y-71443294D01*
X172935500Y-71454500D01*
X172098177Y-71454500D01*
X172031138Y-71434815D01*
X171995075Y-71399391D01*
X171921789Y-71289710D01*
X171810292Y-71178213D01*
X171810288Y-71178210D01*
X171679185Y-71090609D01*
X171679172Y-71090602D01*
X171533501Y-71030264D01*
X171533489Y-71030261D01*
X171378845Y-70999500D01*
X171378842Y-70999500D01*
X171221158Y-70999500D01*
X171221155Y-70999500D01*
X171066510Y-71030261D01*
X171066498Y-71030264D01*
X170920827Y-71090602D01*
X170920814Y-71090609D01*
X170789711Y-71178210D01*
X170789707Y-71178213D01*
X170678213Y-71289707D01*
X170678210Y-71289711D01*
X170590609Y-71420814D01*
X170590602Y-71420827D01*
X170530264Y-71566498D01*
X170530261Y-71566510D01*
X170499500Y-71721153D01*
X170499500Y-71878846D01*
X170530261Y-72033489D01*
X170530264Y-72033501D01*
X170590602Y-72179172D01*
X170590609Y-72179185D01*
X170678210Y-72310288D01*
X170678213Y-72310292D01*
X170789707Y-72421786D01*
X170789711Y-72421789D01*
X170920814Y-72509390D01*
X170920827Y-72509397D01*
X171057102Y-72565843D01*
X171066503Y-72569737D01*
X171221158Y-72600500D01*
X171221847Y-72600637D01*
X171269523Y-72621204D01*
X171277989Y-72627225D01*
X171311284Y-72660520D01*
X171378031Y-72699056D01*
X171448215Y-72739577D01*
X171467594Y-72744769D01*
X171527251Y-72781130D01*
X171557782Y-72843976D01*
X171559500Y-72864542D01*
X171559500Y-73102869D01*
X171559501Y-73102881D01*
X171562289Y-73128818D01*
X171562290Y-73128821D01*
X171565909Y-73162484D01*
X171616204Y-73297332D01*
X171632526Y-73319136D01*
X171632528Y-73319140D01*
X171697320Y-73405690D01*
X171721738Y-73471154D01*
X171706887Y-73539427D01*
X171697321Y-73554312D01*
X171621714Y-73655310D01*
X171573885Y-73691113D01*
X171549763Y-73715235D01*
X171540315Y-73747413D01*
X171487511Y-73793168D01*
X171418353Y-73803112D01*
X171385107Y-73792215D01*
X171384808Y-73792937D01*
X171233501Y-73730264D01*
X171233489Y-73730261D01*
X171078845Y-73699500D01*
X171078842Y-73699500D01*
X170921158Y-73699500D01*
X170921155Y-73699500D01*
X170766510Y-73730261D01*
X170766498Y-73730264D01*
X170620827Y-73790602D01*
X170620814Y-73790609D01*
X170489711Y-73878210D01*
X170489707Y-73878213D01*
X170378213Y-73989707D01*
X170378210Y-73989711D01*
X170290609Y-74120814D01*
X170290602Y-74120827D01*
X170230264Y-74266498D01*
X170230261Y-74266510D01*
X170199500Y-74421153D01*
X170199500Y-74578846D01*
X170230261Y-74733489D01*
X170230264Y-74733501D01*
X170290602Y-74879172D01*
X170290609Y-74879185D01*
X170378210Y-75010288D01*
X170378213Y-75010292D01*
X170488681Y-75120760D01*
X170522166Y-75182083D01*
X170525000Y-75208441D01*
X170525000Y-75876000D01*
X170505315Y-75943039D01*
X170452511Y-75988794D01*
X170401000Y-76000000D01*
X170275000Y-76000000D01*
X170275000Y-76126000D01*
X170255315Y-76193039D01*
X170202511Y-76238794D01*
X170151000Y-76250000D01*
X169237501Y-76250000D01*
X169237501Y-76286638D01*
X169237577Y-76288131D01*
X169237501Y-76288448D01*
X169237501Y-76289802D01*
X169237177Y-76289802D01*
X169221327Y-76356085D01*
X169170918Y-76404466D01*
X169137930Y-76416054D01*
X169066507Y-76430261D01*
X169066498Y-76430264D01*
X168920827Y-76490602D01*
X168920814Y-76490609D01*
X168789711Y-76578210D01*
X168789707Y-76578213D01*
X168678213Y-76689707D01*
X168678210Y-76689711D01*
X168590609Y-76820814D01*
X168590602Y-76820827D01*
X168530264Y-76966498D01*
X168530261Y-76966510D01*
X168499500Y-77121153D01*
X166600000Y-77121153D01*
X166600000Y-76324500D01*
X166619685Y-76257461D01*
X166672489Y-76211706D01*
X166724000Y-76200500D01*
X168062713Y-76200500D01*
X168062720Y-76200500D01*
X168175236Y-76185687D01*
X168315233Y-76127698D01*
X168435451Y-76035451D01*
X168527698Y-75915233D01*
X168585687Y-75775236D01*
X168593835Y-75713345D01*
X169237500Y-75713345D01*
X169237500Y-75750000D01*
X170025000Y-75750000D01*
X170025000Y-75024999D01*
X169925860Y-75025000D01*
X169925844Y-75025001D01*
X169824847Y-75035319D01*
X169661199Y-75089546D01*
X169661188Y-75089551D01*
X169514465Y-75180052D01*
X169514461Y-75180055D01*
X169392555Y-75301961D01*
X169392552Y-75301965D01*
X169302051Y-75448688D01*
X169302046Y-75448699D01*
X169247819Y-75612347D01*
X169237500Y-75713345D01*
X168593835Y-75713345D01*
X168600500Y-75662720D01*
X168600500Y-75437280D01*
X168585687Y-75324764D01*
X168585686Y-75324763D01*
X168584626Y-75316705D01*
X168587689Y-75316301D01*
X168587689Y-75283698D01*
X168584626Y-75283295D01*
X168587590Y-75260778D01*
X168600500Y-75162720D01*
X168600500Y-74937280D01*
X168585687Y-74824764D01*
X168585686Y-74824763D01*
X168584626Y-74816705D01*
X168587689Y-74816301D01*
X168587689Y-74783698D01*
X168584626Y-74783295D01*
X168590821Y-74736236D01*
X168600500Y-74662720D01*
X168600500Y-74437280D01*
X168585687Y-74324764D01*
X168585686Y-74324763D01*
X168584626Y-74316705D01*
X168587689Y-74316301D01*
X168587689Y-74283698D01*
X168584626Y-74283295D01*
X168587311Y-74262897D01*
X168600500Y-74162720D01*
X168600500Y-73937280D01*
X168585687Y-73824764D01*
X168585686Y-73824763D01*
X168584626Y-73816705D01*
X168587689Y-73816301D01*
X168587689Y-73783698D01*
X168584626Y-73783295D01*
X168589350Y-73747413D01*
X168600500Y-73662720D01*
X168600500Y-73437280D01*
X168585687Y-73324764D01*
X168585686Y-73324761D01*
X168584889Y-73318707D01*
X168584822Y-73318562D01*
X168584836Y-73318304D01*
X168584626Y-73316705D01*
X168584929Y-73316665D01*
X168585756Y-73302003D01*
X168584559Y-73283269D01*
X168585636Y-73275358D01*
X168585687Y-73275236D01*
X168586679Y-73267700D01*
X168586711Y-73267466D01*
X168600873Y-73235831D01*
X168614904Y-73204115D01*
X168615143Y-73203956D01*
X168615261Y-73203695D01*
X168644266Y-73184747D01*
X168673229Y-73165644D01*
X168673516Y-73165640D01*
X168673756Y-73165484D01*
X168708285Y-73165226D01*
X168743093Y-73164812D01*
X168743424Y-73164964D01*
X168743624Y-73164963D01*
X168744167Y-73165306D01*
X168778468Y-73181095D01*
X168820814Y-73209390D01*
X168820827Y-73209397D01*
X168961020Y-73267466D01*
X168966503Y-73269737D01*
X169118644Y-73300000D01*
X169121153Y-73300499D01*
X169121156Y-73300500D01*
X169121158Y-73300500D01*
X169278844Y-73300500D01*
X169278845Y-73300499D01*
X169433497Y-73269737D01*
X169549457Y-73221705D01*
X169579172Y-73209397D01*
X169579172Y-73209396D01*
X169579179Y-73209394D01*
X169710289Y-73121789D01*
X169821789Y-73010289D01*
X169909394Y-72879179D01*
X169911734Y-72873531D01*
X169935271Y-72816705D01*
X169969737Y-72733497D01*
X170000500Y-72578842D01*
X170000500Y-72421158D01*
X170000500Y-72421155D01*
X170000499Y-72421153D01*
X169981326Y-72324764D01*
X169969737Y-72266503D01*
X169945046Y-72206895D01*
X169937578Y-72137428D01*
X169968853Y-72074948D01*
X169971928Y-72071762D01*
X170020337Y-72023353D01*
X170020337Y-72023352D01*
X170020340Y-72023350D01*
X170110908Y-71876516D01*
X170165174Y-71712753D01*
X170175500Y-71611677D01*
X170175499Y-70913324D01*
X170173780Y-70896500D01*
X170165174Y-70812247D01*
X170155580Y-70783295D01*
X170110908Y-70648484D01*
X170020340Y-70501650D01*
X170006017Y-70487327D01*
X169972532Y-70426004D01*
X169977516Y-70356312D01*
X170006021Y-70311960D01*
X170019947Y-70298035D01*
X170110448Y-70151311D01*
X170110453Y-70151300D01*
X170164680Y-69987652D01*
X170174999Y-69886654D01*
X170175000Y-69886641D01*
X170175000Y-69787500D01*
X169324000Y-69787500D01*
X169256961Y-69767815D01*
X169211206Y-69715011D01*
X169200000Y-69663500D01*
X169200000Y-69537500D01*
X169074000Y-69537500D01*
X169006961Y-69517815D01*
X168961206Y-69465011D01*
X168950000Y-69413500D01*
X168950000Y-69287500D01*
X169450000Y-69287500D01*
X170174999Y-69287500D01*
X170174999Y-69188360D01*
X170174998Y-69188345D01*
X170164680Y-69087347D01*
X170110453Y-68923699D01*
X170110448Y-68923688D01*
X170019947Y-68776965D01*
X170019944Y-68776961D01*
X169898038Y-68655055D01*
X169898034Y-68655052D01*
X169751311Y-68564551D01*
X169751300Y-68564546D01*
X169587652Y-68510319D01*
X169486654Y-68500000D01*
X169450000Y-68500000D01*
X169450000Y-69287500D01*
X168950000Y-69287500D01*
X168950000Y-68500000D01*
X168913361Y-68500000D01*
X168913343Y-68500001D01*
X168812343Y-68510319D01*
X168812342Y-68510319D01*
X168812058Y-68510414D01*
X168811872Y-68510420D01*
X168805726Y-68511736D01*
X168805491Y-68510639D01*
X168742229Y-68512808D01*
X168682191Y-68477070D01*
X168651006Y-68414546D01*
X168658574Y-68345088D01*
X168685383Y-68305026D01*
X169358506Y-67631903D01*
X169358511Y-67631900D01*
X169368714Y-67621696D01*
X169368716Y-67621696D01*
X169480520Y-67509892D01*
X169559577Y-67372960D01*
X169596657Y-67234577D01*
X169600500Y-67220234D01*
X169600500Y-67062119D01*
X169600500Y-62300098D01*
X169620185Y-62233059D01*
X169636819Y-62212417D01*
X170466080Y-61383156D01*
X171295984Y-60553251D01*
X171357305Y-60519768D01*
X171403057Y-60518461D01*
X171510635Y-60535500D01*
X171510637Y-60535500D01*
X171689366Y-60535500D01*
X171689367Y-60535500D01*
X171865898Y-60507540D01*
X171865901Y-60507539D01*
X171865902Y-60507539D01*
X172035879Y-60452310D01*
X172035879Y-60452309D01*
X172035882Y-60452309D01*
X172195133Y-60371167D01*
X172339729Y-60266111D01*
X172466112Y-60139728D01*
X172528428Y-60053957D01*
X172531898Y-60049953D01*
X172556997Y-60033820D01*
X172580626Y-60015600D01*
X172586751Y-60014696D01*
X172590675Y-60012175D01*
X172603861Y-60012174D01*
X172635345Y-60007533D01*
X172638652Y-60007793D01*
X173219000Y-59427445D01*
X173219000Y-59450160D01*
X173244964Y-59547061D01*
X173295124Y-59633940D01*
X173366060Y-59704876D01*
X173452939Y-59755036D01*
X173549840Y-59781000D01*
X173572554Y-59781000D01*
X172992205Y-60361347D01*
X172992205Y-60361348D01*
X173005129Y-60370738D01*
X173164306Y-60451844D01*
X173334219Y-60507053D01*
X173510669Y-60535000D01*
X173689331Y-60535000D01*
X173865780Y-60507053D01*
X174035693Y-60451844D01*
X174194867Y-60370739D01*
X174194872Y-60370737D01*
X174207794Y-60361347D01*
X173627447Y-59781000D01*
X173650160Y-59781000D01*
X173747061Y-59755036D01*
X173833940Y-59704876D01*
X173904876Y-59633940D01*
X173955036Y-59547061D01*
X173981000Y-59450160D01*
X173981000Y-59427446D01*
X174561348Y-60007794D01*
X174570737Y-59994872D01*
X174570739Y-59994867D01*
X174651844Y-59835693D01*
X174707053Y-59665780D01*
X174735000Y-59489331D01*
X174735000Y-59310668D01*
X174707053Y-59134219D01*
X174651844Y-58964306D01*
X174570738Y-58805129D01*
X174561347Y-58792205D01*
X173981000Y-59372552D01*
X173981000Y-59349840D01*
X173955036Y-59252939D01*
X173904876Y-59166060D01*
X173833940Y-59095124D01*
X173747061Y-59044964D01*
X173650160Y-59019000D01*
X173627447Y-59019000D01*
X174207794Y-58438652D01*
X174207793Y-58438651D01*
X174194869Y-58429260D01*
X174035693Y-58348155D01*
X173865780Y-58292946D01*
X173689331Y-58265000D01*
X173510669Y-58265000D01*
X173334219Y-58292946D01*
X173164306Y-58348155D01*
X173005127Y-58429262D01*
X172992205Y-58438651D01*
X172992204Y-58438651D01*
X173572554Y-59019000D01*
X173549840Y-59019000D01*
X173452939Y-59044964D01*
X173366060Y-59095124D01*
X173295124Y-59166060D01*
X173244964Y-59252939D01*
X173219000Y-59349840D01*
X173219000Y-59372553D01*
X172638651Y-58792204D01*
X172635345Y-58792465D01*
X172630428Y-58791432D01*
X172625610Y-58792847D01*
X172596576Y-58784320D01*
X172566968Y-58778101D01*
X172562079Y-58774190D01*
X172558571Y-58773160D01*
X172546276Y-58761547D01*
X172531899Y-58750046D01*
X172528419Y-58746029D01*
X172466112Y-58660272D01*
X172339729Y-58533889D01*
X172195133Y-58428833D01*
X172035882Y-58347691D01*
X172035879Y-58347689D01*
X171865900Y-58292460D01*
X171748210Y-58273820D01*
X171689367Y-58264500D01*
X171510635Y-58264500D01*
X171451791Y-58273820D01*
X171334102Y-58292460D01*
X171334099Y-58292460D01*
X171164122Y-58347689D01*
X171164119Y-58347691D01*
X171004868Y-58428833D01*
X170860271Y-58533890D01*
X170733889Y-58660272D01*
X170700317Y-58706480D01*
X170644986Y-58749145D01*
X170575373Y-58755123D01*
X170513578Y-58722516D01*
X170499683Y-58706480D01*
X170466111Y-58660272D01*
X170339728Y-58533889D01*
X170195132Y-58428833D01*
X170035881Y-58347691D01*
X170035878Y-58347689D01*
X169865899Y-58292460D01*
X169748209Y-58273820D01*
X169689366Y-58264500D01*
X169510634Y-58264500D01*
X169451790Y-58273820D01*
X169334101Y-58292460D01*
X169334098Y-58292460D01*
X169164121Y-58347689D01*
X169164118Y-58347691D01*
X169004867Y-58428833D01*
X168860270Y-58533890D01*
X168733891Y-58660269D01*
X168733884Y-58660278D01*
X168700318Y-58706477D01*
X168644988Y-58749143D01*
X168575375Y-58755121D01*
X168513580Y-58722514D01*
X168499684Y-58706477D01*
X168466117Y-58660278D01*
X168466113Y-58660272D01*
X168339730Y-58533889D01*
X168195134Y-58428833D01*
X168035883Y-58347691D01*
X168035880Y-58347689D01*
X167865901Y-58292460D01*
X167748211Y-58273820D01*
X167689368Y-58264500D01*
X167510636Y-58264500D01*
X167451792Y-58273820D01*
X167334103Y-58292460D01*
X167334100Y-58292460D01*
X167164123Y-58347689D01*
X167164120Y-58347691D01*
X167004869Y-58428833D01*
X166860272Y-58533890D01*
X166733892Y-58660270D01*
X166628835Y-58804867D01*
X166547693Y-58964118D01*
X166547691Y-58964121D01*
X166492462Y-59134098D01*
X166492462Y-59134101D01*
X166464502Y-59310634D01*
X166464502Y-59489365D01*
X166492462Y-59665898D01*
X166492462Y-59665901D01*
X166547691Y-59835878D01*
X166547693Y-59835881D01*
X166628835Y-59995132D01*
X166733891Y-60139728D01*
X166860274Y-60266111D01*
X167004870Y-60371167D01*
X167164121Y-60452309D01*
X167164123Y-60452310D01*
X167334100Y-60507539D01*
X167334105Y-60507540D01*
X167360590Y-60511735D01*
X167423725Y-60541664D01*
X167460657Y-60600975D01*
X167459659Y-60670838D01*
X167428874Y-60721889D01*
X165581286Y-62569478D01*
X165469481Y-62681282D01*
X165469479Y-62681284D01*
X165458658Y-62700028D01*
X165433724Y-62743216D01*
X165390423Y-62818215D01*
X165349499Y-62970943D01*
X165349499Y-62970945D01*
X165349499Y-63139046D01*
X165349500Y-63139059D01*
X165349500Y-67289146D01*
X165349333Y-67289713D01*
X165349495Y-67290283D01*
X165339497Y-67323209D01*
X165329815Y-67356185D01*
X165329368Y-67356572D01*
X165329196Y-67357139D01*
X165302964Y-67379451D01*
X165277011Y-67401940D01*
X165276275Y-67402152D01*
X165275975Y-67402408D01*
X165249773Y-67409802D01*
X165242021Y-67412041D01*
X165241994Y-67412044D01*
X165224764Y-67414313D01*
X165224592Y-67414383D01*
X165216521Y-67415469D01*
X165196477Y-67412399D01*
X165183684Y-67412399D01*
X165183292Y-67415374D01*
X165175237Y-67414313D01*
X165175236Y-67414313D01*
X165140972Y-67409802D01*
X165062727Y-67399500D01*
X165062720Y-67399500D01*
X164837280Y-67399500D01*
X164837272Y-67399500D01*
X164750393Y-67410938D01*
X164724764Y-67414313D01*
X164724762Y-67414313D01*
X164716708Y-67415374D01*
X164716316Y-67412399D01*
X164683684Y-67412399D01*
X164683292Y-67415374D01*
X164675237Y-67414313D01*
X164675236Y-67414313D01*
X164640972Y-67409802D01*
X164562727Y-67399500D01*
X164562720Y-67399500D01*
X164337280Y-67399500D01*
X164337274Y-67399500D01*
X164337269Y-67399501D01*
X164254078Y-67410453D01*
X164185042Y-67399687D01*
X164132787Y-67353307D01*
X164113902Y-67286038D01*
X164120185Y-67248519D01*
X164165174Y-67112753D01*
X164175500Y-67011677D01*
X164175499Y-66413324D01*
X164165174Y-66312247D01*
X164110908Y-66148484D01*
X164020340Y-66001650D01*
X163906371Y-65887681D01*
X163872886Y-65826358D01*
X163877870Y-65756666D01*
X163906371Y-65712319D01*
X163961207Y-65657483D01*
X164020340Y-65598350D01*
X164110908Y-65451516D01*
X164165174Y-65287753D01*
X164175500Y-65186677D01*
X164175499Y-64588324D01*
X164171298Y-64547203D01*
X164165174Y-64487247D01*
X164158320Y-64466562D01*
X164110908Y-64323484D01*
X164020340Y-64176650D01*
X163898350Y-64054660D01*
X163751516Y-63964092D01*
X163587753Y-63909826D01*
X163587750Y-63909825D01*
X163587057Y-63909677D01*
X163586670Y-63909467D01*
X163581327Y-63907697D01*
X163581642Y-63906743D01*
X163571207Y-63901089D01*
X163553596Y-63897258D01*
X163525971Y-63876578D01*
X163525626Y-63876391D01*
X163434574Y-63785339D01*
X163401089Y-63724016D01*
X163400638Y-63721849D01*
X163373964Y-63587753D01*
X163369737Y-63566503D01*
X163369735Y-63566498D01*
X163309397Y-63420827D01*
X163309390Y-63420814D01*
X163221789Y-63289711D01*
X163221786Y-63289707D01*
X163110292Y-63178213D01*
X163110288Y-63178210D01*
X162979185Y-63090609D01*
X162979172Y-63090602D01*
X162833501Y-63030264D01*
X162833489Y-63030261D01*
X162678845Y-62999500D01*
X162678842Y-62999500D01*
X162521158Y-62999500D01*
X162473189Y-63009041D01*
X162403597Y-63002812D01*
X162348420Y-62959948D01*
X162325177Y-62894058D01*
X162324999Y-62887423D01*
X162324999Y-62700028D01*
X162324998Y-62700013D01*
X162314505Y-62597302D01*
X162259358Y-62430880D01*
X162259356Y-62430875D01*
X162167315Y-62281654D01*
X162043345Y-62157684D01*
X161894124Y-62065643D01*
X161894119Y-62065641D01*
X161727697Y-62010494D01*
X161727690Y-62010493D01*
X161624986Y-62000000D01*
X161500000Y-62000000D01*
X161500000Y-64399999D01*
X161624972Y-64399999D01*
X161624986Y-64399998D01*
X161727697Y-64389505D01*
X161900977Y-64332086D01*
X161901855Y-64334737D01*
X161905361Y-64334204D01*
X161920039Y-64326926D01*
X161939191Y-64329058D01*
X161958242Y-64326160D01*
X161973858Y-64332917D01*
X161989480Y-64334656D01*
X162010551Y-64348793D01*
X162019766Y-64352780D01*
X162024746Y-64356824D01*
X162089711Y-64421789D01*
X162174557Y-64478481D01*
X162179039Y-64482121D01*
X162195715Y-64506332D01*
X162214566Y-64528889D01*
X162215536Y-64535111D01*
X162218671Y-64539662D01*
X162219295Y-64559212D01*
X162223333Y-64585099D01*
X162224661Y-64585167D01*
X162224500Y-64588329D01*
X162224500Y-65137401D01*
X162204815Y-65204440D01*
X162188181Y-65225082D01*
X161625082Y-65788181D01*
X161563759Y-65821666D01*
X161537401Y-65824500D01*
X161113330Y-65824500D01*
X161113312Y-65824501D01*
X161012247Y-65834825D01*
X160848484Y-65889092D01*
X160848481Y-65889093D01*
X160701648Y-65979661D01*
X160687325Y-65993984D01*
X160626001Y-66027468D01*
X160556309Y-66022482D01*
X160511965Y-65993982D01*
X160498038Y-65980055D01*
X160498034Y-65980052D01*
X160351311Y-65889551D01*
X160351300Y-65889546D01*
X160187652Y-65835319D01*
X160086654Y-65825000D01*
X159987500Y-65825000D01*
X159987500Y-67781000D01*
X159967815Y-67848039D01*
X159915011Y-67893794D01*
X159863500Y-67905000D01*
X159804254Y-67905000D01*
X159800000Y-67937301D01*
X159800000Y-69275500D01*
X159780315Y-69342539D01*
X159727511Y-69388294D01*
X159676000Y-69399500D01*
X158724500Y-69399500D01*
X158657461Y-69379815D01*
X158611706Y-69327011D01*
X158600500Y-69275500D01*
X158600500Y-67522577D01*
X158620185Y-67455538D01*
X158672989Y-67409783D01*
X158742147Y-67399839D01*
X158805703Y-67428864D01*
X158830039Y-67457480D01*
X158855056Y-67498039D01*
X158976961Y-67619944D01*
X158976965Y-67619947D01*
X159123688Y-67710448D01*
X159123699Y-67710453D01*
X159287347Y-67764680D01*
X159388351Y-67774999D01*
X159487500Y-67774998D01*
X159487500Y-65824999D01*
X159388360Y-65825000D01*
X159388344Y-65825001D01*
X159287347Y-65835319D01*
X159123699Y-65889546D01*
X159123688Y-65889551D01*
X158976965Y-65980052D01*
X158976961Y-65980055D01*
X158855054Y-66101962D01*
X158830038Y-66142520D01*
X158829150Y-66143318D01*
X158828815Y-66144461D01*
X158803277Y-66166589D01*
X158778090Y-66189244D01*
X158776911Y-66189435D01*
X158776011Y-66190216D01*
X158742522Y-66195031D01*
X158709127Y-66200465D01*
X158708034Y-66199990D01*
X158706853Y-66200160D01*
X158676053Y-66186094D01*
X158645045Y-66172621D01*
X158644382Y-66171630D01*
X158643297Y-66171135D01*
X158624993Y-66142653D01*
X158606190Y-66114552D01*
X158605957Y-66113032D01*
X158605523Y-66112357D01*
X158600500Y-66077422D01*
X158600500Y-65914059D01*
X158600501Y-65914046D01*
X158600501Y-65745945D01*
X158600501Y-65745943D01*
X158559577Y-65593215D01*
X158507374Y-65502797D01*
X158480520Y-65456284D01*
X158431382Y-65407146D01*
X158426668Y-65401093D01*
X158416541Y-65375448D01*
X158403333Y-65351259D01*
X158401964Y-65338534D01*
X158401006Y-65336106D01*
X158401457Y-65333819D01*
X158400499Y-65324901D01*
X158400499Y-64649998D01*
X158400498Y-64649981D01*
X158389999Y-64547203D01*
X158377470Y-64509394D01*
X158366142Y-64475210D01*
X158363741Y-64405383D01*
X158399472Y-64345341D01*
X158461993Y-64314148D01*
X158531452Y-64321708D01*
X158548939Y-64330665D01*
X158555666Y-64334814D01*
X158722203Y-64389999D01*
X158824991Y-64400500D01*
X159575008Y-64400499D01*
X159575016Y-64400498D01*
X159575019Y-64400498D01*
X159631302Y-64394748D01*
X159677797Y-64389999D01*
X159844334Y-64334814D01*
X159993656Y-64242712D01*
X160117712Y-64118656D01*
X160119752Y-64115347D01*
X160121745Y-64113555D01*
X160122193Y-64112989D01*
X160122289Y-64113065D01*
X160171694Y-64068623D01*
X160240656Y-64057395D01*
X160304740Y-64085234D01*
X160330829Y-64115339D01*
X160332681Y-64118341D01*
X160332683Y-64118344D01*
X160456654Y-64242315D01*
X160605875Y-64334356D01*
X160605880Y-64334358D01*
X160772302Y-64389505D01*
X160772309Y-64389506D01*
X160875019Y-64399999D01*
X160999999Y-64399999D01*
X161000000Y-64399998D01*
X161000000Y-62000000D01*
X160875027Y-62000000D01*
X160875012Y-62000001D01*
X160772302Y-62010494D01*
X160605880Y-62065641D01*
X160605875Y-62065643D01*
X160456654Y-62157684D01*
X160332683Y-62281655D01*
X160332679Y-62281660D01*
X160330826Y-62284665D01*
X160330398Y-62285049D01*
X160330242Y-62285602D01*
X160304455Y-62308379D01*
X160278874Y-62331385D01*
X160278307Y-62331477D01*
X160277876Y-62331858D01*
X160243860Y-62337079D01*
X160209911Y-62342601D01*
X160209383Y-62342371D01*
X160208816Y-62342459D01*
X160177366Y-62328457D01*
X160145831Y-62314752D01*
X160145336Y-62314196D01*
X160144986Y-62314041D01*
X160139432Y-62307573D01*
X160121621Y-62287589D01*
X160120670Y-62286140D01*
X160117712Y-62281344D01*
X160117162Y-62280794D01*
X160113595Y-62275358D01*
X160104963Y-62246963D01*
X160093861Y-62219446D01*
X160094913Y-62213905D01*
X160093273Y-62208509D01*
X160101360Y-62179960D01*
X160106899Y-62150804D01*
X160111354Y-62144684D01*
X160112318Y-62141285D01*
X160116556Y-62137541D01*
X160129583Y-62119650D01*
X161080551Y-61168682D01*
X161141872Y-61135199D01*
X161207229Y-61138658D01*
X161287247Y-61165174D01*
X161388323Y-61175500D01*
X161986676Y-61175499D01*
X161986684Y-61175498D01*
X161986687Y-61175498D01*
X162042030Y-61169844D01*
X162087753Y-61165174D01*
X162251516Y-61110908D01*
X162398350Y-61020340D01*
X162512319Y-60906371D01*
X162573642Y-60872886D01*
X162643334Y-60877870D01*
X162687681Y-60906371D01*
X162801650Y-61020340D01*
X162948484Y-61110908D01*
X163112247Y-61165174D01*
X163213323Y-61175500D01*
X163811676Y-61175499D01*
X163811684Y-61175498D01*
X163811687Y-61175498D01*
X163867030Y-61169844D01*
X163912753Y-61165174D01*
X164076516Y-61110908D01*
X164223350Y-61020340D01*
X164345340Y-60898350D01*
X164435908Y-60751516D01*
X164490174Y-60587753D01*
X164500500Y-60486677D01*
X164500499Y-59913324D01*
X164490174Y-59812247D01*
X164435908Y-59648484D01*
X164345340Y-59501650D01*
X164223350Y-59379660D01*
X164076516Y-59289092D01*
X163912753Y-59234826D01*
X163912751Y-59234825D01*
X163811678Y-59224500D01*
X163213330Y-59224500D01*
X163213312Y-59224501D01*
X163112247Y-59234825D01*
X162948484Y-59289092D01*
X162948481Y-59289093D01*
X162801648Y-59379661D01*
X162687681Y-59493629D01*
X162626358Y-59527114D01*
X162556666Y-59522130D01*
X162512319Y-59493629D01*
X162398351Y-59379661D01*
X162398350Y-59379660D01*
X162251516Y-59289092D01*
X162087753Y-59234826D01*
X162087751Y-59234825D01*
X161986678Y-59224500D01*
X161388330Y-59224500D01*
X161388309Y-59224502D01*
X161286600Y-59234891D01*
X161271527Y-59232089D01*
X161256353Y-59234271D01*
X161237877Y-59225833D01*
X161217907Y-59222121D01*
X161206741Y-59211614D01*
X161192797Y-59205246D01*
X161181815Y-59188157D01*
X161167024Y-59174239D01*
X161162747Y-59158488D01*
X161155023Y-59146468D01*
X161150000Y-59111533D01*
X161150000Y-58873388D01*
X161169685Y-58806349D01*
X161222489Y-58760594D01*
X161291647Y-58750650D01*
X161339098Y-58767850D01*
X161448692Y-58835450D01*
X161448699Y-58835453D01*
X161612347Y-58889680D01*
X161713352Y-58899999D01*
X161750000Y-58899999D01*
X162250000Y-58899999D01*
X162286640Y-58899999D01*
X162286654Y-58899998D01*
X162387652Y-58889680D01*
X162551300Y-58835453D01*
X162551311Y-58835448D01*
X162698034Y-58744947D01*
X162698038Y-58744944D01*
X162819944Y-58623038D01*
X162819947Y-58623034D01*
X162910448Y-58476311D01*
X162910453Y-58476300D01*
X162964680Y-58312652D01*
X162974999Y-58211654D01*
X162975000Y-58211641D01*
X162975000Y-58112500D01*
X162250000Y-58112500D01*
X162250000Y-58899999D01*
X161750000Y-58899999D01*
X161750000Y-57986500D01*
X161769685Y-57919461D01*
X161822489Y-57873706D01*
X161874000Y-57862500D01*
X162000000Y-57862500D01*
X162000000Y-57736500D01*
X162019685Y-57669461D01*
X162072489Y-57623706D01*
X162124000Y-57612500D01*
X162974999Y-57612500D01*
X162974999Y-57513360D01*
X162974998Y-57513345D01*
X162964680Y-57412347D01*
X162949661Y-57367021D01*
X162937888Y-57331491D01*
X177749500Y-57331491D01*
X177749500Y-57668508D01*
X177787231Y-58003381D01*
X177787233Y-58003397D01*
X177862223Y-58331953D01*
X177862227Y-58331965D01*
X177973532Y-58650054D01*
X178119752Y-58953683D01*
X178126311Y-58964121D01*
X178299054Y-59239039D01*
X178509175Y-59502523D01*
X178747477Y-59740825D01*
X179010961Y-59950946D01*
X179296314Y-60130246D01*
X179599949Y-60276469D01*
X179769813Y-60335907D01*
X179918034Y-60387772D01*
X179918046Y-60387776D01*
X180246606Y-60462767D01*
X180581492Y-60500499D01*
X180581493Y-60500500D01*
X180581496Y-60500500D01*
X180918507Y-60500500D01*
X180918507Y-60500499D01*
X181253394Y-60462767D01*
X181581954Y-60387776D01*
X181900051Y-60276469D01*
X182203686Y-60130246D01*
X182489039Y-59950946D01*
X182752523Y-59740825D01*
X182990825Y-59502523D01*
X183200946Y-59239039D01*
X183380246Y-58953686D01*
X183526469Y-58650051D01*
X183637776Y-58331954D01*
X183712767Y-58003394D01*
X183750500Y-57668504D01*
X183750500Y-57331496D01*
X183712767Y-56996606D01*
X183637776Y-56668046D01*
X183636392Y-56664092D01*
X183606903Y-56579815D01*
X183526469Y-56349949D01*
X183380246Y-56046314D01*
X183200946Y-55760961D01*
X182990825Y-55497477D01*
X182752523Y-55259175D01*
X182746861Y-55254660D01*
X182681175Y-55202277D01*
X182489039Y-55049054D01*
X182203686Y-54869754D01*
X182203683Y-54869752D01*
X181900054Y-54723532D01*
X181581965Y-54612227D01*
X181581953Y-54612223D01*
X181253397Y-54537233D01*
X181253381Y-54537231D01*
X180918508Y-54499500D01*
X180918504Y-54499500D01*
X180581496Y-54499500D01*
X180581491Y-54499500D01*
X180246618Y-54537231D01*
X180246602Y-54537233D01*
X179918046Y-54612223D01*
X179918034Y-54612227D01*
X179599945Y-54723532D01*
X179296316Y-54869752D01*
X179010962Y-55049053D01*
X178747477Y-55259174D01*
X178509174Y-55497477D01*
X178299053Y-55760962D01*
X178119752Y-56046316D01*
X177973532Y-56349945D01*
X177862227Y-56668034D01*
X177862223Y-56668046D01*
X177787233Y-56996602D01*
X177787231Y-56996618D01*
X177749500Y-57331491D01*
X162937888Y-57331491D01*
X162910453Y-57248699D01*
X162910448Y-57248688D01*
X162819947Y-57101965D01*
X162819944Y-57101961D01*
X162806017Y-57088034D01*
X162772532Y-57026711D01*
X162777516Y-56957019D01*
X162806017Y-56912672D01*
X162820340Y-56898350D01*
X162910908Y-56751516D01*
X162965174Y-56587753D01*
X162975500Y-56486677D01*
X162975499Y-55788324D01*
X162971469Y-55748877D01*
X162965174Y-55687247D01*
X162910908Y-55523484D01*
X162820340Y-55376650D01*
X162698350Y-55254660D01*
X162551516Y-55164092D01*
X162387753Y-55109826D01*
X162387751Y-55109825D01*
X162286678Y-55099500D01*
X161713330Y-55099500D01*
X161713312Y-55099501D01*
X161612247Y-55109825D01*
X161448484Y-55164092D01*
X161448481Y-55164093D01*
X161301648Y-55254661D01*
X161179660Y-55376649D01*
X161179657Y-55376653D01*
X161117086Y-55478097D01*
X161065138Y-55524822D01*
X161011548Y-55537000D01*
X154886338Y-55537000D01*
X154819299Y-55517315D01*
X154775250Y-55468094D01*
X154717032Y-55350707D01*
X154717030Y-55350704D01*
X154597722Y-55202278D01*
X154597721Y-55202277D01*
X154449295Y-55082969D01*
X154449292Y-55082967D01*
X154278697Y-54998360D01*
X154093892Y-54952400D01*
X154072506Y-54950950D01*
X154051123Y-54949500D01*
X154051120Y-54949500D01*
X152648877Y-54949500D01*
X152648874Y-54949501D01*
X152606113Y-54952399D01*
X152606112Y-54952399D01*
X152421303Y-54998360D01*
X152250707Y-55082967D01*
X152250704Y-55082969D01*
X152102278Y-55202277D01*
X152102277Y-55202278D01*
X151982969Y-55350704D01*
X151982967Y-55350707D01*
X151898360Y-55521302D01*
X151852400Y-55706107D01*
X151849500Y-55748879D01*
X151849500Y-56625716D01*
X151829815Y-56692755D01*
X151777011Y-56738510D01*
X151707853Y-56748454D01*
X151660403Y-56731254D01*
X151551524Y-56664096D01*
X151551518Y-56664093D01*
X151551516Y-56664092D01*
X151387753Y-56609826D01*
X151387751Y-56609825D01*
X151286678Y-56599500D01*
X150713330Y-56599500D01*
X150713307Y-56599502D01*
X150684044Y-56602491D01*
X150669142Y-56603112D01*
X150653990Y-56602830D01*
X150641557Y-56599499D01*
X150483443Y-56599499D01*
X150483439Y-56599500D01*
X150079057Y-56599500D01*
X149079057Y-56599500D01*
X149066259Y-56599500D01*
X148999220Y-56579815D01*
X148953465Y-56527011D01*
X148951698Y-56522952D01*
X148909397Y-56420827D01*
X148909390Y-56420814D01*
X148821789Y-56289711D01*
X148821786Y-56289707D01*
X148710292Y-56178213D01*
X148710288Y-56178210D01*
X148579185Y-56090609D01*
X148579172Y-56090602D01*
X148433501Y-56030264D01*
X148433489Y-56030261D01*
X148278845Y-55999500D01*
X148278842Y-55999500D01*
X148121158Y-55999500D01*
X148121155Y-55999500D01*
X147966510Y-56030261D01*
X147966498Y-56030264D01*
X147820827Y-56090602D01*
X147820814Y-56090609D01*
X147689125Y-56178602D01*
X147622447Y-56199480D01*
X147620234Y-56199500D01*
X146401357Y-56199500D01*
X146243242Y-56199500D01*
X146235521Y-56201569D01*
X146090514Y-56240423D01*
X146090509Y-56240426D01*
X145953590Y-56319475D01*
X145953582Y-56319481D01*
X145841778Y-56431286D01*
X145304984Y-56968081D01*
X145243661Y-57001566D01*
X145217303Y-57004400D01*
X145083441Y-57004400D01*
X145061587Y-57010255D01*
X145061588Y-57010256D01*
X144930714Y-57045323D01*
X144930709Y-57045326D01*
X144793790Y-57124375D01*
X144793782Y-57124381D01*
X144681978Y-57236186D01*
X143576218Y-58341945D01*
X143514895Y-58375430D01*
X143469139Y-58376737D01*
X143341370Y-58356500D01*
X143341365Y-58356500D01*
X143158635Y-58356500D01*
X143158630Y-58356500D01*
X142978158Y-58385084D01*
X142804366Y-58441553D01*
X142641555Y-58524509D01*
X142493721Y-58631917D01*
X142364514Y-58761124D01*
X142350316Y-58780667D01*
X142294985Y-58823332D01*
X142225372Y-58829310D01*
X142163577Y-58796703D01*
X142149683Y-58780667D01*
X142135484Y-58761124D01*
X142006275Y-58631915D01*
X141858443Y-58524509D01*
X141695630Y-58441552D01*
X141521844Y-58385085D01*
X141521842Y-58385084D01*
X141521840Y-58385084D01*
X141341369Y-58356500D01*
X141341364Y-58356500D01*
X141158634Y-58356500D01*
X141158629Y-58356500D01*
X140978157Y-58385084D01*
X140804365Y-58441553D01*
X140641554Y-58524509D01*
X140493720Y-58631917D01*
X140364516Y-58761121D01*
X140257108Y-58908955D01*
X140174152Y-59071766D01*
X140117683Y-59245558D01*
X140089099Y-59426029D01*
X136301827Y-59426029D01*
X136450946Y-59239039D01*
X136630246Y-58953686D01*
X136776469Y-58650051D01*
X136887776Y-58331954D01*
X136962767Y-58003394D01*
X137000500Y-57668504D01*
X137000500Y-57331496D01*
X136962767Y-56996606D01*
X136887776Y-56668046D01*
X136886392Y-56664092D01*
X136856903Y-56579815D01*
X136776469Y-56349949D01*
X136630246Y-56046314D01*
X136450946Y-55760961D01*
X136240825Y-55497477D01*
X136002523Y-55259175D01*
X135996861Y-55254660D01*
X135931175Y-55202277D01*
X135739039Y-55049054D01*
X135453686Y-54869754D01*
X135453683Y-54869752D01*
X135150054Y-54723532D01*
X134831965Y-54612227D01*
X134831953Y-54612223D01*
X134503397Y-54537233D01*
X134503381Y-54537231D01*
X134168508Y-54499500D01*
X134168504Y-54499500D01*
X133831496Y-54499500D01*
X133831491Y-54499500D01*
X133496618Y-54537231D01*
X133496602Y-54537233D01*
X133168046Y-54612223D01*
X133168034Y-54612227D01*
X132849945Y-54723532D01*
X132546316Y-54869752D01*
X132260962Y-55049053D01*
X131997477Y-55259174D01*
X131759174Y-55497477D01*
X131549053Y-55760962D01*
X131369752Y-56046316D01*
X131223532Y-56349945D01*
X131112227Y-56668034D01*
X131112223Y-56668046D01*
X131037233Y-56996602D01*
X131037231Y-56996618D01*
X130999500Y-57331491D01*
X129550500Y-57331491D01*
X129550500Y-53224500D01*
X129570185Y-53157461D01*
X129622989Y-53111706D01*
X129674500Y-53100500D01*
X185275500Y-53100500D01*
X185342539Y-53120185D01*
G37*
G04 #@! TD.AperFunction*
M02*
