G04 #@! TF.GenerationSoftware,KiCad,Pcbnew,9.0.0*
G04 #@! TF.CreationDate,2025-04-23T00:46:07-04:00*
G04 #@! TF.ProjectId,GPS,4750532e-6b69-4636-9164-5f7063625858,rev?*
G04 #@! TF.SameCoordinates,Original*
G04 #@! TF.FileFunction,Paste,Top*
G04 #@! TF.FilePolarity,Positive*
%FSLAX46Y46*%
G04 Gerber Fmt 4.6, Leading zero omitted, Abs format (unit mm)*
G04 Created by KiCad (PCBNEW 9.0.0) date 2025-04-23 00:46:07*
%MOMM*%
%LPD*%
G01*
G04 APERTURE LIST*
G04 Aperture macros list*
%AMRoundRect*
0 Rectangle with rounded corners*
0 $1 Rounding radius*
0 $2 $3 $4 $5 $6 $7 $8 $9 X,Y pos of 4 corners*
0 Add a 4 corners polygon primitive as box body*
4,1,4,$2,$3,$4,$5,$6,$7,$8,$9,$2,$3,0*
0 Add four circle primitives for the rounded corners*
1,1,$1+$1,$2,$3*
1,1,$1+$1,$4,$5*
1,1,$1+$1,$6,$7*
1,1,$1+$1,$8,$9*
0 Add four rect primitives between the rounded corners*
20,1,$1+$1,$2,$3,$4,$5,0*
20,1,$1+$1,$4,$5,$6,$7,0*
20,1,$1+$1,$6,$7,$8,$9,0*
20,1,$1+$1,$8,$9,$2,$3,0*%
G04 Aperture macros list end*
%ADD10C,0.010000*%
%ADD11RoundRect,0.237500X0.250000X0.237500X-0.250000X0.237500X-0.250000X-0.237500X0.250000X-0.237500X0*%
%ADD12RoundRect,0.237500X0.237500X-0.300000X0.237500X0.300000X-0.237500X0.300000X-0.237500X-0.300000X0*%
%ADD13R,0.558800X0.952500*%
%ADD14RoundRect,0.250000X-0.450000X0.325000X-0.450000X-0.325000X0.450000X-0.325000X0.450000X0.325000X0*%
%ADD15RoundRect,0.237500X-0.300000X-0.237500X0.300000X-0.237500X0.300000X0.237500X-0.300000X0.237500X0*%
%ADD16RoundRect,0.237500X-0.250000X-0.237500X0.250000X-0.237500X0.250000X0.237500X-0.250000X0.237500X0*%
%ADD17RoundRect,0.237500X-0.237500X0.300000X-0.237500X-0.300000X0.237500X-0.300000X0.237500X0.300000X0*%
%ADD18R,3.500000X2.400000*%
%ADD19RoundRect,0.250000X-0.325000X-0.450000X0.325000X-0.450000X0.325000X0.450000X-0.325000X0.450000X0*%
%ADD20RoundRect,0.237500X0.300000X0.237500X-0.300000X0.237500X-0.300000X-0.237500X0.300000X-0.237500X0*%
%ADD21RoundRect,0.375000X-0.625000X-0.375000X0.625000X-0.375000X0.625000X0.375000X-0.625000X0.375000X0*%
%ADD22RoundRect,0.500000X-0.500000X-1.400000X0.500000X-1.400000X0.500000X1.400000X-0.500000X1.400000X0*%
%ADD23R,1.050000X1.100000*%
%ADD24RoundRect,0.237500X-0.237500X0.250000X-0.237500X-0.250000X0.237500X-0.250000X0.237500X0.250000X0*%
%ADD25R,1.200000X0.449999*%
%ADD26RoundRect,0.075000X-0.662500X-0.075000X0.662500X-0.075000X0.662500X0.075000X-0.662500X0.075000X0*%
%ADD27RoundRect,0.075000X-0.075000X-0.662500X0.075000X-0.662500X0.075000X0.662500X-0.075000X0.662500X0*%
%ADD28RoundRect,0.237500X0.237500X-0.250000X0.237500X0.250000X-0.237500X0.250000X-0.237500X-0.250000X0*%
G04 APERTURE END LIST*
D10*
X158952000Y-83253000D02*
X159004000Y-83261000D01*
X159055000Y-83274000D01*
X159103000Y-83293000D01*
X159150000Y-83317000D01*
X159194000Y-83345000D01*
X159235000Y-83378000D01*
X159272000Y-83415000D01*
X159305000Y-83456000D01*
X159333000Y-83500000D01*
X159357000Y-83547000D01*
X159376000Y-83595000D01*
X159389000Y-83646000D01*
X159397000Y-83698000D01*
X159400000Y-83750000D01*
X159397000Y-83802000D01*
X159389000Y-83854000D01*
X159376000Y-83905000D01*
X159357000Y-83953000D01*
X159333000Y-84000000D01*
X159305000Y-84044000D01*
X159272000Y-84085000D01*
X159235000Y-84122000D01*
X159194000Y-84155000D01*
X159150000Y-84183000D01*
X159103000Y-84207000D01*
X159055000Y-84226000D01*
X159004000Y-84239000D01*
X158952000Y-84247000D01*
X158900000Y-84250000D01*
X157100000Y-84250000D01*
X157048000Y-84247000D01*
X156996000Y-84239000D01*
X156945000Y-84226000D01*
X156897000Y-84207000D01*
X156850000Y-84183000D01*
X156806000Y-84155000D01*
X156765000Y-84122000D01*
X156728000Y-84085000D01*
X156695000Y-84044000D01*
X156667000Y-84000000D01*
X156643000Y-83953000D01*
X156624000Y-83905000D01*
X156611000Y-83854000D01*
X156603000Y-83802000D01*
X156600000Y-83750000D01*
X156603000Y-83698000D01*
X156611000Y-83646000D01*
X156624000Y-83595000D01*
X156643000Y-83547000D01*
X156667000Y-83500000D01*
X156695000Y-83456000D01*
X156728000Y-83415000D01*
X156765000Y-83378000D01*
X156806000Y-83345000D01*
X156850000Y-83317000D01*
X156897000Y-83293000D01*
X156945000Y-83274000D01*
X156996000Y-83261000D01*
X157048000Y-83253000D01*
X157100000Y-83250000D01*
X158900000Y-83250000D01*
X158952000Y-83253000D01*
G36*
X158952000Y-83253000D02*
G01*
X159004000Y-83261000D01*
X159055000Y-83274000D01*
X159103000Y-83293000D01*
X159150000Y-83317000D01*
X159194000Y-83345000D01*
X159235000Y-83378000D01*
X159272000Y-83415000D01*
X159305000Y-83456000D01*
X159333000Y-83500000D01*
X159357000Y-83547000D01*
X159376000Y-83595000D01*
X159389000Y-83646000D01*
X159397000Y-83698000D01*
X159400000Y-83750000D01*
X159397000Y-83802000D01*
X159389000Y-83854000D01*
X159376000Y-83905000D01*
X159357000Y-83953000D01*
X159333000Y-84000000D01*
X159305000Y-84044000D01*
X159272000Y-84085000D01*
X159235000Y-84122000D01*
X159194000Y-84155000D01*
X159150000Y-84183000D01*
X159103000Y-84207000D01*
X159055000Y-84226000D01*
X159004000Y-84239000D01*
X158952000Y-84247000D01*
X158900000Y-84250000D01*
X157100000Y-84250000D01*
X157048000Y-84247000D01*
X156996000Y-84239000D01*
X156945000Y-84226000D01*
X156897000Y-84207000D01*
X156850000Y-84183000D01*
X156806000Y-84155000D01*
X156765000Y-84122000D01*
X156728000Y-84085000D01*
X156695000Y-84044000D01*
X156667000Y-84000000D01*
X156643000Y-83953000D01*
X156624000Y-83905000D01*
X156611000Y-83854000D01*
X156603000Y-83802000D01*
X156600000Y-83750000D01*
X156603000Y-83698000D01*
X156611000Y-83646000D01*
X156624000Y-83595000D01*
X156643000Y-83547000D01*
X156667000Y-83500000D01*
X156695000Y-83456000D01*
X156728000Y-83415000D01*
X156765000Y-83378000D01*
X156806000Y-83345000D01*
X156850000Y-83317000D01*
X156897000Y-83293000D01*
X156945000Y-83274000D01*
X156996000Y-83261000D01*
X157048000Y-83253000D01*
X157100000Y-83250000D01*
X158900000Y-83250000D01*
X158952000Y-83253000D01*
G37*
X158952000Y-85793000D02*
X159004000Y-85801000D01*
X159055000Y-85814000D01*
X159103000Y-85833000D01*
X159150000Y-85857000D01*
X159194000Y-85885000D01*
X159235000Y-85918000D01*
X159272000Y-85955000D01*
X159305000Y-85996000D01*
X159333000Y-86040000D01*
X159357000Y-86087000D01*
X159376000Y-86135000D01*
X159389000Y-86186000D01*
X159397000Y-86238000D01*
X159400000Y-86290000D01*
X159397000Y-86342000D01*
X159389000Y-86394000D01*
X159376000Y-86445000D01*
X159357000Y-86493000D01*
X159333000Y-86540000D01*
X159305000Y-86584000D01*
X159272000Y-86625000D01*
X159235000Y-86662000D01*
X159194000Y-86695000D01*
X159150000Y-86723000D01*
X159103000Y-86747000D01*
X159055000Y-86766000D01*
X159004000Y-86779000D01*
X158952000Y-86787000D01*
X158900000Y-86790000D01*
X157100000Y-86790000D01*
X157048000Y-86787000D01*
X156996000Y-86779000D01*
X156945000Y-86766000D01*
X156897000Y-86747000D01*
X156850000Y-86723000D01*
X156806000Y-86695000D01*
X156765000Y-86662000D01*
X156728000Y-86625000D01*
X156695000Y-86584000D01*
X156667000Y-86540000D01*
X156643000Y-86493000D01*
X156624000Y-86445000D01*
X156611000Y-86394000D01*
X156603000Y-86342000D01*
X156600000Y-86290000D01*
X156603000Y-86238000D01*
X156611000Y-86186000D01*
X156624000Y-86135000D01*
X156643000Y-86087000D01*
X156667000Y-86040000D01*
X156695000Y-85996000D01*
X156728000Y-85955000D01*
X156765000Y-85918000D01*
X156806000Y-85885000D01*
X156850000Y-85857000D01*
X156897000Y-85833000D01*
X156945000Y-85814000D01*
X156996000Y-85801000D01*
X157048000Y-85793000D01*
X157100000Y-85790000D01*
X158900000Y-85790000D01*
X158952000Y-85793000D01*
G36*
X158952000Y-85793000D02*
G01*
X159004000Y-85801000D01*
X159055000Y-85814000D01*
X159103000Y-85833000D01*
X159150000Y-85857000D01*
X159194000Y-85885000D01*
X159235000Y-85918000D01*
X159272000Y-85955000D01*
X159305000Y-85996000D01*
X159333000Y-86040000D01*
X159357000Y-86087000D01*
X159376000Y-86135000D01*
X159389000Y-86186000D01*
X159397000Y-86238000D01*
X159400000Y-86290000D01*
X159397000Y-86342000D01*
X159389000Y-86394000D01*
X159376000Y-86445000D01*
X159357000Y-86493000D01*
X159333000Y-86540000D01*
X159305000Y-86584000D01*
X159272000Y-86625000D01*
X159235000Y-86662000D01*
X159194000Y-86695000D01*
X159150000Y-86723000D01*
X159103000Y-86747000D01*
X159055000Y-86766000D01*
X159004000Y-86779000D01*
X158952000Y-86787000D01*
X158900000Y-86790000D01*
X157100000Y-86790000D01*
X157048000Y-86787000D01*
X156996000Y-86779000D01*
X156945000Y-86766000D01*
X156897000Y-86747000D01*
X156850000Y-86723000D01*
X156806000Y-86695000D01*
X156765000Y-86662000D01*
X156728000Y-86625000D01*
X156695000Y-86584000D01*
X156667000Y-86540000D01*
X156643000Y-86493000D01*
X156624000Y-86445000D01*
X156611000Y-86394000D01*
X156603000Y-86342000D01*
X156600000Y-86290000D01*
X156603000Y-86238000D01*
X156611000Y-86186000D01*
X156624000Y-86135000D01*
X156643000Y-86087000D01*
X156667000Y-86040000D01*
X156695000Y-85996000D01*
X156728000Y-85955000D01*
X156765000Y-85918000D01*
X156806000Y-85885000D01*
X156850000Y-85857000D01*
X156897000Y-85833000D01*
X156945000Y-85814000D01*
X156996000Y-85801000D01*
X157048000Y-85793000D01*
X157100000Y-85790000D01*
X158900000Y-85790000D01*
X158952000Y-85793000D01*
G37*
X158952000Y-88333000D02*
X159004000Y-88341000D01*
X159055000Y-88354000D01*
X159103000Y-88373000D01*
X159150000Y-88397000D01*
X159194000Y-88425000D01*
X159235000Y-88458000D01*
X159272000Y-88495000D01*
X159305000Y-88536000D01*
X159333000Y-88580000D01*
X159357000Y-88627000D01*
X159376000Y-88675000D01*
X159389000Y-88726000D01*
X159397000Y-88778000D01*
X159400000Y-88830000D01*
X159397000Y-88882000D01*
X159389000Y-88934000D01*
X159376000Y-88985000D01*
X159357000Y-89033000D01*
X159333000Y-89080000D01*
X159305000Y-89124000D01*
X159272000Y-89165000D01*
X159235000Y-89202000D01*
X159194000Y-89235000D01*
X159150000Y-89263000D01*
X159103000Y-89287000D01*
X159055000Y-89306000D01*
X159004000Y-89319000D01*
X158952000Y-89327000D01*
X158900000Y-89330000D01*
X157100000Y-89330000D01*
X157048000Y-89327000D01*
X156996000Y-89319000D01*
X156945000Y-89306000D01*
X156897000Y-89287000D01*
X156850000Y-89263000D01*
X156806000Y-89235000D01*
X156765000Y-89202000D01*
X156728000Y-89165000D01*
X156695000Y-89124000D01*
X156667000Y-89080000D01*
X156643000Y-89033000D01*
X156624000Y-88985000D01*
X156611000Y-88934000D01*
X156603000Y-88882000D01*
X156600000Y-88830000D01*
X156603000Y-88778000D01*
X156611000Y-88726000D01*
X156624000Y-88675000D01*
X156643000Y-88627000D01*
X156667000Y-88580000D01*
X156695000Y-88536000D01*
X156728000Y-88495000D01*
X156765000Y-88458000D01*
X156806000Y-88425000D01*
X156850000Y-88397000D01*
X156897000Y-88373000D01*
X156945000Y-88354000D01*
X156996000Y-88341000D01*
X157048000Y-88333000D01*
X157100000Y-88330000D01*
X158900000Y-88330000D01*
X158952000Y-88333000D01*
G36*
X158952000Y-88333000D02*
G01*
X159004000Y-88341000D01*
X159055000Y-88354000D01*
X159103000Y-88373000D01*
X159150000Y-88397000D01*
X159194000Y-88425000D01*
X159235000Y-88458000D01*
X159272000Y-88495000D01*
X159305000Y-88536000D01*
X159333000Y-88580000D01*
X159357000Y-88627000D01*
X159376000Y-88675000D01*
X159389000Y-88726000D01*
X159397000Y-88778000D01*
X159400000Y-88830000D01*
X159397000Y-88882000D01*
X159389000Y-88934000D01*
X159376000Y-88985000D01*
X159357000Y-89033000D01*
X159333000Y-89080000D01*
X159305000Y-89124000D01*
X159272000Y-89165000D01*
X159235000Y-89202000D01*
X159194000Y-89235000D01*
X159150000Y-89263000D01*
X159103000Y-89287000D01*
X159055000Y-89306000D01*
X159004000Y-89319000D01*
X158952000Y-89327000D01*
X158900000Y-89330000D01*
X157100000Y-89330000D01*
X157048000Y-89327000D01*
X156996000Y-89319000D01*
X156945000Y-89306000D01*
X156897000Y-89287000D01*
X156850000Y-89263000D01*
X156806000Y-89235000D01*
X156765000Y-89202000D01*
X156728000Y-89165000D01*
X156695000Y-89124000D01*
X156667000Y-89080000D01*
X156643000Y-89033000D01*
X156624000Y-88985000D01*
X156611000Y-88934000D01*
X156603000Y-88882000D01*
X156600000Y-88830000D01*
X156603000Y-88778000D01*
X156611000Y-88726000D01*
X156624000Y-88675000D01*
X156643000Y-88627000D01*
X156667000Y-88580000D01*
X156695000Y-88536000D01*
X156728000Y-88495000D01*
X156765000Y-88458000D01*
X156806000Y-88425000D01*
X156850000Y-88397000D01*
X156897000Y-88373000D01*
X156945000Y-88354000D01*
X156996000Y-88341000D01*
X157048000Y-88333000D01*
X157100000Y-88330000D01*
X158900000Y-88330000D01*
X158952000Y-88333000D01*
G37*
X158952000Y-90873000D02*
X159004000Y-90881000D01*
X159055000Y-90894000D01*
X159103000Y-90913000D01*
X159150000Y-90937000D01*
X159194000Y-90965000D01*
X159235000Y-90998000D01*
X159272000Y-91035000D01*
X159305000Y-91076000D01*
X159333000Y-91120000D01*
X159357000Y-91167000D01*
X159376000Y-91215000D01*
X159389000Y-91266000D01*
X159397000Y-91318000D01*
X159400000Y-91370000D01*
X159397000Y-91422000D01*
X159389000Y-91474000D01*
X159376000Y-91525000D01*
X159357000Y-91573000D01*
X159333000Y-91620000D01*
X159305000Y-91664000D01*
X159272000Y-91705000D01*
X159235000Y-91742000D01*
X159194000Y-91775000D01*
X159150000Y-91803000D01*
X159103000Y-91827000D01*
X159055000Y-91846000D01*
X159004000Y-91859000D01*
X158952000Y-91867000D01*
X158900000Y-91870000D01*
X157100000Y-91870000D01*
X157048000Y-91867000D01*
X156996000Y-91859000D01*
X156945000Y-91846000D01*
X156897000Y-91827000D01*
X156850000Y-91803000D01*
X156806000Y-91775000D01*
X156765000Y-91742000D01*
X156728000Y-91705000D01*
X156695000Y-91664000D01*
X156667000Y-91620000D01*
X156643000Y-91573000D01*
X156624000Y-91525000D01*
X156611000Y-91474000D01*
X156603000Y-91422000D01*
X156600000Y-91370000D01*
X156603000Y-91318000D01*
X156611000Y-91266000D01*
X156624000Y-91215000D01*
X156643000Y-91167000D01*
X156667000Y-91120000D01*
X156695000Y-91076000D01*
X156728000Y-91035000D01*
X156765000Y-90998000D01*
X156806000Y-90965000D01*
X156850000Y-90937000D01*
X156897000Y-90913000D01*
X156945000Y-90894000D01*
X156996000Y-90881000D01*
X157048000Y-90873000D01*
X157100000Y-90870000D01*
X158900000Y-90870000D01*
X158952000Y-90873000D01*
G36*
X158952000Y-90873000D02*
G01*
X159004000Y-90881000D01*
X159055000Y-90894000D01*
X159103000Y-90913000D01*
X159150000Y-90937000D01*
X159194000Y-90965000D01*
X159235000Y-90998000D01*
X159272000Y-91035000D01*
X159305000Y-91076000D01*
X159333000Y-91120000D01*
X159357000Y-91167000D01*
X159376000Y-91215000D01*
X159389000Y-91266000D01*
X159397000Y-91318000D01*
X159400000Y-91370000D01*
X159397000Y-91422000D01*
X159389000Y-91474000D01*
X159376000Y-91525000D01*
X159357000Y-91573000D01*
X159333000Y-91620000D01*
X159305000Y-91664000D01*
X159272000Y-91705000D01*
X159235000Y-91742000D01*
X159194000Y-91775000D01*
X159150000Y-91803000D01*
X159103000Y-91827000D01*
X159055000Y-91846000D01*
X159004000Y-91859000D01*
X158952000Y-91867000D01*
X158900000Y-91870000D01*
X157100000Y-91870000D01*
X157048000Y-91867000D01*
X156996000Y-91859000D01*
X156945000Y-91846000D01*
X156897000Y-91827000D01*
X156850000Y-91803000D01*
X156806000Y-91775000D01*
X156765000Y-91742000D01*
X156728000Y-91705000D01*
X156695000Y-91664000D01*
X156667000Y-91620000D01*
X156643000Y-91573000D01*
X156624000Y-91525000D01*
X156611000Y-91474000D01*
X156603000Y-91422000D01*
X156600000Y-91370000D01*
X156603000Y-91318000D01*
X156611000Y-91266000D01*
X156624000Y-91215000D01*
X156643000Y-91167000D01*
X156667000Y-91120000D01*
X156695000Y-91076000D01*
X156728000Y-91035000D01*
X156765000Y-90998000D01*
X156806000Y-90965000D01*
X156850000Y-90937000D01*
X156897000Y-90913000D01*
X156945000Y-90894000D01*
X156996000Y-90881000D01*
X157048000Y-90873000D01*
X157100000Y-90870000D01*
X158900000Y-90870000D01*
X158952000Y-90873000D01*
G37*
X158952000Y-93413000D02*
X159004000Y-93421000D01*
X159055000Y-93434000D01*
X159103000Y-93453000D01*
X159150000Y-93477000D01*
X159194000Y-93505000D01*
X159235000Y-93538000D01*
X159272000Y-93575000D01*
X159305000Y-93616000D01*
X159333000Y-93660000D01*
X159357000Y-93707000D01*
X159376000Y-93755000D01*
X159389000Y-93806000D01*
X159397000Y-93858000D01*
X159400000Y-93910000D01*
X159397000Y-93962000D01*
X159389000Y-94014000D01*
X159376000Y-94065000D01*
X159357000Y-94113000D01*
X159333000Y-94160000D01*
X159305000Y-94204000D01*
X159272000Y-94245000D01*
X159235000Y-94282000D01*
X159194000Y-94315000D01*
X159150000Y-94343000D01*
X159103000Y-94367000D01*
X159055000Y-94386000D01*
X159004000Y-94399000D01*
X158952000Y-94407000D01*
X158900000Y-94410000D01*
X157100000Y-94410000D01*
X157048000Y-94407000D01*
X156996000Y-94399000D01*
X156945000Y-94386000D01*
X156897000Y-94367000D01*
X156850000Y-94343000D01*
X156806000Y-94315000D01*
X156765000Y-94282000D01*
X156728000Y-94245000D01*
X156695000Y-94204000D01*
X156667000Y-94160000D01*
X156643000Y-94113000D01*
X156624000Y-94065000D01*
X156611000Y-94014000D01*
X156603000Y-93962000D01*
X156600000Y-93910000D01*
X156603000Y-93858000D01*
X156611000Y-93806000D01*
X156624000Y-93755000D01*
X156643000Y-93707000D01*
X156667000Y-93660000D01*
X156695000Y-93616000D01*
X156728000Y-93575000D01*
X156765000Y-93538000D01*
X156806000Y-93505000D01*
X156850000Y-93477000D01*
X156897000Y-93453000D01*
X156945000Y-93434000D01*
X156996000Y-93421000D01*
X157048000Y-93413000D01*
X157100000Y-93410000D01*
X158900000Y-93410000D01*
X158952000Y-93413000D01*
G36*
X158952000Y-93413000D02*
G01*
X159004000Y-93421000D01*
X159055000Y-93434000D01*
X159103000Y-93453000D01*
X159150000Y-93477000D01*
X159194000Y-93505000D01*
X159235000Y-93538000D01*
X159272000Y-93575000D01*
X159305000Y-93616000D01*
X159333000Y-93660000D01*
X159357000Y-93707000D01*
X159376000Y-93755000D01*
X159389000Y-93806000D01*
X159397000Y-93858000D01*
X159400000Y-93910000D01*
X159397000Y-93962000D01*
X159389000Y-94014000D01*
X159376000Y-94065000D01*
X159357000Y-94113000D01*
X159333000Y-94160000D01*
X159305000Y-94204000D01*
X159272000Y-94245000D01*
X159235000Y-94282000D01*
X159194000Y-94315000D01*
X159150000Y-94343000D01*
X159103000Y-94367000D01*
X159055000Y-94386000D01*
X159004000Y-94399000D01*
X158952000Y-94407000D01*
X158900000Y-94410000D01*
X157100000Y-94410000D01*
X157048000Y-94407000D01*
X156996000Y-94399000D01*
X156945000Y-94386000D01*
X156897000Y-94367000D01*
X156850000Y-94343000D01*
X156806000Y-94315000D01*
X156765000Y-94282000D01*
X156728000Y-94245000D01*
X156695000Y-94204000D01*
X156667000Y-94160000D01*
X156643000Y-94113000D01*
X156624000Y-94065000D01*
X156611000Y-94014000D01*
X156603000Y-93962000D01*
X156600000Y-93910000D01*
X156603000Y-93858000D01*
X156611000Y-93806000D01*
X156624000Y-93755000D01*
X156643000Y-93707000D01*
X156667000Y-93660000D01*
X156695000Y-93616000D01*
X156728000Y-93575000D01*
X156765000Y-93538000D01*
X156806000Y-93505000D01*
X156850000Y-93477000D01*
X156897000Y-93453000D01*
X156945000Y-93434000D01*
X156996000Y-93421000D01*
X157048000Y-93413000D01*
X157100000Y-93410000D01*
X158900000Y-93410000D01*
X158952000Y-93413000D01*
G37*
X158952000Y-95953000D02*
X159004000Y-95961000D01*
X159055000Y-95974000D01*
X159103000Y-95993000D01*
X159150000Y-96017000D01*
X159194000Y-96045000D01*
X159235000Y-96078000D01*
X159272000Y-96115000D01*
X159305000Y-96156000D01*
X159333000Y-96200000D01*
X159357000Y-96247000D01*
X159376000Y-96295000D01*
X159389000Y-96346000D01*
X159397000Y-96398000D01*
X159400000Y-96450000D01*
X159397000Y-96502000D01*
X159389000Y-96554000D01*
X159376000Y-96605000D01*
X159357000Y-96653000D01*
X159333000Y-96700000D01*
X159305000Y-96744000D01*
X159272000Y-96785000D01*
X159235000Y-96822000D01*
X159194000Y-96855000D01*
X159150000Y-96883000D01*
X159103000Y-96907000D01*
X159055000Y-96926000D01*
X159004000Y-96939000D01*
X158952000Y-96947000D01*
X158900000Y-96950000D01*
X157100000Y-96950000D01*
X157048000Y-96947000D01*
X156996000Y-96939000D01*
X156945000Y-96926000D01*
X156897000Y-96907000D01*
X156850000Y-96883000D01*
X156806000Y-96855000D01*
X156765000Y-96822000D01*
X156728000Y-96785000D01*
X156695000Y-96744000D01*
X156667000Y-96700000D01*
X156643000Y-96653000D01*
X156624000Y-96605000D01*
X156611000Y-96554000D01*
X156603000Y-96502000D01*
X156600000Y-96450000D01*
X156603000Y-96398000D01*
X156611000Y-96346000D01*
X156624000Y-96295000D01*
X156643000Y-96247000D01*
X156667000Y-96200000D01*
X156695000Y-96156000D01*
X156728000Y-96115000D01*
X156765000Y-96078000D01*
X156806000Y-96045000D01*
X156850000Y-96017000D01*
X156897000Y-95993000D01*
X156945000Y-95974000D01*
X156996000Y-95961000D01*
X157048000Y-95953000D01*
X157100000Y-95950000D01*
X158900000Y-95950000D01*
X158952000Y-95953000D01*
G36*
X158952000Y-95953000D02*
G01*
X159004000Y-95961000D01*
X159055000Y-95974000D01*
X159103000Y-95993000D01*
X159150000Y-96017000D01*
X159194000Y-96045000D01*
X159235000Y-96078000D01*
X159272000Y-96115000D01*
X159305000Y-96156000D01*
X159333000Y-96200000D01*
X159357000Y-96247000D01*
X159376000Y-96295000D01*
X159389000Y-96346000D01*
X159397000Y-96398000D01*
X159400000Y-96450000D01*
X159397000Y-96502000D01*
X159389000Y-96554000D01*
X159376000Y-96605000D01*
X159357000Y-96653000D01*
X159333000Y-96700000D01*
X159305000Y-96744000D01*
X159272000Y-96785000D01*
X159235000Y-96822000D01*
X159194000Y-96855000D01*
X159150000Y-96883000D01*
X159103000Y-96907000D01*
X159055000Y-96926000D01*
X159004000Y-96939000D01*
X158952000Y-96947000D01*
X158900000Y-96950000D01*
X157100000Y-96950000D01*
X157048000Y-96947000D01*
X156996000Y-96939000D01*
X156945000Y-96926000D01*
X156897000Y-96907000D01*
X156850000Y-96883000D01*
X156806000Y-96855000D01*
X156765000Y-96822000D01*
X156728000Y-96785000D01*
X156695000Y-96744000D01*
X156667000Y-96700000D01*
X156643000Y-96653000D01*
X156624000Y-96605000D01*
X156611000Y-96554000D01*
X156603000Y-96502000D01*
X156600000Y-96450000D01*
X156603000Y-96398000D01*
X156611000Y-96346000D01*
X156624000Y-96295000D01*
X156643000Y-96247000D01*
X156667000Y-96200000D01*
X156695000Y-96156000D01*
X156728000Y-96115000D01*
X156765000Y-96078000D01*
X156806000Y-96045000D01*
X156850000Y-96017000D01*
X156897000Y-95993000D01*
X156945000Y-95974000D01*
X156996000Y-95961000D01*
X157048000Y-95953000D01*
X157100000Y-95950000D01*
X158900000Y-95950000D01*
X158952000Y-95953000D01*
G37*
X142952000Y-83253000D02*
X143004000Y-83261000D01*
X143055000Y-83274000D01*
X143103000Y-83293000D01*
X143150000Y-83317000D01*
X143194000Y-83345000D01*
X143235000Y-83378000D01*
X143272000Y-83415000D01*
X143305000Y-83456000D01*
X143333000Y-83500000D01*
X143357000Y-83547000D01*
X143376000Y-83595000D01*
X143389000Y-83646000D01*
X143397000Y-83698000D01*
X143400000Y-83750000D01*
X143397000Y-83802000D01*
X143389000Y-83854000D01*
X143376000Y-83905000D01*
X143357000Y-83953000D01*
X143333000Y-84000000D01*
X143305000Y-84044000D01*
X143272000Y-84085000D01*
X143235000Y-84122000D01*
X143194000Y-84155000D01*
X143150000Y-84183000D01*
X143103000Y-84207000D01*
X143055000Y-84226000D01*
X143004000Y-84239000D01*
X142952000Y-84247000D01*
X142900000Y-84250000D01*
X141100000Y-84250000D01*
X141048000Y-84247000D01*
X140996000Y-84239000D01*
X140945000Y-84226000D01*
X140897000Y-84207000D01*
X140850000Y-84183000D01*
X140806000Y-84155000D01*
X140765000Y-84122000D01*
X140728000Y-84085000D01*
X140695000Y-84044000D01*
X140667000Y-84000000D01*
X140643000Y-83953000D01*
X140624000Y-83905000D01*
X140611000Y-83854000D01*
X140603000Y-83802000D01*
X140600000Y-83750000D01*
X140603000Y-83698000D01*
X140611000Y-83646000D01*
X140624000Y-83595000D01*
X140643000Y-83547000D01*
X140667000Y-83500000D01*
X140695000Y-83456000D01*
X140728000Y-83415000D01*
X140765000Y-83378000D01*
X140806000Y-83345000D01*
X140850000Y-83317000D01*
X140897000Y-83293000D01*
X140945000Y-83274000D01*
X140996000Y-83261000D01*
X141048000Y-83253000D01*
X141100000Y-83250000D01*
X142000000Y-83250000D01*
X142800000Y-83250000D01*
X142900000Y-83250000D01*
X142952000Y-83253000D01*
G36*
X142952000Y-83253000D02*
G01*
X143004000Y-83261000D01*
X143055000Y-83274000D01*
X143103000Y-83293000D01*
X143150000Y-83317000D01*
X143194000Y-83345000D01*
X143235000Y-83378000D01*
X143272000Y-83415000D01*
X143305000Y-83456000D01*
X143333000Y-83500000D01*
X143357000Y-83547000D01*
X143376000Y-83595000D01*
X143389000Y-83646000D01*
X143397000Y-83698000D01*
X143400000Y-83750000D01*
X143397000Y-83802000D01*
X143389000Y-83854000D01*
X143376000Y-83905000D01*
X143357000Y-83953000D01*
X143333000Y-84000000D01*
X143305000Y-84044000D01*
X143272000Y-84085000D01*
X143235000Y-84122000D01*
X143194000Y-84155000D01*
X143150000Y-84183000D01*
X143103000Y-84207000D01*
X143055000Y-84226000D01*
X143004000Y-84239000D01*
X142952000Y-84247000D01*
X142900000Y-84250000D01*
X141100000Y-84250000D01*
X141048000Y-84247000D01*
X140996000Y-84239000D01*
X140945000Y-84226000D01*
X140897000Y-84207000D01*
X140850000Y-84183000D01*
X140806000Y-84155000D01*
X140765000Y-84122000D01*
X140728000Y-84085000D01*
X140695000Y-84044000D01*
X140667000Y-84000000D01*
X140643000Y-83953000D01*
X140624000Y-83905000D01*
X140611000Y-83854000D01*
X140603000Y-83802000D01*
X140600000Y-83750000D01*
X140603000Y-83698000D01*
X140611000Y-83646000D01*
X140624000Y-83595000D01*
X140643000Y-83547000D01*
X140667000Y-83500000D01*
X140695000Y-83456000D01*
X140728000Y-83415000D01*
X140765000Y-83378000D01*
X140806000Y-83345000D01*
X140850000Y-83317000D01*
X140897000Y-83293000D01*
X140945000Y-83274000D01*
X140996000Y-83261000D01*
X141048000Y-83253000D01*
X141100000Y-83250000D01*
X142000000Y-83250000D01*
X142800000Y-83250000D01*
X142900000Y-83250000D01*
X142952000Y-83253000D01*
G37*
X142952000Y-85793000D02*
X143004000Y-85801000D01*
X143055000Y-85814000D01*
X143103000Y-85833000D01*
X143150000Y-85857000D01*
X143194000Y-85885000D01*
X143235000Y-85918000D01*
X143272000Y-85955000D01*
X143305000Y-85996000D01*
X143333000Y-86040000D01*
X143357000Y-86087000D01*
X143376000Y-86135000D01*
X143389000Y-86186000D01*
X143397000Y-86238000D01*
X143400000Y-86290000D01*
X143397000Y-86342000D01*
X143389000Y-86394000D01*
X143376000Y-86445000D01*
X143357000Y-86493000D01*
X143333000Y-86540000D01*
X143305000Y-86584000D01*
X143272000Y-86625000D01*
X143235000Y-86662000D01*
X143194000Y-86695000D01*
X143150000Y-86723000D01*
X143103000Y-86747000D01*
X143055000Y-86766000D01*
X143004000Y-86779000D01*
X142952000Y-86787000D01*
X142900000Y-86790000D01*
X141100000Y-86790000D01*
X141048000Y-86787000D01*
X140996000Y-86779000D01*
X140945000Y-86766000D01*
X140897000Y-86747000D01*
X140850000Y-86723000D01*
X140806000Y-86695000D01*
X140765000Y-86662000D01*
X140728000Y-86625000D01*
X140695000Y-86584000D01*
X140667000Y-86540000D01*
X140643000Y-86493000D01*
X140624000Y-86445000D01*
X140611000Y-86394000D01*
X140603000Y-86342000D01*
X140600000Y-86290000D01*
X140603000Y-86238000D01*
X140611000Y-86186000D01*
X140624000Y-86135000D01*
X140643000Y-86087000D01*
X140667000Y-86040000D01*
X140695000Y-85996000D01*
X140728000Y-85955000D01*
X140765000Y-85918000D01*
X140806000Y-85885000D01*
X140850000Y-85857000D01*
X140897000Y-85833000D01*
X140945000Y-85814000D01*
X140996000Y-85801000D01*
X141048000Y-85793000D01*
X141100000Y-85790000D01*
X142000000Y-85790000D01*
X142800000Y-85790000D01*
X142900000Y-85790000D01*
X142952000Y-85793000D01*
G36*
X142952000Y-85793000D02*
G01*
X143004000Y-85801000D01*
X143055000Y-85814000D01*
X143103000Y-85833000D01*
X143150000Y-85857000D01*
X143194000Y-85885000D01*
X143235000Y-85918000D01*
X143272000Y-85955000D01*
X143305000Y-85996000D01*
X143333000Y-86040000D01*
X143357000Y-86087000D01*
X143376000Y-86135000D01*
X143389000Y-86186000D01*
X143397000Y-86238000D01*
X143400000Y-86290000D01*
X143397000Y-86342000D01*
X143389000Y-86394000D01*
X143376000Y-86445000D01*
X143357000Y-86493000D01*
X143333000Y-86540000D01*
X143305000Y-86584000D01*
X143272000Y-86625000D01*
X143235000Y-86662000D01*
X143194000Y-86695000D01*
X143150000Y-86723000D01*
X143103000Y-86747000D01*
X143055000Y-86766000D01*
X143004000Y-86779000D01*
X142952000Y-86787000D01*
X142900000Y-86790000D01*
X141100000Y-86790000D01*
X141048000Y-86787000D01*
X140996000Y-86779000D01*
X140945000Y-86766000D01*
X140897000Y-86747000D01*
X140850000Y-86723000D01*
X140806000Y-86695000D01*
X140765000Y-86662000D01*
X140728000Y-86625000D01*
X140695000Y-86584000D01*
X140667000Y-86540000D01*
X140643000Y-86493000D01*
X140624000Y-86445000D01*
X140611000Y-86394000D01*
X140603000Y-86342000D01*
X140600000Y-86290000D01*
X140603000Y-86238000D01*
X140611000Y-86186000D01*
X140624000Y-86135000D01*
X140643000Y-86087000D01*
X140667000Y-86040000D01*
X140695000Y-85996000D01*
X140728000Y-85955000D01*
X140765000Y-85918000D01*
X140806000Y-85885000D01*
X140850000Y-85857000D01*
X140897000Y-85833000D01*
X140945000Y-85814000D01*
X140996000Y-85801000D01*
X141048000Y-85793000D01*
X141100000Y-85790000D01*
X142000000Y-85790000D01*
X142800000Y-85790000D01*
X142900000Y-85790000D01*
X142952000Y-85793000D01*
G37*
X142952000Y-88333000D02*
X143004000Y-88341000D01*
X143055000Y-88354000D01*
X143103000Y-88373000D01*
X143150000Y-88397000D01*
X143194000Y-88425000D01*
X143235000Y-88458000D01*
X143272000Y-88495000D01*
X143305000Y-88536000D01*
X143333000Y-88580000D01*
X143357000Y-88627000D01*
X143376000Y-88675000D01*
X143389000Y-88726000D01*
X143397000Y-88778000D01*
X143400000Y-88830000D01*
X143397000Y-88882000D01*
X143389000Y-88934000D01*
X143376000Y-88985000D01*
X143357000Y-89033000D01*
X143333000Y-89080000D01*
X143305000Y-89124000D01*
X143272000Y-89165000D01*
X143235000Y-89202000D01*
X143194000Y-89235000D01*
X143150000Y-89263000D01*
X143103000Y-89287000D01*
X143055000Y-89306000D01*
X143004000Y-89319000D01*
X142952000Y-89327000D01*
X142900000Y-89330000D01*
X141100000Y-89330000D01*
X141048000Y-89327000D01*
X140996000Y-89319000D01*
X140945000Y-89306000D01*
X140897000Y-89287000D01*
X140850000Y-89263000D01*
X140806000Y-89235000D01*
X140765000Y-89202000D01*
X140728000Y-89165000D01*
X140695000Y-89124000D01*
X140667000Y-89080000D01*
X140643000Y-89033000D01*
X140624000Y-88985000D01*
X140611000Y-88934000D01*
X140603000Y-88882000D01*
X140600000Y-88830000D01*
X140603000Y-88778000D01*
X140611000Y-88726000D01*
X140624000Y-88675000D01*
X140643000Y-88627000D01*
X140667000Y-88580000D01*
X140695000Y-88536000D01*
X140728000Y-88495000D01*
X140765000Y-88458000D01*
X140806000Y-88425000D01*
X140850000Y-88397000D01*
X140897000Y-88373000D01*
X140945000Y-88354000D01*
X140996000Y-88341000D01*
X141048000Y-88333000D01*
X141100000Y-88330000D01*
X142000000Y-88330000D01*
X142800000Y-88330000D01*
X142900000Y-88330000D01*
X142952000Y-88333000D01*
G36*
X142952000Y-88333000D02*
G01*
X143004000Y-88341000D01*
X143055000Y-88354000D01*
X143103000Y-88373000D01*
X143150000Y-88397000D01*
X143194000Y-88425000D01*
X143235000Y-88458000D01*
X143272000Y-88495000D01*
X143305000Y-88536000D01*
X143333000Y-88580000D01*
X143357000Y-88627000D01*
X143376000Y-88675000D01*
X143389000Y-88726000D01*
X143397000Y-88778000D01*
X143400000Y-88830000D01*
X143397000Y-88882000D01*
X143389000Y-88934000D01*
X143376000Y-88985000D01*
X143357000Y-89033000D01*
X143333000Y-89080000D01*
X143305000Y-89124000D01*
X143272000Y-89165000D01*
X143235000Y-89202000D01*
X143194000Y-89235000D01*
X143150000Y-89263000D01*
X143103000Y-89287000D01*
X143055000Y-89306000D01*
X143004000Y-89319000D01*
X142952000Y-89327000D01*
X142900000Y-89330000D01*
X141100000Y-89330000D01*
X141048000Y-89327000D01*
X140996000Y-89319000D01*
X140945000Y-89306000D01*
X140897000Y-89287000D01*
X140850000Y-89263000D01*
X140806000Y-89235000D01*
X140765000Y-89202000D01*
X140728000Y-89165000D01*
X140695000Y-89124000D01*
X140667000Y-89080000D01*
X140643000Y-89033000D01*
X140624000Y-88985000D01*
X140611000Y-88934000D01*
X140603000Y-88882000D01*
X140600000Y-88830000D01*
X140603000Y-88778000D01*
X140611000Y-88726000D01*
X140624000Y-88675000D01*
X140643000Y-88627000D01*
X140667000Y-88580000D01*
X140695000Y-88536000D01*
X140728000Y-88495000D01*
X140765000Y-88458000D01*
X140806000Y-88425000D01*
X140850000Y-88397000D01*
X140897000Y-88373000D01*
X140945000Y-88354000D01*
X140996000Y-88341000D01*
X141048000Y-88333000D01*
X141100000Y-88330000D01*
X142000000Y-88330000D01*
X142800000Y-88330000D01*
X142900000Y-88330000D01*
X142952000Y-88333000D01*
G37*
X142952000Y-90873000D02*
X143004000Y-90881000D01*
X143055000Y-90894000D01*
X143103000Y-90913000D01*
X143150000Y-90937000D01*
X143194000Y-90965000D01*
X143235000Y-90998000D01*
X143272000Y-91035000D01*
X143305000Y-91076000D01*
X143333000Y-91120000D01*
X143357000Y-91167000D01*
X143376000Y-91215000D01*
X143389000Y-91266000D01*
X143397000Y-91318000D01*
X143400000Y-91370000D01*
X143397000Y-91422000D01*
X143389000Y-91474000D01*
X143376000Y-91525000D01*
X143357000Y-91573000D01*
X143333000Y-91620000D01*
X143305000Y-91664000D01*
X143272000Y-91705000D01*
X143235000Y-91742000D01*
X143194000Y-91775000D01*
X143150000Y-91803000D01*
X143103000Y-91827000D01*
X143055000Y-91846000D01*
X143004000Y-91859000D01*
X142952000Y-91867000D01*
X142900000Y-91870000D01*
X141100000Y-91870000D01*
X141048000Y-91867000D01*
X140996000Y-91859000D01*
X140945000Y-91846000D01*
X140897000Y-91827000D01*
X140850000Y-91803000D01*
X140806000Y-91775000D01*
X140765000Y-91742000D01*
X140728000Y-91705000D01*
X140695000Y-91664000D01*
X140667000Y-91620000D01*
X140643000Y-91573000D01*
X140624000Y-91525000D01*
X140611000Y-91474000D01*
X140603000Y-91422000D01*
X140600000Y-91370000D01*
X140603000Y-91318000D01*
X140611000Y-91266000D01*
X140624000Y-91215000D01*
X140643000Y-91167000D01*
X140667000Y-91120000D01*
X140695000Y-91076000D01*
X140728000Y-91035000D01*
X140765000Y-90998000D01*
X140806000Y-90965000D01*
X140850000Y-90937000D01*
X140897000Y-90913000D01*
X140945000Y-90894000D01*
X140996000Y-90881000D01*
X141048000Y-90873000D01*
X141100000Y-90870000D01*
X142000000Y-90870000D01*
X142800000Y-90870000D01*
X142900000Y-90870000D01*
X142952000Y-90873000D01*
G36*
X142952000Y-90873000D02*
G01*
X143004000Y-90881000D01*
X143055000Y-90894000D01*
X143103000Y-90913000D01*
X143150000Y-90937000D01*
X143194000Y-90965000D01*
X143235000Y-90998000D01*
X143272000Y-91035000D01*
X143305000Y-91076000D01*
X143333000Y-91120000D01*
X143357000Y-91167000D01*
X143376000Y-91215000D01*
X143389000Y-91266000D01*
X143397000Y-91318000D01*
X143400000Y-91370000D01*
X143397000Y-91422000D01*
X143389000Y-91474000D01*
X143376000Y-91525000D01*
X143357000Y-91573000D01*
X143333000Y-91620000D01*
X143305000Y-91664000D01*
X143272000Y-91705000D01*
X143235000Y-91742000D01*
X143194000Y-91775000D01*
X143150000Y-91803000D01*
X143103000Y-91827000D01*
X143055000Y-91846000D01*
X143004000Y-91859000D01*
X142952000Y-91867000D01*
X142900000Y-91870000D01*
X141100000Y-91870000D01*
X141048000Y-91867000D01*
X140996000Y-91859000D01*
X140945000Y-91846000D01*
X140897000Y-91827000D01*
X140850000Y-91803000D01*
X140806000Y-91775000D01*
X140765000Y-91742000D01*
X140728000Y-91705000D01*
X140695000Y-91664000D01*
X140667000Y-91620000D01*
X140643000Y-91573000D01*
X140624000Y-91525000D01*
X140611000Y-91474000D01*
X140603000Y-91422000D01*
X140600000Y-91370000D01*
X140603000Y-91318000D01*
X140611000Y-91266000D01*
X140624000Y-91215000D01*
X140643000Y-91167000D01*
X140667000Y-91120000D01*
X140695000Y-91076000D01*
X140728000Y-91035000D01*
X140765000Y-90998000D01*
X140806000Y-90965000D01*
X140850000Y-90937000D01*
X140897000Y-90913000D01*
X140945000Y-90894000D01*
X140996000Y-90881000D01*
X141048000Y-90873000D01*
X141100000Y-90870000D01*
X142000000Y-90870000D01*
X142800000Y-90870000D01*
X142900000Y-90870000D01*
X142952000Y-90873000D01*
G37*
X142952000Y-93413000D02*
X143004000Y-93421000D01*
X143055000Y-93434000D01*
X143103000Y-93453000D01*
X143150000Y-93477000D01*
X143194000Y-93505000D01*
X143235000Y-93538000D01*
X143272000Y-93575000D01*
X143305000Y-93616000D01*
X143333000Y-93660000D01*
X143357000Y-93707000D01*
X143376000Y-93755000D01*
X143389000Y-93806000D01*
X143397000Y-93858000D01*
X143400000Y-93910000D01*
X143397000Y-93962000D01*
X143389000Y-94014000D01*
X143376000Y-94065000D01*
X143357000Y-94113000D01*
X143333000Y-94160000D01*
X143305000Y-94204000D01*
X143272000Y-94245000D01*
X143235000Y-94282000D01*
X143194000Y-94315000D01*
X143150000Y-94343000D01*
X143103000Y-94367000D01*
X143055000Y-94386000D01*
X143004000Y-94399000D01*
X142952000Y-94407000D01*
X142900000Y-94410000D01*
X141100000Y-94410000D01*
X141048000Y-94407000D01*
X140996000Y-94399000D01*
X140945000Y-94386000D01*
X140897000Y-94367000D01*
X140850000Y-94343000D01*
X140806000Y-94315000D01*
X140765000Y-94282000D01*
X140728000Y-94245000D01*
X140695000Y-94204000D01*
X140667000Y-94160000D01*
X140643000Y-94113000D01*
X140624000Y-94065000D01*
X140611000Y-94014000D01*
X140603000Y-93962000D01*
X140600000Y-93910000D01*
X140603000Y-93858000D01*
X140611000Y-93806000D01*
X140624000Y-93755000D01*
X140643000Y-93707000D01*
X140667000Y-93660000D01*
X140695000Y-93616000D01*
X140728000Y-93575000D01*
X140765000Y-93538000D01*
X140806000Y-93505000D01*
X140850000Y-93477000D01*
X140897000Y-93453000D01*
X140945000Y-93434000D01*
X140996000Y-93421000D01*
X141048000Y-93413000D01*
X141100000Y-93410000D01*
X142000000Y-93410000D01*
X142800000Y-93410000D01*
X142900000Y-93410000D01*
X142952000Y-93413000D01*
G36*
X142952000Y-93413000D02*
G01*
X143004000Y-93421000D01*
X143055000Y-93434000D01*
X143103000Y-93453000D01*
X143150000Y-93477000D01*
X143194000Y-93505000D01*
X143235000Y-93538000D01*
X143272000Y-93575000D01*
X143305000Y-93616000D01*
X143333000Y-93660000D01*
X143357000Y-93707000D01*
X143376000Y-93755000D01*
X143389000Y-93806000D01*
X143397000Y-93858000D01*
X143400000Y-93910000D01*
X143397000Y-93962000D01*
X143389000Y-94014000D01*
X143376000Y-94065000D01*
X143357000Y-94113000D01*
X143333000Y-94160000D01*
X143305000Y-94204000D01*
X143272000Y-94245000D01*
X143235000Y-94282000D01*
X143194000Y-94315000D01*
X143150000Y-94343000D01*
X143103000Y-94367000D01*
X143055000Y-94386000D01*
X143004000Y-94399000D01*
X142952000Y-94407000D01*
X142900000Y-94410000D01*
X141100000Y-94410000D01*
X141048000Y-94407000D01*
X140996000Y-94399000D01*
X140945000Y-94386000D01*
X140897000Y-94367000D01*
X140850000Y-94343000D01*
X140806000Y-94315000D01*
X140765000Y-94282000D01*
X140728000Y-94245000D01*
X140695000Y-94204000D01*
X140667000Y-94160000D01*
X140643000Y-94113000D01*
X140624000Y-94065000D01*
X140611000Y-94014000D01*
X140603000Y-93962000D01*
X140600000Y-93910000D01*
X140603000Y-93858000D01*
X140611000Y-93806000D01*
X140624000Y-93755000D01*
X140643000Y-93707000D01*
X140667000Y-93660000D01*
X140695000Y-93616000D01*
X140728000Y-93575000D01*
X140765000Y-93538000D01*
X140806000Y-93505000D01*
X140850000Y-93477000D01*
X140897000Y-93453000D01*
X140945000Y-93434000D01*
X140996000Y-93421000D01*
X141048000Y-93413000D01*
X141100000Y-93410000D01*
X142000000Y-93410000D01*
X142800000Y-93410000D01*
X142900000Y-93410000D01*
X142952000Y-93413000D01*
G37*
X142952000Y-95953000D02*
X143004000Y-95961000D01*
X143055000Y-95974000D01*
X143103000Y-95993000D01*
X143150000Y-96017000D01*
X143194000Y-96045000D01*
X143235000Y-96078000D01*
X143272000Y-96115000D01*
X143305000Y-96156000D01*
X143333000Y-96200000D01*
X143357000Y-96247000D01*
X143376000Y-96295000D01*
X143389000Y-96346000D01*
X143397000Y-96398000D01*
X143400000Y-96450000D01*
X143397000Y-96502000D01*
X143389000Y-96554000D01*
X143376000Y-96605000D01*
X143357000Y-96653000D01*
X143333000Y-96700000D01*
X143305000Y-96744000D01*
X143272000Y-96785000D01*
X143235000Y-96822000D01*
X143194000Y-96855000D01*
X143150000Y-96883000D01*
X143103000Y-96907000D01*
X143055000Y-96926000D01*
X143004000Y-96939000D01*
X142952000Y-96947000D01*
X142900000Y-96950000D01*
X141100000Y-96950000D01*
X141048000Y-96947000D01*
X140996000Y-96939000D01*
X140945000Y-96926000D01*
X140897000Y-96907000D01*
X140850000Y-96883000D01*
X140806000Y-96855000D01*
X140765000Y-96822000D01*
X140728000Y-96785000D01*
X140695000Y-96744000D01*
X140667000Y-96700000D01*
X140643000Y-96653000D01*
X140624000Y-96605000D01*
X140611000Y-96554000D01*
X140603000Y-96502000D01*
X140600000Y-96450000D01*
X140603000Y-96398000D01*
X140611000Y-96346000D01*
X140624000Y-96295000D01*
X140643000Y-96247000D01*
X140667000Y-96200000D01*
X140695000Y-96156000D01*
X140728000Y-96115000D01*
X140765000Y-96078000D01*
X140806000Y-96045000D01*
X140850000Y-96017000D01*
X140897000Y-95993000D01*
X140945000Y-95974000D01*
X140996000Y-95961000D01*
X141048000Y-95953000D01*
X141100000Y-95950000D01*
X142000000Y-95950000D01*
X142800000Y-95950000D01*
X142900000Y-95950000D01*
X142952000Y-95953000D01*
G36*
X142952000Y-95953000D02*
G01*
X143004000Y-95961000D01*
X143055000Y-95974000D01*
X143103000Y-95993000D01*
X143150000Y-96017000D01*
X143194000Y-96045000D01*
X143235000Y-96078000D01*
X143272000Y-96115000D01*
X143305000Y-96156000D01*
X143333000Y-96200000D01*
X143357000Y-96247000D01*
X143376000Y-96295000D01*
X143389000Y-96346000D01*
X143397000Y-96398000D01*
X143400000Y-96450000D01*
X143397000Y-96502000D01*
X143389000Y-96554000D01*
X143376000Y-96605000D01*
X143357000Y-96653000D01*
X143333000Y-96700000D01*
X143305000Y-96744000D01*
X143272000Y-96785000D01*
X143235000Y-96822000D01*
X143194000Y-96855000D01*
X143150000Y-96883000D01*
X143103000Y-96907000D01*
X143055000Y-96926000D01*
X143004000Y-96939000D01*
X142952000Y-96947000D01*
X142900000Y-96950000D01*
X141100000Y-96950000D01*
X141048000Y-96947000D01*
X140996000Y-96939000D01*
X140945000Y-96926000D01*
X140897000Y-96907000D01*
X140850000Y-96883000D01*
X140806000Y-96855000D01*
X140765000Y-96822000D01*
X140728000Y-96785000D01*
X140695000Y-96744000D01*
X140667000Y-96700000D01*
X140643000Y-96653000D01*
X140624000Y-96605000D01*
X140611000Y-96554000D01*
X140603000Y-96502000D01*
X140600000Y-96450000D01*
X140603000Y-96398000D01*
X140611000Y-96346000D01*
X140624000Y-96295000D01*
X140643000Y-96247000D01*
X140667000Y-96200000D01*
X140695000Y-96156000D01*
X140728000Y-96115000D01*
X140765000Y-96078000D01*
X140806000Y-96045000D01*
X140850000Y-96017000D01*
X140897000Y-95993000D01*
X140945000Y-95974000D01*
X140996000Y-95961000D01*
X141048000Y-95953000D01*
X141100000Y-95950000D01*
X142000000Y-95950000D01*
X142800000Y-95950000D01*
X142900000Y-95950000D01*
X142952000Y-95953000D01*
G37*
D11*
X155312500Y-63200000D03*
X153487500Y-63200000D03*
D12*
X162000000Y-57862500D03*
X162000000Y-56137500D03*
X151000000Y-59362500D03*
X151000000Y-57637500D03*
X147600000Y-64862500D03*
X147600000Y-63137500D03*
D13*
X144600000Y-62737300D03*
X144600000Y-69100000D03*
X140891600Y-62737300D03*
X140891600Y-69100000D03*
D14*
X157200000Y-62975000D03*
X157200000Y-65025000D03*
D15*
X159737500Y-66800000D03*
X161462500Y-66800000D03*
D16*
X173660000Y-69720000D03*
X175485000Y-69720000D03*
D17*
X151000000Y-72137500D03*
X151000000Y-73862500D03*
D18*
X148600000Y-69400000D03*
X153800000Y-69400000D03*
D19*
X159200000Y-63200000D03*
X161250000Y-63200000D03*
D20*
X172000000Y-76000000D03*
X170275000Y-76000000D03*
D11*
X145512500Y-71600000D03*
X143687500Y-71600000D03*
D21*
X153350000Y-56200000D03*
X153350000Y-58500000D03*
D22*
X159650000Y-58500000D03*
D21*
X153350000Y-60800000D03*
D12*
X156400000Y-74862500D03*
X156400000Y-73137500D03*
D17*
X169200000Y-69537500D03*
X169200000Y-71262500D03*
D23*
X153475000Y-65000000D03*
X155325000Y-65000000D03*
D16*
X152487500Y-72200000D03*
X154312500Y-72200000D03*
D20*
X151462500Y-63200000D03*
X149737500Y-63200000D03*
D24*
X163200000Y-78887500D03*
X163200000Y-80712500D03*
D20*
X151462500Y-65000000D03*
X149737500Y-65000000D03*
D15*
X149137500Y-76600000D03*
X150862500Y-76600000D03*
D20*
X166525000Y-78800000D03*
X164800000Y-78800000D03*
D16*
X161687500Y-60200000D03*
X163512500Y-60200000D03*
D20*
X155662500Y-76600000D03*
X153937500Y-76600000D03*
D25*
X172660000Y-72180000D03*
X172660000Y-72830001D03*
X172660000Y-73480000D03*
X172660000Y-74130001D03*
X175609999Y-74130001D03*
X175609999Y-73480000D03*
X175609999Y-72830001D03*
X175609999Y-72180000D03*
D12*
X147800000Y-74662500D03*
X147800000Y-72937500D03*
D24*
X157000000Y-66687500D03*
X157000000Y-68512500D03*
D26*
X159037500Y-70050000D03*
X159037500Y-70550000D03*
X159037500Y-71050000D03*
X159037500Y-71550000D03*
X159037500Y-72050000D03*
X159037500Y-72550000D03*
X159037500Y-73050000D03*
X159037500Y-73550000D03*
X159037500Y-74050000D03*
X159037500Y-74550000D03*
X159037500Y-75050000D03*
X159037500Y-75550000D03*
D27*
X160450000Y-76962500D03*
X160950000Y-76962500D03*
X161450000Y-76962500D03*
X161950000Y-76962500D03*
X162450000Y-76962500D03*
X162950000Y-76962500D03*
X163450000Y-76962500D03*
X163950000Y-76962500D03*
X164450000Y-76962500D03*
X164950000Y-76962500D03*
X165450000Y-76962500D03*
X165950000Y-76962500D03*
D26*
X167362500Y-75550000D03*
X167362500Y-75050000D03*
X167362500Y-74550000D03*
X167362500Y-74050000D03*
X167362500Y-73550000D03*
X167362500Y-73050000D03*
X167362500Y-72550000D03*
X167362500Y-72050000D03*
X167362500Y-71550000D03*
X167362500Y-71050000D03*
X167362500Y-70550000D03*
X167362500Y-70050000D03*
D27*
X165950000Y-68637500D03*
X165450000Y-68637500D03*
X164950000Y-68637500D03*
X164450000Y-68637500D03*
X163950000Y-68637500D03*
X163450000Y-68637500D03*
X162950000Y-68637500D03*
X162450000Y-68637500D03*
X161950000Y-68637500D03*
X161450000Y-68637500D03*
X160950000Y-68637500D03*
X160450000Y-68637500D03*
D28*
X163200000Y-66712500D03*
X163200000Y-64887500D03*
M02*
