G04 #@! TF.GenerationSoftware,KiCad,Pcbnew,9.0.0*
G04 #@! TF.CreationDate,2025-04-23T00:50:18-04:00*
G04 #@! TF.ProjectId,HallEffectManager,48616c6c-4566-4666-9563-744d616e6167,rev?*
G04 #@! TF.SameCoordinates,Original*
G04 #@! TF.FileFunction,Copper,L2,Bot*
G04 #@! TF.FilePolarity,Positive*
%FSLAX46Y46*%
G04 Gerber Fmt 4.6, Leading zero omitted, Abs format (unit mm)*
G04 Created by KiCad (PCBNEW 9.0.0) date 2025-04-23 00:50:18*
%MOMM*%
%LPD*%
G01*
G04 APERTURE LIST*
G04 Aperture macros list*
%AMRoundRect*
0 Rectangle with rounded corners*
0 $1 Rounding radius*
0 $2 $3 $4 $5 $6 $7 $8 $9 X,Y pos of 4 corners*
0 Add a 4 corners polygon primitive as box body*
4,1,4,$2,$3,$4,$5,$6,$7,$8,$9,$2,$3,0*
0 Add four circle primitives for the rounded corners*
1,1,$1+$1,$2,$3*
1,1,$1+$1,$4,$5*
1,1,$1+$1,$6,$7*
1,1,$1+$1,$8,$9*
0 Add four rect primitives between the rounded corners*
20,1,$1+$1,$2,$3,$4,$5,0*
20,1,$1+$1,$4,$5,$6,$7,0*
20,1,$1+$1,$6,$7,$8,$9,0*
20,1,$1+$1,$8,$9,$2,$3,0*%
G04 Aperture macros list end*
G04 #@! TA.AperFunction,ComponentPad*
%ADD10C,5.000000*%
G04 #@! TD*
G04 #@! TA.AperFunction,ComponentPad*
%ADD11C,1.219200*%
G04 #@! TD*
G04 #@! TA.AperFunction,ComponentPad*
%ADD12C,1.320800*%
G04 #@! TD*
G04 #@! TA.AperFunction,ComponentPad*
%ADD13C,1.270000*%
G04 #@! TD*
G04 #@! TA.AperFunction,SMDPad,CuDef*
%ADD14RoundRect,0.237500X-0.237500X0.250000X-0.237500X-0.250000X0.237500X-0.250000X0.237500X0.250000X0*%
G04 #@! TD*
G04 #@! TA.AperFunction,SMDPad,CuDef*
%ADD15RoundRect,0.200000X-0.750000X-0.200000X0.750000X-0.200000X0.750000X0.200000X-0.750000X0.200000X0*%
G04 #@! TD*
G04 #@! TA.AperFunction,ViaPad*
%ADD16C,0.600000*%
G04 #@! TD*
G04 #@! TA.AperFunction,Conductor*
%ADD17C,0.200000*%
G04 #@! TD*
G04 APERTURE END LIST*
D10*
X180750000Y-87750000D03*
D11*
X142400000Y-86100000D03*
X144400000Y-86100000D03*
X146400001Y-86100000D03*
X159800000Y-86082600D03*
X161800000Y-86082600D03*
X163800001Y-86082600D03*
D10*
X134000000Y-57750000D03*
D11*
X168500000Y-86100000D03*
X170500000Y-86100000D03*
X172500001Y-86100000D03*
D12*
X179232600Y-66750000D03*
X179232600Y-64749999D03*
X143250000Y-59267400D03*
X141249999Y-59267400D03*
D10*
X181000000Y-57500000D03*
X133750000Y-87750000D03*
D11*
X151099999Y-86100000D03*
X153099999Y-86100000D03*
X155100000Y-86100000D03*
D13*
X173600000Y-59400000D03*
X171600001Y-59400000D03*
X169600000Y-59400000D03*
X167600002Y-59400000D03*
D14*
X149600000Y-85387500D03*
X149600000Y-87212500D03*
X158200000Y-85287500D03*
X158200000Y-87112500D03*
D15*
X150900000Y-90750000D03*
X150900000Y-88850000D03*
X153900000Y-89800000D03*
X142600000Y-90450000D03*
X142600000Y-88550000D03*
X145600000Y-89500000D03*
D14*
X140700000Y-84987500D03*
X140700000Y-86812500D03*
X166900000Y-85187500D03*
X166900000Y-87012500D03*
D15*
X168400000Y-90450000D03*
X168400000Y-88550000D03*
X171400000Y-89500000D03*
X160500000Y-90550000D03*
X160500000Y-88650000D03*
X163500000Y-89600000D03*
D16*
X149250000Y-61000000D03*
X149250000Y-59500000D03*
X152600000Y-76600000D03*
X169200000Y-72500000D03*
X162600000Y-63800000D03*
X148200000Y-56800000D03*
X169300000Y-77200000D03*
X147800000Y-71700000D03*
X148200000Y-61800000D03*
X149800000Y-74000000D03*
X149600000Y-62000000D03*
X156400000Y-57200000D03*
X155407815Y-74007815D03*
X164488235Y-79988235D03*
X147900000Y-83300000D03*
X145700000Y-81600000D03*
X156100000Y-81600000D03*
X144300000Y-79800000D03*
X166400000Y-81600000D03*
X170800000Y-81600000D03*
X157600000Y-83400000D03*
X165500000Y-71000000D03*
X171300000Y-71800000D03*
X171000000Y-74500000D03*
X165500000Y-72000000D03*
X166200000Y-83400000D03*
X174600000Y-83400000D03*
X150600000Y-79800000D03*
X160600000Y-75600000D03*
X161600000Y-75000000D03*
X151424266Y-79824263D03*
X164437227Y-74762773D03*
X152265020Y-79832039D03*
X153072794Y-79872794D03*
X165600000Y-74800000D03*
D17*
X149250000Y-59500000D02*
X149250000Y-61000000D01*
X164488235Y-79988235D02*
X164488235Y-79111765D01*
X155407815Y-74007815D02*
X155192185Y-74007815D01*
X152600000Y-76600000D02*
X152400000Y-76600000D01*
X169300000Y-76700000D02*
X168100000Y-75500000D01*
X148400000Y-62000000D02*
X148200000Y-61800000D01*
X145600000Y-86900001D02*
X145600000Y-89500000D01*
X153900000Y-89800000D02*
X155100000Y-88600000D01*
X147800000Y-71700000D02*
X147937500Y-71837500D01*
X168807815Y-74007815D02*
X169200000Y-74400000D01*
X152400000Y-76600000D02*
X149800000Y-74000000D01*
X172500001Y-88399999D02*
X172500001Y-86100000D01*
X147937500Y-71837500D02*
X147937500Y-72937500D01*
X147937500Y-72937500D02*
X149000000Y-74000000D01*
X162112500Y-63800000D02*
X156400000Y-58087500D01*
X169300000Y-77200000D02*
X169300000Y-76700000D01*
X148200000Y-62200000D02*
X148200000Y-61800000D01*
X169200000Y-74400000D02*
X169200000Y-72500000D01*
X146400001Y-86100000D02*
X145600000Y-86900001D01*
X164488235Y-79111765D02*
X168100000Y-75500000D01*
X155192185Y-74007815D02*
X152600000Y-76600000D01*
X171400000Y-89500000D02*
X172500001Y-88399999D01*
X168100000Y-75500000D02*
X169200000Y-74400000D01*
X163500000Y-89600000D02*
X163500000Y-86382601D01*
X147800000Y-71700000D02*
X147800000Y-62600000D01*
X156400000Y-58087500D02*
X156400000Y-57200000D01*
X155100000Y-88600000D02*
X155100000Y-86100000D01*
X149600000Y-62000000D02*
X148400000Y-62000000D01*
X155407815Y-74007815D02*
X168807815Y-74007815D01*
X163500000Y-86382601D02*
X163800001Y-86082600D01*
X147800000Y-62600000D02*
X148200000Y-62200000D01*
X149000000Y-74000000D02*
X149800000Y-74000000D01*
X148200000Y-61800000D02*
X148200000Y-56800000D01*
X162600000Y-63800000D02*
X162112500Y-63800000D01*
X152010599Y-85189400D02*
X156846266Y-85189400D01*
X151099999Y-86100000D02*
X152010599Y-85189400D01*
X149132866Y-86176000D02*
X151023999Y-86176000D01*
X148146266Y-85189400D02*
X149132866Y-86176000D01*
X142400000Y-86100000D02*
X143310600Y-85189400D01*
X160710600Y-85172000D02*
X165628866Y-85172000D01*
X151023999Y-86176000D02*
X151099999Y-86100000D01*
X156846266Y-85189400D02*
X157739466Y-86082600D01*
X157739466Y-86082600D02*
X159800000Y-86082600D01*
X166556866Y-86100000D02*
X168500000Y-86100000D01*
X143310600Y-85189400D02*
X148146266Y-85189400D01*
X165628866Y-85172000D02*
X166556866Y-86100000D01*
X159800000Y-86082600D02*
X160710600Y-85172000D01*
X146900000Y-84300000D02*
X143000000Y-84300000D01*
X142312500Y-84987500D02*
X140700000Y-84987500D01*
X147900000Y-83300000D02*
X146900000Y-84300000D01*
X143000000Y-84300000D02*
X142312500Y-84987500D01*
X156100000Y-81600000D02*
X166400000Y-81600000D01*
X144300000Y-79800000D02*
X145700000Y-81200000D01*
X166400000Y-81600000D02*
X170800000Y-81600000D01*
X145700000Y-81600000D02*
X156100000Y-81600000D01*
X145700000Y-81200000D02*
X145700000Y-81600000D01*
X156600000Y-84400000D02*
X157600000Y-83400000D01*
X152900000Y-84400000D02*
X155100000Y-84400000D01*
X149600000Y-85387500D02*
X150587500Y-84400000D01*
X150587500Y-84400000D02*
X152900000Y-84400000D01*
X155100000Y-84400000D02*
X156600000Y-84400000D01*
X170349943Y-71000000D02*
X165500000Y-71000000D01*
X170349943Y-71000000D02*
X171149943Y-71800000D01*
X171149943Y-71800000D02*
X171300000Y-71800000D01*
X170399000Y-71899000D02*
X165601000Y-71899000D01*
X171000000Y-72500000D02*
X171000000Y-74500000D01*
X171000000Y-72500000D02*
X170399000Y-71899000D01*
X165601000Y-71899000D02*
X165500000Y-72000000D01*
X166200000Y-83600000D02*
X166200000Y-83400000D01*
X165400000Y-84400000D02*
X166200000Y-83600000D01*
X159087500Y-84400000D02*
X165400000Y-84400000D01*
X158200000Y-85287500D02*
X159087500Y-84400000D01*
X167787500Y-84300000D02*
X168200000Y-84300000D01*
X173700000Y-84300000D02*
X174600000Y-83400000D01*
X168200000Y-84300000D02*
X173700000Y-84300000D01*
X166900000Y-85187500D02*
X167787500Y-84300000D01*
X142600000Y-88550000D02*
X144400000Y-86750000D01*
X160600000Y-75600000D02*
X154800000Y-75600000D01*
X150600000Y-79800000D02*
X150679262Y-79800000D01*
X144400000Y-86750000D02*
X144400000Y-86100000D01*
X154800000Y-75600000D02*
X150600000Y-79800000D01*
X150900000Y-88850000D02*
X153099999Y-86650001D01*
X159849943Y-77200000D02*
X154048529Y-77200000D01*
X153099999Y-86650001D02*
X153099999Y-86100000D01*
X152950000Y-86100000D02*
X153099999Y-86100000D01*
X154048529Y-77200000D02*
X151424266Y-79824263D01*
X161600000Y-75000000D02*
X161600000Y-75449943D01*
X161600000Y-75449943D02*
X159849943Y-77200000D01*
X153497059Y-78600000D02*
X160600000Y-78600000D01*
X160600000Y-78600000D02*
X164437227Y-74762773D01*
X161800000Y-87350000D02*
X161800000Y-86082600D01*
X152265020Y-79832039D02*
X153497059Y-78600000D01*
X160500000Y-88650000D02*
X161800000Y-87350000D01*
X163200000Y-77200000D02*
X165600000Y-74800000D01*
X153072794Y-79872794D02*
X153944588Y-79001000D01*
X153944588Y-79001000D02*
X160433900Y-79001000D01*
X168400000Y-88200000D02*
X168400000Y-88550000D01*
X160766100Y-79001000D02*
X161001000Y-78766100D01*
X170500000Y-86100000D02*
X168400000Y-88200000D01*
X162567100Y-77200000D02*
X163200000Y-77200000D01*
X161001000Y-78766100D02*
X162567100Y-77200000D01*
X160433900Y-79001000D02*
X160766100Y-79001000D01*
X140700000Y-88550000D02*
X140700000Y-86812500D01*
X142600000Y-90450000D02*
X140700000Y-88550000D01*
X150900000Y-90750000D02*
X149600000Y-89450000D01*
X149600000Y-89450000D02*
X149600000Y-87212500D01*
X160500000Y-90550000D02*
X158200000Y-88250000D01*
X158200000Y-88250000D02*
X158200000Y-87112500D01*
X168400000Y-90450000D02*
X166900000Y-88950000D01*
X166900000Y-88950000D02*
X166900000Y-87012500D01*
G04 #@! TA.AperFunction,Conductor*
G36*
X171960590Y-84920185D02*
G01*
X172006345Y-84972989D01*
X172016289Y-85042147D01*
X171987264Y-85105703D01*
X171949847Y-85134984D01*
X171918444Y-85150984D01*
X171910390Y-85156835D01*
X171910390Y-85156836D01*
X172497955Y-85744400D01*
X172453185Y-85744400D01*
X172362745Y-85768634D01*
X172281658Y-85815450D01*
X172215451Y-85881657D01*
X172168635Y-85962744D01*
X172144401Y-86053184D01*
X172144401Y-86097953D01*
X171556836Y-85510388D01*
X171519127Y-85513357D01*
X171450750Y-85498993D01*
X171409079Y-85462625D01*
X171399682Y-85449691D01*
X171346737Y-85376818D01*
X171223182Y-85253263D01*
X171081819Y-85150557D01*
X171051256Y-85134984D01*
X171000461Y-85087010D01*
X170983666Y-85019189D01*
X171006203Y-84953054D01*
X171060919Y-84909603D01*
X171107552Y-84900500D01*
X171893551Y-84900500D01*
X171960590Y-84920185D01*
G37*
G04 #@! TD.AperFunction*
G04 #@! TA.AperFunction,Conductor*
G36*
X185342539Y-53120185D02*
G01*
X185388294Y-53172989D01*
X185399500Y-53224500D01*
X185399500Y-92075500D01*
X185379815Y-92142539D01*
X185327011Y-92188294D01*
X185275500Y-92199500D01*
X129424500Y-92199500D01*
X129357461Y-92179815D01*
X129311706Y-92127011D01*
X129300500Y-92075500D01*
X129300500Y-87581491D01*
X130749500Y-87581491D01*
X130749500Y-87918508D01*
X130787231Y-88253381D01*
X130787233Y-88253397D01*
X130862223Y-88581953D01*
X130862227Y-88581965D01*
X130973532Y-88900054D01*
X131119752Y-89203683D01*
X131119754Y-89203686D01*
X131299054Y-89489039D01*
X131432132Y-89655914D01*
X131472490Y-89706522D01*
X131509175Y-89752523D01*
X131747477Y-89990825D01*
X132010961Y-90200946D01*
X132296314Y-90380246D01*
X132296316Y-90380247D01*
X132356039Y-90409008D01*
X132599949Y-90526469D01*
X132838848Y-90610063D01*
X132918034Y-90637772D01*
X132918046Y-90637776D01*
X133246606Y-90712767D01*
X133581492Y-90750499D01*
X133581493Y-90750500D01*
X133581496Y-90750500D01*
X133918507Y-90750500D01*
X133918507Y-90750499D01*
X134253394Y-90712767D01*
X134581954Y-90637776D01*
X134900051Y-90526469D01*
X135203686Y-90380246D01*
X135489039Y-90200946D01*
X135752523Y-89990825D01*
X135990825Y-89752523D01*
X136200946Y-89489039D01*
X136380246Y-89203686D01*
X136526469Y-88900051D01*
X136637776Y-88581954D01*
X136712767Y-88253394D01*
X136750500Y-87918504D01*
X136750500Y-87581496D01*
X136712767Y-87246606D01*
X136637776Y-86918046D01*
X136636123Y-86913323D01*
X136589243Y-86779348D01*
X136526469Y-86599949D01*
X136380246Y-86296314D01*
X136200946Y-86010961D01*
X135990825Y-85747477D01*
X135752523Y-85509175D01*
X135489039Y-85299054D01*
X135253388Y-85150984D01*
X135203683Y-85119752D01*
X134900054Y-84973532D01*
X134581965Y-84862227D01*
X134581953Y-84862223D01*
X134335868Y-84806057D01*
X134253397Y-84787233D01*
X134253381Y-84787231D01*
X133918508Y-84749500D01*
X133918504Y-84749500D01*
X133581496Y-84749500D01*
X133581491Y-84749500D01*
X133246618Y-84787231D01*
X133246602Y-84787233D01*
X132918046Y-84862223D01*
X132918034Y-84862227D01*
X132599945Y-84973532D01*
X132296316Y-85119752D01*
X132010962Y-85299053D01*
X131747477Y-85509174D01*
X131509174Y-85747477D01*
X131299053Y-86010962D01*
X131119752Y-86296316D01*
X130973532Y-86599945D01*
X130862227Y-86918034D01*
X130862223Y-86918046D01*
X130787233Y-87246602D01*
X130787231Y-87246618D01*
X130749500Y-87581491D01*
X129300500Y-87581491D01*
X129300500Y-84688315D01*
X139724500Y-84688315D01*
X139724500Y-85286669D01*
X139724501Y-85286687D01*
X139734825Y-85387752D01*
X139755350Y-85449691D01*
X139789092Y-85551516D01*
X139864678Y-85674061D01*
X139879661Y-85698351D01*
X139993629Y-85812319D01*
X140027114Y-85873642D01*
X140022130Y-85943334D01*
X139993629Y-85987681D01*
X139879661Y-86101648D01*
X139789093Y-86248481D01*
X139789091Y-86248486D01*
X139773242Y-86296316D01*
X139734826Y-86412247D01*
X139734826Y-86412248D01*
X139734825Y-86412248D01*
X139724500Y-86513315D01*
X139724500Y-87111669D01*
X139724501Y-87111687D01*
X139734825Y-87212752D01*
X139789092Y-87376515D01*
X139789093Y-87376518D01*
X139811443Y-87412753D01*
X139879660Y-87523350D01*
X140001650Y-87645340D01*
X140040597Y-87669362D01*
X140087320Y-87721307D01*
X140099500Y-87774900D01*
X140099500Y-88463330D01*
X140099499Y-88463348D01*
X140099499Y-88629054D01*
X140099498Y-88629054D01*
X140099499Y-88629057D01*
X140140423Y-88781785D01*
X140140424Y-88781786D01*
X140156468Y-88809577D01*
X140156469Y-88809578D01*
X140219475Y-88918709D01*
X140219481Y-88918717D01*
X140338349Y-89037585D01*
X140338355Y-89037590D01*
X141166497Y-89865733D01*
X141199982Y-89927056D01*
X141197202Y-89990303D01*
X141195885Y-89994530D01*
X141155914Y-90122804D01*
X141150321Y-90184357D01*
X141149500Y-90193386D01*
X141149500Y-90706613D01*
X141155913Y-90777192D01*
X141155913Y-90777194D01*
X141155914Y-90777196D01*
X141206522Y-90939606D01*
X141289698Y-91077196D01*
X141294530Y-91085188D01*
X141414811Y-91205469D01*
X141414813Y-91205470D01*
X141414815Y-91205472D01*
X141560394Y-91293478D01*
X141722804Y-91344086D01*
X141793384Y-91350500D01*
X141793387Y-91350500D01*
X143406613Y-91350500D01*
X143406616Y-91350500D01*
X143477196Y-91344086D01*
X143639606Y-91293478D01*
X143785185Y-91205472D01*
X143905472Y-91085185D01*
X143993478Y-90939606D01*
X144044086Y-90777196D01*
X144050500Y-90706616D01*
X144050500Y-90193384D01*
X144049681Y-90184382D01*
X144063215Y-90115841D01*
X144111659Y-90065492D01*
X144179633Y-90049327D01*
X144245555Y-90072478D01*
X144279288Y-90109008D01*
X144294925Y-90134874D01*
X144294928Y-90134878D01*
X144415122Y-90255072D01*
X144560604Y-90343019D01*
X144560603Y-90343019D01*
X144722894Y-90393590D01*
X144722893Y-90393590D01*
X144793427Y-90399999D01*
X145349999Y-90399999D01*
X145850000Y-90399999D01*
X146406581Y-90399999D01*
X146477102Y-90393591D01*
X146477107Y-90393590D01*
X146639396Y-90343018D01*
X146784877Y-90255072D01*
X146905072Y-90134877D01*
X146993019Y-89989395D01*
X147043590Y-89827106D01*
X147050000Y-89756572D01*
X147050000Y-89750000D01*
X145850000Y-89750000D01*
X145850000Y-90399999D01*
X145349999Y-90399999D01*
X145350000Y-90399998D01*
X145350000Y-89750000D01*
X144150001Y-89750000D01*
X144150001Y-89756581D01*
X144150808Y-89765470D01*
X144137266Y-89834015D01*
X144088815Y-89884357D01*
X144020839Y-89900513D01*
X143954919Y-89877353D01*
X143921199Y-89840831D01*
X143912902Y-89827106D01*
X143905472Y-89814815D01*
X143905471Y-89814814D01*
X143905468Y-89814810D01*
X143785188Y-89694530D01*
X143783448Y-89693478D01*
X143639606Y-89606522D01*
X143639603Y-89606521D01*
X143638935Y-89606117D01*
X143591747Y-89554589D01*
X143579909Y-89485730D01*
X143607178Y-89421401D01*
X143638935Y-89393883D01*
X143639603Y-89393478D01*
X143639606Y-89393478D01*
X143785185Y-89305472D01*
X143905472Y-89185185D01*
X143921200Y-89159166D01*
X143972725Y-89111981D01*
X144041584Y-89100141D01*
X144105913Y-89127408D01*
X144145288Y-89185126D01*
X144150808Y-89234530D01*
X144150000Y-89243428D01*
X144150000Y-89250000D01*
X145350000Y-89250000D01*
X145850000Y-89250000D01*
X147049999Y-89250000D01*
X147049999Y-89243417D01*
X147043591Y-89172897D01*
X147043590Y-89172892D01*
X146993018Y-89010603D01*
X146905072Y-88865122D01*
X146784877Y-88744927D01*
X146639395Y-88656980D01*
X146639396Y-88656980D01*
X146477105Y-88606409D01*
X146477106Y-88606409D01*
X146406572Y-88600000D01*
X145850000Y-88600000D01*
X145850000Y-89250000D01*
X145350000Y-89250000D01*
X145350000Y-88600000D01*
X144793417Y-88600000D01*
X144722897Y-88606408D01*
X144722892Y-88606409D01*
X144560603Y-88656981D01*
X144415122Y-88744927D01*
X144294928Y-88865121D01*
X144294925Y-88865125D01*
X144279287Y-88890993D01*
X144227758Y-88938179D01*
X144158898Y-88950016D01*
X144094570Y-88922745D01*
X144055198Y-88865025D01*
X144049681Y-88815618D01*
X144050500Y-88806616D01*
X144050500Y-88293384D01*
X144044086Y-88222804D01*
X144002796Y-88090300D01*
X144001647Y-88020441D01*
X144033500Y-87965733D01*
X144768713Y-87230521D01*
X144768716Y-87230520D01*
X144880520Y-87118716D01*
X144884412Y-87111972D01*
X144895335Y-87100805D01*
X144912543Y-87091158D01*
X144926772Y-87077494D01*
X144927421Y-87077159D01*
X144981819Y-87049443D01*
X145123182Y-86946737D01*
X145246737Y-86823182D01*
X145312109Y-86733204D01*
X145315474Y-86729301D01*
X145340658Y-86713023D01*
X145364408Y-86694709D01*
X145370348Y-86693833D01*
X145374153Y-86691374D01*
X145387259Y-86691340D01*
X145419126Y-86686642D01*
X145456837Y-86689609D01*
X146044401Y-86102045D01*
X146044401Y-86146816D01*
X146068635Y-86237256D01*
X146115451Y-86318343D01*
X146181658Y-86384550D01*
X146262745Y-86431366D01*
X146353185Y-86455600D01*
X146397954Y-86455600D01*
X145810389Y-87043162D01*
X145810390Y-87043163D01*
X145818434Y-87049008D01*
X145818446Y-87049015D01*
X145974062Y-87128307D01*
X145974061Y-87128307D01*
X146140167Y-87182277D01*
X146312669Y-87209600D01*
X146487333Y-87209600D01*
X146659834Y-87182277D01*
X146825939Y-87128307D01*
X146981555Y-87049016D01*
X146981560Y-87049012D01*
X146989611Y-87043162D01*
X146402049Y-86455600D01*
X146446817Y-86455600D01*
X146537257Y-86431366D01*
X146618344Y-86384550D01*
X146684551Y-86318343D01*
X146731367Y-86237256D01*
X146755601Y-86146816D01*
X146755601Y-86102047D01*
X147343163Y-86689609D01*
X147349013Y-86681559D01*
X147349017Y-86681554D01*
X147428308Y-86525938D01*
X147482278Y-86359833D01*
X147509601Y-86187332D01*
X147509601Y-86012667D01*
X147497030Y-85933298D01*
X147499425Y-85914758D01*
X147496765Y-85896253D01*
X147503811Y-85880823D01*
X147505985Y-85864005D01*
X147518022Y-85849705D01*
X147525790Y-85832697D01*
X147540060Y-85823526D01*
X147550981Y-85810553D01*
X147568839Y-85805030D01*
X147584568Y-85794923D01*
X147616271Y-85790364D01*
X147617732Y-85789913D01*
X147619503Y-85789900D01*
X147846169Y-85789900D01*
X147913208Y-85809585D01*
X147933850Y-85826219D01*
X148648005Y-86540374D01*
X148648026Y-86540397D01*
X148651690Y-86544061D01*
X148652162Y-86544926D01*
X148655583Y-86548672D01*
X148655593Y-86548684D01*
X148654645Y-86549473D01*
X148685175Y-86605384D01*
X148681715Y-86670746D01*
X148634826Y-86812247D01*
X148634825Y-86812248D01*
X148624500Y-86913315D01*
X148624500Y-87511669D01*
X148624501Y-87511687D01*
X148634825Y-87612752D01*
X148665624Y-87705694D01*
X148689092Y-87776516D01*
X148779660Y-87923350D01*
X148901650Y-88045340D01*
X148940597Y-88069362D01*
X148987320Y-88121307D01*
X148999500Y-88174900D01*
X148999500Y-89363330D01*
X148999499Y-89363348D01*
X148999499Y-89529054D01*
X148999498Y-89529054D01*
X149003347Y-89543417D01*
X149020147Y-89606117D01*
X149040424Y-89681787D01*
X149054704Y-89706520D01*
X149054705Y-89706522D01*
X149119477Y-89818712D01*
X149119481Y-89818717D01*
X149238349Y-89937585D01*
X149238355Y-89937590D01*
X149466497Y-90165732D01*
X149499982Y-90227055D01*
X149497202Y-90290302D01*
X149478810Y-90349327D01*
X149463021Y-90399998D01*
X149455914Y-90422805D01*
X149449500Y-90493386D01*
X149449500Y-91006613D01*
X149455913Y-91077192D01*
X149455913Y-91077194D01*
X149455914Y-91077196D01*
X149489564Y-91185185D01*
X149506522Y-91239606D01*
X149594530Y-91385188D01*
X149714811Y-91505469D01*
X149714813Y-91505470D01*
X149714815Y-91505472D01*
X149860394Y-91593478D01*
X150022804Y-91644086D01*
X150093384Y-91650500D01*
X150093387Y-91650500D01*
X151706613Y-91650500D01*
X151706616Y-91650500D01*
X151777196Y-91644086D01*
X151939606Y-91593478D01*
X152085185Y-91505472D01*
X152205472Y-91385185D01*
X152293478Y-91239606D01*
X152344086Y-91077196D01*
X152350500Y-91006616D01*
X152350500Y-90493384D01*
X152349681Y-90484382D01*
X152363215Y-90415841D01*
X152411659Y-90365492D01*
X152479633Y-90349327D01*
X152545555Y-90372478D01*
X152579288Y-90409008D01*
X152594925Y-90434874D01*
X152594928Y-90434878D01*
X152715122Y-90555072D01*
X152860604Y-90643019D01*
X152860603Y-90643019D01*
X153022894Y-90693590D01*
X153022893Y-90693590D01*
X153093427Y-90699999D01*
X153649999Y-90699999D01*
X154150000Y-90699999D01*
X154706581Y-90699999D01*
X154777102Y-90693591D01*
X154777107Y-90693590D01*
X154939396Y-90643018D01*
X155084877Y-90555072D01*
X155205072Y-90434877D01*
X155293019Y-90289395D01*
X155343590Y-90127106D01*
X155350000Y-90056572D01*
X155350000Y-90050000D01*
X154150000Y-90050000D01*
X154150000Y-90699999D01*
X153649999Y-90699999D01*
X153650000Y-90699998D01*
X153650000Y-90050000D01*
X152450001Y-90050000D01*
X152450001Y-90056581D01*
X152450808Y-90065470D01*
X152437266Y-90134015D01*
X152388815Y-90184357D01*
X152320839Y-90200513D01*
X152254919Y-90177353D01*
X152221199Y-90140831D01*
X152205472Y-90114815D01*
X152205471Y-90114814D01*
X152205468Y-90114810D01*
X152085188Y-89994530D01*
X152085185Y-89994528D01*
X151939606Y-89906522D01*
X151939603Y-89906521D01*
X151938935Y-89906117D01*
X151891747Y-89854589D01*
X151879909Y-89785730D01*
X151907178Y-89721401D01*
X151938935Y-89693883D01*
X151939603Y-89693478D01*
X151939606Y-89693478D01*
X152085185Y-89605472D01*
X152205472Y-89485185D01*
X152221200Y-89459166D01*
X152272725Y-89411981D01*
X152341584Y-89400141D01*
X152405913Y-89427408D01*
X152445288Y-89485126D01*
X152450808Y-89534530D01*
X152450000Y-89543428D01*
X152450000Y-89550000D01*
X153650000Y-89550000D01*
X154150000Y-89550000D01*
X155349999Y-89550000D01*
X155349999Y-89543417D01*
X155343591Y-89472897D01*
X155343590Y-89472892D01*
X155293018Y-89310603D01*
X155205072Y-89165122D01*
X155084877Y-89044927D01*
X154939395Y-88956980D01*
X154939396Y-88956980D01*
X154777105Y-88906409D01*
X154777106Y-88906409D01*
X154706572Y-88900000D01*
X154150000Y-88900000D01*
X154150000Y-89550000D01*
X153650000Y-89550000D01*
X153650000Y-88900000D01*
X153093417Y-88900000D01*
X153022897Y-88906408D01*
X153022892Y-88906409D01*
X152860603Y-88956981D01*
X152715122Y-89044927D01*
X152594928Y-89165121D01*
X152594925Y-89165125D01*
X152579287Y-89190993D01*
X152527758Y-89238179D01*
X152458898Y-89250016D01*
X152394570Y-89222745D01*
X152355198Y-89165025D01*
X152349681Y-89115618D01*
X152350500Y-89106616D01*
X152350500Y-88593384D01*
X152344086Y-88522804D01*
X152302796Y-88390300D01*
X152301647Y-88320441D01*
X152333500Y-88265733D01*
X153422622Y-87176611D01*
X153471984Y-87146363D01*
X153526124Y-87128772D01*
X153526130Y-87128770D01*
X153527039Y-87128307D01*
X153681818Y-87049443D01*
X153823181Y-86946737D01*
X153946736Y-86823182D01*
X154012108Y-86733204D01*
X154015473Y-86729301D01*
X154040657Y-86713023D01*
X154064407Y-86694709D01*
X154070347Y-86693833D01*
X154074152Y-86691374D01*
X154087258Y-86691340D01*
X154119125Y-86686642D01*
X154156836Y-86689609D01*
X154744400Y-86102045D01*
X154744400Y-86146816D01*
X154768634Y-86237256D01*
X154815450Y-86318343D01*
X154881657Y-86384550D01*
X154962744Y-86431366D01*
X155053184Y-86455600D01*
X155097953Y-86455600D01*
X154510388Y-87043162D01*
X154510389Y-87043163D01*
X154518433Y-87049008D01*
X154518445Y-87049015D01*
X154674061Y-87128307D01*
X154674060Y-87128307D01*
X154840166Y-87182277D01*
X155012668Y-87209600D01*
X155187332Y-87209600D01*
X155359833Y-87182277D01*
X155525938Y-87128307D01*
X155681554Y-87049016D01*
X155681559Y-87049012D01*
X155689610Y-87043162D01*
X155102048Y-86455600D01*
X155146816Y-86455600D01*
X155237256Y-86431366D01*
X155318343Y-86384550D01*
X155384550Y-86318343D01*
X155431366Y-86237256D01*
X155455600Y-86146816D01*
X155455600Y-86102047D01*
X156043162Y-86689609D01*
X156049012Y-86681559D01*
X156049016Y-86681554D01*
X156128307Y-86525938D01*
X156182277Y-86359833D01*
X156209600Y-86187332D01*
X156209600Y-86012667D01*
X156197029Y-85933298D01*
X156199424Y-85914758D01*
X156196764Y-85896253D01*
X156203810Y-85880823D01*
X156205984Y-85864005D01*
X156218021Y-85849705D01*
X156225789Y-85832697D01*
X156240059Y-85823526D01*
X156250980Y-85810553D01*
X156268838Y-85805030D01*
X156284567Y-85794923D01*
X156316270Y-85790364D01*
X156317731Y-85789913D01*
X156319502Y-85789900D01*
X156546169Y-85789900D01*
X156613208Y-85809585D01*
X156633850Y-85826219D01*
X157251690Y-86444060D01*
X157285175Y-86505383D01*
X157281715Y-86570745D01*
X157234826Y-86712247D01*
X157234825Y-86712248D01*
X157224500Y-86813315D01*
X157224500Y-87411669D01*
X157224501Y-87411687D01*
X157234825Y-87512752D01*
X157267962Y-87612751D01*
X157289092Y-87676516D01*
X157379660Y-87823350D01*
X157501650Y-87945340D01*
X157540597Y-87969362D01*
X157547419Y-87976947D01*
X157556703Y-87981187D01*
X157570390Y-88002485D01*
X157587320Y-88021307D01*
X157589964Y-88032943D01*
X157594477Y-88039965D01*
X157599500Y-88074900D01*
X157599500Y-88163330D01*
X157599499Y-88163348D01*
X157599499Y-88329054D01*
X157599498Y-88329054D01*
X157640424Y-88481787D01*
X157658234Y-88512634D01*
X157658235Y-88512637D01*
X157719475Y-88618709D01*
X157719481Y-88618717D01*
X157838349Y-88737585D01*
X157838355Y-88737590D01*
X159066497Y-89965732D01*
X159099982Y-90027055D01*
X159097202Y-90090302D01*
X159083312Y-90134878D01*
X159055914Y-90222804D01*
X159055593Y-90226342D01*
X159049500Y-90293386D01*
X159049500Y-90806613D01*
X159055913Y-90877192D01*
X159055913Y-90877194D01*
X159055914Y-90877196D01*
X159096241Y-91006613D01*
X159106522Y-91039606D01*
X159194530Y-91185188D01*
X159314811Y-91305469D01*
X159314813Y-91305470D01*
X159314815Y-91305472D01*
X159460394Y-91393478D01*
X159622804Y-91444086D01*
X159693384Y-91450500D01*
X159693387Y-91450500D01*
X161306613Y-91450500D01*
X161306616Y-91450500D01*
X161377196Y-91444086D01*
X161539606Y-91393478D01*
X161685185Y-91305472D01*
X161805472Y-91185185D01*
X161893478Y-91039606D01*
X161944086Y-90877196D01*
X161950500Y-90806616D01*
X161950500Y-90293384D01*
X161949681Y-90284382D01*
X161963215Y-90215841D01*
X162011659Y-90165492D01*
X162079633Y-90149327D01*
X162145555Y-90172478D01*
X162179288Y-90209008D01*
X162194925Y-90234874D01*
X162194928Y-90234878D01*
X162315122Y-90355072D01*
X162460604Y-90443019D01*
X162460603Y-90443019D01*
X162622894Y-90493590D01*
X162622893Y-90493590D01*
X162693427Y-90499999D01*
X163249999Y-90499999D01*
X163750000Y-90499999D01*
X164306581Y-90499999D01*
X164377102Y-90493591D01*
X164377107Y-90493590D01*
X164539396Y-90443018D01*
X164684877Y-90355072D01*
X164805072Y-90234877D01*
X164893019Y-90089395D01*
X164943590Y-89927106D01*
X164950000Y-89856572D01*
X164950000Y-89850000D01*
X163750000Y-89850000D01*
X163750000Y-90499999D01*
X163249999Y-90499999D01*
X163250000Y-90499998D01*
X163250000Y-89850000D01*
X162050001Y-89850000D01*
X162050001Y-89856581D01*
X162050808Y-89865470D01*
X162037266Y-89934015D01*
X161988815Y-89984357D01*
X161920839Y-90000513D01*
X161854919Y-89977353D01*
X161821199Y-89940831D01*
X161817079Y-89934015D01*
X161805472Y-89914815D01*
X161805471Y-89914814D01*
X161805468Y-89914810D01*
X161685188Y-89794530D01*
X161622398Y-89756572D01*
X161539606Y-89706522D01*
X161539603Y-89706521D01*
X161538935Y-89706117D01*
X161491747Y-89654589D01*
X161479909Y-89585730D01*
X161507178Y-89521401D01*
X161538935Y-89493883D01*
X161539603Y-89493478D01*
X161539606Y-89493478D01*
X161685185Y-89405472D01*
X161805472Y-89285185D01*
X161821200Y-89259166D01*
X161872725Y-89211981D01*
X161941584Y-89200141D01*
X162005913Y-89227408D01*
X162045288Y-89285126D01*
X162050808Y-89334530D01*
X162050000Y-89343428D01*
X162050000Y-89350000D01*
X163250000Y-89350000D01*
X163750000Y-89350000D01*
X164949999Y-89350000D01*
X164949999Y-89343417D01*
X164943591Y-89272897D01*
X164943590Y-89272892D01*
X164893018Y-89110603D01*
X164805072Y-88965122D01*
X164684877Y-88844927D01*
X164539395Y-88756980D01*
X164539396Y-88756980D01*
X164377105Y-88706409D01*
X164377106Y-88706409D01*
X164306572Y-88700000D01*
X163750000Y-88700000D01*
X163750000Y-89350000D01*
X163250000Y-89350000D01*
X163250000Y-88700000D01*
X162693417Y-88700000D01*
X162622897Y-88706408D01*
X162622892Y-88706409D01*
X162460603Y-88756981D01*
X162315122Y-88844927D01*
X162194928Y-88965121D01*
X162194925Y-88965125D01*
X162179287Y-88990993D01*
X162127758Y-89038179D01*
X162058898Y-89050016D01*
X161994570Y-89022745D01*
X161955198Y-88965025D01*
X161949681Y-88915618D01*
X161950500Y-88906616D01*
X161950500Y-88393384D01*
X161944086Y-88322804D01*
X161902796Y-88190300D01*
X161901647Y-88120442D01*
X161933500Y-88065734D01*
X162280520Y-87718716D01*
X162359577Y-87581784D01*
X162400501Y-87429057D01*
X162400501Y-87270942D01*
X162400501Y-87263347D01*
X162400500Y-87263329D01*
X162400500Y-87081651D01*
X162420185Y-87014612D01*
X162451616Y-86981332D01*
X162470004Y-86967973D01*
X162523182Y-86929337D01*
X162646737Y-86805782D01*
X162709079Y-86719974D01*
X162764408Y-86677309D01*
X162819126Y-86669242D01*
X162856837Y-86672209D01*
X163444401Y-86084645D01*
X163444401Y-86129416D01*
X163468635Y-86219856D01*
X163515451Y-86300943D01*
X163581658Y-86367150D01*
X163662745Y-86413966D01*
X163753185Y-86438200D01*
X163797954Y-86438200D01*
X163210389Y-87025762D01*
X163210390Y-87025763D01*
X163218434Y-87031608D01*
X163218446Y-87031615D01*
X163374062Y-87110907D01*
X163374061Y-87110907D01*
X163540167Y-87164877D01*
X163712669Y-87192200D01*
X163887333Y-87192200D01*
X164059834Y-87164877D01*
X164225939Y-87110907D01*
X164381555Y-87031616D01*
X164381560Y-87031612D01*
X164389611Y-87025762D01*
X163802049Y-86438200D01*
X163846817Y-86438200D01*
X163937257Y-86413966D01*
X164018344Y-86367150D01*
X164084551Y-86300943D01*
X164131367Y-86219856D01*
X164155601Y-86129416D01*
X164155601Y-86084647D01*
X164743163Y-86672209D01*
X164749013Y-86664159D01*
X164749017Y-86664154D01*
X164828308Y-86508538D01*
X164882278Y-86342433D01*
X164909601Y-86169932D01*
X164909601Y-85995267D01*
X164897030Y-85915898D01*
X164905985Y-85846605D01*
X164950981Y-85793153D01*
X165017732Y-85772513D01*
X165019503Y-85772500D01*
X165328769Y-85772500D01*
X165395808Y-85792185D01*
X165416450Y-85808819D01*
X165951690Y-86344059D01*
X165985175Y-86405382D01*
X165981715Y-86470743D01*
X165934826Y-86612244D01*
X165934825Y-86612248D01*
X165924500Y-86713315D01*
X165924500Y-87311669D01*
X165924501Y-87311687D01*
X165934825Y-87412752D01*
X165989092Y-87576515D01*
X165989093Y-87576518D01*
X166011443Y-87612753D01*
X166079660Y-87723350D01*
X166201650Y-87845340D01*
X166240597Y-87869362D01*
X166287320Y-87921307D01*
X166299500Y-87974900D01*
X166299500Y-88863330D01*
X166299499Y-88863348D01*
X166299499Y-89029054D01*
X166299498Y-89029054D01*
X166340423Y-89181785D01*
X166369358Y-89231900D01*
X166369359Y-89231904D01*
X166369360Y-89231904D01*
X166419479Y-89318714D01*
X166419481Y-89318717D01*
X166538349Y-89437585D01*
X166538355Y-89437590D01*
X166966497Y-89865732D01*
X166999982Y-89927055D01*
X166997202Y-89990302D01*
X166975361Y-90060394D01*
X166955914Y-90122804D01*
X166950321Y-90184357D01*
X166949500Y-90193386D01*
X166949500Y-90706613D01*
X166955913Y-90777192D01*
X166955913Y-90777194D01*
X166955914Y-90777196D01*
X167006522Y-90939606D01*
X167089698Y-91077196D01*
X167094530Y-91085188D01*
X167214811Y-91205469D01*
X167214813Y-91205470D01*
X167214815Y-91205472D01*
X167360394Y-91293478D01*
X167522804Y-91344086D01*
X167593384Y-91350500D01*
X167593387Y-91350500D01*
X169206613Y-91350500D01*
X169206616Y-91350500D01*
X169277196Y-91344086D01*
X169439606Y-91293478D01*
X169585185Y-91205472D01*
X169705472Y-91085185D01*
X169793478Y-90939606D01*
X169844086Y-90777196D01*
X169850500Y-90706616D01*
X169850500Y-90193384D01*
X169849681Y-90184382D01*
X169863215Y-90115841D01*
X169911659Y-90065492D01*
X169979633Y-90049327D01*
X170045555Y-90072478D01*
X170079288Y-90109008D01*
X170094925Y-90134874D01*
X170094928Y-90134878D01*
X170215122Y-90255072D01*
X170360604Y-90343019D01*
X170360603Y-90343019D01*
X170522894Y-90393590D01*
X170522893Y-90393590D01*
X170593427Y-90399999D01*
X171149999Y-90399999D01*
X171650000Y-90399999D01*
X172206581Y-90399999D01*
X172277102Y-90393591D01*
X172277107Y-90393590D01*
X172439396Y-90343018D01*
X172584877Y-90255072D01*
X172705072Y-90134877D01*
X172793019Y-89989395D01*
X172843590Y-89827106D01*
X172850000Y-89756572D01*
X172850000Y-89750000D01*
X171650000Y-89750000D01*
X171650000Y-90399999D01*
X171149999Y-90399999D01*
X171150000Y-90399998D01*
X171150000Y-89750000D01*
X169950001Y-89750000D01*
X169950001Y-89756581D01*
X169950808Y-89765470D01*
X169937266Y-89834015D01*
X169888815Y-89884357D01*
X169820839Y-89900513D01*
X169754919Y-89877353D01*
X169721199Y-89840831D01*
X169712902Y-89827106D01*
X169705472Y-89814815D01*
X169705471Y-89814814D01*
X169705468Y-89814810D01*
X169585188Y-89694530D01*
X169583448Y-89693478D01*
X169439606Y-89606522D01*
X169439603Y-89606521D01*
X169438935Y-89606117D01*
X169391747Y-89554589D01*
X169379909Y-89485730D01*
X169407178Y-89421401D01*
X169438935Y-89393883D01*
X169439603Y-89393478D01*
X169439606Y-89393478D01*
X169585185Y-89305472D01*
X169705472Y-89185185D01*
X169721200Y-89159166D01*
X169772725Y-89111981D01*
X169841584Y-89100141D01*
X169905913Y-89127408D01*
X169945288Y-89185126D01*
X169950808Y-89234530D01*
X169950000Y-89243428D01*
X169950000Y-89250000D01*
X171150000Y-89250000D01*
X171650000Y-89250000D01*
X172849999Y-89250000D01*
X172849999Y-89243417D01*
X172843591Y-89172897D01*
X172843590Y-89172892D01*
X172793018Y-89010603D01*
X172705072Y-88865122D01*
X172584877Y-88744927D01*
X172439395Y-88656980D01*
X172439396Y-88656980D01*
X172277105Y-88606409D01*
X172277106Y-88606409D01*
X172206572Y-88600000D01*
X171650000Y-88600000D01*
X171650000Y-89250000D01*
X171150000Y-89250000D01*
X171150000Y-88600000D01*
X170593417Y-88600000D01*
X170522897Y-88606408D01*
X170522892Y-88606409D01*
X170360603Y-88656981D01*
X170215122Y-88744927D01*
X170094928Y-88865121D01*
X170094925Y-88865125D01*
X170079287Y-88890993D01*
X170027758Y-88938179D01*
X169958898Y-88950016D01*
X169894570Y-88922745D01*
X169855198Y-88865025D01*
X169849681Y-88815618D01*
X169850500Y-88806616D01*
X169850500Y-88293384D01*
X169844086Y-88222804D01*
X169793478Y-88060394D01*
X169705472Y-87914815D01*
X169705470Y-87914813D01*
X169705469Y-87914811D01*
X169700843Y-87908906D01*
X169702510Y-87907599D01*
X169674142Y-87855646D01*
X169679126Y-87785954D01*
X169707625Y-87741609D01*
X169867743Y-87581491D01*
X177749500Y-87581491D01*
X177749500Y-87918508D01*
X177787231Y-88253381D01*
X177787233Y-88253397D01*
X177862223Y-88581953D01*
X177862227Y-88581965D01*
X177973532Y-88900054D01*
X178119752Y-89203683D01*
X178119754Y-89203686D01*
X178299054Y-89489039D01*
X178432132Y-89655914D01*
X178472490Y-89706522D01*
X178509175Y-89752523D01*
X178747477Y-89990825D01*
X179010961Y-90200946D01*
X179296314Y-90380246D01*
X179296316Y-90380247D01*
X179356039Y-90409008D01*
X179599949Y-90526469D01*
X179838848Y-90610063D01*
X179918034Y-90637772D01*
X179918046Y-90637776D01*
X180246606Y-90712767D01*
X180581492Y-90750499D01*
X180581493Y-90750500D01*
X180581496Y-90750500D01*
X180918507Y-90750500D01*
X180918507Y-90750499D01*
X181253394Y-90712767D01*
X181581954Y-90637776D01*
X181900051Y-90526469D01*
X182203686Y-90380246D01*
X182489039Y-90200946D01*
X182752523Y-89990825D01*
X182990825Y-89752523D01*
X183200946Y-89489039D01*
X183380246Y-89203686D01*
X183526469Y-88900051D01*
X183637776Y-88581954D01*
X183712767Y-88253394D01*
X183750500Y-87918504D01*
X183750500Y-87581496D01*
X183712767Y-87246606D01*
X183637776Y-86918046D01*
X183636123Y-86913323D01*
X183589243Y-86779348D01*
X183526469Y-86599949D01*
X183380246Y-86296314D01*
X183200946Y-86010961D01*
X182990825Y-85747477D01*
X182752523Y-85509175D01*
X182489039Y-85299054D01*
X182253388Y-85150984D01*
X182203683Y-85119752D01*
X181900054Y-84973532D01*
X181581965Y-84862227D01*
X181581953Y-84862223D01*
X181253397Y-84787233D01*
X181253381Y-84787231D01*
X180918508Y-84749500D01*
X180918504Y-84749500D01*
X180581496Y-84749500D01*
X180581491Y-84749500D01*
X180246618Y-84787231D01*
X180246602Y-84787233D01*
X179918046Y-84862223D01*
X179918034Y-84862227D01*
X179599945Y-84973532D01*
X179296316Y-85119752D01*
X179010962Y-85299053D01*
X178747477Y-85509174D01*
X178509174Y-85747477D01*
X178299053Y-86010962D01*
X178119752Y-86296316D01*
X177973532Y-86599945D01*
X177862227Y-86918034D01*
X177862223Y-86918046D01*
X177787233Y-87246602D01*
X177787231Y-87246618D01*
X177749500Y-87581491D01*
X169867743Y-87581491D01*
X170218182Y-87231051D01*
X170279503Y-87197568D01*
X170325256Y-87196261D01*
X170370436Y-87203416D01*
X170412629Y-87210100D01*
X170412633Y-87210100D01*
X170587372Y-87210100D01*
X170759949Y-87182766D01*
X170805255Y-87168045D01*
X170926131Y-87128770D01*
X171081819Y-87049443D01*
X171223182Y-86946737D01*
X171346737Y-86823182D01*
X171412109Y-86733204D01*
X171415474Y-86729301D01*
X171440658Y-86713023D01*
X171464408Y-86694709D01*
X171470348Y-86693833D01*
X171474153Y-86691374D01*
X171487259Y-86691340D01*
X171519126Y-86686642D01*
X171556838Y-86689609D01*
X172144401Y-86102046D01*
X172144401Y-86146816D01*
X172168635Y-86237256D01*
X172215451Y-86318343D01*
X172281658Y-86384550D01*
X172362745Y-86431366D01*
X172453185Y-86455600D01*
X172497954Y-86455600D01*
X171910389Y-87043162D01*
X171910390Y-87043163D01*
X171918434Y-87049008D01*
X171918446Y-87049015D01*
X172074062Y-87128307D01*
X172074061Y-87128307D01*
X172240167Y-87182277D01*
X172412669Y-87209600D01*
X172587333Y-87209600D01*
X172759834Y-87182277D01*
X172925939Y-87128307D01*
X173081555Y-87049016D01*
X173081560Y-87049012D01*
X173089611Y-87043162D01*
X172502049Y-86455600D01*
X172546817Y-86455600D01*
X172637257Y-86431366D01*
X172718344Y-86384550D01*
X172784551Y-86318343D01*
X172831367Y-86237256D01*
X172855601Y-86146816D01*
X172855601Y-86102047D01*
X173443163Y-86689609D01*
X173449013Y-86681559D01*
X173449017Y-86681554D01*
X173528308Y-86525938D01*
X173582278Y-86359833D01*
X173609601Y-86187332D01*
X173609601Y-86012667D01*
X173582278Y-85840166D01*
X173528308Y-85674061D01*
X173449016Y-85518445D01*
X173449009Y-85518433D01*
X173443164Y-85510389D01*
X173443163Y-85510388D01*
X172855601Y-86097951D01*
X172855601Y-86053184D01*
X172831367Y-85962744D01*
X172784551Y-85881657D01*
X172718344Y-85815450D01*
X172637257Y-85768634D01*
X172546817Y-85744400D01*
X172502048Y-85744400D01*
X173089611Y-85156837D01*
X173089610Y-85156836D01*
X173081558Y-85150985D01*
X173050156Y-85134985D01*
X172999360Y-85087010D01*
X172982565Y-85019189D01*
X173005102Y-84953054D01*
X173059818Y-84909603D01*
X173106451Y-84900500D01*
X173613331Y-84900500D01*
X173613347Y-84900501D01*
X173620943Y-84900501D01*
X173779054Y-84900501D01*
X173779057Y-84900501D01*
X173931785Y-84859577D01*
X174002440Y-84818784D01*
X174068716Y-84780520D01*
X174180520Y-84668716D01*
X174180520Y-84668714D01*
X174190724Y-84658511D01*
X174190727Y-84658506D01*
X174614662Y-84234572D01*
X174675983Y-84201089D01*
X174678150Y-84200638D01*
X174736085Y-84189113D01*
X174833497Y-84169737D01*
X174979179Y-84109394D01*
X175110289Y-84021789D01*
X175221789Y-83910289D01*
X175309394Y-83779179D01*
X175369737Y-83633497D01*
X175400500Y-83478842D01*
X175400500Y-83321158D01*
X175400500Y-83321155D01*
X175400499Y-83321153D01*
X175380746Y-83221849D01*
X175369737Y-83166503D01*
X175328314Y-83066498D01*
X175309397Y-83020827D01*
X175309390Y-83020814D01*
X175221789Y-82889711D01*
X175221786Y-82889707D01*
X175110292Y-82778213D01*
X175110288Y-82778210D01*
X174979185Y-82690609D01*
X174979172Y-82690602D01*
X174833501Y-82630264D01*
X174833489Y-82630261D01*
X174678845Y-82599500D01*
X174678842Y-82599500D01*
X174521158Y-82599500D01*
X174521155Y-82599500D01*
X174366510Y-82630261D01*
X174366498Y-82630264D01*
X174220827Y-82690602D01*
X174220814Y-82690609D01*
X174089711Y-82778210D01*
X174089707Y-82778213D01*
X173978213Y-82889707D01*
X173978210Y-82889711D01*
X173890609Y-83020814D01*
X173890602Y-83020827D01*
X173830264Y-83166498D01*
X173830261Y-83166508D01*
X173799361Y-83321850D01*
X173766976Y-83383761D01*
X173765425Y-83385339D01*
X173487584Y-83663181D01*
X173426261Y-83696666D01*
X173399903Y-83699500D01*
X167874170Y-83699500D01*
X167874154Y-83699499D01*
X167866558Y-83699499D01*
X167708443Y-83699499D01*
X167632079Y-83719961D01*
X167555714Y-83740423D01*
X167555709Y-83740426D01*
X167418790Y-83819475D01*
X167418782Y-83819481D01*
X167075082Y-84163181D01*
X167048154Y-84177884D01*
X167022336Y-84194477D01*
X167016135Y-84195368D01*
X167013759Y-84196666D01*
X166987401Y-84199500D01*
X166831940Y-84199500D01*
X166764901Y-84179815D01*
X166719146Y-84127011D01*
X166709202Y-84057853D01*
X166738227Y-83994297D01*
X166744245Y-83987832D01*
X166821789Y-83910289D01*
X166909394Y-83779179D01*
X166969737Y-83633497D01*
X167000500Y-83478842D01*
X167000500Y-83321158D01*
X167000500Y-83321155D01*
X167000499Y-83321153D01*
X166980746Y-83221849D01*
X166969737Y-83166503D01*
X166928314Y-83066498D01*
X166909397Y-83020827D01*
X166909390Y-83020814D01*
X166821789Y-82889711D01*
X166821786Y-82889707D01*
X166710292Y-82778213D01*
X166710288Y-82778210D01*
X166579185Y-82690609D01*
X166579175Y-82690604D01*
X166451125Y-82637564D01*
X166396722Y-82593723D01*
X166374657Y-82527429D01*
X166391936Y-82459729D01*
X166443074Y-82412119D01*
X166474387Y-82401386D01*
X166478841Y-82400500D01*
X166478842Y-82400500D01*
X166633497Y-82369737D01*
X166779179Y-82309394D01*
X166779185Y-82309390D01*
X166910875Y-82221398D01*
X166977553Y-82200520D01*
X166979766Y-82200500D01*
X170220234Y-82200500D01*
X170287273Y-82220185D01*
X170289125Y-82221398D01*
X170420814Y-82309390D01*
X170420827Y-82309397D01*
X170548874Y-82362435D01*
X170566503Y-82369737D01*
X170721153Y-82400499D01*
X170721156Y-82400500D01*
X170721158Y-82400500D01*
X170878844Y-82400500D01*
X170878845Y-82400499D01*
X171033497Y-82369737D01*
X171179179Y-82309394D01*
X171310289Y-82221789D01*
X171421789Y-82110289D01*
X171509394Y-81979179D01*
X171569737Y-81833497D01*
X171600500Y-81678842D01*
X171600500Y-81521158D01*
X171600500Y-81521155D01*
X171600499Y-81521153D01*
X171569738Y-81366510D01*
X171569737Y-81366503D01*
X171567262Y-81360528D01*
X171509397Y-81220827D01*
X171509390Y-81220814D01*
X171421789Y-81089711D01*
X171421786Y-81089707D01*
X171310292Y-80978213D01*
X171310288Y-80978210D01*
X171179181Y-80890607D01*
X171179172Y-80890602D01*
X171033501Y-80830264D01*
X171033489Y-80830261D01*
X170878845Y-80799500D01*
X170878842Y-80799500D01*
X170721158Y-80799500D01*
X170721155Y-80799500D01*
X170566510Y-80830261D01*
X170566498Y-80830264D01*
X170420827Y-80890602D01*
X170420819Y-80890607D01*
X170289125Y-80978602D01*
X170222447Y-80999480D01*
X170220234Y-80999500D01*
X166979766Y-80999500D01*
X166912727Y-80979815D01*
X166910875Y-80978602D01*
X166779181Y-80890607D01*
X166779172Y-80890602D01*
X166633501Y-80830264D01*
X166633489Y-80830261D01*
X166478845Y-80799500D01*
X166478842Y-80799500D01*
X166321158Y-80799500D01*
X166321155Y-80799500D01*
X166166510Y-80830261D01*
X166166498Y-80830264D01*
X166020827Y-80890602D01*
X166020819Y-80890607D01*
X165889125Y-80978602D01*
X165822447Y-80999480D01*
X165820234Y-80999500D01*
X156679766Y-80999500D01*
X156612727Y-80979815D01*
X156610875Y-80978602D01*
X156479181Y-80890607D01*
X156479172Y-80890602D01*
X156333501Y-80830264D01*
X156333489Y-80830261D01*
X156178845Y-80799500D01*
X156178842Y-80799500D01*
X156021158Y-80799500D01*
X156021155Y-80799500D01*
X155866510Y-80830261D01*
X155866498Y-80830264D01*
X155720827Y-80890602D01*
X155720819Y-80890607D01*
X155589125Y-80978602D01*
X155522447Y-80999480D01*
X155520234Y-80999500D01*
X146349231Y-80999500D01*
X146337713Y-80996118D01*
X146325765Y-80997259D01*
X146304810Y-80986456D01*
X146282192Y-80979815D01*
X146272780Y-80969944D01*
X146263662Y-80965244D01*
X146241845Y-80937501D01*
X146214770Y-80890607D01*
X146214768Y-80890605D01*
X146180520Y-80831284D01*
X146068716Y-80719480D01*
X146068715Y-80719479D01*
X146064385Y-80715149D01*
X146064374Y-80715139D01*
X145134574Y-79785339D01*
X145101089Y-79724016D01*
X145100638Y-79721849D01*
X145100500Y-79721153D01*
X149799500Y-79721153D01*
X149799500Y-79878846D01*
X149830261Y-80033489D01*
X149830264Y-80033501D01*
X149890602Y-80179172D01*
X149890609Y-80179185D01*
X149978210Y-80310288D01*
X149978213Y-80310292D01*
X150089707Y-80421786D01*
X150089711Y-80421789D01*
X150220814Y-80509390D01*
X150220827Y-80509397D01*
X150348519Y-80562288D01*
X150366503Y-80569737D01*
X150488481Y-80594000D01*
X150521153Y-80600499D01*
X150521156Y-80600500D01*
X150521158Y-80600500D01*
X150678844Y-80600500D01*
X150678845Y-80600499D01*
X150833497Y-80569737D01*
X150936556Y-80527048D01*
X151006022Y-80519580D01*
X151042463Y-80532254D01*
X151045078Y-80533651D01*
X151045087Y-80533657D01*
X151190769Y-80594000D01*
X151345419Y-80624762D01*
X151345422Y-80624763D01*
X151345424Y-80624763D01*
X151503110Y-80624763D01*
X151503111Y-80624762D01*
X151657763Y-80594000D01*
X151777526Y-80544393D01*
X151787804Y-80540136D01*
X151857273Y-80532667D01*
X151882708Y-80540136D01*
X152031518Y-80601774D01*
X152031523Y-80601776D01*
X152147081Y-80624762D01*
X152186173Y-80632538D01*
X152186176Y-80632539D01*
X152186178Y-80632539D01*
X152343864Y-80632539D01*
X152343865Y-80632538D01*
X152498517Y-80601776D01*
X152575817Y-80569756D01*
X152645285Y-80562288D01*
X152688099Y-80579577D01*
X152688240Y-80579315D01*
X152690681Y-80580619D01*
X152692164Y-80581218D01*
X152693615Y-80582188D01*
X152693617Y-80582189D01*
X152693621Y-80582191D01*
X152815174Y-80632539D01*
X152839297Y-80642531D01*
X152993947Y-80673293D01*
X152993950Y-80673294D01*
X152993952Y-80673294D01*
X153151638Y-80673294D01*
X153151639Y-80673293D01*
X153306291Y-80642531D01*
X153451973Y-80582188D01*
X153583083Y-80494583D01*
X153694583Y-80383083D01*
X153782188Y-80251973D01*
X153842531Y-80106291D01*
X153873294Y-79951636D01*
X153873432Y-79950944D01*
X153905817Y-79889033D01*
X153907312Y-79887510D01*
X154157004Y-79637819D01*
X154218327Y-79604334D01*
X154244685Y-79601500D01*
X160354843Y-79601500D01*
X160679431Y-79601500D01*
X160679447Y-79601501D01*
X160687043Y-79601501D01*
X160845154Y-79601501D01*
X160845157Y-79601501D01*
X160997885Y-79560577D01*
X161061390Y-79523912D01*
X161134816Y-79481520D01*
X161246620Y-79369716D01*
X161246620Y-79369715D01*
X161264048Y-79352287D01*
X161264053Y-79352280D01*
X161481520Y-79134816D01*
X161481520Y-79134814D01*
X161491725Y-79124610D01*
X161491728Y-79124605D01*
X162779516Y-77836819D01*
X162806443Y-77822115D01*
X162832262Y-77805523D01*
X162838462Y-77804631D01*
X162840839Y-77803334D01*
X162867197Y-77800500D01*
X163113331Y-77800500D01*
X163113347Y-77800501D01*
X163120943Y-77800501D01*
X163279054Y-77800501D01*
X163279057Y-77800501D01*
X163431785Y-77759577D01*
X163481904Y-77730639D01*
X163568716Y-77680520D01*
X163680520Y-77568716D01*
X163680520Y-77568714D01*
X163690728Y-77558507D01*
X163690729Y-77558504D01*
X165614664Y-75634571D01*
X165675985Y-75601088D01*
X165678152Y-75600637D01*
X165678841Y-75600500D01*
X165678842Y-75600500D01*
X165833497Y-75569737D01*
X165979179Y-75509394D01*
X166110289Y-75421789D01*
X166221789Y-75310289D01*
X166309394Y-75179179D01*
X166369737Y-75033497D01*
X166400500Y-74878842D01*
X166400500Y-74721158D01*
X166400500Y-74721155D01*
X166400499Y-74721153D01*
X166380542Y-74620824D01*
X166369737Y-74566503D01*
X166337929Y-74489711D01*
X166309397Y-74420827D01*
X166309390Y-74420814D01*
X166221789Y-74289711D01*
X166221786Y-74289707D01*
X166110292Y-74178213D01*
X166110288Y-74178210D01*
X165979185Y-74090609D01*
X165979172Y-74090602D01*
X165833501Y-74030264D01*
X165833489Y-74030261D01*
X165678845Y-73999500D01*
X165678842Y-73999500D01*
X165521158Y-73999500D01*
X165521155Y-73999500D01*
X165366510Y-74030261D01*
X165366498Y-74030264D01*
X165220827Y-74090602D01*
X165220809Y-74090612D01*
X165111400Y-74163717D01*
X165044723Y-74184595D01*
X164977343Y-74166110D01*
X164954829Y-74148296D01*
X164947519Y-74140986D01*
X164947515Y-74140983D01*
X164816412Y-74053382D01*
X164816399Y-74053375D01*
X164670728Y-73993037D01*
X164670716Y-73993034D01*
X164516072Y-73962273D01*
X164516069Y-73962273D01*
X164358385Y-73962273D01*
X164358382Y-73962273D01*
X164203737Y-73993034D01*
X164203725Y-73993037D01*
X164058054Y-74053375D01*
X164058041Y-74053382D01*
X163926938Y-74140983D01*
X163926934Y-74140986D01*
X163815440Y-74252480D01*
X163815437Y-74252484D01*
X163727836Y-74383587D01*
X163727829Y-74383600D01*
X163667491Y-74529271D01*
X163667488Y-74529281D01*
X163636588Y-74684623D01*
X163604203Y-74746534D01*
X163602652Y-74748112D01*
X160387584Y-77963181D01*
X160326261Y-77996666D01*
X160299903Y-77999500D01*
X160125893Y-77999500D01*
X160121763Y-77998287D01*
X160117562Y-77999220D01*
X160088527Y-77988528D01*
X160058854Y-77979815D01*
X160056036Y-77976563D01*
X160051997Y-77975076D01*
X160033352Y-77950384D01*
X160013099Y-77927011D01*
X160012486Y-77922751D01*
X160009893Y-77919317D01*
X160007557Y-77888471D01*
X160003155Y-77857853D01*
X160004942Y-77853938D01*
X160004618Y-77849647D01*
X160019329Y-77822436D01*
X160032180Y-77794297D01*
X160036380Y-77790897D01*
X160037847Y-77788185D01*
X160048893Y-77780770D01*
X160066013Y-77766916D01*
X160077046Y-77760831D01*
X160081728Y-77759577D01*
X160131847Y-77730639D01*
X160218659Y-77680520D01*
X160330463Y-77568716D01*
X160330463Y-77568714D01*
X160340671Y-77558507D01*
X160340673Y-77558504D01*
X161958506Y-75940671D01*
X161958511Y-75940667D01*
X161968714Y-75930463D01*
X161968716Y-75930463D01*
X162080520Y-75818659D01*
X162159577Y-75681727D01*
X162190957Y-75564613D01*
X162219065Y-75515936D01*
X162217923Y-75514999D01*
X162221783Y-75510294D01*
X162221789Y-75510289D01*
X162309394Y-75379179D01*
X162369737Y-75233497D01*
X162400500Y-75078842D01*
X162400500Y-74921158D01*
X162400500Y-74921155D01*
X162400499Y-74921153D01*
X162392148Y-74879172D01*
X162369737Y-74766503D01*
X162350955Y-74721158D01*
X162309397Y-74620827D01*
X162309390Y-74620814D01*
X162221789Y-74489711D01*
X162221786Y-74489707D01*
X162110292Y-74378213D01*
X162110288Y-74378210D01*
X161979185Y-74290609D01*
X161979172Y-74290602D01*
X161833501Y-74230264D01*
X161833489Y-74230261D01*
X161678845Y-74199500D01*
X161678842Y-74199500D01*
X161521158Y-74199500D01*
X161521155Y-74199500D01*
X161366510Y-74230261D01*
X161366498Y-74230264D01*
X161220827Y-74290602D01*
X161220814Y-74290609D01*
X161089711Y-74378210D01*
X161089707Y-74378213D01*
X160978213Y-74489707D01*
X160978210Y-74489711D01*
X160890609Y-74620814D01*
X160890604Y-74620824D01*
X160845052Y-74730797D01*
X160801211Y-74785200D01*
X160734917Y-74807265D01*
X160706301Y-74804962D01*
X160678842Y-74799500D01*
X160521158Y-74799500D01*
X160521155Y-74799500D01*
X160366510Y-74830261D01*
X160366498Y-74830264D01*
X160220827Y-74890602D01*
X160220814Y-74890609D01*
X160089125Y-74978602D01*
X160022447Y-74999480D01*
X160020234Y-74999500D01*
X154886669Y-74999500D01*
X154886653Y-74999499D01*
X154879057Y-74999499D01*
X154720943Y-74999499D01*
X154613587Y-75028265D01*
X154568210Y-75040424D01*
X154568209Y-75040425D01*
X154518096Y-75069359D01*
X154518095Y-75069360D01*
X154501665Y-75078846D01*
X154431285Y-75119479D01*
X154431282Y-75119481D01*
X150585339Y-78965425D01*
X150524016Y-78998910D01*
X150521850Y-78999361D01*
X150366508Y-79030261D01*
X150366498Y-79030264D01*
X150220827Y-79090602D01*
X150220814Y-79090609D01*
X150089711Y-79178210D01*
X150089707Y-79178213D01*
X149978213Y-79289707D01*
X149978210Y-79289711D01*
X149890609Y-79420814D01*
X149890602Y-79420827D01*
X149830264Y-79566498D01*
X149830261Y-79566510D01*
X149799500Y-79721153D01*
X145100500Y-79721153D01*
X145077262Y-79604334D01*
X145069737Y-79566503D01*
X145052100Y-79523923D01*
X145009397Y-79420827D01*
X145009390Y-79420814D01*
X144921789Y-79289711D01*
X144921786Y-79289707D01*
X144810292Y-79178213D01*
X144810288Y-79178210D01*
X144679185Y-79090609D01*
X144679172Y-79090602D01*
X144533501Y-79030264D01*
X144533489Y-79030261D01*
X144378845Y-78999500D01*
X144378842Y-78999500D01*
X144221158Y-78999500D01*
X144221155Y-78999500D01*
X144066510Y-79030261D01*
X144066498Y-79030264D01*
X143920827Y-79090602D01*
X143920814Y-79090609D01*
X143789711Y-79178210D01*
X143789707Y-79178213D01*
X143678213Y-79289707D01*
X143678210Y-79289711D01*
X143590609Y-79420814D01*
X143590602Y-79420827D01*
X143530264Y-79566498D01*
X143530261Y-79566510D01*
X143499500Y-79721153D01*
X143499500Y-79878846D01*
X143530261Y-80033489D01*
X143530264Y-80033501D01*
X143590602Y-80179172D01*
X143590609Y-80179185D01*
X143678210Y-80310288D01*
X143678213Y-80310292D01*
X143789707Y-80421786D01*
X143789711Y-80421789D01*
X143920814Y-80509390D01*
X143920827Y-80509397D01*
X144048519Y-80562288D01*
X144066503Y-80569737D01*
X144114655Y-80579315D01*
X144221849Y-80600638D01*
X144283760Y-80633023D01*
X144285339Y-80634574D01*
X144897958Y-81247193D01*
X144931443Y-81308516D01*
X144929382Y-81360116D01*
X144931451Y-81360528D01*
X144899500Y-81521153D01*
X144899500Y-81678846D01*
X144930261Y-81833489D01*
X144930264Y-81833501D01*
X144990602Y-81979172D01*
X144990609Y-81979185D01*
X145078210Y-82110288D01*
X145078213Y-82110292D01*
X145189707Y-82221786D01*
X145189711Y-82221789D01*
X145320814Y-82309390D01*
X145320827Y-82309397D01*
X145448874Y-82362435D01*
X145466503Y-82369737D01*
X145621153Y-82400499D01*
X145621156Y-82400500D01*
X145621158Y-82400500D01*
X145778844Y-82400500D01*
X145778845Y-82400499D01*
X145933497Y-82369737D01*
X146079179Y-82309394D01*
X146079185Y-82309390D01*
X146210875Y-82221398D01*
X146277553Y-82200520D01*
X146279766Y-82200500D01*
X155520234Y-82200500D01*
X155587273Y-82220185D01*
X155589125Y-82221398D01*
X155720814Y-82309390D01*
X155720827Y-82309397D01*
X155848874Y-82362435D01*
X155866503Y-82369737D01*
X156021153Y-82400499D01*
X156021156Y-82400500D01*
X156021158Y-82400500D01*
X156178844Y-82400500D01*
X156178845Y-82400499D01*
X156333497Y-82369737D01*
X156479179Y-82309394D01*
X156479185Y-82309390D01*
X156610875Y-82221398D01*
X156677553Y-82200520D01*
X156679766Y-82200500D01*
X165820234Y-82200500D01*
X165887273Y-82220185D01*
X165889125Y-82221398D01*
X166020814Y-82309390D01*
X166020827Y-82309397D01*
X166148873Y-82362435D01*
X166203277Y-82406276D01*
X166225342Y-82472570D01*
X166208063Y-82540269D01*
X166156926Y-82587880D01*
X166125613Y-82598613D01*
X165966508Y-82630261D01*
X165966498Y-82630264D01*
X165820827Y-82690602D01*
X165820814Y-82690609D01*
X165689711Y-82778210D01*
X165689707Y-82778213D01*
X165578213Y-82889707D01*
X165578210Y-82889711D01*
X165490609Y-83020814D01*
X165490602Y-83020827D01*
X165430264Y-83166498D01*
X165430261Y-83166510D01*
X165399500Y-83321153D01*
X165399500Y-83478842D01*
X165400097Y-83484904D01*
X165397624Y-83485147D01*
X165392328Y-83543907D01*
X165364648Y-83586115D01*
X165187582Y-83763182D01*
X165126262Y-83796666D01*
X165099903Y-83799500D01*
X159174170Y-83799500D01*
X159174154Y-83799499D01*
X159166558Y-83799499D01*
X159008443Y-83799499D01*
X158933893Y-83819475D01*
X158855714Y-83840423D01*
X158855709Y-83840426D01*
X158718790Y-83919475D01*
X158718782Y-83919481D01*
X158375082Y-84263181D01*
X158348154Y-84277884D01*
X158322336Y-84294477D01*
X158316135Y-84295368D01*
X158313759Y-84296666D01*
X158287401Y-84299500D01*
X158103438Y-84299500D01*
X158036399Y-84279815D01*
X157990644Y-84227011D01*
X157980700Y-84157853D01*
X158009725Y-84094297D01*
X158034545Y-84072399D01*
X158110289Y-84021789D01*
X158221789Y-83910289D01*
X158309394Y-83779179D01*
X158369737Y-83633497D01*
X158400500Y-83478842D01*
X158400500Y-83321158D01*
X158400500Y-83321155D01*
X158400499Y-83321153D01*
X158380746Y-83221849D01*
X158369737Y-83166503D01*
X158328314Y-83066498D01*
X158309397Y-83020827D01*
X158309390Y-83020814D01*
X158221789Y-82889711D01*
X158221786Y-82889707D01*
X158110292Y-82778213D01*
X158110288Y-82778210D01*
X157979185Y-82690609D01*
X157979172Y-82690602D01*
X157833501Y-82630264D01*
X157833489Y-82630261D01*
X157678845Y-82599500D01*
X157678842Y-82599500D01*
X157521158Y-82599500D01*
X157521155Y-82599500D01*
X157366510Y-82630261D01*
X157366498Y-82630264D01*
X157220827Y-82690602D01*
X157220814Y-82690609D01*
X157089711Y-82778210D01*
X157089707Y-82778213D01*
X156978213Y-82889707D01*
X156978210Y-82889711D01*
X156890609Y-83020814D01*
X156890602Y-83020827D01*
X156830264Y-83166498D01*
X156830261Y-83166508D01*
X156799362Y-83321849D01*
X156766977Y-83383759D01*
X156765426Y-83385338D01*
X156387584Y-83763181D01*
X156326261Y-83796666D01*
X156299903Y-83799500D01*
X150674169Y-83799500D01*
X150674153Y-83799499D01*
X150666557Y-83799499D01*
X150508443Y-83799499D01*
X150401087Y-83828265D01*
X150355710Y-83840424D01*
X150355709Y-83840425D01*
X150305596Y-83869359D01*
X150305595Y-83869360D01*
X150262189Y-83894420D01*
X150218785Y-83919479D01*
X150218782Y-83919481D01*
X150106978Y-84031286D01*
X149775082Y-84363181D01*
X149713759Y-84396666D01*
X149687401Y-84399500D01*
X149313330Y-84399500D01*
X149313312Y-84399501D01*
X149212247Y-84409825D01*
X149048484Y-84464092D01*
X149048481Y-84464093D01*
X148901648Y-84554661D01*
X148779659Y-84676650D01*
X148748718Y-84726814D01*
X148696770Y-84773538D01*
X148627807Y-84784759D01*
X148570650Y-84762292D01*
X148562559Y-84756457D01*
X148514982Y-84708880D01*
X148428170Y-84658760D01*
X148378051Y-84629823D01*
X148225323Y-84588899D01*
X148067209Y-84588899D01*
X148059619Y-84588899D01*
X148059597Y-84588900D01*
X147759697Y-84588900D01*
X147692658Y-84569215D01*
X147646903Y-84516411D01*
X147636959Y-84447253D01*
X147665984Y-84383697D01*
X147672016Y-84377219D01*
X147698554Y-84350681D01*
X147914665Y-84134570D01*
X147921646Y-84130758D01*
X147926304Y-84124304D01*
X147951873Y-84114253D01*
X147975984Y-84101088D01*
X147978151Y-84100637D01*
X147978840Y-84100500D01*
X147978842Y-84100500D01*
X148133497Y-84069737D01*
X148278136Y-84009826D01*
X148279172Y-84009397D01*
X148279172Y-84009396D01*
X148279179Y-84009394D01*
X148410289Y-83921789D01*
X148521789Y-83810289D01*
X148609394Y-83679179D01*
X148669737Y-83533497D01*
X148700500Y-83378842D01*
X148700500Y-83221158D01*
X148700500Y-83221155D01*
X148700499Y-83221153D01*
X148669738Y-83066510D01*
X148669738Y-83066508D01*
X148669737Y-83066503D01*
X148650812Y-83020814D01*
X148609397Y-82920827D01*
X148609390Y-82920814D01*
X148521789Y-82789711D01*
X148521786Y-82789707D01*
X148410292Y-82678213D01*
X148410288Y-82678210D01*
X148279185Y-82590609D01*
X148279172Y-82590602D01*
X148133501Y-82530264D01*
X148133489Y-82530261D01*
X147978845Y-82499500D01*
X147978842Y-82499500D01*
X147821158Y-82499500D01*
X147821155Y-82499500D01*
X147666510Y-82530261D01*
X147666498Y-82530264D01*
X147520827Y-82590602D01*
X147520814Y-82590609D01*
X147389711Y-82678210D01*
X147389707Y-82678213D01*
X147278213Y-82789707D01*
X147278210Y-82789711D01*
X147190609Y-82920814D01*
X147190602Y-82920827D01*
X147130264Y-83066498D01*
X147130261Y-83066508D01*
X147099362Y-83221849D01*
X147066977Y-83283759D01*
X147065426Y-83285338D01*
X146687584Y-83663181D01*
X146626261Y-83696666D01*
X146599903Y-83699500D01*
X143086669Y-83699500D01*
X143086653Y-83699499D01*
X143079057Y-83699499D01*
X142920943Y-83699499D01*
X142768215Y-83740423D01*
X142768214Y-83740423D01*
X142719212Y-83768715D01*
X142719211Y-83768715D01*
X142631290Y-83819475D01*
X142631282Y-83819481D01*
X142540477Y-83910287D01*
X142519480Y-83931284D01*
X142519478Y-83931286D01*
X142292912Y-84157853D01*
X142100084Y-84350681D01*
X142038761Y-84384166D01*
X142012403Y-84387000D01*
X141657611Y-84387000D01*
X141590572Y-84367315D01*
X141552072Y-84328096D01*
X141520340Y-84276650D01*
X141398351Y-84154661D01*
X141398350Y-84154660D01*
X141251516Y-84064092D01*
X141087753Y-84009826D01*
X141087751Y-84009825D01*
X140986678Y-83999500D01*
X140413330Y-83999500D01*
X140413312Y-83999501D01*
X140312247Y-84009825D01*
X140148484Y-84064092D01*
X140148481Y-84064093D01*
X140001648Y-84154661D01*
X139879661Y-84276648D01*
X139789093Y-84423481D01*
X139789091Y-84423486D01*
X139778761Y-84454660D01*
X139734826Y-84587247D01*
X139734826Y-84587248D01*
X139734825Y-84587248D01*
X139724500Y-84688315D01*
X129300500Y-84688315D01*
X129300500Y-70921153D01*
X164699500Y-70921153D01*
X164699500Y-71078846D01*
X164730261Y-71233489D01*
X164730264Y-71233501D01*
X164790602Y-71379172D01*
X164790609Y-71379185D01*
X164825304Y-71431109D01*
X164846182Y-71497786D01*
X164827698Y-71565167D01*
X164825304Y-71568891D01*
X164790609Y-71620814D01*
X164790602Y-71620827D01*
X164730264Y-71766498D01*
X164730261Y-71766510D01*
X164699500Y-71921153D01*
X164699500Y-72078846D01*
X164730261Y-72233489D01*
X164730264Y-72233501D01*
X164790602Y-72379172D01*
X164790609Y-72379185D01*
X164878210Y-72510288D01*
X164878213Y-72510292D01*
X164989707Y-72621786D01*
X164989711Y-72621789D01*
X165120814Y-72709390D01*
X165120827Y-72709397D01*
X165215799Y-72748735D01*
X165266503Y-72769737D01*
X165419132Y-72800097D01*
X165421153Y-72800499D01*
X165421156Y-72800500D01*
X165421158Y-72800500D01*
X165578844Y-72800500D01*
X165578845Y-72800499D01*
X165733497Y-72769737D01*
X165879179Y-72709394D01*
X166010289Y-72621789D01*
X166010292Y-72621786D01*
X166096260Y-72535819D01*
X166157583Y-72502334D01*
X166183941Y-72499500D01*
X170098903Y-72499500D01*
X170128343Y-72508144D01*
X170158330Y-72514668D01*
X170163345Y-72518422D01*
X170165942Y-72519185D01*
X170186584Y-72535819D01*
X170363181Y-72712416D01*
X170396666Y-72773739D01*
X170399500Y-72800097D01*
X170399500Y-73920234D01*
X170379815Y-73987273D01*
X170378602Y-73989125D01*
X170290609Y-74120814D01*
X170290602Y-74120827D01*
X170230264Y-74266498D01*
X170230261Y-74266510D01*
X170199500Y-74421153D01*
X170199500Y-74578846D01*
X170230261Y-74733489D01*
X170230264Y-74733501D01*
X170290602Y-74879172D01*
X170290609Y-74879185D01*
X170378210Y-75010288D01*
X170378213Y-75010292D01*
X170489707Y-75121786D01*
X170489711Y-75121789D01*
X170620814Y-75209390D01*
X170620827Y-75209397D01*
X170766498Y-75269735D01*
X170766503Y-75269737D01*
X170921153Y-75300499D01*
X170921156Y-75300500D01*
X170921158Y-75300500D01*
X171078844Y-75300500D01*
X171078845Y-75300499D01*
X171233497Y-75269737D01*
X171379179Y-75209394D01*
X171510289Y-75121789D01*
X171621789Y-75010289D01*
X171709394Y-74879179D01*
X171769737Y-74733497D01*
X171800500Y-74578842D01*
X171800500Y-74421158D01*
X171800500Y-74421155D01*
X171800499Y-74421153D01*
X171774531Y-74290606D01*
X171769737Y-74266503D01*
X171754905Y-74230695D01*
X171709397Y-74120827D01*
X171709390Y-74120814D01*
X171621398Y-73989125D01*
X171600520Y-73922447D01*
X171600500Y-73920234D01*
X171600500Y-72624837D01*
X171620185Y-72557798D01*
X171672989Y-72512043D01*
X171676986Y-72510302D01*
X171679179Y-72509394D01*
X171810289Y-72421789D01*
X171921789Y-72310289D01*
X172009394Y-72179179D01*
X172069737Y-72033497D01*
X172100500Y-71878842D01*
X172100500Y-71721158D01*
X172100500Y-71721155D01*
X172100499Y-71721153D01*
X172080543Y-71620827D01*
X172069737Y-71566503D01*
X172041274Y-71497786D01*
X172009397Y-71420827D01*
X172009390Y-71420814D01*
X171921789Y-71289711D01*
X171921786Y-71289707D01*
X171810292Y-71178213D01*
X171810288Y-71178210D01*
X171679185Y-71090609D01*
X171679172Y-71090602D01*
X171533501Y-71030264D01*
X171533489Y-71030261D01*
X171378845Y-70999500D01*
X171378842Y-70999500D01*
X171250040Y-70999500D01*
X171183001Y-70979815D01*
X171162359Y-70963181D01*
X170837533Y-70638355D01*
X170837531Y-70638352D01*
X170718660Y-70519481D01*
X170718659Y-70519480D01*
X170631847Y-70469360D01*
X170631847Y-70469359D01*
X170631843Y-70469358D01*
X170581728Y-70440423D01*
X170429000Y-70399499D01*
X170270886Y-70399499D01*
X170263290Y-70399499D01*
X170263274Y-70399500D01*
X166079766Y-70399500D01*
X166012727Y-70379815D01*
X166010875Y-70378602D01*
X165879185Y-70290609D01*
X165879172Y-70290602D01*
X165733501Y-70230264D01*
X165733489Y-70230261D01*
X165578845Y-70199500D01*
X165578842Y-70199500D01*
X165421158Y-70199500D01*
X165421155Y-70199500D01*
X165266510Y-70230261D01*
X165266498Y-70230264D01*
X165120827Y-70290602D01*
X165120814Y-70290609D01*
X164989711Y-70378210D01*
X164989707Y-70378213D01*
X164878213Y-70489707D01*
X164878210Y-70489711D01*
X164790609Y-70620814D01*
X164790602Y-70620827D01*
X164730264Y-70766498D01*
X164730261Y-70766510D01*
X164699500Y-70921153D01*
X129300500Y-70921153D01*
X129300500Y-64658628D01*
X178071700Y-64658628D01*
X178071700Y-64841369D01*
X178100284Y-65021840D01*
X178100285Y-65021844D01*
X178156752Y-65195630D01*
X178239709Y-65358443D01*
X178347115Y-65506275D01*
X178476324Y-65635484D01*
X178495865Y-65649681D01*
X178538531Y-65705010D01*
X178544511Y-65774623D01*
X178511905Y-65836418D01*
X178495867Y-65850316D01*
X178476324Y-65864514D01*
X178347117Y-65993721D01*
X178239709Y-66141555D01*
X178156753Y-66304366D01*
X178100284Y-66478158D01*
X178071700Y-66658629D01*
X178071700Y-66841370D01*
X178100284Y-67021841D01*
X178100285Y-67021845D01*
X178156752Y-67195631D01*
X178239709Y-67358444D01*
X178347115Y-67506276D01*
X178476324Y-67635485D01*
X178624156Y-67742891D01*
X178786969Y-67825848D01*
X178960755Y-67882315D01*
X179028435Y-67893034D01*
X179141230Y-67910900D01*
X179141235Y-67910900D01*
X179323970Y-67910900D01*
X179424231Y-67895019D01*
X179504445Y-67882315D01*
X179678231Y-67825848D01*
X179841044Y-67742891D01*
X179988876Y-67635485D01*
X180118085Y-67506276D01*
X180225491Y-67358444D01*
X180308448Y-67195631D01*
X180364915Y-67021845D01*
X180377619Y-66941631D01*
X180393500Y-66841370D01*
X180393500Y-66658629D01*
X180364915Y-66478158D01*
X180364915Y-66478155D01*
X180308448Y-66304369D01*
X180225491Y-66141556D01*
X180118085Y-65993724D01*
X179988876Y-65864515D01*
X179969333Y-65850316D01*
X179926668Y-65794988D01*
X179920689Y-65725374D01*
X179953294Y-65663579D01*
X179969330Y-65649684D01*
X179988876Y-65635484D01*
X180118085Y-65506275D01*
X180225491Y-65358443D01*
X180308448Y-65195630D01*
X180364915Y-65021844D01*
X180377619Y-64941630D01*
X180393500Y-64841369D01*
X180393500Y-64658628D01*
X180364915Y-64478157D01*
X180364915Y-64478154D01*
X180308448Y-64304368D01*
X180225491Y-64141555D01*
X180118085Y-63993723D01*
X179988876Y-63864514D01*
X179841044Y-63757108D01*
X179678231Y-63674151D01*
X179504445Y-63617684D01*
X179504443Y-63617683D01*
X179504441Y-63617683D01*
X179323970Y-63589099D01*
X179323965Y-63589099D01*
X179141235Y-63589099D01*
X179141230Y-63589099D01*
X178960758Y-63617683D01*
X178786966Y-63674152D01*
X178624155Y-63757108D01*
X178476321Y-63864516D01*
X178347117Y-63993720D01*
X178239709Y-64141554D01*
X178156753Y-64304365D01*
X178100284Y-64478157D01*
X178071700Y-64658628D01*
X129300500Y-64658628D01*
X129300500Y-57581491D01*
X130999500Y-57581491D01*
X130999500Y-57918508D01*
X131037231Y-58253381D01*
X131037233Y-58253397D01*
X131112223Y-58581953D01*
X131112227Y-58581965D01*
X131223532Y-58900054D01*
X131369752Y-59203683D01*
X131369754Y-59203686D01*
X131549054Y-59489039D01*
X131759175Y-59752523D01*
X131997477Y-59990825D01*
X132260961Y-60200946D01*
X132546314Y-60380246D01*
X132849949Y-60526469D01*
X133088848Y-60610063D01*
X133168034Y-60637772D01*
X133168046Y-60637776D01*
X133496606Y-60712767D01*
X133831492Y-60750499D01*
X133831493Y-60750500D01*
X133831496Y-60750500D01*
X134168507Y-60750500D01*
X134168507Y-60750499D01*
X134503394Y-60712767D01*
X134831954Y-60637776D01*
X135150051Y-60526469D01*
X135453686Y-60380246D01*
X135739039Y-60200946D01*
X136002523Y-59990825D01*
X136240825Y-59752523D01*
X136450946Y-59489039D01*
X136630246Y-59203686D01*
X136643565Y-59176029D01*
X140089099Y-59176029D01*
X140089099Y-59358770D01*
X140117683Y-59539241D01*
X140117684Y-59539245D01*
X140174151Y-59713031D01*
X140257108Y-59875844D01*
X140364514Y-60023676D01*
X140493723Y-60152885D01*
X140641555Y-60260291D01*
X140804368Y-60343248D01*
X140978154Y-60399715D01*
X141045834Y-60410434D01*
X141158629Y-60428300D01*
X141158634Y-60428300D01*
X141341369Y-60428300D01*
X141441630Y-60412419D01*
X141521844Y-60399715D01*
X141695630Y-60343248D01*
X141858443Y-60260291D01*
X142006275Y-60152885D01*
X142135484Y-60023676D01*
X142194739Y-59942117D01*
X142198326Y-59938000D01*
X142223332Y-59922019D01*
X142246840Y-59903892D01*
X142253156Y-59902960D01*
X142257200Y-59900377D01*
X142263453Y-59900393D01*
X142843600Y-59320246D01*
X142843600Y-59320904D01*
X142871295Y-59424265D01*
X142924799Y-59516936D01*
X143000464Y-59592601D01*
X143093135Y-59646105D01*
X143196496Y-59673800D01*
X143197153Y-59673800D01*
X142624019Y-60246931D01*
X142641817Y-60259862D01*
X142804556Y-60342783D01*
X142978271Y-60399227D01*
X143158670Y-60427800D01*
X143341330Y-60427800D01*
X143521728Y-60399227D01*
X143695443Y-60342783D01*
X143858178Y-60259865D01*
X143875979Y-60246931D01*
X143302848Y-59673800D01*
X143303504Y-59673800D01*
X143406865Y-59646105D01*
X143499536Y-59592601D01*
X143575201Y-59516936D01*
X143628705Y-59424265D01*
X143656400Y-59320904D01*
X143656400Y-59320247D01*
X144229531Y-59893378D01*
X144242465Y-59875578D01*
X144325383Y-59712843D01*
X144381826Y-59539129D01*
X144400513Y-59421153D01*
X148449500Y-59421153D01*
X148449500Y-59578846D01*
X148480261Y-59733489D01*
X148480264Y-59733501D01*
X148540602Y-59879172D01*
X148540609Y-59879185D01*
X148580271Y-59938542D01*
X148626369Y-60007533D01*
X148628602Y-60010874D01*
X148649480Y-60077551D01*
X148649500Y-60079765D01*
X148649500Y-60420234D01*
X148629815Y-60487273D01*
X148628602Y-60489125D01*
X148540609Y-60620814D01*
X148540602Y-60620827D01*
X148480264Y-60766498D01*
X148480261Y-60766510D01*
X148449500Y-60921153D01*
X148449500Y-61078846D01*
X148480261Y-61233489D01*
X148480264Y-61233501D01*
X148540602Y-61379172D01*
X148540609Y-61379185D01*
X148628210Y-61510288D01*
X148628213Y-61510292D01*
X148739707Y-61621786D01*
X148739711Y-61621789D01*
X148870814Y-61709390D01*
X148870827Y-61709397D01*
X149016498Y-61769735D01*
X149016503Y-61769737D01*
X149171153Y-61800499D01*
X149171156Y-61800500D01*
X149171158Y-61800500D01*
X149328844Y-61800500D01*
X149328845Y-61800499D01*
X149483497Y-61769737D01*
X149629179Y-61709394D01*
X149760289Y-61621789D01*
X149871789Y-61510289D01*
X149959394Y-61379179D01*
X150019737Y-61233497D01*
X150050500Y-61078842D01*
X150050500Y-60921158D01*
X150050500Y-60921155D01*
X150050499Y-60921153D01*
X150019738Y-60766510D01*
X150019737Y-60766503D01*
X150019735Y-60766498D01*
X149959397Y-60620827D01*
X149959390Y-60620814D01*
X149871398Y-60489125D01*
X149865747Y-60471078D01*
X149855523Y-60455169D01*
X149851071Y-60424207D01*
X149850520Y-60422447D01*
X149850500Y-60420234D01*
X149850500Y-60079765D01*
X149870185Y-60012726D01*
X149871398Y-60010874D01*
X149873631Y-60007533D01*
X149959394Y-59879179D01*
X150019737Y-59733497D01*
X150050500Y-59578842D01*
X150050500Y-59421158D01*
X150050500Y-59421155D01*
X150050499Y-59421153D01*
X150032367Y-59329993D01*
X150028523Y-59310668D01*
X166465002Y-59310668D01*
X166465002Y-59489331D01*
X166492948Y-59665780D01*
X166548157Y-59835693D01*
X166629262Y-59994869D01*
X166638653Y-60007793D01*
X166638654Y-60007794D01*
X167219002Y-59427446D01*
X167219002Y-59450160D01*
X167244966Y-59547061D01*
X167295126Y-59633940D01*
X167366062Y-59704876D01*
X167452941Y-59755036D01*
X167549842Y-59781000D01*
X167572556Y-59781000D01*
X166992207Y-60361347D01*
X166992207Y-60361348D01*
X167005131Y-60370738D01*
X167164308Y-60451844D01*
X167334221Y-60507053D01*
X167510671Y-60535000D01*
X167689333Y-60535000D01*
X167865782Y-60507053D01*
X168035695Y-60451844D01*
X168194869Y-60370739D01*
X168194874Y-60370737D01*
X168207796Y-60361347D01*
X167627449Y-59781000D01*
X167650162Y-59781000D01*
X167747063Y-59755036D01*
X167833942Y-59704876D01*
X167904878Y-59633940D01*
X167955038Y-59547061D01*
X167981002Y-59450160D01*
X167981002Y-59427446D01*
X168561349Y-60007793D01*
X168564658Y-60007533D01*
X168633035Y-60021899D01*
X168674701Y-60058265D01*
X168715931Y-60115011D01*
X168733889Y-60139728D01*
X168860272Y-60266111D01*
X169004868Y-60371167D01*
X169164119Y-60452309D01*
X169164121Y-60452310D01*
X169221884Y-60471078D01*
X169334103Y-60507540D01*
X169510634Y-60535500D01*
X169510635Y-60535500D01*
X169689365Y-60535500D01*
X169689366Y-60535500D01*
X169865897Y-60507540D01*
X169865900Y-60507539D01*
X169865901Y-60507539D01*
X170035878Y-60452310D01*
X170035878Y-60452309D01*
X170035881Y-60452309D01*
X170195132Y-60371167D01*
X170339728Y-60266111D01*
X170466111Y-60139728D01*
X170499683Y-60093519D01*
X170555011Y-60050855D01*
X170624625Y-60044876D01*
X170686420Y-60077481D01*
X170700315Y-60093517D01*
X170733890Y-60139728D01*
X170860273Y-60266111D01*
X171004869Y-60371167D01*
X171164120Y-60452309D01*
X171164122Y-60452310D01*
X171221885Y-60471078D01*
X171334104Y-60507540D01*
X171510635Y-60535500D01*
X171510636Y-60535500D01*
X171689366Y-60535500D01*
X171689367Y-60535500D01*
X171865898Y-60507540D01*
X171865901Y-60507539D01*
X171865902Y-60507539D01*
X172035879Y-60452310D01*
X172035879Y-60452309D01*
X172035882Y-60452309D01*
X172195133Y-60371167D01*
X172339729Y-60266111D01*
X172466112Y-60139728D01*
X172499685Y-60093518D01*
X172555011Y-60050856D01*
X172624624Y-60044877D01*
X172686419Y-60077482D01*
X172700314Y-60093516D01*
X172733889Y-60139728D01*
X172860272Y-60266111D01*
X173004868Y-60371167D01*
X173164119Y-60452309D01*
X173164121Y-60452310D01*
X173221884Y-60471078D01*
X173334103Y-60507540D01*
X173510634Y-60535500D01*
X173510635Y-60535500D01*
X173689365Y-60535500D01*
X173689366Y-60535500D01*
X173865897Y-60507540D01*
X173865900Y-60507539D01*
X173865901Y-60507539D01*
X174035878Y-60452310D01*
X174035878Y-60452309D01*
X174035881Y-60452309D01*
X174195132Y-60371167D01*
X174339728Y-60266111D01*
X174466111Y-60139728D01*
X174571167Y-59995132D01*
X174652309Y-59835881D01*
X174679394Y-59752522D01*
X174707539Y-59665901D01*
X174707539Y-59665900D01*
X174707540Y-59665897D01*
X174735500Y-59489366D01*
X174735500Y-59310634D01*
X174707540Y-59134103D01*
X174707539Y-59134099D01*
X174707539Y-59134098D01*
X174652310Y-58964121D01*
X174652308Y-58964118D01*
X174646992Y-58953683D01*
X174571167Y-58804868D01*
X174466111Y-58660272D01*
X174339728Y-58533889D01*
X174195132Y-58428833D01*
X174035881Y-58347691D01*
X174035878Y-58347689D01*
X173865899Y-58292460D01*
X173748209Y-58273820D01*
X173689366Y-58264500D01*
X173510634Y-58264500D01*
X173451790Y-58273820D01*
X173334101Y-58292460D01*
X173334098Y-58292460D01*
X173164121Y-58347689D01*
X173164118Y-58347691D01*
X173004867Y-58428833D01*
X172860270Y-58533890D01*
X172733888Y-58660272D01*
X172700317Y-58706479D01*
X172644987Y-58749144D01*
X172575373Y-58755122D01*
X172513578Y-58722515D01*
X172499682Y-58706477D01*
X172466114Y-58660275D01*
X172466109Y-58660269D01*
X172339730Y-58533890D01*
X172308391Y-58511121D01*
X172195133Y-58428833D01*
X172035882Y-58347691D01*
X172035879Y-58347689D01*
X171865900Y-58292460D01*
X171748210Y-58273820D01*
X171689367Y-58264500D01*
X171510635Y-58264500D01*
X171451791Y-58273820D01*
X171334102Y-58292460D01*
X171334099Y-58292460D01*
X171164122Y-58347689D01*
X171164119Y-58347691D01*
X171004868Y-58428833D01*
X170860271Y-58533890D01*
X170733889Y-58660272D01*
X170700317Y-58706480D01*
X170644986Y-58749145D01*
X170575373Y-58755123D01*
X170513578Y-58722516D01*
X170499683Y-58706480D01*
X170466111Y-58660272D01*
X170339728Y-58533889D01*
X170195132Y-58428833D01*
X170035881Y-58347691D01*
X170035878Y-58347689D01*
X169865899Y-58292460D01*
X169748209Y-58273820D01*
X169689366Y-58264500D01*
X169510634Y-58264500D01*
X169451790Y-58273820D01*
X169334101Y-58292460D01*
X169334098Y-58292460D01*
X169164121Y-58347689D01*
X169164118Y-58347691D01*
X169004867Y-58428833D01*
X168860270Y-58533890D01*
X168733888Y-58660272D01*
X168674702Y-58741734D01*
X168619372Y-58784399D01*
X168564659Y-58792465D01*
X168561350Y-58792204D01*
X167981002Y-59372552D01*
X167981002Y-59349840D01*
X167955038Y-59252939D01*
X167904878Y-59166060D01*
X167833942Y-59095124D01*
X167747063Y-59044964D01*
X167650162Y-59019000D01*
X167627449Y-59019000D01*
X168207796Y-58438652D01*
X168207795Y-58438651D01*
X168194871Y-58429260D01*
X168035695Y-58348155D01*
X167865782Y-58292946D01*
X167689333Y-58265000D01*
X167510671Y-58265000D01*
X167334221Y-58292946D01*
X167164308Y-58348155D01*
X167005129Y-58429262D01*
X166992207Y-58438651D01*
X166992206Y-58438651D01*
X167572556Y-59019000D01*
X167549842Y-59019000D01*
X167452941Y-59044964D01*
X167366062Y-59095124D01*
X167295126Y-59166060D01*
X167244966Y-59252939D01*
X167219002Y-59349840D01*
X167219002Y-59372553D01*
X166638653Y-58792204D01*
X166638653Y-58792205D01*
X166629264Y-58805127D01*
X166548157Y-58964306D01*
X166492948Y-59134219D01*
X166465002Y-59310668D01*
X150028523Y-59310668D01*
X150019738Y-59266508D01*
X150019737Y-59266507D01*
X150019737Y-59266503D01*
X149993718Y-59203686D01*
X149959397Y-59120827D01*
X149959390Y-59120814D01*
X149871789Y-58989711D01*
X149871786Y-58989707D01*
X149760292Y-58878213D01*
X149760288Y-58878210D01*
X149629185Y-58790609D01*
X149629172Y-58790602D01*
X149483501Y-58730264D01*
X149483489Y-58730261D01*
X149328845Y-58699500D01*
X149328842Y-58699500D01*
X149171158Y-58699500D01*
X149171155Y-58699500D01*
X149016510Y-58730261D01*
X149016498Y-58730264D01*
X148870827Y-58790602D01*
X148870814Y-58790609D01*
X148739711Y-58878210D01*
X148739707Y-58878213D01*
X148628213Y-58989707D01*
X148628210Y-58989711D01*
X148540609Y-59120814D01*
X148540602Y-59120827D01*
X148480264Y-59266498D01*
X148480261Y-59266510D01*
X148449500Y-59421153D01*
X144400513Y-59421153D01*
X144404535Y-59395759D01*
X144404549Y-59395669D01*
X144410400Y-59358725D01*
X144410400Y-59176069D01*
X144381827Y-58995671D01*
X144325383Y-58821956D01*
X144242462Y-58659217D01*
X144229531Y-58641420D01*
X144229531Y-58641419D01*
X143656400Y-59214551D01*
X143656400Y-59213896D01*
X143628705Y-59110535D01*
X143575201Y-59017864D01*
X143499536Y-58942199D01*
X143406865Y-58888695D01*
X143303504Y-58861000D01*
X143302847Y-58861000D01*
X143765617Y-58398229D01*
X143875978Y-58287867D01*
X143858178Y-58274935D01*
X143695443Y-58192016D01*
X143521728Y-58135572D01*
X143341330Y-58107000D01*
X143158670Y-58107000D01*
X142978271Y-58135572D01*
X142804556Y-58192016D01*
X142641813Y-58274939D01*
X142641808Y-58274943D01*
X142624020Y-58287865D01*
X142624020Y-58287868D01*
X143197154Y-58861000D01*
X143196496Y-58861000D01*
X143093135Y-58888695D01*
X143000464Y-58942199D01*
X142924799Y-59017864D01*
X142871295Y-59110535D01*
X142843600Y-59213896D01*
X142843600Y-59214552D01*
X142259100Y-58630052D01*
X142233181Y-58624608D01*
X142228440Y-58620825D01*
X142225059Y-58619842D01*
X142213165Y-58608638D01*
X142198326Y-58596798D01*
X142194730Y-58592670D01*
X142135484Y-58511124D01*
X142006275Y-58381915D01*
X141858443Y-58274509D01*
X141695630Y-58191552D01*
X141521844Y-58135085D01*
X141521842Y-58135084D01*
X141521840Y-58135084D01*
X141341369Y-58106500D01*
X141341364Y-58106500D01*
X141158634Y-58106500D01*
X141158629Y-58106500D01*
X140978157Y-58135084D01*
X140804365Y-58191553D01*
X140641554Y-58274509D01*
X140493720Y-58381917D01*
X140364516Y-58511121D01*
X140257108Y-58658955D01*
X140174152Y-58821766D01*
X140117683Y-58995558D01*
X140089099Y-59176029D01*
X136643565Y-59176029D01*
X136663700Y-59134219D01*
X136671818Y-59117362D01*
X136671818Y-59117361D01*
X136705969Y-59046446D01*
X136776469Y-58900051D01*
X136887776Y-58581954D01*
X136962767Y-58253394D01*
X137000500Y-57918504D01*
X137000500Y-57581496D01*
X137000499Y-57581491D01*
X137000499Y-57581489D01*
X136973505Y-57341900D01*
X136972332Y-57331491D01*
X177999500Y-57331491D01*
X177999500Y-57668508D01*
X178037231Y-58003381D01*
X178037233Y-58003397D01*
X178112223Y-58331953D01*
X178112227Y-58331965D01*
X178223532Y-58650054D01*
X178369752Y-58953683D01*
X178376311Y-58964121D01*
X178549054Y-59239039D01*
X178759175Y-59502523D01*
X178997477Y-59740825D01*
X179260961Y-59950946D01*
X179546314Y-60130246D01*
X179849949Y-60276469D01*
X180088848Y-60360063D01*
X180168034Y-60387772D01*
X180168046Y-60387776D01*
X180496606Y-60462767D01*
X180831492Y-60500499D01*
X180831493Y-60500500D01*
X180831496Y-60500500D01*
X181168507Y-60500500D01*
X181168507Y-60500499D01*
X181503394Y-60462767D01*
X181831954Y-60387776D01*
X182150051Y-60276469D01*
X182453686Y-60130246D01*
X182739039Y-59950946D01*
X183002523Y-59740825D01*
X183240825Y-59502523D01*
X183450946Y-59239039D01*
X183630246Y-58953686D01*
X183776469Y-58650051D01*
X183887776Y-58331954D01*
X183962767Y-58003394D01*
X184000500Y-57668504D01*
X184000500Y-57331496D01*
X183962767Y-56996606D01*
X183887776Y-56668046D01*
X183776469Y-56349949D01*
X183630246Y-56046314D01*
X183450946Y-55760961D01*
X183240825Y-55497477D01*
X183002523Y-55259175D01*
X182739039Y-55049054D01*
X182453686Y-54869754D01*
X182453683Y-54869752D01*
X182150054Y-54723532D01*
X181831965Y-54612227D01*
X181831953Y-54612223D01*
X181503397Y-54537233D01*
X181503381Y-54537231D01*
X181168508Y-54499500D01*
X181168504Y-54499500D01*
X180831496Y-54499500D01*
X180831491Y-54499500D01*
X180496618Y-54537231D01*
X180496602Y-54537233D01*
X180168046Y-54612223D01*
X180168034Y-54612227D01*
X179849945Y-54723532D01*
X179546316Y-54869752D01*
X179260962Y-55049053D01*
X178997477Y-55259174D01*
X178759174Y-55497477D01*
X178549053Y-55760962D01*
X178369752Y-56046316D01*
X178223532Y-56349945D01*
X178112227Y-56668034D01*
X178112223Y-56668046D01*
X178037233Y-56996602D01*
X178037231Y-56996618D01*
X177999500Y-57331491D01*
X136972332Y-57331491D01*
X136962768Y-57246618D01*
X136962767Y-57246606D01*
X136887776Y-56918046D01*
X136776469Y-56599949D01*
X136630246Y-56296314D01*
X136450946Y-56010961D01*
X136240825Y-55747477D01*
X136002523Y-55509175D01*
X135739039Y-55299054D01*
X135453686Y-55119754D01*
X135453683Y-55119752D01*
X135150054Y-54973532D01*
X134831965Y-54862227D01*
X134831953Y-54862223D01*
X134503397Y-54787233D01*
X134503381Y-54787231D01*
X134168508Y-54749500D01*
X134168504Y-54749500D01*
X133831496Y-54749500D01*
X133831491Y-54749500D01*
X133496618Y-54787231D01*
X133496602Y-54787233D01*
X133168046Y-54862223D01*
X133168034Y-54862227D01*
X132849945Y-54973532D01*
X132546316Y-55119752D01*
X132260962Y-55299053D01*
X131997477Y-55509174D01*
X131759174Y-55747477D01*
X131549053Y-56010962D01*
X131369752Y-56296316D01*
X131223532Y-56599945D01*
X131112227Y-56918034D01*
X131112223Y-56918046D01*
X131037233Y-57246602D01*
X131037231Y-57246618D01*
X130999500Y-57581491D01*
X129300500Y-57581491D01*
X129300500Y-53224500D01*
X129320185Y-53157461D01*
X129372989Y-53111706D01*
X129424500Y-53100500D01*
X185275500Y-53100500D01*
X185342539Y-53120185D01*
G37*
G04 #@! TD.AperFunction*
M02*
