G04 #@! TF.GenerationSoftware,KiCad,Pcbnew,9.0.0*
G04 #@! TF.CreationDate,2025-04-23T00:50:18-04:00*
G04 #@! TF.ProjectId,HallEffectManager,48616c6c-4566-4666-9563-744d616e6167,rev?*
G04 #@! TF.SameCoordinates,Original*
G04 #@! TF.FileFunction,Soldermask,Bot*
G04 #@! TF.FilePolarity,Negative*
%FSLAX46Y46*%
G04 Gerber Fmt 4.6, Leading zero omitted, Abs format (unit mm)*
G04 Created by KiCad (PCBNEW 9.0.0) date 2025-04-23 00:50:18*
%MOMM*%
%LPD*%
G01*
G04 APERTURE LIST*
G04 Aperture macros list*
%AMRoundRect*
0 Rectangle with rounded corners*
0 $1 Rounding radius*
0 $2 $3 $4 $5 $6 $7 $8 $9 X,Y pos of 4 corners*
0 Add a 4 corners polygon primitive as box body*
4,1,4,$2,$3,$4,$5,$6,$7,$8,$9,$2,$3,0*
0 Add four circle primitives for the rounded corners*
1,1,$1+$1,$2,$3*
1,1,$1+$1,$4,$5*
1,1,$1+$1,$6,$7*
1,1,$1+$1,$8,$9*
0 Add four rect primitives between the rounded corners*
20,1,$1+$1,$2,$3,$4,$5,0*
20,1,$1+$1,$4,$5,$6,$7,0*
20,1,$1+$1,$6,$7,$8,$9,0*
20,1,$1+$1,$8,$9,$2,$3,0*%
G04 Aperture macros list end*
%ADD10C,5.000000*%
%ADD11C,1.219200*%
%ADD12C,1.320800*%
%ADD13C,1.270000*%
%ADD14RoundRect,0.237500X-0.237500X0.250000X-0.237500X-0.250000X0.237500X-0.250000X0.237500X0.250000X0*%
%ADD15RoundRect,0.200000X-0.750000X-0.200000X0.750000X-0.200000X0.750000X0.200000X-0.750000X0.200000X0*%
G04 APERTURE END LIST*
D10*
X180750000Y-87750000D03*
D11*
X142400000Y-86100000D03*
X144400000Y-86100000D03*
X146400001Y-86100000D03*
X159800000Y-86082600D03*
X161800000Y-86082600D03*
X163800001Y-86082600D03*
D10*
X134000000Y-57750000D03*
D11*
X168500000Y-86100000D03*
X170500000Y-86100000D03*
X172500001Y-86100000D03*
D12*
X179232600Y-66750000D03*
X179232600Y-64749999D03*
X143250000Y-59267400D03*
X141249999Y-59267400D03*
D10*
X181000000Y-57500000D03*
X133750000Y-87750000D03*
D11*
X151099999Y-86100000D03*
X153099999Y-86100000D03*
X155100000Y-86100000D03*
D13*
X173600000Y-59400000D03*
X171600001Y-59400000D03*
X169600000Y-59400000D03*
X167600002Y-59400000D03*
D14*
X149600000Y-85387500D03*
X149600000Y-87212500D03*
X158200000Y-85287500D03*
X158200000Y-87112500D03*
D15*
X150900000Y-90750000D03*
X150900000Y-88850000D03*
X153900000Y-89800000D03*
X142600000Y-90450000D03*
X142600000Y-88550000D03*
X145600000Y-89500000D03*
D14*
X140700000Y-84987500D03*
X140700000Y-86812500D03*
X166900000Y-85187500D03*
X166900000Y-87012500D03*
D15*
X168400000Y-90450000D03*
X168400000Y-88550000D03*
X171400000Y-89500000D03*
X160500000Y-90550000D03*
X160500000Y-88650000D03*
X163500000Y-89600000D03*
M02*
