G04 #@! TF.GenerationSoftware,KiCad,Pcbnew,9.0.0*
G04 #@! TF.CreationDate,2025-04-23T00:50:18-04:00*
G04 #@! TF.ProjectId,HallEffectManager,48616c6c-4566-4666-9563-744d616e6167,rev?*
G04 #@! TF.SameCoordinates,Original*
G04 #@! TF.FileFunction,Legend,Bot*
G04 #@! TF.FilePolarity,Positive*
%FSLAX46Y46*%
G04 Gerber Fmt 4.6, Leading zero omitted, Abs format (unit mm)*
G04 Created by KiCad (PCBNEW 9.0.0) date 2025-04-23 00:50:18*
%MOMM*%
%LPD*%
G01*
G04 APERTURE LIST*
G04 Aperture macros list*
%AMRoundRect*
0 Rectangle with rounded corners*
0 $1 Rounding radius*
0 $2 $3 $4 $5 $6 $7 $8 $9 X,Y pos of 4 corners*
0 Add a 4 corners polygon primitive as box body*
4,1,4,$2,$3,$4,$5,$6,$7,$8,$9,$2,$3,0*
0 Add four circle primitives for the rounded corners*
1,1,$1+$1,$2,$3*
1,1,$1+$1,$4,$5*
1,1,$1+$1,$6,$7*
1,1,$1+$1,$8,$9*
0 Add four rect primitives between the rounded corners*
20,1,$1+$1,$2,$3,$4,$5,0*
20,1,$1+$1,$4,$5,$6,$7,0*
20,1,$1+$1,$6,$7,$8,$9,0*
20,1,$1+$1,$8,$9,$2,$3,0*%
G04 Aperture macros list end*
%ADD10C,0.150000*%
%ADD11C,0.100000*%
%ADD12C,0.120000*%
%ADD13C,5.000000*%
%ADD14C,1.219200*%
%ADD15C,1.320800*%
%ADD16C,1.270000*%
%ADD17RoundRect,0.237500X-0.237500X0.250000X-0.237500X-0.250000X0.237500X-0.250000X0.237500X0.250000X0*%
%ADD18RoundRect,0.200000X-0.750000X-0.200000X0.750000X-0.200000X0.750000X0.200000X-0.750000X0.200000X0*%
G04 APERTURE END LIST*
D10*
X148624819Y-85657142D02*
X148148628Y-85323809D01*
X148624819Y-85085714D02*
X147624819Y-85085714D01*
X147624819Y-85085714D02*
X147624819Y-85466666D01*
X147624819Y-85466666D02*
X147672438Y-85561904D01*
X147672438Y-85561904D02*
X147720057Y-85609523D01*
X147720057Y-85609523D02*
X147815295Y-85657142D01*
X147815295Y-85657142D02*
X147958152Y-85657142D01*
X147958152Y-85657142D02*
X148053390Y-85609523D01*
X148053390Y-85609523D02*
X148101009Y-85561904D01*
X148101009Y-85561904D02*
X148148628Y-85466666D01*
X148148628Y-85466666D02*
X148148628Y-85085714D01*
X148624819Y-86609523D02*
X148624819Y-86038095D01*
X148624819Y-86323809D02*
X147624819Y-86323809D01*
X147624819Y-86323809D02*
X147767676Y-86228571D01*
X147767676Y-86228571D02*
X147862914Y-86133333D01*
X147862914Y-86133333D02*
X147910533Y-86038095D01*
X147720057Y-86990476D02*
X147672438Y-87038095D01*
X147672438Y-87038095D02*
X147624819Y-87133333D01*
X147624819Y-87133333D02*
X147624819Y-87371428D01*
X147624819Y-87371428D02*
X147672438Y-87466666D01*
X147672438Y-87466666D02*
X147720057Y-87514285D01*
X147720057Y-87514285D02*
X147815295Y-87561904D01*
X147815295Y-87561904D02*
X147910533Y-87561904D01*
X147910533Y-87561904D02*
X148053390Y-87514285D01*
X148053390Y-87514285D02*
X148624819Y-86942857D01*
X148624819Y-86942857D02*
X148624819Y-87561904D01*
X157224819Y-85557142D02*
X156748628Y-85223809D01*
X157224819Y-84985714D02*
X156224819Y-84985714D01*
X156224819Y-84985714D02*
X156224819Y-85366666D01*
X156224819Y-85366666D02*
X156272438Y-85461904D01*
X156272438Y-85461904D02*
X156320057Y-85509523D01*
X156320057Y-85509523D02*
X156415295Y-85557142D01*
X156415295Y-85557142D02*
X156558152Y-85557142D01*
X156558152Y-85557142D02*
X156653390Y-85509523D01*
X156653390Y-85509523D02*
X156701009Y-85461904D01*
X156701009Y-85461904D02*
X156748628Y-85366666D01*
X156748628Y-85366666D02*
X156748628Y-84985714D01*
X157224819Y-86509523D02*
X157224819Y-85938095D01*
X157224819Y-86223809D02*
X156224819Y-86223809D01*
X156224819Y-86223809D02*
X156367676Y-86128571D01*
X156367676Y-86128571D02*
X156462914Y-86033333D01*
X156462914Y-86033333D02*
X156510533Y-85938095D01*
X156558152Y-87366666D02*
X157224819Y-87366666D01*
X156177200Y-87128571D02*
X156891485Y-86890476D01*
X156891485Y-86890476D02*
X156891485Y-87509523D01*
X156195238Y-89150057D02*
X156290476Y-89102438D01*
X156290476Y-89102438D02*
X156385714Y-89007200D01*
X156385714Y-89007200D02*
X156528571Y-88864342D01*
X156528571Y-88864342D02*
X156623809Y-88816723D01*
X156623809Y-88816723D02*
X156719047Y-88816723D01*
X156671428Y-89054819D02*
X156766666Y-89007200D01*
X156766666Y-89007200D02*
X156861904Y-88911961D01*
X156861904Y-88911961D02*
X156909523Y-88721485D01*
X156909523Y-88721485D02*
X156909523Y-88388152D01*
X156909523Y-88388152D02*
X156861904Y-88197676D01*
X156861904Y-88197676D02*
X156766666Y-88102438D01*
X156766666Y-88102438D02*
X156671428Y-88054819D01*
X156671428Y-88054819D02*
X156480952Y-88054819D01*
X156480952Y-88054819D02*
X156385714Y-88102438D01*
X156385714Y-88102438D02*
X156290476Y-88197676D01*
X156290476Y-88197676D02*
X156242857Y-88388152D01*
X156242857Y-88388152D02*
X156242857Y-88721485D01*
X156242857Y-88721485D02*
X156290476Y-88911961D01*
X156290476Y-88911961D02*
X156385714Y-89007200D01*
X156385714Y-89007200D02*
X156480952Y-89054819D01*
X156480952Y-89054819D02*
X156671428Y-89054819D01*
X155861904Y-88150057D02*
X155814285Y-88102438D01*
X155814285Y-88102438D02*
X155719047Y-88054819D01*
X155719047Y-88054819D02*
X155480952Y-88054819D01*
X155480952Y-88054819D02*
X155385714Y-88102438D01*
X155385714Y-88102438D02*
X155338095Y-88150057D01*
X155338095Y-88150057D02*
X155290476Y-88245295D01*
X155290476Y-88245295D02*
X155290476Y-88340533D01*
X155290476Y-88340533D02*
X155338095Y-88483390D01*
X155338095Y-88483390D02*
X155909523Y-89054819D01*
X155909523Y-89054819D02*
X155290476Y-89054819D01*
X147895238Y-89050057D02*
X147990476Y-89002438D01*
X147990476Y-89002438D02*
X148085714Y-88907200D01*
X148085714Y-88907200D02*
X148228571Y-88764342D01*
X148228571Y-88764342D02*
X148323809Y-88716723D01*
X148323809Y-88716723D02*
X148419047Y-88716723D01*
X148371428Y-88954819D02*
X148466666Y-88907200D01*
X148466666Y-88907200D02*
X148561904Y-88811961D01*
X148561904Y-88811961D02*
X148609523Y-88621485D01*
X148609523Y-88621485D02*
X148609523Y-88288152D01*
X148609523Y-88288152D02*
X148561904Y-88097676D01*
X148561904Y-88097676D02*
X148466666Y-88002438D01*
X148466666Y-88002438D02*
X148371428Y-87954819D01*
X148371428Y-87954819D02*
X148180952Y-87954819D01*
X148180952Y-87954819D02*
X148085714Y-88002438D01*
X148085714Y-88002438D02*
X147990476Y-88097676D01*
X147990476Y-88097676D02*
X147942857Y-88288152D01*
X147942857Y-88288152D02*
X147942857Y-88621485D01*
X147942857Y-88621485D02*
X147990476Y-88811961D01*
X147990476Y-88811961D02*
X148085714Y-88907200D01*
X148085714Y-88907200D02*
X148180952Y-88954819D01*
X148180952Y-88954819D02*
X148371428Y-88954819D01*
X146990476Y-88954819D02*
X147561904Y-88954819D01*
X147276190Y-88954819D02*
X147276190Y-87954819D01*
X147276190Y-87954819D02*
X147371428Y-88097676D01*
X147371428Y-88097676D02*
X147466666Y-88192914D01*
X147466666Y-88192914D02*
X147561904Y-88240533D01*
D11*
X139864895Y-85385714D02*
X139483942Y-85119047D01*
X139864895Y-84928571D02*
X139064895Y-84928571D01*
X139064895Y-84928571D02*
X139064895Y-85233333D01*
X139064895Y-85233333D02*
X139102990Y-85309523D01*
X139102990Y-85309523D02*
X139141085Y-85347618D01*
X139141085Y-85347618D02*
X139217276Y-85385714D01*
X139217276Y-85385714D02*
X139331561Y-85385714D01*
X139331561Y-85385714D02*
X139407752Y-85347618D01*
X139407752Y-85347618D02*
X139445847Y-85309523D01*
X139445847Y-85309523D02*
X139483942Y-85233333D01*
X139483942Y-85233333D02*
X139483942Y-84928571D01*
X139864895Y-86147618D02*
X139864895Y-85690475D01*
X139864895Y-85919047D02*
X139064895Y-85919047D01*
X139064895Y-85919047D02*
X139179180Y-85842856D01*
X139179180Y-85842856D02*
X139255371Y-85766666D01*
X139255371Y-85766666D02*
X139293466Y-85690475D01*
X139064895Y-86642857D02*
X139064895Y-86719047D01*
X139064895Y-86719047D02*
X139102990Y-86795238D01*
X139102990Y-86795238D02*
X139141085Y-86833333D01*
X139141085Y-86833333D02*
X139217276Y-86871428D01*
X139217276Y-86871428D02*
X139369657Y-86909523D01*
X139369657Y-86909523D02*
X139560133Y-86909523D01*
X139560133Y-86909523D02*
X139712514Y-86871428D01*
X139712514Y-86871428D02*
X139788704Y-86833333D01*
X139788704Y-86833333D02*
X139826800Y-86795238D01*
X139826800Y-86795238D02*
X139864895Y-86719047D01*
X139864895Y-86719047D02*
X139864895Y-86642857D01*
X139864895Y-86642857D02*
X139826800Y-86566666D01*
X139826800Y-86566666D02*
X139788704Y-86528571D01*
X139788704Y-86528571D02*
X139712514Y-86490476D01*
X139712514Y-86490476D02*
X139560133Y-86452380D01*
X139560133Y-86452380D02*
X139369657Y-86452380D01*
X139369657Y-86452380D02*
X139217276Y-86490476D01*
X139217276Y-86490476D02*
X139141085Y-86528571D01*
X139141085Y-86528571D02*
X139102990Y-86566666D01*
X139102990Y-86566666D02*
X139064895Y-86642857D01*
D10*
X165924819Y-85457142D02*
X165448628Y-85123809D01*
X165924819Y-84885714D02*
X164924819Y-84885714D01*
X164924819Y-84885714D02*
X164924819Y-85266666D01*
X164924819Y-85266666D02*
X164972438Y-85361904D01*
X164972438Y-85361904D02*
X165020057Y-85409523D01*
X165020057Y-85409523D02*
X165115295Y-85457142D01*
X165115295Y-85457142D02*
X165258152Y-85457142D01*
X165258152Y-85457142D02*
X165353390Y-85409523D01*
X165353390Y-85409523D02*
X165401009Y-85361904D01*
X165401009Y-85361904D02*
X165448628Y-85266666D01*
X165448628Y-85266666D02*
X165448628Y-84885714D01*
X165924819Y-86409523D02*
X165924819Y-85838095D01*
X165924819Y-86123809D02*
X164924819Y-86123809D01*
X164924819Y-86123809D02*
X165067676Y-86028571D01*
X165067676Y-86028571D02*
X165162914Y-85933333D01*
X165162914Y-85933333D02*
X165210533Y-85838095D01*
X164924819Y-87266666D02*
X164924819Y-87076190D01*
X164924819Y-87076190D02*
X164972438Y-86980952D01*
X164972438Y-86980952D02*
X165020057Y-86933333D01*
X165020057Y-86933333D02*
X165162914Y-86838095D01*
X165162914Y-86838095D02*
X165353390Y-86790476D01*
X165353390Y-86790476D02*
X165734342Y-86790476D01*
X165734342Y-86790476D02*
X165829580Y-86838095D01*
X165829580Y-86838095D02*
X165877200Y-86885714D01*
X165877200Y-86885714D02*
X165924819Y-86980952D01*
X165924819Y-86980952D02*
X165924819Y-87171428D01*
X165924819Y-87171428D02*
X165877200Y-87266666D01*
X165877200Y-87266666D02*
X165829580Y-87314285D01*
X165829580Y-87314285D02*
X165734342Y-87361904D01*
X165734342Y-87361904D02*
X165496247Y-87361904D01*
X165496247Y-87361904D02*
X165401009Y-87314285D01*
X165401009Y-87314285D02*
X165353390Y-87266666D01*
X165353390Y-87266666D02*
X165305771Y-87171428D01*
X165305771Y-87171428D02*
X165305771Y-86980952D01*
X165305771Y-86980952D02*
X165353390Y-86885714D01*
X165353390Y-86885714D02*
X165401009Y-86838095D01*
X165401009Y-86838095D02*
X165496247Y-86790476D01*
X173695238Y-88750057D02*
X173790476Y-88702438D01*
X173790476Y-88702438D02*
X173885714Y-88607200D01*
X173885714Y-88607200D02*
X174028571Y-88464342D01*
X174028571Y-88464342D02*
X174123809Y-88416723D01*
X174123809Y-88416723D02*
X174219047Y-88416723D01*
X174171428Y-88654819D02*
X174266666Y-88607200D01*
X174266666Y-88607200D02*
X174361904Y-88511961D01*
X174361904Y-88511961D02*
X174409523Y-88321485D01*
X174409523Y-88321485D02*
X174409523Y-87988152D01*
X174409523Y-87988152D02*
X174361904Y-87797676D01*
X174361904Y-87797676D02*
X174266666Y-87702438D01*
X174266666Y-87702438D02*
X174171428Y-87654819D01*
X174171428Y-87654819D02*
X173980952Y-87654819D01*
X173980952Y-87654819D02*
X173885714Y-87702438D01*
X173885714Y-87702438D02*
X173790476Y-87797676D01*
X173790476Y-87797676D02*
X173742857Y-87988152D01*
X173742857Y-87988152D02*
X173742857Y-88321485D01*
X173742857Y-88321485D02*
X173790476Y-88511961D01*
X173790476Y-88511961D02*
X173885714Y-88607200D01*
X173885714Y-88607200D02*
X173980952Y-88654819D01*
X173980952Y-88654819D02*
X174171428Y-88654819D01*
X172885714Y-87988152D02*
X172885714Y-88654819D01*
X173123809Y-87607200D02*
X173361904Y-88321485D01*
X173361904Y-88321485D02*
X172742857Y-88321485D01*
X164795238Y-88850057D02*
X164890476Y-88802438D01*
X164890476Y-88802438D02*
X164985714Y-88707200D01*
X164985714Y-88707200D02*
X165128571Y-88564342D01*
X165128571Y-88564342D02*
X165223809Y-88516723D01*
X165223809Y-88516723D02*
X165319047Y-88516723D01*
X165271428Y-88754819D02*
X165366666Y-88707200D01*
X165366666Y-88707200D02*
X165461904Y-88611961D01*
X165461904Y-88611961D02*
X165509523Y-88421485D01*
X165509523Y-88421485D02*
X165509523Y-88088152D01*
X165509523Y-88088152D02*
X165461904Y-87897676D01*
X165461904Y-87897676D02*
X165366666Y-87802438D01*
X165366666Y-87802438D02*
X165271428Y-87754819D01*
X165271428Y-87754819D02*
X165080952Y-87754819D01*
X165080952Y-87754819D02*
X164985714Y-87802438D01*
X164985714Y-87802438D02*
X164890476Y-87897676D01*
X164890476Y-87897676D02*
X164842857Y-88088152D01*
X164842857Y-88088152D02*
X164842857Y-88421485D01*
X164842857Y-88421485D02*
X164890476Y-88611961D01*
X164890476Y-88611961D02*
X164985714Y-88707200D01*
X164985714Y-88707200D02*
X165080952Y-88754819D01*
X165080952Y-88754819D02*
X165271428Y-88754819D01*
X164509523Y-87754819D02*
X163890476Y-87754819D01*
X163890476Y-87754819D02*
X164223809Y-88135771D01*
X164223809Y-88135771D02*
X164080952Y-88135771D01*
X164080952Y-88135771D02*
X163985714Y-88183390D01*
X163985714Y-88183390D02*
X163938095Y-88231009D01*
X163938095Y-88231009D02*
X163890476Y-88326247D01*
X163890476Y-88326247D02*
X163890476Y-88564342D01*
X163890476Y-88564342D02*
X163938095Y-88659580D01*
X163938095Y-88659580D02*
X163985714Y-88707200D01*
X163985714Y-88707200D02*
X164080952Y-88754819D01*
X164080952Y-88754819D02*
X164366666Y-88754819D01*
X164366666Y-88754819D02*
X164461904Y-88707200D01*
X164461904Y-88707200D02*
X164509523Y-88659580D01*
D12*
X149077500Y-86045276D02*
X149077500Y-86554724D01*
X150122500Y-86045276D02*
X150122500Y-86554724D01*
X157677500Y-85945276D02*
X157677500Y-86454724D01*
X158722500Y-85945276D02*
X158722500Y-86454724D01*
X152360000Y-91380000D02*
X151560000Y-91380000D01*
X152360000Y-91380000D02*
X153160000Y-91380000D01*
X153160000Y-88220000D02*
X151700000Y-88220000D01*
X153160000Y-88220000D02*
X153160000Y-89150000D01*
X153160000Y-91380000D02*
X153160000Y-90450000D01*
X151300000Y-91740000D02*
X150820000Y-91740000D01*
X151060000Y-91410000D01*
X151300000Y-91740000D01*
G36*
X151300000Y-91740000D02*
G01*
X150820000Y-91740000D01*
X151060000Y-91410000D01*
X151300000Y-91740000D01*
G37*
X144060000Y-91080000D02*
X143260000Y-91080000D01*
X144060000Y-91080000D02*
X144860000Y-91080000D01*
X144860000Y-87920000D02*
X143400000Y-87920000D01*
X144860000Y-87920000D02*
X144860000Y-88850000D01*
X144860000Y-91080000D02*
X144860000Y-90150000D01*
X143000000Y-91440000D02*
X142520000Y-91440000D01*
X142760000Y-91110000D01*
X143000000Y-91440000D01*
G36*
X143000000Y-91440000D02*
G01*
X142520000Y-91440000D01*
X142760000Y-91110000D01*
X143000000Y-91440000D01*
G37*
X140177500Y-85645276D02*
X140177500Y-86154724D01*
X141222500Y-85645276D02*
X141222500Y-86154724D01*
X166377500Y-85845276D02*
X166377500Y-86354724D01*
X167422500Y-85845276D02*
X167422500Y-86354724D01*
X169860000Y-91080000D02*
X169060000Y-91080000D01*
X169860000Y-91080000D02*
X170660000Y-91080000D01*
X170660000Y-87920000D02*
X169200000Y-87920000D01*
X170660000Y-87920000D02*
X170660000Y-88850000D01*
X170660000Y-91080000D02*
X170660000Y-90150000D01*
X168800000Y-91440000D02*
X168320000Y-91440000D01*
X168560000Y-91110000D01*
X168800000Y-91440000D01*
G36*
X168800000Y-91440000D02*
G01*
X168320000Y-91440000D01*
X168560000Y-91110000D01*
X168800000Y-91440000D01*
G37*
X161960000Y-91180000D02*
X161160000Y-91180000D01*
X161960000Y-91180000D02*
X162760000Y-91180000D01*
X162760000Y-88020000D02*
X161300000Y-88020000D01*
X162760000Y-88020000D02*
X162760000Y-88950000D01*
X162760000Y-91180000D02*
X162760000Y-90250000D01*
X160900000Y-91540000D02*
X160420000Y-91540000D01*
X160660000Y-91210000D01*
X160900000Y-91540000D01*
G36*
X160900000Y-91540000D02*
G01*
X160420000Y-91540000D01*
X160660000Y-91210000D01*
X160900000Y-91540000D01*
G37*
%LPC*%
D13*
X180750000Y-87750000D03*
D14*
X142400000Y-86100000D03*
X144400000Y-86100000D03*
X146400001Y-86100000D03*
X159800000Y-86082600D03*
X161800000Y-86082600D03*
X163800001Y-86082600D03*
D13*
X134000000Y-57750000D03*
D14*
X168500000Y-86100000D03*
X170500000Y-86100000D03*
X172500001Y-86100000D03*
D15*
X179232600Y-66750000D03*
X179232600Y-64749999D03*
X143250000Y-59267400D03*
X141249999Y-59267400D03*
D13*
X181000000Y-57500000D03*
X133750000Y-87750000D03*
D14*
X151099999Y-86100000D03*
X153099999Y-86100000D03*
X155100000Y-86100000D03*
D16*
X173600000Y-59400000D03*
X171600001Y-59400000D03*
X169600000Y-59400000D03*
X167600002Y-59400000D03*
D17*
X149600000Y-85387500D03*
X149600000Y-87212500D03*
X158200000Y-85287500D03*
X158200000Y-87112500D03*
D18*
X150900000Y-90750000D03*
X150900000Y-88850000D03*
X153900000Y-89800000D03*
X142600000Y-90450000D03*
X142600000Y-88550000D03*
X145600000Y-89500000D03*
D17*
X140700000Y-84987500D03*
X140700000Y-86812500D03*
X166900000Y-85187500D03*
X166900000Y-87012500D03*
D18*
X168400000Y-90450000D03*
X168400000Y-88550000D03*
X171400000Y-89500000D03*
X160500000Y-90550000D03*
X160500000Y-88650000D03*
X163500000Y-89600000D03*
%LPD*%
M02*
