M48
; DRILL file {KiCad 9.0.0} date 2025-04-23T00:50:25-0400
; FORMAT={-:-/ absolute / metric / decimal}
; #@! TF.CreationDate,2025-04-23T00:50:25-04:00
; #@! TF.GenerationSoftware,Kicad,Pcbnew,9.0.0
; #@! TF.FileFunction,Plated,1,2,PTH
FMAT,2
METRIC
; #@! TA.AperFunction,Plated,PTH,ViaDrill
T1C0.300
; #@! TA.AperFunction,Plated,PTH,ComponentDrill
T2C0.711
; #@! TA.AperFunction,Plated,PTH,ComponentDrill
T3C0.762
; #@! TA.AperFunction,Plated,PTH,ComponentDrill
T4C0.813
; #@! TA.AperFunction,Plated,PTH,ComponentDrill
T5C4.500
%
G90
G05
T1
X144.3Y-79.8
X145.7Y-81.6
X147.8Y-71.7
X147.9Y-83.3
X148.2Y-56.8
X148.2Y-61.8
X149.25Y-59.5
X149.25Y-61.0
X149.6Y-62.0
X149.8Y-74.0
X150.6Y-79.8
X151.424Y-79.824
X152.265Y-79.832
X152.6Y-76.6
X153.073Y-79.873
X155.408Y-74.008
X156.1Y-81.6
X156.4Y-57.2
X157.6Y-83.4
X160.6Y-75.6
X161.6Y-75.0
X162.6Y-63.8
X164.437Y-74.763
X164.488Y-79.988
X165.5Y-71.0
X165.5Y-72.0
X165.6Y-74.8
X166.2Y-83.4
X166.4Y-81.6
X169.2Y-72.5
X169.3Y-77.2
X170.8Y-81.6
X171.0Y-74.5
X171.3Y-71.8
X174.6Y-83.4
T2
X142.4Y-86.1
X144.4Y-86.1
X146.4Y-86.1
X151.1Y-86.1
X153.1Y-86.1
X155.1Y-86.1
X159.8Y-86.083
X161.8Y-86.083
X163.8Y-86.083
X168.5Y-86.1
X170.5Y-86.1
X172.5Y-86.1
T3
X167.6Y-59.4
X169.6Y-59.4
X171.6Y-59.4
X173.6Y-59.4
T4
X141.25Y-59.267
X143.25Y-59.267
X179.233Y-64.75
X179.233Y-66.75
T5
X133.75Y-87.75
X134.0Y-57.75
X180.75Y-87.75
X181.0Y-57.5
M30
